<?xml version="1.0" encoding="UTF-8" standalone="no"?><!DOCTYPE svg PUBLIC "-//W3C//DTD SVG 1.1//EN" "http://www.w3.org/Graphics/SVG/1.1/DTD/svg11.dtd"><svg width="100%" height="100%" viewBox="0 0 1125 721" version="1.1" xmlns="http://www.w3.org/2000/svg" xmlns:xlink="http://www.w3.org/1999/xlink" xml:space="preserve" xmlns:serif="http://www.serif.com/" style="fill-rule:evenodd;clip-rule:evenodd;stroke-linejoin:round;stroke-miterlimit:2;"><rect id="v8s-redirected-it-dark" x="0.622" y="0.155" width="1124" height="720" style="fill:none;"/><g id="VanityURLs.link"><path d="M172.554,456.626l0.253,9.747l0.38,-0l3.797,-10l17.342,-32.911l17.594,-0l-38.733,63.923l-9.621,0l-12.405,-63.923l17.216,-0l4.177,33.164Z" style="fill:#0f766e;fill-rule:nonzero;"/><path d="M254.199,461.436c-0.676,3.207 -1.161,6.456 -1.456,9.747c-0.296,3.291 -0.443,6.413 -0.443,9.367c-0,1.181 0.021,2.299 0.063,3.354c0.042,1.055 0.106,2.047 0.19,2.975l-11.519,-0l-1.772,-10.886l-0.506,-0c-0.929,1.519 -2.131,3.017 -3.608,4.494c-1.477,1.476 -3.101,2.827 -4.873,4.05c-1.772,1.224 -3.65,2.194 -5.633,2.912c-1.983,0.717 -4.03,1.076 -6.139,1.076c-5.57,-0 -9.684,-1.815 -12.342,-5.443c-2.658,-3.629 -3.987,-8.481 -3.987,-14.557c-0,-6.161 0.78,-12.068 2.341,-17.722c1.562,-5.654 3.988,-10.632 7.279,-14.936c3.291,-4.304 7.447,-7.743 12.468,-10.317c5.021,-2.573 10.992,-3.86 17.911,-3.86c2.954,-0 6.182,0.274 9.684,0.822c3.502,0.549 6.898,1.287 10.19,2.216l-7.848,36.708Zm-29.747,14.051c1.519,-0 2.954,-0.317 4.304,-0.95c1.35,-0.633 2.595,-1.455 3.734,-2.468c1.139,-1.013 2.152,-2.11 3.038,-3.291c0.886,-1.182 1.666,-2.279 2.342,-3.291l6.329,-29.494c-0.929,-0.422 -2.005,-0.738 -3.228,-0.949c-1.224,-0.211 -2.426,-0.316 -3.608,-0.316c-3.038,-0 -5.738,0.907 -8.101,2.721c-2.363,1.814 -4.367,4.177 -6.013,7.089c-1.645,2.911 -2.89,6.202 -3.734,9.873c-0.844,3.671 -1.266,7.363 -1.266,11.076c0,2.7 0.444,5.042 1.33,7.025c0.886,1.983 2.51,2.975 4.873,2.975Z" style="fill:#0f766e;fill-rule:nonzero;"/><path d="M295.717,486.752l8.355,-39.24c0.506,-2.363 0.759,-4.43 0.759,-6.202c0,-1.857 -0.38,-3.312 -1.139,-4.367c-0.76,-1.055 -2.152,-1.583 -4.177,-1.583c-1.519,0 -3.038,0.38 -4.557,1.14c-1.519,0.759 -2.954,1.772 -4.304,3.038c-1.35,1.265 -2.616,2.679 -3.798,4.24c-1.181,1.561 -2.194,3.144 -3.037,4.747l-8.102,38.227l-15.569,0l13.417,-63.29l11.773,-0l-0.633,11.139l0.506,-0c1.097,-1.35 2.384,-2.785 3.861,-4.304c1.476,-1.519 3.185,-2.911 5.126,-4.177c1.941,-1.266 4.114,-2.321 6.519,-3.165c2.405,-0.843 5.127,-1.265 8.165,-1.265c3.797,-0 6.835,1.033 9.113,3.101c2.279,2.067 3.418,5.506 3.418,10.316c0,1.266 -0.063,2.616 -0.19,4.051c-0.126,1.434 -0.401,2.996 -0.823,4.683l-9.113,42.911l-15.57,0Z" style="fill:#0f766e;fill-rule:nonzero;"/><path d="M336.856,423.462l15.57,-0l-13.418,63.29l-15.57,0l13.418,-63.29Zm2.532,-17.975c-0,-2.785 0.907,-4.936 2.721,-6.455c1.814,-1.519 4.114,-2.279 6.899,-2.279c2.7,0 5,0.76 6.899,2.279c1.898,1.519 2.848,3.67 2.848,6.455c-0,2.701 -0.95,4.831 -2.848,6.393c-1.899,1.561 -4.199,2.341 -6.899,2.341c-2.785,0 -5.085,-0.78 -6.899,-2.341c-1.814,-1.562 -2.721,-3.692 -2.721,-6.393Z" style="fill:#0f766e;fill-rule:nonzero;"/><path d="M359.261,423.462l8.228,-0l2.531,-11.899l16.582,-4.683l-3.544,16.582l14.81,-0l-2.911,13.038l-14.684,-0l-6.202,28.607c-0.506,2.278 -0.76,4.135 -0.76,5.57c0,1.856 0.422,3.122 1.266,3.797c0.844,0.675 2.11,1.013 3.798,1.013c1.603,-0 3.059,-0.169 4.367,-0.507c1.308,-0.337 2.679,-0.886 4.114,-1.645l-0,11.645c-0.929,0.507 -2.047,0.992 -3.355,1.456c-1.308,0.464 -2.721,0.844 -4.24,1.139c-1.519,0.296 -3.08,0.528 -4.684,0.696c-1.603,0.169 -3.08,0.254 -4.43,0.254c-4.304,-0 -7.616,-0.992 -9.937,-2.975c-2.32,-1.983 -3.481,-5 -3.481,-9.051c0,-0.844 0.064,-1.73 0.19,-2.658c0.127,-0.928 0.274,-1.899 0.443,-2.911l7.342,-34.43l-8.481,-0l3.038,-13.038Z" style="fill:#0f766e;fill-rule:nonzero;"/><path d="M423.691,459.031l0.126,9.873l0.76,0l3.417,-9.999l17.216,-35.443l16.582,-0l-30.38,56.835c-2.531,4.725 -4.915,9.071 -7.152,13.038c-2.236,3.966 -4.493,7.384 -6.772,10.253c-2.278,2.869 -4.641,5.105 -7.088,6.708c-2.448,1.604 -5.064,2.406 -7.848,2.406c-3.713,-0 -6.498,-0.633 -8.355,-1.899l4.177,-12.405c0.507,0.253 1.034,0.422 1.583,0.506c0.548,0.085 1.076,0.127 1.582,0.127c2.025,-0 4.093,-0.971 6.203,-2.912c2.109,-1.941 4.219,-5.063 6.329,-9.367l-11.899,-63.29l17.848,-0l3.671,35.569Z" style="fill:#0f766e;fill-rule:nonzero;"/><path d="M527.108,398.146l15.442,-0l-12.025,57.214c-1.266,6.076 -2.911,11.203 -4.936,15.38c-2.026,4.177 -4.473,7.574 -7.342,10.19c-2.869,2.616 -6.245,4.493 -10.127,5.633c-3.881,1.139 -8.354,1.708 -13.417,1.708c-4.895,0 -9.03,-0.569 -12.405,-1.708c-3.376,-1.14 -6.139,-2.764 -8.291,-4.874c-2.152,-2.11 -3.713,-4.599 -4.684,-7.468c-0.97,-2.869 -1.455,-6.034 -1.455,-9.494c-0,-1.687 0.105,-3.417 0.316,-5.19c0.211,-1.772 0.527,-3.628 0.949,-5.569l11.899,-55.822l16.329,-0l-11.645,55.695c-0.676,3.207 -1.013,5.823 -1.013,7.848c-0,4.051 1.055,6.92 3.164,8.608c2.11,1.688 5.19,2.531 9.241,2.531c5.063,0 8.987,-1.476 11.772,-4.43c2.785,-2.953 4.894,-7.721 6.329,-14.304l11.899,-55.948Z" style="fill:#0f766e;fill-rule:nonzero;"/><path d="M555.968,399.032c4.051,-0.76 8.143,-1.308 12.278,-1.646c4.135,-0.337 7.848,-0.506 11.14,-0.506c3.881,-0 7.552,0.464 11.012,1.392c3.46,0.928 6.456,2.342 8.987,4.241c2.532,1.898 4.536,4.346 6.013,7.341c1.477,2.996 2.215,6.519 2.215,10.57c0,4.641 -0.696,8.671 -2.088,12.088c-1.393,3.418 -3.228,6.287 -5.507,8.608c-2.278,2.321 -4.873,4.135 -7.784,5.443c-2.912,1.308 -5.886,2.173 -8.924,2.595l4.936,3.924l12.279,33.67l-18.228,0l-12.152,-34.683l-8.734,-1.645l-7.595,36.328l-16.455,0l18.607,-87.72Zm7.975,39.62l6.708,-0c2.448,-0 4.853,-0.233 7.216,-0.697c2.362,-0.464 4.451,-1.308 6.265,-2.531c1.815,-1.224 3.291,-2.848 4.431,-4.874c1.139,-2.025 1.709,-4.599 1.709,-7.721c-0,-2.869 -0.971,-5.338 -2.912,-7.405c-1.941,-2.068 -5.063,-3.101 -9.367,-3.101c-1.688,-0 -3.27,0.063 -4.747,0.19c-1.476,0.126 -2.721,0.274 -3.734,0.443l-5.569,25.696Z" style="fill:#0f766e;fill-rule:nonzero;"/><path d="M663.309,486.752l-53.291,0l18.734,-88.606l16.456,-0l-15.57,73.163l36.835,0l-3.164,15.443Z" style="fill:#0f766e;fill-rule:nonzero;"/><path d="M673.689,471.942c1.687,0.929 3.86,1.751 6.518,2.469c2.659,0.717 5.465,1.076 8.418,1.076c2.954,-0 5.211,-0.57 6.772,-1.709c1.561,-1.139 2.384,-2.89 2.469,-5.253c-0,-1.688 -0.507,-3.144 -1.519,-4.367c-1.013,-1.224 -2.3,-2.384 -3.861,-3.481c-1.561,-1.097 -3.228,-2.216 -5,-3.355c-1.772,-1.139 -3.439,-2.447 -5,-3.924c-1.561,-1.477 -2.848,-3.228 -3.861,-5.253c-1.012,-2.025 -1.519,-4.472 -1.519,-7.342c0,-2.784 0.549,-5.358 1.646,-7.721c1.097,-2.363 2.637,-4.388 4.62,-6.076c1.983,-1.688 4.388,-2.996 7.215,-3.924c2.827,-0.928 6.013,-1.392 9.557,-1.392c4.894,-0 8.945,0.358 12.152,1.076c3.207,0.717 5.738,1.624 7.595,2.721l-4.304,11.899c-1.688,-0.76 -3.734,-1.393 -6.139,-1.899c-2.405,-0.506 -4.916,-0.759 -7.532,-0.759c-2.7,-0 -4.831,0.464 -6.392,1.392c-1.561,0.928 -2.342,2.405 -2.342,4.43c0,1.35 0.506,2.553 1.519,3.608c1.013,1.055 2.3,2.131 3.861,3.228c1.561,1.097 3.228,2.215 5,3.354c1.772,1.139 3.438,2.511 5,4.114c1.561,1.603 2.848,3.439 3.86,5.506c1.013,2.068 1.519,4.536 1.519,7.405c0,7.004 -2.278,12.215 -6.835,15.633c-4.557,3.418 -10.633,5.127 -18.228,5.127c-4.303,-0 -8.249,-0.401 -11.835,-1.203c-3.587,-0.802 -6.35,-1.793 -8.291,-2.975l4.937,-12.405Z" style="fill:#0f766e;fill-rule:nonzero;"/><path d="M723.182,478.398c-0,-2.954 0.928,-5.295 2.785,-7.025c1.856,-1.73 4.303,-2.595 7.341,-2.595c3.123,-0 5.612,0.865 7.469,2.595c1.856,1.73 2.784,4.071 2.784,7.025c0,2.954 -0.928,5.316 -2.784,7.089c-1.857,1.772 -4.346,2.658 -7.469,2.658c-3.038,-0 -5.485,-0.886 -7.341,-2.658c-1.857,-1.773 -2.785,-4.135 -2.785,-7.089Z" style="fill:#14b8a6;fill-rule:nonzero;"/><path d="M772.042,468.018c-0.506,2.448 -0.485,4.262 0.063,5.443c0.549,1.182 1.456,1.772 2.722,1.772c2.363,0 4.599,-0.464 6.709,-1.392l-0.38,11.266c-1.519,0.928 -3.713,1.688 -6.582,2.278c-2.869,0.591 -5.696,0.886 -8.481,0.886c-3.629,0 -6.393,-0.696 -8.291,-2.088c-1.899,-1.393 -2.848,-3.988 -2.848,-7.785c-0,-1.941 0.253,-4.177 0.759,-6.709l15.57,-73.543l15.569,-0l-14.81,69.872Z" style="fill:#0f766e;fill-rule:nonzero;"/><path d="M802.042,423.462l15.569,-0l-13.417,63.29l-15.57,0l13.418,-63.29Zm2.531,-17.975c0,-2.785 0.908,-4.936 2.722,-6.455c1.814,-1.519 4.114,-2.279 6.899,-2.279c2.7,0 5,0.76 6.898,2.279c1.899,1.519 2.848,3.67 2.848,6.455c0,2.701 -0.949,4.831 -2.848,6.393c-1.898,1.561 -4.198,2.341 -6.898,2.341c-2.785,0 -5.085,-0.78 -6.899,-2.341c-1.814,-1.562 -2.722,-3.692 -2.722,-6.393Z" style="fill:#0f766e;fill-rule:nonzero;"/><path d="M855.459,486.752l8.354,-39.24c0.507,-2.363 0.76,-4.43 0.76,-6.202c-0,-1.857 -0.38,-3.312 -1.139,-4.367c-0.76,-1.055 -2.152,-1.583 -4.177,-1.583c-1.519,0 -3.038,0.38 -4.557,1.14c-1.519,0.759 -2.954,1.772 -4.304,3.038c-1.35,1.265 -2.616,2.679 -3.798,4.24c-1.181,1.561 -2.194,3.144 -3.038,4.747l-8.101,38.227l-15.569,0l13.417,-63.29l11.772,-0l-0.632,11.139l0.506,-0c1.097,-1.35 2.384,-2.785 3.861,-4.304c1.476,-1.519 3.185,-2.911 5.126,-4.177c1.941,-1.266 4.114,-2.321 6.519,-3.165c2.405,-0.843 5.127,-1.265 8.165,-1.265c3.797,-0 6.835,1.033 9.113,3.101c2.279,2.067 3.418,5.506 3.418,10.316c0,1.266 -0.063,2.616 -0.19,4.051c-0.126,1.434 -0.401,2.996 -0.823,4.683l-9.113,42.911l-15.57,0Z" style="fill:#0f766e;fill-rule:nonzero;"/><path d="M911.914,460.55l-5.063,0l-5.443,26.202l-15.569,0l18.734,-88.606l15.569,-0l-11.139,52.278l4.683,-1.646l17.848,-25.316l17.342,-0l-18.861,25.443l-7.594,4.81l5.696,4.81l9.62,28.227l-16.709,0l-9.114,-26.202Z" style="fill:#0f766e;fill-rule:nonzero;"/></g><path id="path830" d="M728.923,69.517c-271.339,-0 -668.428,119.518 -668.428,319.253c0,137.925 152.237,262.602 465.293,262.602c257.899,-0 542.961,-104.728 542.961,-277.065c0,-160.934 -202.622,-216.48 -320.451,-222.265l0,55.333c131.402,6.919 287.748,71.408 280.512,175.984c-6.617,95.638 -163.935,220.478 -509.29,228.153c-219.779,4.884 -425.327,-95.402 -420.308,-213.762c4.78,-112.729 229.806,-266.226 620.501,-273.239c103.324,-1.854 170.113,20.212 194.594,30.972l13.082,-69.36c-0,0 -76.497,-16.606 -198.466,-16.606Z" style="fill:#14b8a6;fill-rule:nonzero;"/><g><path d="M251.955,310.643c-2.15,-0.763 -4.091,-1.144 -5.824,-1.144c-2.427,-0 -4.455,0.641 -6.084,1.924c-1.63,1.282 -2.722,2.929 -3.276,4.94l-0,33.592l-13.52,-0l-0,-52l10.504,-0l1.56,6.864l0.416,-0c1.178,-2.566 2.773,-4.542 4.784,-5.928c2.01,-1.387 4.368,-2.08 7.072,-2.08c1.802,-0 3.848,0.381 6.136,1.144l-1.768,12.688Z" style="fill:#fff;fill-rule:nonzero;"/><path d="M299.275,345.483c-2.08,1.664 -4.906,3.068 -8.476,4.212c-3.571,1.144 -7.367,1.716 -11.388,1.716c-8.39,-0 -14.526,-2.444 -18.408,-7.332c-3.883,-4.888 -5.824,-11.596 -5.824,-20.124c-0,-9.152 2.184,-16.016 6.552,-20.592c4.368,-4.576 10.504,-6.864 18.408,-6.864c2.634,-0 5.2,0.346 7.696,1.04c2.496,0.693 4.714,1.837 6.656,3.432c1.941,1.594 3.501,3.744 4.68,6.448c1.178,2.704 1.768,6.066 1.768,10.088c-0,1.456 -0.087,3.016 -0.26,4.68c-0.174,1.664 -0.434,3.397 -0.78,5.2l-31.2,-0c0.208,4.368 1.334,7.661 3.38,9.88c2.045,2.218 5.356,3.328 9.932,3.328c2.842,-0 5.39,-0.434 7.644,-1.3c2.253,-0.867 3.969,-1.751 5.148,-2.652l4.472,8.84Zm-19.344,-38.168c-3.536,-0 -6.154,1.057 -7.852,3.172c-1.699,2.114 -2.722,4.94 -3.068,8.476l19.344,-0c0.277,-3.744 -0.295,-6.622 -1.716,-8.632c-1.422,-2.011 -3.658,-3.016 -6.708,-3.016Z" style="fill:#fff;fill-rule:nonzero;"/><path d="M309.675,297.955l13.52,-0l-0,52l-13.52,-0l-0,-52Zm-1.976,-14.664c-0,-2.011 0.745,-3.727 2.236,-5.148c1.49,-1.422 3.553,-2.132 6.188,-2.132c2.634,-0 4.766,0.71 6.396,2.132c1.629,1.421 2.444,3.137 2.444,5.148c-0,2.01 -0.815,3.692 -2.444,5.044c-1.63,1.352 -3.762,2.028 -6.396,2.028c-2.635,-0 -4.698,-0.676 -6.188,-2.028c-1.491,-1.352 -2.236,-3.034 -2.236,-5.044Z" style="fill:#fff;fill-rule:nonzero;"/><path d="M366.147,349.955l-0,-29.536c-0,-4.23 -0.607,-7.28 -1.82,-9.152c-1.214,-1.872 -3.276,-2.808 -6.188,-2.808c-2.566,-0 -4.732,0.745 -6.5,2.236c-1.768,1.49 -3.034,3.345 -3.796,5.564l-0,33.696l-13.52,-0l-0,-52l10.712,-0l1.56,6.864l0.416,-0c1.594,-2.219 3.709,-4.16 6.344,-5.824c2.634,-1.664 6.032,-2.496 10.192,-2.496c2.565,-0 4.853,0.346 6.864,1.04c2.01,0.693 3.709,1.837 5.096,3.432c1.386,1.594 2.426,3.761 3.12,6.5c0.693,2.738 1.04,6.118 1.04,10.14l-0,32.344l-13.52,-0Z" style="fill:#fff;fill-rule:nonzero;"/><path d="M433.123,331.651c-0,2.912 0.034,5.824 0.104,8.736c0.069,2.912 0.381,6.136 0.936,9.672l-9.672,-0l-1.872,-6.76l-0.416,-0c-1.387,2.426 -3.38,4.385 -5.98,5.876c-2.6,1.49 -5.668,2.236 -9.204,2.236c-6.518,-0 -11.579,-2.15 -15.184,-6.448c-3.606,-4.299 -5.408,-11.024 -5.408,-20.176c-0,-8.875 2.01,-15.774 6.032,-20.696c4.021,-4.923 9.914,-7.384 17.68,-7.384c2.149,-0 3.917,0.121 5.304,0.364c1.386,0.242 2.773,0.641 4.16,1.196l-0,-21.112l13.52,-0l-0,54.496Zm-22.984,8.32c2.634,-0 4.714,-0.642 6.24,-1.924c1.525,-1.283 2.6,-3.138 3.224,-5.564l-0,-22.048c-0.971,-0.763 -2.046,-1.335 -3.224,-1.716c-1.179,-0.382 -2.704,-0.572 -4.576,-0.572c-3.814,-0 -6.674,1.282 -8.58,3.848c-1.907,2.565 -2.86,6.968 -2.86,13.208c-0,4.437 0.78,8.008 2.34,10.712c1.56,2.704 4.038,4.056 7.436,4.056Z" style="fill:#fff;fill-rule:nonzero;"/><path d="M444.147,297.955l13.52,-0l-0,52l-13.52,-0l-0,-52Zm-1.976,-14.664c-0,-2.011 0.745,-3.727 2.236,-5.148c1.49,-1.422 3.553,-2.132 6.188,-2.132c2.634,-0 4.766,0.71 6.396,2.132c1.629,1.421 2.444,3.137 2.444,5.148c-0,2.01 -0.815,3.692 -2.444,5.044c-1.63,1.352 -3.762,2.028 -6.396,2.028c-2.635,-0 -4.698,-0.676 -6.188,-2.028c-1.491,-1.352 -2.236,-3.034 -2.236,-5.044Z" style="fill:#fff;fill-rule:nonzero;"/><path d="M497.499,310.643c-2.15,-0.763 -4.091,-1.144 -5.824,-1.144c-2.427,-0 -4.455,0.641 -6.084,1.924c-1.63,1.282 -2.722,2.929 -3.276,4.94l-0,33.592l-13.52,-0l-0,-52l10.504,-0l1.56,6.864l0.416,-0c1.178,-2.566 2.773,-4.542 4.784,-5.928c2.01,-1.387 4.368,-2.08 7.072,-2.08c1.802,-0 3.848,0.381 6.136,1.144l-1.768,12.688Z" style="fill:#fff;fill-rule:nonzero;"/><path d="M504.467,297.955l13.52,-0l-0,52l-13.52,-0l-0,-52Zm-1.976,-14.664c-0,-2.011 0.745,-3.727 2.236,-5.148c1.49,-1.422 3.553,-2.132 6.188,-2.132c2.634,-0 4.766,0.71 6.396,2.132c1.629,1.421 2.444,3.137 2.444,5.148c-0,2.01 -0.815,3.692 -2.444,5.044c-1.63,1.352 -3.762,2.028 -6.396,2.028c-2.635,-0 -4.698,-0.676 -6.188,-2.028c-1.491,-1.352 -2.236,-3.034 -2.236,-5.044Z" style="fill:#fff;fill-rule:nonzero;"/><path d="M526.411,338.515l20.488,-24.648l5.304,-4.472l-25.792,-0l-0,-11.44l40.768,-0l-0,11.44l-20.28,25.064l-5.2,4.056l25.48,-0l-0,11.44l-40.768,-0l-0,-11.44Z" style="fill:#fff;fill-rule:nonzero;"/><path d="M571.963,338.515l20.488,-24.648l5.304,-4.472l-25.792,-0l-0,-11.44l40.768,-0l-0,11.44l-20.28,25.064l-5.2,4.056l25.48,-0l-0,11.44l-40.768,-0l-0,-11.44Z" style="fill:#fff;fill-rule:nonzero;"/><path d="M619.907,300.971c2.773,-1.248 6.066,-2.236 9.88,-2.964c3.813,-0.728 7.8,-1.092 11.96,-1.092c3.605,-0 6.621,0.433 9.048,1.3c2.426,0.866 4.35,2.097 5.772,3.692c1.421,1.594 2.426,3.501 3.016,5.72c0.589,2.218 0.884,4.714 0.884,7.488c-0,3.05 -0.104,6.118 -0.312,9.204c-0.208,3.085 -0.33,6.118 -0.364,9.1c-0.035,2.981 0.052,5.876 0.26,8.684c0.208,2.808 0.728,5.46 1.56,7.956l-11.024,-0l-2.184,-7.176l-0.52,-0c-1.387,2.149 -3.311,4.004 -5.772,5.564c-2.462,1.56 -5.634,2.34 -9.516,2.34c-2.427,-0 -4.611,-0.364 -6.552,-1.092c-1.942,-0.728 -3.606,-1.768 -4.992,-3.12c-1.387,-1.352 -2.462,-2.947 -3.224,-4.784c-0.763,-1.838 -1.144,-3.9 -1.144,-6.188c-0,-3.19 0.71,-5.876 2.132,-8.06c1.421,-2.184 3.466,-3.952 6.136,-5.304c2.669,-1.352 5.858,-2.288 9.568,-2.808c3.709,-0.52 7.852,-0.676 12.428,-0.468c0.485,-3.883 0.208,-6.674 -0.832,-8.372c-1.04,-1.699 -3.363,-2.548 -6.968,-2.548c-2.704,-0 -5.564,0.277 -8.58,0.832c-3.016,0.554 -5.495,1.282 -7.436,2.184l-3.224,-10.088Zm17.16,38.688c2.704,-0 4.853,-0.607 6.448,-1.82c1.594,-1.214 2.773,-2.514 3.536,-3.9l-0,-6.76c-2.15,-0.208 -4.212,-0.243 -6.188,-0.104c-1.976,0.138 -3.727,0.45 -5.252,0.936c-1.526,0.485 -2.739,1.178 -3.64,2.08c-0.902,0.901 -1.352,2.045 -1.352,3.432c-0,1.941 0.572,3.449 1.716,4.524c1.144,1.074 2.721,1.612 4.732,1.612Z" style="fill:#fff;fill-rule:nonzero;"/><path d="M664.315,297.955l7.176,-0l-0,-9.776l13.52,-3.848l-0,13.624l12.688,-0l-0,11.44l-12.688,-0l-0,19.968c-0,3.605 0.364,6.188 1.092,7.748c0.728,1.56 2.097,2.34 4.108,2.34c1.386,-0 2.582,-0.139 3.588,-0.416c1.005,-0.278 2.132,-0.694 3.38,-1.248l2.392,10.4c-1.872,0.901 -4.056,1.664 -6.552,2.288c-2.496,0.624 -5.027,0.936 -7.592,0.936c-4.784,-0 -8.303,-1.231 -10.556,-3.692c-2.254,-2.462 -3.38,-6.5 -3.38,-12.116l-0,-26.208l-7.176,-0l-0,-11.44Z" style="fill:#fff;fill-rule:nonzero;"/><path d="M700.923,323.955c-0,-8.806 2.149,-15.583 6.448,-20.332c4.298,-4.75 10.33,-7.124 18.096,-7.124c4.16,-0 7.765,0.658 10.816,1.976c3.05,1.317 5.581,3.172 7.592,5.564c2.01,2.392 3.518,5.286 4.524,8.684c1.005,3.397 1.508,7.141 1.508,11.232c-0,8.805 -2.132,15.582 -6.396,20.332c-4.264,4.749 -10.279,7.124 -18.044,7.124c-4.16,-0 -7.766,-0.659 -10.816,-1.976c-3.051,-1.318 -5.599,-3.172 -7.644,-5.564c-2.046,-2.392 -3.571,-5.287 -4.576,-8.684c-1.006,-3.398 -1.508,-7.142 -1.508,-11.232Zm13.936,-0c-0,2.288 0.208,4.402 0.624,6.344c0.416,1.941 1.04,3.64 1.872,5.096c0.832,1.456 1.924,2.582 3.276,3.38c1.352,0.797 2.964,1.196 4.836,1.196c3.536,-0 6.17,-1.283 7.904,-3.848c1.733,-2.566 2.6,-6.622 2.6,-12.168c-0,-4.784 -0.798,-8.65 -2.392,-11.596c-1.595,-2.947 -4.299,-4.42 -8.112,-4.42c-3.328,-0 -5.928,1.248 -7.8,3.744c-1.872,2.496 -2.808,6.586 -2.808,12.272Z" style="fill:#fff;fill-rule:nonzero;"/><path d="M825.619,331.651c-0,2.912 0.034,5.824 0.104,8.736c0.069,2.912 0.381,6.136 0.936,9.672l-9.672,-0l-1.872,-6.76l-0.416,-0c-1.387,2.426 -3.38,4.385 -5.98,5.876c-2.6,1.49 -5.668,2.236 -9.204,2.236c-6.518,-0 -11.579,-2.15 -15.184,-6.448c-3.606,-4.299 -5.408,-11.024 -5.408,-20.176c-0,-8.875 2.01,-15.774 6.032,-20.696c4.021,-4.923 9.914,-7.384 17.68,-7.384c2.149,-0 3.917,0.121 5.304,0.364c1.386,0.242 2.773,0.641 4.16,1.196l-0,-21.112l13.52,-0l-0,54.496Zm-22.984,8.32c2.634,-0 4.714,-0.642 6.24,-1.924c1.525,-1.283 2.6,-3.138 3.224,-5.564l-0,-22.048c-0.971,-0.763 -2.046,-1.335 -3.224,-1.716c-1.179,-0.382 -2.704,-0.572 -4.576,-0.572c-3.814,-0 -6.674,1.282 -8.58,3.848c-1.907,2.565 -2.86,6.968 -2.86,13.208c-0,4.437 0.78,8.008 2.34,10.712c1.56,2.704 4.038,4.056 7.436,4.056Z" style="fill:#fff;fill-rule:nonzero;"/><path d="M835.083,300.971c2.773,-1.248 6.066,-2.236 9.88,-2.964c3.813,-0.728 7.8,-1.092 11.96,-1.092c3.605,-0 6.621,0.433 9.048,1.3c2.426,0.866 4.35,2.097 5.772,3.692c1.421,1.594 2.426,3.501 3.016,5.72c0.589,2.218 0.884,4.714 0.884,7.488c-0,3.05 -0.104,6.118 -0.312,9.204c-0.208,3.085 -0.33,6.118 -0.364,9.1c-0.035,2.981 0.052,5.876 0.26,8.684c0.208,2.808 0.728,5.46 1.56,7.956l-11.024,-0l-2.184,-7.176l-0.52,-0c-1.387,2.149 -3.311,4.004 -5.772,5.564c-2.462,1.56 -5.634,2.34 -9.516,2.34c-2.427,-0 -4.611,-0.364 -6.552,-1.092c-1.942,-0.728 -3.606,-1.768 -4.992,-3.12c-1.387,-1.352 -2.462,-2.947 -3.224,-4.784c-0.763,-1.838 -1.144,-3.9 -1.144,-6.188c-0,-3.19 0.71,-5.876 2.132,-8.06c1.421,-2.184 3.466,-3.952 6.136,-5.304c2.669,-1.352 5.858,-2.288 9.568,-2.808c3.709,-0.52 7.852,-0.676 12.428,-0.468c0.485,-3.883 0.208,-6.674 -0.832,-8.372c-1.04,-1.699 -3.363,-2.548 -6.968,-2.548c-2.704,-0 -5.564,0.277 -8.58,0.832c-3.016,0.554 -5.495,1.282 -7.436,2.184l-3.224,-10.088Zm17.16,38.688c2.704,-0 4.853,-0.607 6.448,-1.82c1.594,-1.214 2.773,-2.514 3.536,-3.9l-0,-6.76c-2.15,-0.208 -4.212,-0.243 -6.188,-0.104c-1.976,0.138 -3.727,0.45 -5.252,0.936c-1.526,0.485 -2.739,1.178 -3.64,2.08c-0.902,0.901 -1.352,2.045 -1.352,3.432c-0,1.941 0.572,3.449 1.716,4.524c1.144,1.074 2.721,1.612 4.732,1.612Z" style="fill:#fff;fill-rule:nonzero;"/></g></svg>