<?xml version="1.0" encoding="UTF-8" standalone="no"?><!DOCTYPE svg PUBLIC "-//W3C//DTD SVG 1.1//EN" "http://www.w3.org/Graphics/SVG/1.1/DTD/svg11.dtd"><svg width="100%" height="100%" viewBox="0 0 1125 721" version="1.1" xmlns="http://www.w3.org/2000/svg" xmlns:xlink="http://www.w3.org/1999/xlink" xml:space="preserve" xmlns:serif="http://www.serif.com/" style="fill-rule:evenodd;clip-rule:evenodd;stroke-linejoin:round;stroke-miterlimit:2;"><rect id="v8s-redirected-en-dark" x="0.716" y="0.686" width="1124" height="720" style="fill:none;"/><g id="VanityURLs.link"><path d="M172.647,457.157l0.254,9.747l0.379,0l3.798,-10l17.341,-32.911l17.595,0l-38.734,63.924l-9.62,-0l-12.405,-63.924l17.215,0l4.177,33.164Z" style="fill:#0f766e;fill-rule:nonzero;"/><path d="M254.292,461.967c-0.675,3.207 -1.16,6.456 -1.455,9.747c-0.296,3.291 -0.443,6.414 -0.443,9.367c-0,1.182 0.021,2.3 0.063,3.355c0.042,1.054 0.105,2.046 0.19,2.974l-11.519,0l-1.772,-10.886l-0.507,0c-0.928,1.519 -2.13,3.017 -3.607,4.494c-1.477,1.477 -3.101,2.827 -4.874,4.05c-1.772,1.224 -3.649,2.195 -5.632,2.912c-1.984,0.717 -4.03,1.076 -6.14,1.076c-5.569,-0 -9.683,-1.815 -12.341,-5.443c-2.658,-3.629 -3.988,-8.481 -3.988,-14.557c0,-6.16 0.781,-12.067 2.342,-17.721c1.561,-5.654 3.987,-10.633 7.279,-14.937c3.291,-4.304 7.447,-7.743 12.468,-10.316c5.021,-2.574 10.991,-3.861 17.911,-3.861c2.954,-0 6.181,0.274 9.684,0.823c3.502,0.548 6.898,1.287 10.189,2.215l-7.848,36.708Zm-29.746,14.051c1.519,-0 2.953,-0.317 4.303,-0.949c1.351,-0.633 2.595,-1.456 3.735,-2.469c1.139,-1.012 2.151,-2.109 3.038,-3.291c0.886,-1.181 1.666,-2.278 2.341,-3.291l6.329,-29.493c-0.928,-0.422 -2.004,-0.739 -3.227,-0.95c-1.224,-0.211 -2.427,-0.316 -3.608,-0.316c-3.038,-0 -5.738,0.907 -8.101,2.721c-2.363,1.815 -4.367,4.177 -6.013,7.089c-1.645,2.911 -2.89,6.202 -3.734,9.873c-0.844,3.671 -1.266,7.363 -1.266,11.076c0,2.7 0.443,5.042 1.329,7.025c0.886,1.983 2.511,2.975 4.874,2.975Z" style="fill:#0f766e;fill-rule:nonzero;"/><path d="M295.811,487.284l8.354,-39.241c0.507,-2.362 0.76,-4.43 0.76,-6.202c-0,-1.857 -0.38,-3.312 -1.139,-4.367c-0.76,-1.055 -2.152,-1.582 -4.178,-1.582c-1.519,-0 -3.038,0.379 -4.557,1.139c-1.519,0.759 -2.953,1.772 -4.303,3.038c-1.351,1.266 -2.616,2.679 -3.798,4.24c-1.181,1.561 -2.194,3.144 -3.038,4.747l-8.101,38.228l-15.569,-0l13.417,-63.291l11.772,0l-0.633,11.139l0.507,0c1.097,-1.35 2.384,-2.785 3.86,-4.304c1.477,-1.519 3.186,-2.911 5.127,-4.177c1.941,-1.266 4.114,-2.32 6.519,-3.164c2.405,-0.844 5.126,-1.266 8.164,-1.266c3.798,-0 6.836,1.034 9.114,3.101c2.279,2.068 3.418,5.506 3.418,10.317c-0,1.265 -0.063,2.616 -0.19,4.05c-0.127,1.435 -0.401,2.996 -0.823,4.684l-9.114,42.911l-15.569,-0Z" style="fill:#0f766e;fill-rule:nonzero;"/><path d="M336.95,423.993l15.569,0l-13.417,63.291l-15.57,-0l13.418,-63.291Zm2.531,-17.974c0,-2.785 0.908,-4.937 2.722,-6.456c1.814,-1.519 4.114,-2.279 6.899,-2.279c2.7,0 5,0.76 6.898,2.279c1.899,1.519 2.848,3.671 2.848,6.456c0,2.7 -0.949,4.831 -2.848,6.392c-1.898,1.561 -4.198,2.342 -6.898,2.342c-2.785,-0 -5.085,-0.781 -6.899,-2.342c-1.814,-1.561 -2.722,-3.692 -2.722,-6.392Z" style="fill:#0f766e;fill-rule:nonzero;"/><path d="M359.355,423.993l8.227,0l2.532,-11.899l16.582,-4.683l-3.544,16.582l14.81,0l-2.911,13.038l-14.684,-0l-6.202,28.607c-0.507,2.279 -0.76,4.135 -0.76,5.57c0,1.856 0.422,3.122 1.266,3.797c0.844,0.675 2.11,1.013 3.797,1.013c1.604,-0 3.059,-0.169 4.367,-0.506c1.308,-0.338 2.68,-0.886 4.114,-1.646l0,11.645c-0.928,0.507 -2.046,0.992 -3.354,1.456c-1.308,0.464 -2.722,0.844 -4.241,1.139c-1.518,0.296 -3.08,0.528 -4.683,0.697c-1.603,0.168 -3.08,0.253 -4.43,0.253c-4.304,-0 -7.616,-0.992 -9.937,-2.975c-2.321,-1.983 -3.481,-5 -3.481,-9.05c0,-0.844 0.063,-1.73 0.19,-2.659c0.126,-0.928 0.274,-1.898 0.443,-2.911l7.342,-34.43l-8.481,-0l3.038,-13.038Z" style="fill:#0f766e;fill-rule:nonzero;"/><path d="M423.784,459.562l0.127,9.874l0.76,-0l3.417,-10l17.215,-35.443l16.582,0l-30.379,56.835c-2.532,4.726 -4.916,9.072 -7.152,13.038c-2.236,3.966 -4.494,7.384 -6.772,10.253c-2.278,2.869 -4.641,5.105 -7.089,6.709c-2.447,1.603 -5.063,2.405 -7.848,2.405c-3.713,-0 -6.497,-0.633 -8.354,-1.899l4.177,-12.405c0.507,0.253 1.034,0.422 1.583,0.506c0.548,0.085 1.075,0.127 1.582,0.127c2.025,0 4.093,-0.97 6.202,-2.911c2.11,-1.941 4.22,-5.064 6.329,-9.367l-11.898,-63.291l17.848,0l3.67,35.569Z" style="fill:#0f766e;fill-rule:nonzero;"/><path d="M527.201,398.677l15.443,-0l-12.025,57.214c-1.266,6.076 -2.911,11.203 -4.937,15.38c-2.025,4.177 -4.472,7.574 -7.341,10.19c-2.87,2.616 -6.245,4.494 -10.127,5.633c-3.882,1.139 -8.354,1.709 -13.417,1.709c-4.895,-0 -9.03,-0.57 -12.405,-1.709c-3.376,-1.139 -6.14,-2.764 -8.292,-4.874c-2.151,-2.109 -3.713,-4.599 -4.683,-7.468c-0.97,-2.869 -1.456,-6.034 -1.456,-9.493c0,-1.688 0.106,-3.418 0.317,-5.19c0.211,-1.772 0.527,-3.629 0.949,-5.57l11.899,-55.822l16.329,-0l-11.646,55.696c-0.675,3.206 -1.012,5.822 -1.012,7.848c-0,4.05 1.054,6.919 3.164,8.607c2.11,1.688 5.19,2.532 9.241,2.532c5.063,-0 8.987,-1.477 11.772,-4.431c2.784,-2.953 4.894,-7.721 6.329,-14.303l11.898,-55.949Z" style="fill:#0f766e;fill-rule:nonzero;"/><path d="M556.062,399.563c4.05,-0.76 8.143,-1.308 12.278,-1.646c4.135,-0.337 7.848,-0.506 11.139,-0.506c3.882,-0 7.553,0.464 11.013,1.392c3.46,0.929 6.456,2.342 8.987,4.241c2.532,1.899 4.536,4.346 6.013,7.342c1.477,2.995 2.215,6.518 2.215,10.569c-0,4.641 -0.696,8.671 -2.089,12.089c-1.392,3.417 -3.227,6.286 -5.506,8.607c-2.278,2.321 -4.873,4.135 -7.785,5.443c-2.911,1.308 -5.886,2.173 -8.924,2.595l4.937,3.924l12.278,33.671l-18.227,-0l-12.152,-34.684l-8.734,-1.645l-7.595,36.329l-16.456,-0l18.608,-87.721Zm7.974,39.62l6.709,-0c2.447,-0 4.853,-0.232 7.215,-0.696c2.363,-0.465 4.452,-1.308 6.266,-2.532c1.814,-1.224 3.291,-2.848 4.43,-4.873c1.14,-2.026 1.709,-4.6 1.709,-7.722c0,-2.869 -0.97,-5.337 -2.911,-7.405c-1.941,-2.067 -5.063,-3.101 -9.367,-3.101c-1.688,-0 -3.27,0.063 -4.747,0.19c-1.477,0.126 -2.721,0.274 -3.734,0.443l-5.57,25.696Z" style="fill:#0f766e;fill-rule:nonzero;"/><path d="M663.403,487.284l-53.291,-0l18.734,-88.607l16.456,-0l-15.57,73.164l36.835,-0l-3.164,15.443Z" style="fill:#0f766e;fill-rule:nonzero;"/><path d="M673.782,472.474c1.688,0.928 3.861,1.751 6.519,2.468c2.658,0.717 5.464,1.076 8.418,1.076c2.953,-0 5.211,-0.57 6.772,-1.709c1.561,-1.139 2.384,-2.89 2.468,-5.253c0,-1.688 -0.506,-3.143 -1.519,-4.367c-1.012,-1.224 -2.299,-2.384 -3.86,-3.481c-1.562,-1.097 -3.228,-2.215 -5,-3.354c-1.772,-1.14 -3.439,-2.448 -5,-3.925c-1.561,-1.476 -2.848,-3.227 -3.861,-5.253c-1.013,-2.025 -1.519,-4.472 -1.519,-7.341c-0,-2.785 0.549,-5.359 1.646,-7.722c1.097,-2.363 2.637,-4.388 4.62,-6.076c1.983,-1.687 4.388,-2.995 7.215,-3.924c2.827,-0.928 6.012,-1.392 9.557,-1.392c4.894,-0 8.945,0.359 12.152,1.076c3.206,0.717 5.738,1.624 7.594,2.721l-4.303,11.899c-1.688,-0.76 -3.734,-1.392 -6.14,-1.899c-2.405,-0.506 -4.915,-0.759 -7.531,-0.759c-2.7,-0 -4.831,0.464 -6.392,1.392c-1.562,0.928 -2.342,2.405 -2.342,4.431c-0,1.35 0.506,2.552 1.519,3.607c1.012,1.055 2.299,2.131 3.86,3.228c1.562,1.097 3.228,2.215 5,3.354c1.773,1.14 3.439,2.511 5,4.114c1.562,1.604 2.848,3.439 3.861,5.506c1.013,2.068 1.519,4.536 1.519,7.405c0,7.005 -2.278,12.216 -6.835,15.633c-4.557,3.418 -10.633,5.127 -18.228,5.127c-4.304,-0 -8.249,-0.401 -11.835,-1.203c-3.587,-0.801 -6.35,-1.793 -8.291,-2.974l4.936,-12.405Z" style="fill:#0f766e;fill-rule:nonzero;"/><path d="M723.276,478.929c-0,-2.953 0.928,-5.295 2.784,-7.025c1.857,-1.73 4.304,-2.595 7.342,-2.595c3.122,0 5.612,0.865 7.468,2.595c1.857,1.73 2.785,4.072 2.785,7.025c0,2.954 -0.928,5.317 -2.785,7.089c-1.856,1.772 -4.346,2.658 -7.468,2.658c-3.038,0 -5.485,-0.886 -7.342,-2.658c-1.856,-1.772 -2.784,-4.135 -2.784,-7.089Z" style="fill:#14b8a6;fill-rule:nonzero;"/><path d="M772.136,468.55c-0.506,2.447 -0.485,4.261 0.063,5.443c0.549,1.181 1.456,1.772 2.722,1.772c2.363,-0 4.599,-0.464 6.708,-1.393l-0.379,11.266c-1.519,0.928 -3.713,1.688 -6.583,2.279c-2.869,0.59 -5.696,0.886 -8.48,0.886c-3.629,-0 -6.393,-0.697 -8.292,-2.089c-1.898,-1.392 -2.848,-3.987 -2.848,-7.785c0,-1.941 0.254,-4.177 0.76,-6.709l15.569,-73.543l15.57,-0l-14.81,69.873Z" style="fill:#0f766e;fill-rule:nonzero;"/><path d="M802.136,423.993l15.569,0l-13.418,63.291l-15.569,-0l13.418,-63.291Zm2.531,-17.974c0,-2.785 0.907,-4.937 2.722,-6.456c1.814,-1.519 4.114,-2.279 6.898,-2.279c2.701,0 5,0.76 6.899,2.279c1.899,1.519 2.848,3.671 2.848,6.456c0,2.7 -0.949,4.831 -2.848,6.392c-1.899,1.561 -4.198,2.342 -6.899,2.342c-2.784,-0 -5.084,-0.781 -6.898,-2.342c-1.815,-1.561 -2.722,-3.692 -2.722,-6.392Z" style="fill:#0f766e;fill-rule:nonzero;"/><path d="M855.553,487.284l8.354,-39.241c0.507,-2.362 0.76,-4.43 0.76,-6.202c-0,-1.857 -0.38,-3.312 -1.14,-4.367c-0.759,-1.055 -2.151,-1.582 -4.177,-1.582c-1.519,-0 -3.038,0.379 -4.557,1.139c-1.519,0.759 -2.953,1.772 -4.303,3.038c-1.351,1.266 -2.616,2.679 -3.798,4.24c-1.181,1.561 -2.194,3.144 -3.038,4.747l-8.101,38.228l-15.569,-0l13.417,-63.291l11.772,0l-0.633,11.139l0.507,0c1.097,-1.35 2.384,-2.785 3.86,-4.304c1.477,-1.519 3.186,-2.911 5.127,-4.177c1.941,-1.266 4.114,-2.32 6.519,-3.164c2.405,-0.844 5.126,-1.266 8.164,-1.266c3.798,-0 6.836,1.034 9.114,3.101c2.279,2.068 3.418,5.506 3.418,10.317c-0,1.265 -0.063,2.616 -0.19,4.05c-0.127,1.435 -0.401,2.996 -0.823,4.684l-9.114,42.911l-15.569,-0Z" style="fill:#0f766e;fill-rule:nonzero;"/><path d="M912.008,461.081l-5.063,0l-5.443,26.203l-15.57,-0l18.734,-88.607l15.57,-0l-11.139,52.278l4.683,-1.646l17.848,-25.316l17.342,0l-18.861,25.443l-7.595,4.81l5.696,4.81l9.621,28.228l-16.709,-0l-9.114,-26.203Z" style="fill:#0f766e;fill-rule:nonzero;"/></g><path id="path830" d="M729.017,70.048c-271.339,-0 -668.428,119.518 -668.428,319.253c0,137.925 152.237,262.602 465.292,262.602c257.9,-0 542.962,-104.728 542.962,-277.065c0,-160.934 -202.622,-216.48 -320.451,-222.265l-0,55.333c131.402,6.92 287.748,71.409 280.512,175.984c-6.618,95.638 -163.935,220.478 -509.291,228.153c-219.779,4.884 -425.326,-95.402 -420.307,-213.762c4.779,-112.729 229.806,-266.226 620.501,-273.239c103.324,-1.854 170.113,20.212 194.594,30.972l13.082,-69.36c-0,0 -76.497,-16.606 -198.466,-16.606Z" style="fill:#14b8a6;fill-rule:nonzero;"/><g><path d="M302.644,311.174c-2.149,-0.763 -4.09,-1.144 -5.824,-1.144c-2.426,-0 -4.454,0.641 -6.084,1.924c-1.629,1.283 -2.721,2.929 -3.276,4.94l0,33.592l-13.52,-0l0,-52l10.504,-0l1.56,6.864l0.416,-0c1.179,-2.565 2.774,-4.541 4.784,-5.928c2.011,-1.387 4.368,-2.08 7.072,-2.08c1.803,-0 3.848,0.381 6.136,1.144l-1.768,12.688Z" style="fill:#fff;fill-rule:nonzero;"/><path d="M349.964,346.014c-2.08,1.664 -4.905,3.068 -8.476,4.212c-3.57,1.144 -7.366,1.716 -11.388,1.716c-8.389,-0 -14.525,-2.444 -18.408,-7.332c-3.882,-4.888 -5.824,-11.596 -5.824,-20.124c0,-9.152 2.184,-16.016 6.552,-20.592c4.368,-4.576 10.504,-6.864 18.408,-6.864c2.635,-0 5.2,0.347 7.696,1.04c2.496,0.693 4.715,1.837 6.656,3.432c1.942,1.595 3.502,3.744 4.68,6.448c1.179,2.704 1.768,6.067 1.768,10.088c0,1.456 -0.086,3.016 -0.26,4.68c-0.173,1.664 -0.433,3.397 -0.78,5.2l-31.2,-0c0.208,4.368 1.335,7.661 3.38,9.88c2.046,2.219 5.356,3.328 9.932,3.328c2.843,-0 5.391,-0.433 7.644,-1.3c2.254,-0.867 3.97,-1.751 5.148,-2.652l4.472,8.84Zm-19.344,-38.168c-3.536,-0 -6.153,1.057 -7.852,3.172c-1.698,2.115 -2.721,4.94 -3.068,8.476l19.344,-0c0.278,-3.744 -0.294,-6.621 -1.716,-8.632c-1.421,-2.011 -3.657,-3.016 -6.708,-3.016Z" style="fill:#fff;fill-rule:nonzero;"/><path d="M403.316,332.182c0,2.912 0.035,5.824 0.104,8.736c0.07,2.912 0.382,6.136 0.936,9.672l-9.672,-0l-1.872,-6.76l-0.416,-0c-1.386,2.427 -3.38,4.385 -5.98,5.876c-2.6,1.491 -5.668,2.236 -9.204,2.236c-6.517,-0 -11.578,-2.149 -15.184,-6.448c-3.605,-4.299 -5.408,-11.024 -5.408,-20.176c0,-8.875 2.011,-15.773 6.032,-20.696c4.022,-4.923 9.915,-7.384 17.68,-7.384c2.15,-0 3.918,0.121 5.304,0.364c1.387,0.243 2.774,0.641 4.16,1.196l0,-21.112l13.52,-0l0,54.496Zm-22.984,8.32c2.635,-0 4.715,-0.641 6.24,-1.924c1.526,-1.283 2.6,-3.137 3.224,-5.564l0,-22.048c-0.97,-0.763 -2.045,-1.335 -3.224,-1.716c-1.178,-0.381 -2.704,-0.572 -4.576,-0.572c-3.813,-0 -6.673,1.283 -8.58,3.848c-1.906,2.565 -2.86,6.968 -2.86,13.208c0,4.437 0.78,8.008 2.34,10.712c1.56,2.704 4.039,4.056 7.436,4.056Z" style="fill:#fff;fill-rule:nonzero;"/><path d="M414.34,298.486l13.52,-0l0,52l-13.52,-0l0,-52Zm-1.976,-14.664c0,-2.011 0.746,-3.727 2.236,-5.148c1.491,-1.421 3.554,-2.132 6.188,-2.132c2.635,-0 4.767,0.711 6.396,2.132c1.63,1.421 2.444,3.137 2.444,5.148c0,2.011 -0.814,3.692 -2.444,5.044c-1.629,1.352 -3.761,2.028 -6.396,2.028c-2.634,-0 -4.697,-0.676 -6.188,-2.028c-1.49,-1.352 -2.236,-3.033 -2.236,-5.044Z" style="fill:#fff;fill-rule:nonzero;"/><path d="M467.692,311.174c-2.149,-0.763 -4.09,-1.144 -5.824,-1.144c-2.426,-0 -4.454,0.641 -6.084,1.924c-1.629,1.283 -2.721,2.929 -3.276,4.94l0,33.592l-13.52,-0l0,-52l10.504,-0l1.56,6.864l0.416,-0c1.179,-2.565 2.774,-4.541 4.784,-5.928c2.011,-1.387 4.368,-2.08 7.072,-2.08c1.803,-0 3.848,0.381 6.136,1.144l-1.768,12.688Z" style="fill:#fff;fill-rule:nonzero;"/><path d="M515.012,346.014c-2.08,1.664 -4.905,3.068 -8.476,4.212c-3.57,1.144 -7.366,1.716 -11.388,1.716c-8.389,-0 -14.525,-2.444 -18.408,-7.332c-3.882,-4.888 -5.824,-11.596 -5.824,-20.124c0,-9.152 2.184,-16.016 6.552,-20.592c4.368,-4.576 10.504,-6.864 18.408,-6.864c2.635,-0 5.2,0.347 7.696,1.04c2.496,0.693 4.715,1.837 6.656,3.432c1.942,1.595 3.502,3.744 4.68,6.448c1.179,2.704 1.768,6.067 1.768,10.088c0,1.456 -0.086,3.016 -0.26,4.68c-0.173,1.664 -0.433,3.397 -0.78,5.2l-31.2,-0c0.208,4.368 1.335,7.661 3.38,9.88c2.046,2.219 5.356,3.328 9.932,3.328c2.843,-0 5.391,-0.433 7.644,-1.3c2.254,-0.867 3.97,-1.751 5.148,-2.652l4.472,8.84Zm-19.344,-38.168c-3.536,-0 -6.153,1.057 -7.852,3.172c-1.698,2.115 -2.721,4.94 -3.068,8.476l19.344,-0c0.278,-3.744 -0.294,-6.621 -1.716,-8.632c-1.421,-2.011 -3.657,-3.016 -6.708,-3.016Z" style="fill:#fff;fill-rule:nonzero;"/><path d="M560.46,347.262c-2.08,1.525 -4.593,2.687 -7.54,3.484c-2.946,0.797 -5.98,1.196 -9.1,1.196c-4.16,-0 -7.678,-0.659 -10.556,-1.976c-2.877,-1.317 -5.217,-3.172 -7.02,-5.564c-1.802,-2.392 -3.102,-5.287 -3.9,-8.684c-0.797,-3.397 -1.196,-7.141 -1.196,-11.232c0,-8.805 1.976,-15.583 5.928,-20.332c3.952,-4.749 9.707,-7.124 17.264,-7.124c3.814,-0 6.882,0.312 9.204,0.936c2.323,0.624 4.42,1.421 6.292,2.392l-3.224,11.024c-1.594,-0.763 -3.172,-1.352 -4.732,-1.768c-1.56,-0.416 -3.345,-0.624 -5.356,-0.624c-3.744,-0 -6.586,1.231 -8.528,3.692c-1.941,2.461 -2.912,6.396 -2.912,11.804c0,2.219 0.243,4.264 0.728,6.136c0.486,1.872 1.214,3.501 2.184,4.888c0.971,1.387 2.236,2.479 3.796,3.276c1.56,0.797 3.38,1.196 5.46,1.196c2.288,-0 4.23,-0.295 5.824,-0.884c1.595,-0.589 3.016,-1.3 4.264,-2.132l3.12,10.296Z" style="fill:#fff;fill-rule:nonzero;"/><path d="M561.188,298.486l7.176,-0l0,-9.776l13.52,-3.848l0,13.624l12.688,-0l0,11.44l-12.688,-0l0,19.968c0,3.605 0.364,6.188 1.092,7.748c0.728,1.56 2.098,2.34 4.108,2.34c1.387,-0 2.583,-0.139 3.588,-0.416c1.006,-0.277 2.132,-0.693 3.38,-1.248l2.392,10.4c-1.872,0.901 -4.056,1.664 -6.552,2.288c-2.496,0.624 -5.026,0.936 -7.592,0.936c-4.784,-0 -8.302,-1.231 -10.556,-3.692c-2.253,-2.461 -3.38,-6.5 -3.38,-12.116l0,-26.208l-7.176,-0l0,-11.44Z" style="fill:#fff;fill-rule:nonzero;"/><path d="M641.892,346.014c-2.08,1.664 -4.905,3.068 -8.476,4.212c-3.57,1.144 -7.366,1.716 -11.388,1.716c-8.389,-0 -14.525,-2.444 -18.408,-7.332c-3.882,-4.888 -5.824,-11.596 -5.824,-20.124c0,-9.152 2.184,-16.016 6.552,-20.592c4.368,-4.576 10.504,-6.864 18.408,-6.864c2.635,-0 5.2,0.347 7.696,1.04c2.496,0.693 4.715,1.837 6.656,3.432c1.942,1.595 3.502,3.744 4.68,6.448c1.179,2.704 1.768,6.067 1.768,10.088c0,1.456 -0.086,3.016 -0.26,4.68c-0.173,1.664 -0.433,3.397 -0.78,5.2l-31.2,-0c0.208,4.368 1.335,7.661 3.38,9.88c2.046,2.219 5.356,3.328 9.932,3.328c2.843,-0 5.391,-0.433 7.644,-1.3c2.254,-0.867 3.97,-1.751 5.148,-2.652l4.472,8.84Zm-19.344,-38.168c-3.536,-0 -6.153,1.057 -7.852,3.172c-1.698,2.115 -2.721,4.94 -3.068,8.476l19.344,-0c0.278,-3.744 -0.294,-6.621 -1.716,-8.632c-1.421,-2.011 -3.657,-3.016 -6.708,-3.016Z" style="fill:#fff;fill-rule:nonzero;"/><path d="M695.244,332.182c0,2.912 0.035,5.824 0.104,8.736c0.07,2.912 0.382,6.136 0.936,9.672l-9.672,-0l-1.872,-6.76l-0.416,-0c-1.386,2.427 -3.38,4.385 -5.98,5.876c-2.6,1.491 -5.668,2.236 -9.204,2.236c-6.517,-0 -11.578,-2.149 -15.184,-6.448c-3.605,-4.299 -5.408,-11.024 -5.408,-20.176c0,-8.875 2.011,-15.773 6.032,-20.696c4.022,-4.923 9.915,-7.384 17.68,-7.384c2.15,-0 3.918,0.121 5.304,0.364c1.387,0.243 2.774,0.641 4.16,1.196l0,-21.112l13.52,-0l0,54.496Zm-22.984,8.32c2.635,-0 4.715,-0.641 6.24,-1.924c1.526,-1.283 2.6,-3.137 3.224,-5.564l0,-22.048c-0.97,-0.763 -2.045,-1.335 -3.224,-1.716c-1.178,-0.381 -2.704,-0.572 -4.576,-0.572c-3.813,-0 -6.673,1.283 -8.58,3.848c-1.906,2.565 -2.86,6.968 -2.86,13.208c0,4.437 0.78,8.008 2.34,10.712c1.56,2.704 4.039,4.056 7.436,4.056Z" style="fill:#fff;fill-rule:nonzero;"/><path d="M729.252,277.686l13.52,-0l0,24.96l0.416,-0c1.456,-1.664 3.328,-2.981 5.616,-3.952c2.288,-0.971 4.819,-1.456 7.592,-1.456c6.24,-0 11.007,2.132 14.3,6.396c3.294,4.264 4.94,10.764 4.94,19.5c0,9.36 -2.305,16.467 -6.916,21.32c-4.61,4.853 -10.937,7.28 -18.98,7.28c-4.437,-0 -8.493,-0.364 -12.168,-1.092c-3.674,-0.728 -6.448,-1.543 -8.32,-2.444l0,-70.512Zm23.192,30.992c-2.496,-0 -4.524,0.641 -6.084,1.924c-1.56,1.283 -2.756,3.137 -3.588,5.564l0,22.672c1.11,0.555 2.306,0.936 3.588,1.144c1.283,0.208 2.652,0.312 4.108,0.312c3.675,-0 6.466,-1.335 8.372,-4.004c1.907,-2.669 2.86,-6.916 2.86,-12.74c0,-9.915 -3.085,-14.872 -9.256,-14.872Z" style="fill:#fff;fill-rule:nonzero;"/><path d="M800.596,327.71l1.872,8.112l0.624,-0l1.352,-8.216l7.904,-29.12l13.936,-0l-15.808,46.904c-1.317,3.883 -2.582,7.436 -3.796,10.66c-1.213,3.224 -2.548,6.015 -4.004,8.372c-1.456,2.357 -3.068,4.177 -4.836,5.46c-1.768,1.283 -3.865,1.924 -6.292,1.924c-3.605,-0 -6.482,-0.589 -8.632,-1.768l2.496,-10.816c1.04,0.416 2.08,0.624 3.12,0.624c1.595,-0 3.138,-0.676 4.628,-2.028c1.491,-1.352 2.618,-3.796 3.38,-7.332l-21.736,-52l16.224,-0l9.568,29.224Z" style="fill:#fff;fill-rule:nonzero;"/></g></svg>