<?xml version="1.0" encoding="UTF-8" standalone="no"?><!DOCTYPE svg PUBLIC "-//W3C//DTD SVG 1.1//EN" "http://www.w3.org/Graphics/SVG/1.1/DTD/svg11.dtd"><svg width="100%" height="100%" viewBox="0 0 1125 721" version="1.1" xmlns="http://www.w3.org/2000/svg" xmlns:xlink="http://www.w3.org/1999/xlink" xml:space="preserve" xmlns:serif="http://www.serif.com/" style="fill-rule:evenodd;clip-rule:evenodd;stroke-linejoin:round;stroke-miterlimit:2;"><rect id="vanityURLs-link-redirected-es-dark-9" serif:id="vanityURLs-link redirected-es-dark 9" x="0.904" y="0.28" width="1124" height="720" style="fill:none;"/><g id="VanityURLs.link"><path d="M172.835,456.751l0.253,9.747l0.38,-0l3.797,-10l17.342,-32.911l17.595,-0l-38.734,63.923l-9.62,0l-12.405,-63.923l17.215,-0l4.177,33.164Z" style="fill:#0f766e;fill-rule:nonzero;"/><path d="M254.48,461.561c-0.675,3.207 -1.161,6.456 -1.456,9.747c-0.295,3.291 -0.443,6.413 -0.443,9.367c0,1.181 0.021,2.299 0.063,3.354c0.043,1.055 0.106,2.047 0.19,2.975l-11.519,-0l-1.772,-10.886l-0.506,-0c-0.928,1.519 -2.131,3.017 -3.608,4.494c-1.476,1.476 -3.101,2.827 -4.873,4.05c-1.772,1.224 -3.65,2.194 -5.633,2.912c-1.983,0.717 -4.029,1.076 -6.139,1.076c-5.57,-0 -9.684,-1.815 -12.342,-5.443c-2.658,-3.629 -3.987,-8.481 -3.987,-14.557c-0,-6.161 0.781,-12.068 2.342,-17.722c1.561,-5.654 3.987,-10.632 7.278,-14.936c3.291,-4.304 7.447,-7.743 12.468,-10.317c5.021,-2.573 10.992,-3.86 17.912,-3.86c2.953,-0 6.181,0.274 9.683,0.822c3.502,0.549 6.899,1.287 10.19,2.216l-7.848,36.708Zm-29.747,14.051c1.519,-0 2.954,-0.317 4.304,-0.95c1.35,-0.633 2.595,-1.455 3.734,-2.468c1.139,-1.013 2.152,-2.11 3.038,-3.291c0.886,-1.182 1.667,-2.279 2.342,-3.291l6.329,-29.494c-0.928,-0.422 -2.004,-0.738 -3.228,-0.949c-1.224,-0.211 -2.426,-0.316 -3.608,-0.316c-3.037,-0 -5.738,0.907 -8.101,2.721c-2.363,1.814 -4.367,4.177 -6.012,7.089c-1.646,2.911 -2.891,6.202 -3.734,9.873c-0.844,3.671 -1.266,7.363 -1.266,11.076c-0,2.7 0.443,5.042 1.329,7.025c0.886,1.983 2.51,2.975 4.873,2.975Z" style="fill:#0f766e;fill-rule:nonzero;"/><path d="M295.998,486.877l8.355,-39.24c0.506,-2.363 0.759,-4.43 0.759,-6.202c0,-1.857 -0.379,-3.312 -1.139,-4.367c-0.759,-1.055 -2.152,-1.583 -4.177,-1.583c-1.519,0 -3.038,0.38 -4.557,1.14c-1.519,0.759 -2.954,1.772 -4.304,3.038c-1.35,1.265 -2.616,2.679 -3.797,4.24c-1.182,1.561 -2.194,3.144 -3.038,4.747l-8.101,38.227l-15.57,0l13.418,-63.29l11.772,-0l-0.633,11.139l0.506,-0c1.097,-1.35 2.384,-2.785 3.861,-4.304c1.477,-1.519 3.186,-2.911 5.126,-4.177c1.941,-1.266 4.114,-2.321 6.519,-3.165c2.405,-0.843 5.127,-1.265 8.165,-1.265c3.797,-0 6.835,1.033 9.114,3.101c2.278,2.067 3.417,5.506 3.417,10.316c0,1.266 -0.063,2.616 -0.189,4.051c-0.127,1.434 -0.401,2.996 -0.823,4.683l-9.114,42.911l-15.57,0Z" style="fill:#0f766e;fill-rule:nonzero;"/><path d="M337.137,423.587l15.57,-0l-13.418,63.29l-15.569,0l13.417,-63.29Zm2.532,-17.975c-0,-2.785 0.907,-4.936 2.721,-6.455c1.815,-1.519 4.114,-2.279 6.899,-2.279c2.7,0 5,0.76 6.899,2.279c1.898,1.519 2.848,3.67 2.848,6.455c-0,2.701 -0.95,4.831 -2.848,6.393c-1.899,1.561 -4.199,2.341 -6.899,2.341c-2.785,0 -5.084,-0.78 -6.899,-2.341c-1.814,-1.562 -2.721,-3.692 -2.721,-6.393Z" style="fill:#0f766e;fill-rule:nonzero;"/><path d="M359.542,423.587l8.228,-0l2.532,-11.899l16.582,-4.683l-3.545,16.582l14.81,-0l-2.911,13.038l-14.683,-0l-6.203,28.607c-0.506,2.278 -0.759,4.135 -0.759,5.57c-0,1.856 0.422,3.122 1.265,3.797c0.844,0.675 2.11,1.013 3.798,1.013c1.603,-0 3.059,-0.169 4.367,-0.507c1.308,-0.337 2.679,-0.886 4.114,-1.645l-0,11.645c-0.928,0.507 -2.047,0.992 -3.355,1.456c-1.308,0.464 -2.721,0.844 -4.24,1.139c-1.519,0.296 -3.08,0.528 -4.684,0.696c-1.603,0.169 -3.08,0.254 -4.43,0.254c-4.304,-0 -7.616,-0.992 -9.936,-2.975c-2.321,-1.983 -3.481,-5 -3.481,-9.051c-0,-0.844 0.063,-1.73 0.189,-2.658c0.127,-0.928 0.275,-1.899 0.443,-2.911l7.342,-34.43l-8.481,-0l3.038,-13.038Z" style="fill:#0f766e;fill-rule:nonzero;"/><path d="M423.972,459.156l0.127,9.873l0.759,0l3.418,-9.999l17.215,-35.443l16.582,-0l-30.38,56.835c-2.531,4.725 -4.915,9.071 -7.151,13.038c-2.237,3.966 -4.494,7.384 -6.772,10.253c-2.279,2.869 -4.642,5.105 -7.089,6.708c-2.447,1.604 -5.063,2.406 -7.848,2.406c-3.713,-0 -6.498,-0.633 -8.354,-1.899l4.177,-12.405c0.506,0.253 1.033,0.422 1.582,0.506c0.549,0.085 1.076,0.127 1.582,0.127c2.026,-0 4.093,-0.971 6.203,-2.912c2.109,-1.941 4.219,-5.063 6.329,-9.367l-11.899,-63.29l17.848,-0l3.671,35.569Z" style="fill:#0f766e;fill-rule:nonzero;"/><path d="M527.389,398.271l15.443,-0l-12.026,57.214c-1.265,6.076 -2.911,11.203 -4.936,15.38c-2.025,4.177 -4.473,7.574 -7.342,10.19c-2.869,2.616 -6.245,4.493 -10.126,5.633c-3.882,1.139 -8.355,1.708 -13.418,1.708c-4.894,0 -9.029,-0.569 -12.405,-1.708c-3.375,-1.14 -6.139,-2.764 -8.291,-4.874c-2.152,-2.11 -3.713,-4.599 -4.684,-7.468c-0.97,-2.869 -1.455,-6.034 -1.455,-9.494c-0,-1.687 0.105,-3.417 0.316,-5.19c0.211,-1.772 0.528,-3.628 0.95,-5.569l11.898,-55.822l16.329,-0l-11.645,55.695c-0.675,3.207 -1.013,5.823 -1.013,7.848c0,4.051 1.055,6.92 3.165,8.608c2.109,1.688 5.189,2.531 9.24,2.531c5.063,0 8.987,-1.476 11.772,-4.43c2.785,-2.953 4.895,-7.721 6.329,-14.304l11.899,-55.948Z" style="fill:#0f766e;fill-rule:nonzero;"/><path d="M556.249,399.157c4.051,-0.76 8.144,-1.308 12.279,-1.646c4.135,-0.337 7.848,-0.506 11.139,-0.506c3.882,-0 7.553,0.464 11.012,1.392c3.46,0.928 6.456,2.342 8.988,4.241c2.531,1.898 4.535,4.346 6.012,7.341c1.477,2.996 2.215,6.519 2.215,10.57c0,4.641 -0.696,8.671 -2.088,12.088c-1.393,3.418 -3.228,6.287 -5.506,8.608c-2.279,2.321 -4.874,4.135 -7.785,5.443c-2.912,1.308 -5.886,2.173 -8.924,2.595l4.937,3.924l12.278,33.67l-18.228,0l-12.152,-34.683l-8.734,-1.645l-7.595,36.328l-16.455,0l18.607,-87.72Zm7.975,39.62l6.709,-0c2.447,-0 4.852,-0.233 7.215,-0.697c2.363,-0.464 4.451,-1.308 6.266,-2.531c1.814,-1.224 3.291,-2.848 4.43,-4.874c1.139,-2.025 1.709,-4.599 1.709,-7.721c-0,-2.869 -0.971,-5.338 -2.912,-7.405c-1.94,-2.068 -5.063,-3.101 -9.367,-3.101c-1.687,-0 -3.27,0.063 -4.746,0.19c-1.477,0.126 -2.722,0.274 -3.735,0.443l-5.569,25.696Z" style="fill:#0f766e;fill-rule:nonzero;"/><path d="M663.59,486.877l-53.291,0l18.734,-88.606l16.456,-0l-15.569,73.163l36.835,0l-3.165,15.443Z" style="fill:#0f766e;fill-rule:nonzero;"/><path d="M673.97,472.067c1.688,0.929 3.861,1.751 6.519,2.469c2.658,0.717 5.464,1.076 8.417,1.076c2.954,-0 5.211,-0.57 6.772,-1.709c1.562,-1.139 2.384,-2.89 2.469,-5.253c-0,-1.688 -0.507,-3.144 -1.519,-4.367c-1.013,-1.224 -2.3,-2.384 -3.861,-3.481c-1.561,-1.097 -3.228,-2.216 -5,-3.355c-1.772,-1.139 -3.439,-2.447 -5,-3.924c-1.561,-1.477 -2.848,-3.228 -3.861,-5.253c-1.012,-2.025 -1.519,-4.472 -1.519,-7.342c0,-2.784 0.549,-5.358 1.646,-7.721c1.097,-2.363 2.637,-4.388 4.62,-6.076c1.983,-1.688 4.388,-2.996 7.215,-3.924c2.827,-0.928 6.013,-1.392 9.557,-1.392c4.895,-0 8.945,0.358 12.152,1.076c3.207,0.717 5.738,1.624 7.595,2.721l-4.304,11.899c-1.688,-0.76 -3.734,-1.393 -6.139,-1.899c-2.405,-0.506 -4.916,-0.759 -7.532,-0.759c-2.7,-0 -4.831,0.464 -6.392,1.392c-1.561,0.928 -2.342,2.405 -2.342,4.43c0,1.35 0.507,2.553 1.519,3.608c1.013,1.055 2.3,2.131 3.861,3.228c1.561,1.097 3.228,2.215 5,3.354c1.772,1.139 3.439,2.511 5,4.114c1.561,1.603 2.848,3.439 3.861,5.506c1.012,2.068 1.519,4.536 1.519,7.405c-0,7.004 -2.279,12.215 -6.836,15.633c-4.557,3.418 -10.633,5.127 -18.227,5.127c-4.304,-0 -8.249,-0.401 -11.836,-1.203c-3.586,-0.802 -6.35,-1.793 -8.291,-2.975l4.937,-12.405Z" style="fill:#0f766e;fill-rule:nonzero;"/><path d="M723.463,478.523c0,-2.954 0.928,-5.295 2.785,-7.025c1.856,-1.73 4.304,-2.595 7.342,-2.595c3.122,-0 5.611,0.865 7.468,2.595c1.856,1.73 2.785,4.071 2.785,7.025c-0,2.954 -0.929,5.316 -2.785,7.089c-1.857,1.772 -4.346,2.658 -7.468,2.658c-3.038,-0 -5.486,-0.886 -7.342,-2.658c-1.857,-1.773 -2.785,-4.135 -2.785,-7.089Z" style="fill:#14b8a6;fill-rule:nonzero;"/><path d="M772.323,468.143c-0.506,2.448 -0.485,4.262 0.064,5.443c0.548,1.182 1.455,1.772 2.721,1.772c2.363,0 4.599,-0.464 6.709,-1.392l-0.38,11.266c-1.519,0.928 -3.713,1.688 -6.582,2.278c-2.869,0.591 -5.696,0.886 -8.481,0.886c-3.629,0 -6.392,-0.696 -8.291,-2.088c-1.899,-1.393 -2.848,-3.988 -2.848,-7.785c-0,-1.941 0.253,-4.177 0.759,-6.709l15.57,-73.543l15.569,-0l-14.81,69.872Z" style="fill:#0f766e;fill-rule:nonzero;"/><path d="M802.323,423.587l15.57,-0l-13.418,63.29l-15.569,0l13.417,-63.29Zm2.532,-17.975c-0,-2.785 0.907,-4.936 2.721,-6.455c1.815,-1.519 4.114,-2.279 6.899,-2.279c2.7,0 5,0.76 6.899,2.279c1.898,1.519 2.848,3.67 2.848,6.455c-0,2.701 -0.95,4.831 -2.848,6.393c-1.899,1.561 -4.199,2.341 -6.899,2.341c-2.785,0 -5.084,-0.78 -6.899,-2.341c-1.814,-1.562 -2.721,-3.692 -2.721,-6.393Z" style="fill:#0f766e;fill-rule:nonzero;"/><path d="M855.74,486.877l8.355,-39.24c0.506,-2.363 0.759,-4.43 0.759,-6.202c0,-1.857 -0.38,-3.312 -1.139,-4.367c-0.76,-1.055 -2.152,-1.583 -4.177,-1.583c-1.519,0 -3.038,0.38 -4.557,1.14c-1.519,0.759 -2.954,1.772 -4.304,3.038c-1.35,1.265 -2.616,2.679 -3.797,4.24c-1.182,1.561 -2.194,3.144 -3.038,4.747l-8.101,38.227l-15.57,0l13.418,-63.29l11.772,-0l-0.633,11.139l0.506,-0c1.097,-1.35 2.384,-2.785 3.861,-4.304c1.477,-1.519 3.185,-2.911 5.126,-4.177c1.941,-1.266 4.114,-2.321 6.519,-3.165c2.405,-0.843 5.127,-1.265 8.165,-1.265c3.797,-0 6.835,1.033 9.114,3.101c2.278,2.067 3.417,5.506 3.417,10.316c0,1.266 -0.063,2.616 -0.19,4.051c-0.126,1.434 -0.4,2.996 -0.822,4.683l-9.114,42.911l-15.57,0Z" style="fill:#0f766e;fill-rule:nonzero;"/><path d="M912.196,460.675l-5.064,0l-5.443,26.202l-15.569,0l18.734,-88.606l15.569,-0l-11.139,52.278l4.684,-1.646l17.848,-25.316l17.341,-0l-18.86,25.443l-7.595,4.81l5.696,4.81l9.62,28.227l-16.709,0l-9.113,-26.202Z" style="fill:#0f766e;fill-rule:nonzero;"/></g><path id="path830" d="M729.205,69.642c-271.34,-0 -668.428,119.518 -668.428,319.253c-0,137.925 152.236,262.602 465.292,262.602c257.899,-0 542.962,-104.728 542.962,-277.065c-0,-160.934 -202.623,-216.48 -320.452,-222.265l0,55.333c131.403,6.919 287.749,71.408 280.512,175.984c-6.617,95.638 -163.935,220.478 -509.29,228.153c-219.779,4.884 -425.326,-95.402 -420.308,-213.762c4.78,-112.729 229.806,-266.226 620.501,-273.239c103.325,-1.854 170.113,20.212 194.594,30.972l13.082,-69.36c0,0 -76.496,-16.606 -198.465,-16.606Z" style="fill:#14b8a6;fill-rule:nonzero;"/><g><path d="M291.392,310.768c-2.149,-0.763 -4.091,-1.144 -5.824,-1.144c-2.427,-0 -4.455,0.641 -6.084,1.924c-1.629,1.282 -2.721,2.929 -3.276,4.94l-0,33.592l-13.52,-0l-0,-52l10.504,-0l1.56,6.864l0.416,-0c1.179,-2.566 2.773,-4.542 4.784,-5.928c2.011,-1.387 4.368,-2.08 7.072,-2.08c1.803,-0 3.848,0.381 6.136,1.144l-1.768,12.688Z" style="fill:#fff;fill-rule:nonzero;"/><path d="M338.712,345.608c-2.08,1.664 -4.905,3.068 -8.476,4.212c-3.571,1.144 -7.367,1.716 -11.388,1.716c-8.389,-0 -14.525,-2.444 -18.408,-7.332c-3.883,-4.888 -5.824,-11.596 -5.824,-20.124c-0,-9.152 2.184,-16.016 6.552,-20.592c4.368,-4.576 10.504,-6.864 18.408,-6.864c2.635,-0 5.2,0.346 7.696,1.04c2.496,0.693 4.715,1.837 6.656,3.432c1.941,1.594 3.501,3.744 4.68,6.448c1.179,2.704 1.768,6.066 1.768,10.088c-0,1.456 -0.087,3.016 -0.26,4.68c-0.173,1.664 -0.433,3.397 -0.78,5.2l-31.2,-0c0.208,4.368 1.335,7.661 3.38,9.88c2.045,2.218 5.356,3.328 9.932,3.328c2.843,-0 5.391,-0.434 7.644,-1.3c2.253,-0.867 3.969,-1.751 5.148,-2.652l4.472,8.84Zm-19.344,-38.168c-3.536,-0 -6.153,1.057 -7.852,3.172c-1.699,2.114 -2.721,4.94 -3.068,8.476l19.344,-0c0.277,-3.744 -0.295,-6.622 -1.716,-8.632c-1.421,-2.011 -3.657,-3.016 -6.708,-3.016Z" style="fill:#fff;fill-rule:nonzero;"/><path d="M392.064,331.776c-0,2.912 0.035,5.824 0.104,8.736c0.069,2.912 0.381,6.136 0.936,9.672l-9.672,-0l-1.872,-6.76l-0.416,-0c-1.387,2.426 -3.38,4.385 -5.98,5.876c-2.6,1.49 -5.668,2.236 -9.204,2.236c-6.517,-0 -11.579,-2.15 -15.184,-6.448c-3.605,-4.299 -5.408,-11.024 -5.408,-20.176c-0,-8.875 2.011,-15.774 6.032,-20.696c4.021,-4.923 9.915,-7.384 17.68,-7.384c2.149,-0 3.917,0.121 5.304,0.364c1.387,0.242 2.773,0.641 4.16,1.196l-0,-21.112l13.52,-0l-0,54.496Zm-22.984,8.32c2.635,-0 4.715,-0.642 6.24,-1.924c1.525,-1.283 2.6,-3.138 3.224,-5.564l-0,-22.048c-0.971,-0.763 -2.045,-1.335 -3.224,-1.716c-1.179,-0.382 -2.704,-0.572 -4.576,-0.572c-3.813,-0 -6.673,1.282 -8.58,3.848c-1.907,2.565 -2.86,6.968 -2.86,13.208c-0,4.437 0.78,8.008 2.34,10.712c1.56,2.704 4.039,4.056 7.436,4.056Z" style="fill:#fff;fill-rule:nonzero;"/><path d="M403.088,298.08l13.52,-0l-0,52l-13.52,-0l-0,-52Zm-1.976,-14.664c-0,-2.011 0.745,-3.727 2.236,-5.148c1.491,-1.422 3.553,-2.132 6.188,-2.132c2.635,-0 4.767,0.71 6.396,2.132c1.629,1.421 2.444,3.137 2.444,5.148c-0,2.01 -0.815,3.692 -2.444,5.044c-1.629,1.352 -3.761,2.028 -6.396,2.028c-2.635,-0 -4.697,-0.676 -6.188,-2.028c-1.491,-1.352 -2.236,-3.034 -2.236,-5.044Z" style="fill:#fff;fill-rule:nonzero;"/><path d="M456.44,310.768c-2.149,-0.763 -4.091,-1.144 -5.824,-1.144c-2.427,-0 -4.455,0.641 -6.084,1.924c-1.629,1.282 -2.721,2.929 -3.276,4.94l-0,33.592l-13.52,-0l-0,-52l10.504,-0l1.56,6.864l0.416,-0c1.179,-2.566 2.773,-4.542 4.784,-5.928c2.011,-1.387 4.368,-2.08 7.072,-2.08c1.803,-0 3.848,0.381 6.136,1.144l-1.768,12.688Z" style="fill:#fff;fill-rule:nonzero;"/><path d="M463.408,298.08l13.52,-0l-0,52l-13.52,-0l-0,-52Zm-1.976,-14.664c-0,-2.011 0.745,-3.727 2.236,-5.148c1.491,-1.422 3.553,-2.132 6.188,-2.132c2.635,-0 4.767,0.71 6.396,2.132c1.629,1.421 2.444,3.137 2.444,5.148c-0,2.01 -0.815,3.692 -2.444,5.044c-1.629,1.352 -3.761,2.028 -6.396,2.028c-2.635,-0 -4.697,-0.676 -6.188,-2.028c-1.491,-1.352 -2.236,-3.034 -2.236,-5.044Z" style="fill:#fff;fill-rule:nonzero;"/><path d="M532.048,350.08c-0,7.557 -2.045,13.121 -6.136,16.692c-4.091,3.57 -9.811,5.356 -17.16,5.356c-4.992,-0 -8.927,-0.347 -11.804,-1.04c-2.877,-0.694 -5.044,-1.422 -6.5,-2.184l2.808,-10.712c1.595,0.624 3.449,1.248 5.564,1.872c2.115,0.624 4.732,0.936 7.852,0.936c4.715,-0 7.921,-1.023 9.62,-3.068c1.699,-2.046 2.548,-4.906 2.548,-8.58l-0,-3.328l-0.416,-0c-2.427,3.258 -6.725,4.888 -12.896,4.888c-6.725,-0 -11.735,-2.08 -15.028,-6.24c-3.293,-4.16 -4.94,-10.678 -4.94,-19.552c-0,-9.291 2.219,-16.328 6.656,-21.112c4.437,-4.784 10.885,-7.176 19.344,-7.176c4.437,-0 8.407,0.312 11.908,0.936c3.501,0.624 6.361,1.352 8.58,2.184l-0,50.128Zm-22.88,-9.984c2.635,-0 4.663,-0.59 6.084,-1.768c1.421,-1.179 2.513,-2.947 3.276,-5.304l-0,-23.4c-2.149,-0.902 -4.819,-1.352 -8.008,-1.352c-3.467,-0 -6.171,1.3 -8.112,3.9c-1.941,2.6 -2.912,6.742 -2.912,12.428c-0,5.061 0.832,8.909 2.496,11.544c1.664,2.634 4.056,3.952 7.176,3.952Z" style="fill:#fff;fill-rule:nonzero;"/><path d="M542.968,298.08l13.52,-0l-0,52l-13.52,-0l-0,-52Zm-1.976,-14.664c-0,-2.011 0.745,-3.727 2.236,-5.148c1.491,-1.422 3.553,-2.132 6.188,-2.132c2.635,-0 4.767,0.71 6.396,2.132c1.629,1.421 2.444,3.137 2.444,5.148c-0,2.01 -0.815,3.692 -2.444,5.044c-1.629,1.352 -3.761,2.028 -6.396,2.028c-2.635,-0 -4.697,-0.676 -6.188,-2.028c-1.491,-1.352 -2.236,-3.034 -2.236,-5.044Z" style="fill:#fff;fill-rule:nonzero;"/><path d="M611.816,331.776c-0,2.912 0.035,5.824 0.104,8.736c0.069,2.912 0.381,6.136 0.936,9.672l-9.672,-0l-1.872,-6.76l-0.416,-0c-1.387,2.426 -3.38,4.385 -5.98,5.876c-2.6,1.49 -5.668,2.236 -9.204,2.236c-6.517,-0 -11.579,-2.15 -15.184,-6.448c-3.605,-4.299 -5.408,-11.024 -5.408,-20.176c-0,-8.875 2.011,-15.774 6.032,-20.696c4.021,-4.923 9.915,-7.384 17.68,-7.384c2.149,-0 3.917,0.121 5.304,0.364c1.387,0.242 2.773,0.641 4.16,1.196l-0,-21.112l13.52,-0l-0,54.496Zm-22.984,8.32c2.635,-0 4.715,-0.642 6.24,-1.924c1.525,-1.283 2.6,-3.138 3.224,-5.564l-0,-22.048c-0.971,-0.763 -2.045,-1.335 -3.224,-1.716c-1.179,-0.382 -2.704,-0.572 -4.576,-0.572c-3.813,-0 -6.673,1.282 -8.58,3.848c-1.907,2.565 -2.86,6.968 -2.86,13.208c-0,4.437 0.78,8.008 2.34,10.712c1.56,2.704 4.039,4.056 7.436,4.056Z" style="fill:#fff;fill-rule:nonzero;"/><path d="M619.096,324.08c-0,-8.806 2.149,-15.583 6.448,-20.332c4.299,-4.75 10.331,-7.124 18.096,-7.124c4.16,-0 7.765,0.658 10.816,1.976c3.051,1.317 5.581,3.172 7.592,5.564c2.011,2.392 3.519,5.286 4.524,8.684c1.005,3.397 1.508,7.141 1.508,11.232c-0,8.805 -2.132,15.582 -6.396,20.332c-4.264,4.749 -10.279,7.124 -18.044,7.124c-4.16,-0 -7.765,-0.659 -10.816,-1.976c-3.051,-1.318 -5.599,-3.172 -7.644,-5.564c-2.045,-2.392 -3.571,-5.287 -4.576,-8.684c-1.005,-3.398 -1.508,-7.142 -1.508,-11.232Zm13.936,-0c-0,2.288 0.208,4.402 0.624,6.344c0.416,1.941 1.04,3.64 1.872,5.096c0.832,1.456 1.924,2.582 3.276,3.38c1.352,0.797 2.964,1.196 4.836,1.196c3.536,-0 6.171,-1.283 7.904,-3.848c1.733,-2.566 2.6,-6.622 2.6,-12.168c-0,-4.784 -0.797,-8.65 -2.392,-11.596c-1.595,-2.947 -4.299,-4.42 -8.112,-4.42c-3.328,-0 -5.928,1.248 -7.8,3.744c-1.872,2.496 -2.808,6.586 -2.808,12.272Z" style="fill:#fff;fill-rule:nonzero;"/><path d="M699.592,298.08l9.88,-0l1.56,6.24l0.416,-0c1.803,-2.635 3.935,-4.576 6.396,-5.824c2.461,-1.248 5.46,-1.872 8.996,-1.872c6.517,-0 11.405,2.062 14.664,6.188c3.259,4.125 4.888,10.764 4.888,19.916c-0,4.437 -0.52,8.441 -1.56,12.012c-1.04,3.57 -2.583,6.604 -4.628,9.1c-2.045,2.496 -4.541,4.402 -7.488,5.72c-2.947,1.317 -6.327,1.976 -10.14,1.976c-2.149,-0 -3.917,-0.156 -5.304,-0.468c-1.387,-0.312 -2.773,-0.815 -4.16,-1.508l-0,21.32l-13.52,-0l-0,-72.8Zm23.192,9.984c-2.635,-0 -4.697,0.658 -6.188,1.976c-1.491,1.317 -2.652,3.293 -3.484,5.928l-0,21.632c0.971,0.762 2.028,1.369 3.172,1.82c1.144,0.45 2.652,0.676 4.524,0.676c3.883,-0 6.795,-1.37 8.736,-4.108c1.941,-2.739 2.912,-7.263 2.912,-13.572c-0,-4.576 -0.763,-8.112 -2.288,-10.608c-1.525,-2.496 -3.987,-3.744 -7.384,-3.744Z" style="fill:#fff;fill-rule:nonzero;"/><path d="M751.176,324.08c-0,-8.806 2.149,-15.583 6.448,-20.332c4.299,-4.75 10.331,-7.124 18.096,-7.124c4.16,-0 7.765,0.658 10.816,1.976c3.051,1.317 5.581,3.172 7.592,5.564c2.011,2.392 3.519,5.286 4.524,8.684c1.005,3.397 1.508,7.141 1.508,11.232c-0,8.805 -2.132,15.582 -6.396,20.332c-4.264,4.749 -10.279,7.124 -18.044,7.124c-4.16,-0 -7.765,-0.659 -10.816,-1.976c-3.051,-1.318 -5.599,-3.172 -7.644,-5.564c-2.045,-2.392 -3.571,-5.287 -4.576,-8.684c-1.005,-3.398 -1.508,-7.142 -1.508,-11.232Zm13.936,-0c-0,2.288 0.208,4.402 0.624,6.344c0.416,1.941 1.04,3.64 1.872,5.096c0.832,1.456 1.924,2.582 3.276,3.38c1.352,0.797 2.964,1.196 4.836,1.196c3.536,-0 6.171,-1.283 7.904,-3.848c1.733,-2.566 2.6,-6.622 2.6,-12.168c-0,-4.784 -0.797,-8.65 -2.392,-11.596c-1.595,-2.947 -4.299,-4.42 -8.112,-4.42c-3.328,-0 -5.928,1.248 -7.8,3.744c-1.872,2.496 -2.808,6.586 -2.808,12.272Z" style="fill:#fff;fill-rule:nonzero;"/><path d="M836.144,310.768c-2.149,-0.763 -4.091,-1.144 -5.824,-1.144c-2.427,-0 -4.455,0.641 -6.084,1.924c-1.629,1.282 -2.721,2.929 -3.276,4.94l-0,33.592l-13.52,-0l-0,-52l10.504,-0l1.56,6.864l0.416,-0c1.179,-2.566 2.773,-4.542 4.784,-5.928c2.011,-1.387 4.368,-2.08 7.072,-2.08c1.803,-0 3.848,0.381 6.136,1.144l-1.768,12.688Z" style="fill:#fff;fill-rule:nonzero;"/></g></svg>