<?xml version="1.0" encoding="UTF-8" standalone="no"?><!DOCTYPE svg PUBLIC "-//W3C//DTD SVG 1.1//EN" "http://www.w3.org/Graphics/SVG/1.1/DTD/svg11.dtd"><svg width="100%" height="100%" viewBox="0 0 1125 721" version="1.1" xmlns="http://www.w3.org/2000/svg" xmlns:xlink="http://www.w3.org/1999/xlink" xml:space="preserve" xmlns:serif="http://www.serif.com/" style="fill-rule:evenodd;clip-rule:evenodd;stroke-linejoin:round;stroke-miterlimit:2;"><rect id="vanityURLs-link-redirected-de-9" serif:id="vanityURLs-link redirected-de-9" x="0.935" y="0.873" width="1124" height="720" style="fill:none;"/><g id="VanityURLs.link"><path d="M175.083,457.345l0.253,9.747l0.38,-0l3.797,-10l17.342,-32.911l17.595,-0l-38.734,63.923l-9.62,0l-12.405,-63.923l17.215,-0l4.177,33.164Z" style="fill:#0f766e;fill-rule:nonzero;"/><path d="M256.728,462.155c-0.675,3.207 -1.161,6.456 -1.456,9.747c-0.295,3.291 -0.443,6.413 -0.443,9.367c0,1.181 0.021,2.299 0.063,3.354c0.043,1.055 0.106,2.046 0.19,2.975l-11.519,-0l-1.772,-10.886l-0.506,-0c-0.928,1.519 -2.131,3.017 -3.608,4.493c-1.476,1.477 -3.101,2.827 -4.873,4.051c-1.772,1.224 -3.65,2.194 -5.633,2.911c-1.983,0.718 -4.029,1.076 -6.139,1.076c-5.57,0 -9.684,-1.814 -12.342,-5.443c-2.658,-3.628 -3.987,-8.481 -3.987,-14.557c-0,-6.16 0.78,-12.067 2.342,-17.721c1.561,-5.654 3.987,-10.633 7.278,-14.936c3.291,-4.304 7.447,-7.743 12.468,-10.317c5.021,-2.574 10.992,-3.861 17.912,-3.861c2.953,0 6.181,0.275 9.683,0.823c3.502,0.549 6.899,1.287 10.19,2.215l-7.848,36.709Zm-29.747,14.05c1.519,0 2.954,-0.316 4.304,-0.949c1.35,-0.633 2.595,-1.456 3.734,-2.468c1.139,-1.013 2.152,-2.11 3.038,-3.291c0.886,-1.182 1.667,-2.279 2.342,-3.292l6.329,-29.493c-0.928,-0.422 -2.004,-0.738 -3.228,-0.949c-1.224,-0.211 -2.426,-0.317 -3.608,-0.317c-3.037,0 -5.738,0.907 -8.101,2.722c-2.363,1.814 -4.367,4.177 -6.012,7.088c-1.646,2.912 -2.891,6.203 -3.734,9.874c-0.844,3.67 -1.266,7.362 -1.266,11.075c-0,2.701 0.443,5.043 1.329,7.026c0.886,1.983 2.51,2.974 4.873,2.974Z" style="fill:#0f766e;fill-rule:nonzero;"/><path d="M298.246,487.471l8.355,-39.24c0.506,-2.363 0.759,-4.43 0.759,-6.203c0,-1.856 -0.38,-3.312 -1.139,-4.367c-0.759,-1.054 -2.152,-1.582 -4.177,-1.582c-1.519,0 -3.038,0.38 -4.557,1.139c-1.519,0.76 -2.954,1.773 -4.304,3.038c-1.35,1.266 -2.616,2.68 -3.797,4.241c-1.182,1.561 -2.194,3.143 -3.038,4.747l-8.101,38.227l-15.57,0l13.418,-63.29l11.772,-0l-0.633,11.139l0.506,-0c1.097,-1.351 2.384,-2.785 3.861,-4.304c1.477,-1.519 3.185,-2.911 5.126,-4.177c1.941,-1.266 4.114,-2.321 6.519,-3.165c2.405,-0.844 5.127,-1.266 8.165,-1.266c3.797,0 6.835,1.034 9.114,3.102c2.278,2.067 3.417,5.506 3.417,10.316c0,1.266 -0.063,2.616 -0.19,4.051c-0.126,1.434 -0.4,2.995 -0.822,4.683l-9.114,42.911l-15.57,0Z" style="fill:#0f766e;fill-rule:nonzero;"/><path d="M339.385,424.181l15.57,-0l-13.418,63.29l-15.569,0l13.417,-63.29Zm2.532,-17.975c-0,-2.785 0.907,-4.937 2.721,-6.456c1.815,-1.519 4.114,-2.278 6.899,-2.278c2.7,-0 5,0.759 6.899,2.278c1.898,1.519 2.848,3.671 2.848,6.456c-0,2.7 -0.95,4.831 -2.848,6.392c-1.899,1.562 -4.199,2.342 -6.899,2.342c-2.785,0 -5.084,-0.78 -6.899,-2.342c-1.814,-1.561 -2.721,-3.692 -2.721,-6.392Z" style="fill:#0f766e;fill-rule:nonzero;"/><path d="M361.79,424.181l8.228,-0l2.532,-11.899l16.582,-4.684l-3.545,16.583l14.81,-0l-2.911,13.037l-14.683,0l-6.203,28.608c-0.506,2.278 -0.759,4.135 -0.759,5.569c-0,1.857 0.422,3.123 1.265,3.798c0.844,0.675 2.11,1.012 3.798,1.012c1.603,0 3.059,-0.168 4.367,-0.506c1.308,-0.337 2.679,-0.886 4.114,-1.645l-0,11.645c-0.928,0.506 -2.047,0.992 -3.355,1.456c-1.308,0.464 -2.721,0.844 -4.24,1.139c-1.519,0.295 -3.08,0.527 -4.684,0.696c-1.603,0.169 -3.08,0.253 -4.43,0.253c-4.304,0 -7.616,-0.991 -9.937,-2.974c-2.32,-1.983 -3.48,-5 -3.48,-9.051c-0,-0.844 0.063,-1.73 0.189,-2.658c0.127,-0.928 0.275,-1.899 0.443,-2.912l7.342,-34.43l-8.481,0l3.038,-13.037Z" style="fill:#0f766e;fill-rule:nonzero;"/><path d="M426.22,459.75l0.127,9.873l0.759,0l3.418,-10l17.215,-35.442l16.582,-0l-30.38,56.834c-2.531,4.726 -4.915,9.072 -7.151,13.038c-2.237,3.967 -4.494,7.384 -6.773,10.253c-2.278,2.87 -4.641,5.106 -7.088,6.709c-2.447,1.604 -5.063,2.405 -7.848,2.405c-3.713,0 -6.498,-0.633 -8.354,-1.898l4.177,-12.405c0.506,0.253 1.033,0.422 1.582,0.506c0.548,0.084 1.076,0.127 1.582,0.127c2.026,-0 4.093,-0.971 6.203,-2.912c2.109,-1.941 4.219,-5.063 6.329,-9.367l-11.899,-63.29l17.848,-0l3.671,35.569Z" style="fill:#0f766e;fill-rule:nonzero;"/><path d="M529.637,398.864l15.443,0l-12.026,57.215c-1.265,6.076 -2.911,11.202 -4.936,15.38c-2.026,4.177 -4.473,7.573 -7.342,10.189c-2.869,2.616 -6.245,4.494 -10.126,5.633c-3.882,1.139 -8.355,1.709 -13.418,1.709c-4.894,0 -9.029,-0.57 -12.405,-1.709c-3.375,-1.139 -6.139,-2.763 -8.291,-4.873c-2.152,-2.11 -3.713,-4.599 -4.684,-7.468c-0.97,-2.87 -1.455,-6.034 -1.455,-9.494c-0,-1.688 0.105,-3.418 0.316,-5.19c0.211,-1.772 0.528,-3.628 0.95,-5.569l11.898,-55.823l16.329,0l-11.645,55.696c-0.675,3.207 -1.013,5.823 -1.013,7.848c0,4.051 1.055,6.92 3.165,8.608c2.109,1.687 5.189,2.531 9.24,2.531c5.063,0 8.987,-1.477 11.772,-4.43c2.785,-2.954 4.895,-7.722 6.329,-14.304l11.899,-55.949Z" style="fill:#0f766e;fill-rule:nonzero;"/><path d="M558.497,399.75c4.051,-0.759 8.144,-1.308 12.279,-1.645c4.135,-0.338 7.848,-0.507 11.139,-0.507c3.882,0 7.552,0.465 11.012,1.393c3.46,0.928 6.456,2.342 8.988,4.24c2.531,1.899 4.535,4.346 6.012,7.342c1.477,2.996 2.215,6.519 2.215,10.57c0,4.641 -0.696,8.67 -2.088,12.088c-1.393,3.418 -3.228,6.287 -5.506,8.608c-2.279,2.32 -4.874,4.135 -7.785,5.443c-2.912,1.308 -5.886,2.173 -8.924,2.595l4.936,3.924l12.279,33.67l-18.228,0l-12.152,-34.683l-8.734,-1.646l-7.595,36.329l-16.455,0l18.607,-87.721Zm7.975,39.62l6.709,0c2.447,0 4.852,-0.232 7.215,-0.696c2.363,-0.464 4.451,-1.308 6.266,-2.532c1.814,-1.223 3.291,-2.848 4.43,-4.873c1.139,-2.025 1.709,-4.599 1.709,-7.721c-0,-2.87 -0.971,-5.338 -2.912,-7.405c-1.941,-2.068 -5.063,-3.102 -9.367,-3.102c-1.687,0 -3.27,0.064 -4.746,0.19c-1.477,0.127 -2.722,0.275 -3.735,0.443l-5.569,25.696Z" style="fill:#0f766e;fill-rule:nonzero;"/><path d="M665.838,487.471l-53.291,0l18.734,-88.607l16.456,0l-15.569,73.164l36.835,0l-3.165,15.443Z" style="fill:#0f766e;fill-rule:nonzero;"/><path d="M676.218,472.661c1.688,0.928 3.86,1.751 6.519,2.468c2.658,0.718 5.464,1.076 8.417,1.076c2.954,0 5.211,-0.569 6.772,-1.708c1.562,-1.14 2.384,-2.891 2.469,-5.254c-0,-1.687 -0.507,-3.143 -1.519,-4.367c-1.013,-1.223 -2.3,-2.384 -3.861,-3.481c-1.561,-1.097 -3.228,-2.215 -5,-3.354c-1.772,-1.139 -3.439,-2.447 -5,-3.924c-1.561,-1.477 -2.848,-3.228 -3.861,-5.253c-1.012,-2.025 -1.519,-4.473 -1.519,-7.342c0,-2.785 0.549,-5.358 1.646,-7.721c1.097,-2.363 2.637,-4.388 4.62,-6.076c1.983,-1.688 4.388,-2.996 7.215,-3.924c2.827,-0.928 6.013,-1.393 9.557,-1.393c4.895,0 8.945,0.359 12.152,1.076c3.207,0.718 5.738,1.625 7.595,2.722l-4.304,11.898c-1.688,-0.759 -3.734,-1.392 -6.139,-1.898c-2.405,-0.507 -4.916,-0.76 -7.532,-0.76c-2.7,0 -4.831,0.464 -6.392,1.393c-1.561,0.928 -2.342,2.405 -2.342,4.43c0,1.35 0.507,2.553 1.519,3.608c1.013,1.054 2.3,2.13 3.861,3.227c1.561,1.097 3.228,2.216 5,3.355c1.772,1.139 3.439,2.51 5,4.114c1.561,1.603 2.848,3.438 3.861,5.506c1.012,2.067 1.519,4.536 1.519,7.405c-0,7.004 -2.279,12.215 -6.836,15.633c-4.557,3.417 -10.633,5.126 -18.227,5.126c-4.304,0 -8.249,-0.401 -11.836,-1.202c-3.586,-0.802 -6.35,-1.793 -8.291,-2.975l4.937,-12.405Z" style="fill:#0f766e;fill-rule:nonzero;"/><path d="M725.711,479.117c0,-2.954 0.928,-5.296 2.785,-7.025c1.856,-1.73 4.304,-2.595 7.342,-2.595c3.122,-0 5.611,0.865 7.468,2.595c1.856,1.729 2.785,4.071 2.785,7.025c-0,2.953 -0.929,5.316 -2.785,7.088c-1.857,1.772 -4.346,2.659 -7.468,2.659c-3.038,-0 -5.486,-0.887 -7.342,-2.659c-1.857,-1.772 -2.785,-4.135 -2.785,-7.088Z" style="fill:#14b8a6;fill-rule:nonzero;"/><path d="M774.571,468.737c-0.506,2.447 -0.485,4.262 0.064,5.443c0.548,1.182 1.455,1.772 2.721,1.772c2.363,0 4.599,-0.464 6.709,-1.392l-0.38,11.266c-1.519,0.928 -3.713,1.687 -6.582,2.278c-2.869,0.591 -5.696,0.886 -8.481,0.886c-3.629,0 -6.392,-0.696 -8.291,-2.088c-1.899,-1.393 -2.848,-3.988 -2.848,-7.785c-0,-1.941 0.253,-4.177 0.759,-6.709l15.57,-73.544l15.569,0l-14.81,69.873Z" style="fill:#0f766e;fill-rule:nonzero;"/><path d="M804.571,424.181l15.57,-0l-13.418,63.29l-15.57,0l13.418,-63.29Zm2.532,-17.975c-0,-2.785 0.907,-4.937 2.721,-6.456c1.815,-1.519 4.114,-2.278 6.899,-2.278c2.7,-0 5,0.759 6.899,2.278c1.898,1.519 2.848,3.671 2.848,6.456c-0,2.7 -0.95,4.831 -2.848,6.392c-1.899,1.562 -4.199,2.342 -6.899,2.342c-2.785,0 -5.084,-0.78 -6.899,-2.342c-1.814,-1.561 -2.721,-3.692 -2.721,-6.392Z" style="fill:#0f766e;fill-rule:nonzero;"/><path d="M857.988,487.471l8.355,-39.24c0.506,-2.363 0.759,-4.43 0.759,-6.203c0,-1.856 -0.38,-3.312 -1.139,-4.367c-0.76,-1.054 -2.152,-1.582 -4.177,-1.582c-1.519,0 -3.038,0.38 -4.557,1.139c-1.519,0.76 -2.954,1.773 -4.304,3.038c-1.35,1.266 -2.616,2.68 -3.797,4.241c-1.182,1.561 -2.194,3.143 -3.038,4.747l-8.101,38.227l-15.57,0l13.418,-63.29l11.772,-0l-0.633,11.139l0.506,-0c1.097,-1.351 2.384,-2.785 3.861,-4.304c1.477,-1.519 3.185,-2.911 5.126,-4.177c1.941,-1.266 4.114,-2.321 6.519,-3.165c2.405,-0.844 5.127,-1.266 8.165,-1.266c3.797,0 6.835,1.034 9.114,3.102c2.278,2.067 3.417,5.506 3.417,10.316c0,1.266 -0.063,2.616 -0.19,4.051c-0.126,1.434 -0.4,2.995 -0.822,4.683l-9.114,42.911l-15.57,0Z" style="fill:#0f766e;fill-rule:nonzero;"/><path d="M914.444,461.269l-5.064,-0l-5.443,26.202l-15.569,0l18.734,-88.607l15.569,0l-11.139,52.278l4.684,-1.645l17.848,-25.316l17.341,-0l-18.86,25.442l-7.595,4.81l5.696,4.811l9.62,28.227l-16.709,0l-9.113,-26.202Z" style="fill:#0f766e;fill-rule:nonzero;"/></g><path id="path830" d="M729.236,70.235c-271.34,0 -668.428,119.519 -668.428,319.253c-0,137.926 152.237,262.602 465.292,262.602c257.899,0 542.962,-104.728 542.962,-277.064c-0,-160.934 -202.622,-216.481 -320.451,-222.266l-0,55.333c131.402,6.92 287.748,71.409 280.512,175.985c-6.618,95.637 -163.935,220.478 -509.291,228.153c-219.779,4.883 -425.326,-95.402 -420.308,-213.762c4.78,-112.729 229.806,-266.227 620.502,-273.239c103.324,-1.855 170.112,20.212 194.593,30.972l13.082,-69.36c0,-0 -76.496,-16.607 -198.465,-16.607Z" style="fill:#14b8a6;fill-rule:nonzero;"/><g><path d="M211.688,298.673l9.464,26.624l1.872,8.632l0.416,0l1.456,-8.736l6.656,-26.52l12.376,0l-16.016,52.52l-9.984,0l-10.504,-29.12l-1.352,-6.552l-0.52,0l-1.248,6.656l-9.984,29.016l-10.296,0l-16.744,-52.52l14.664,0l7.592,26.104l1.248,9.256l0.52,0l1.768,-9.36l8.632,-26l9.984,0Z" style="fill:#111827;fill-rule:nonzero;"/><path d="M287.608,346.201c-2.08,1.664 -4.905,3.068 -8.476,4.212c-3.571,1.144 -7.367,1.716 -11.388,1.716c-8.389,0 -14.525,-2.444 -18.408,-7.332c-3.883,-4.888 -5.824,-11.596 -5.824,-20.124c-0,-9.152 2.184,-16.016 6.552,-20.592c4.368,-4.576 10.504,-6.864 18.408,-6.864c2.635,0 5.2,0.347 7.696,1.04c2.496,0.694 4.715,1.838 6.656,3.432c1.941,1.595 3.501,3.744 4.68,6.448c1.179,2.704 1.768,6.067 1.768,10.088c-0,1.456 -0.087,3.016 -0.26,4.68c-0.173,1.664 -0.433,3.398 -0.78,5.2l-31.2,0c0.208,4.368 1.335,7.662 3.38,9.88c2.045,2.219 5.356,3.328 9.932,3.328c2.843,0 5.391,-0.433 7.644,-1.3c2.253,-0.866 3.969,-1.75 5.148,-2.652l4.472,8.84Zm-19.344,-38.168c-3.536,0 -6.153,1.058 -7.852,3.172c-1.699,2.115 -2.721,4.94 -3.068,8.476l19.344,0c0.277,-3.744 -0.295,-6.621 -1.716,-8.632c-1.421,-2.01 -3.657,-3.016 -6.708,-3.016Z" style="fill:#111827;fill-rule:nonzero;"/><path d="M298.008,298.673l13.52,0l-0,52l-13.52,0l-0,-52Zm-1.976,-14.664c-0,-2.01 0.745,-3.726 2.236,-5.148c1.491,-1.421 3.553,-2.132 6.188,-2.132c2.635,0 4.767,0.711 6.396,2.132c1.629,1.422 2.444,3.138 2.444,5.148c-0,2.011 -0.815,3.692 -2.444,5.044c-1.629,1.352 -3.761,2.028 -6.396,2.028c-2.635,0 -4.697,-0.676 -6.188,-2.028c-1.491,-1.352 -2.236,-3.033 -2.236,-5.044Z" style="fill:#111827;fill-rule:nonzero;"/><path d="M317.248,298.673l7.176,0l-0,-9.776l13.52,-3.848l-0,13.624l12.688,0l-0,11.44l-12.688,0l-0,19.968c-0,3.606 0.364,6.188 1.092,7.748c0.728,1.56 2.097,2.34 4.108,2.34c1.387,0 2.583,-0.138 3.588,-0.416c1.005,-0.277 2.132,-0.693 3.38,-1.248l2.392,10.4c-1.872,0.902 -4.056,1.664 -6.552,2.288c-2.496,0.624 -5.027,0.936 -7.592,0.936c-4.784,0 -8.303,-1.23 -10.556,-3.692c-2.253,-2.461 -3.38,-6.5 -3.38,-12.116l-0,-26.208l-7.176,0l-0,-11.44Z" style="fill:#111827;fill-rule:nonzero;"/><path d="M397.952,346.201c-2.08,1.664 -4.905,3.068 -8.476,4.212c-3.571,1.144 -7.367,1.716 -11.388,1.716c-8.389,0 -14.525,-2.444 -18.408,-7.332c-3.883,-4.888 -5.824,-11.596 -5.824,-20.124c-0,-9.152 2.184,-16.016 6.552,-20.592c4.368,-4.576 10.504,-6.864 18.408,-6.864c2.635,0 5.2,0.347 7.696,1.04c2.496,0.694 4.715,1.838 6.656,3.432c1.941,1.595 3.501,3.744 4.68,6.448c1.179,2.704 1.768,6.067 1.768,10.088c-0,1.456 -0.087,3.016 -0.26,4.68c-0.173,1.664 -0.433,3.398 -0.78,5.2l-31.2,0c0.208,4.368 1.335,7.662 3.38,9.88c2.045,2.219 5.356,3.328 9.932,3.328c2.843,0 5.391,-0.433 7.644,-1.3c2.253,-0.866 3.969,-1.75 5.148,-2.652l4.472,8.84Zm-19.344,-38.168c-3.536,0 -6.153,1.058 -7.852,3.172c-1.699,2.115 -2.721,4.94 -3.068,8.476l19.344,0c0.277,-3.744 -0.295,-6.621 -1.716,-8.632c-1.421,-2.01 -3.657,-3.016 -6.708,-3.016Z" style="fill:#111827;fill-rule:nonzero;"/><path d="M435.808,311.361c-2.149,-0.762 -4.091,-1.144 -5.824,-1.144c-2.427,0 -4.455,0.642 -6.084,1.924c-1.629,1.283 -2.721,2.93 -3.276,4.94l-0,33.592l-13.52,0l-0,-52l10.504,0l1.56,6.864l0.416,0c1.179,-2.565 2.773,-4.541 4.784,-5.928c2.011,-1.386 4.368,-2.08 7.072,-2.08c1.803,0 3.848,0.382 6.136,1.144l-1.768,12.688Z" style="fill:#111827;fill-rule:nonzero;"/><path d="M485.52,350.673c-0,7.558 -2.045,13.122 -6.136,16.692c-4.091,3.571 -9.811,5.356 -17.16,5.356c-4.992,0 -8.927,-0.346 -11.804,-1.04c-2.877,-0.693 -5.044,-1.421 -6.5,-2.184l2.808,-10.712c1.595,0.624 3.449,1.248 5.564,1.872c2.115,0.624 4.732,0.936 7.852,0.936c4.715,0 7.921,-1.022 9.62,-3.068c1.699,-2.045 2.548,-4.905 2.548,-8.58l-0,-3.328l-0.416,0c-2.427,3.259 -6.725,4.888 -12.896,4.888c-6.725,0 -11.735,-2.08 -15.028,-6.24c-3.293,-4.16 -4.94,-10.677 -4.94,-19.552c-0,-9.29 2.219,-16.328 6.656,-21.112c4.437,-4.784 10.885,-7.176 19.344,-7.176c4.437,0 8.407,0.312 11.908,0.936c3.501,0.624 6.361,1.352 8.58,2.184l-0,50.128Zm-22.88,-9.984c2.635,0 4.663,-0.589 6.084,-1.768c1.421,-1.178 2.513,-2.946 3.276,-5.304l-0,-23.4c-2.149,-0.901 -4.819,-1.352 -8.008,-1.352c-3.467,0 -6.171,1.3 -8.112,3.9c-1.941,2.6 -2.912,6.743 -2.912,12.428c-0,5.062 0.832,8.91 2.496,11.544c1.664,2.635 4.056,3.952 7.176,3.952Z" style="fill:#111827;fill-rule:nonzero;"/><path d="M536.792,346.201c-2.08,1.664 -4.905,3.068 -8.476,4.212c-3.571,1.144 -7.367,1.716 -11.388,1.716c-8.389,0 -14.525,-2.444 -18.408,-7.332c-3.883,-4.888 -5.824,-11.596 -5.824,-20.124c-0,-9.152 2.184,-16.016 6.552,-20.592c4.368,-4.576 10.504,-6.864 18.408,-6.864c2.635,0 5.2,0.347 7.696,1.04c2.496,0.694 4.715,1.838 6.656,3.432c1.941,1.595 3.501,3.744 4.68,6.448c1.179,2.704 1.768,6.067 1.768,10.088c-0,1.456 -0.087,3.016 -0.26,4.68c-0.173,1.664 -0.433,3.398 -0.78,5.2l-31.2,0c0.208,4.368 1.335,7.662 3.38,9.88c2.045,2.219 5.356,3.328 9.932,3.328c2.843,0 5.391,-0.433 7.644,-1.3c2.253,-0.866 3.969,-1.75 5.148,-2.652l4.472,8.84Zm-19.344,-38.168c-3.536,0 -6.153,1.058 -7.852,3.172c-1.699,2.115 -2.721,4.94 -3.068,8.476l19.344,0c0.277,-3.744 -0.295,-6.621 -1.716,-8.632c-1.421,-2.01 -3.657,-3.016 -6.708,-3.016Z" style="fill:#111827;fill-rule:nonzero;"/><path d="M559.88,333.201c-0,2.427 0.312,4.195 0.936,5.304c0.624,1.11 1.629,1.664 3.016,1.664c0.832,0 1.647,-0.069 2.444,-0.208c0.797,-0.138 1.785,-0.45 2.964,-0.936l1.456,10.608c-1.109,0.555 -2.808,1.11 -5.096,1.664c-2.288,0.555 -4.645,0.832 -7.072,0.832c-3.952,0 -6.968,-0.918 -9.048,-2.756c-2.08,-1.837 -3.12,-4.87 -3.12,-9.1l-0,-62.4l13.52,0l-0,55.328Z" style="fill:#111827;fill-rule:nonzero;"/><path d="M616.04,346.201c-2.08,1.664 -4.905,3.068 -8.476,4.212c-3.571,1.144 -7.367,1.716 -11.388,1.716c-8.389,0 -14.525,-2.444 -18.408,-7.332c-3.883,-4.888 -5.824,-11.596 -5.824,-20.124c-0,-9.152 2.184,-16.016 6.552,-20.592c4.368,-4.576 10.504,-6.864 18.408,-6.864c2.635,0 5.2,0.347 7.696,1.04c2.496,0.694 4.715,1.838 6.656,3.432c1.941,1.595 3.501,3.744 4.68,6.448c1.179,2.704 1.768,6.067 1.768,10.088c-0,1.456 -0.087,3.016 -0.26,4.68c-0.173,1.664 -0.433,3.398 -0.78,5.2l-31.2,0c0.208,4.368 1.335,7.662 3.38,9.88c2.045,2.219 5.356,3.328 9.932,3.328c2.843,0 5.391,-0.433 7.644,-1.3c2.253,-0.866 3.969,-1.75 5.148,-2.652l4.472,8.84Zm-19.344,-38.168c-3.536,0 -6.153,1.058 -7.852,3.172c-1.699,2.115 -2.721,4.94 -3.068,8.476l19.344,0c0.277,-3.744 -0.295,-6.621 -1.716,-8.632c-1.421,-2.01 -3.657,-3.016 -6.708,-3.016Z" style="fill:#111827;fill-rule:nonzero;"/><path d="M626.44,298.673l13.52,0l-0,52l-13.52,0l-0,-52Zm-1.976,-14.664c-0,-2.01 0.745,-3.726 2.236,-5.148c1.491,-1.421 3.553,-2.132 6.188,-2.132c2.635,0 4.767,0.711 6.396,2.132c1.629,1.422 2.444,3.138 2.444,5.148c-0,2.011 -0.815,3.692 -2.444,5.044c-1.629,1.352 -3.761,2.028 -6.396,2.028c-2.635,0 -4.697,-0.676 -6.188,-2.028c-1.491,-1.352 -2.236,-3.033 -2.236,-5.044Z" style="fill:#111827;fill-rule:nonzero;"/><path d="M645.68,298.673l7.176,0l-0,-9.776l13.52,-3.848l-0,13.624l12.688,0l-0,11.44l-12.688,0l-0,19.968c-0,3.606 0.364,6.188 1.092,7.748c0.728,1.56 2.097,2.34 4.108,2.34c1.387,0 2.583,-0.138 3.588,-0.416c1.005,-0.277 2.132,-0.693 3.38,-1.248l2.392,10.4c-1.872,0.902 -4.056,1.664 -6.552,2.288c-2.496,0.624 -5.027,0.936 -7.592,0.936c-4.784,0 -8.303,-1.23 -10.556,-3.692c-2.253,-2.461 -3.38,-6.5 -3.38,-12.116l-0,-26.208l-7.176,0l-0,-11.44Z" style="fill:#111827;fill-rule:nonzero;"/><path d="M726.384,346.201c-2.08,1.664 -4.905,3.068 -8.476,4.212c-3.571,1.144 -7.367,1.716 -11.388,1.716c-8.389,0 -14.525,-2.444 -18.408,-7.332c-3.883,-4.888 -5.824,-11.596 -5.824,-20.124c-0,-9.152 2.184,-16.016 6.552,-20.592c4.368,-4.576 10.504,-6.864 18.408,-6.864c2.635,0 5.2,0.347 7.696,1.04c2.496,0.694 4.715,1.838 6.656,3.432c1.941,1.595 3.501,3.744 4.68,6.448c1.179,2.704 1.768,6.067 1.768,10.088c-0,1.456 -0.087,3.016 -0.26,4.68c-0.173,1.664 -0.433,3.398 -0.78,5.2l-31.2,0c0.208,4.368 1.335,7.662 3.38,9.88c2.045,2.219 5.356,3.328 9.932,3.328c2.843,0 5.391,-0.433 7.644,-1.3c2.253,-0.866 3.969,-1.75 5.148,-2.652l4.472,8.84Zm-19.344,-38.168c-3.536,0 -6.153,1.058 -7.852,3.172c-1.699,2.115 -2.721,4.94 -3.068,8.476l19.344,0c0.277,-3.744 -0.295,-6.621 -1.716,-8.632c-1.421,-2.01 -3.657,-3.016 -6.708,-3.016Z" style="fill:#111827;fill-rule:nonzero;"/><path d="M730.128,298.673l7.176,0l-0,-9.776l13.52,-3.848l-0,13.624l12.688,0l-0,11.44l-12.688,0l-0,19.968c-0,3.606 0.364,6.188 1.092,7.748c0.728,1.56 2.097,2.34 4.108,2.34c1.387,0 2.583,-0.138 3.588,-0.416c1.005,-0.277 2.132,-0.693 3.38,-1.248l2.392,10.4c-1.872,0.902 -4.056,1.664 -6.552,2.288c-2.496,0.624 -5.027,0.936 -7.592,0.936c-4.784,0 -8.303,-1.23 -10.556,-3.692c-2.253,-2.461 -3.38,-6.5 -3.38,-12.116l-0,-26.208l-7.176,0l-0,-11.44Z" style="fill:#111827;fill-rule:nonzero;"/><path d="M809.896,325.921l1.768,8.008l0.52,0l1.456,-8.216l8.84,-27.04l14.56,0l-21.736,52.52l-8.216,0l-22.568,-52.52l15.704,0l9.672,27.248Z" style="fill:#111827;fill-rule:nonzero;"/><path d="M836.208,324.673c-0,-8.805 2.149,-15.582 6.448,-20.332c4.299,-4.749 10.331,-7.124 18.096,-7.124c4.16,0 7.765,0.659 10.816,1.976c3.051,1.318 5.581,3.172 7.592,5.564c2.011,2.392 3.519,5.287 4.524,8.684c1.005,3.398 1.508,7.142 1.508,11.232c-0,8.806 -2.132,15.583 -6.396,20.332c-4.264,4.75 -10.279,7.124 -18.044,7.124c-4.16,0 -7.765,-0.658 -10.816,-1.976c-3.051,-1.317 -5.599,-3.172 -7.644,-5.564c-2.045,-2.392 -3.571,-5.286 -4.576,-8.684c-1.005,-3.397 -1.508,-7.141 -1.508,-11.232Zm13.936,0c-0,2.288 0.208,4.403 0.624,6.344c0.416,1.942 1.04,3.64 1.872,5.096c0.832,1.456 1.924,2.583 3.276,3.38c1.352,0.798 2.964,1.196 4.836,1.196c3.536,0 6.171,-1.282 7.904,-3.848c1.733,-2.565 2.6,-6.621 2.6,-12.168c-0,-4.784 -0.797,-8.649 -2.392,-11.596c-1.595,-2.946 -4.299,-4.42 -8.112,-4.42c-3.328,0 -5.928,1.248 -7.8,3.744c-1.872,2.496 -2.808,6.587 -2.808,12.272Z" style="fill:#111827;fill-rule:nonzero;"/><path d="M924.296,350.673l-0,-29.536c-0,-4.229 -0.607,-7.28 -1.82,-9.152c-1.213,-1.872 -3.276,-2.808 -6.188,-2.808c-2.565,0 -4.732,0.746 -6.5,2.236c-1.768,1.491 -3.033,3.346 -3.796,5.564l-0,33.696l-13.52,0l-0,-52l10.712,0l1.56,6.864l0.416,0c1.595,-2.218 3.709,-4.16 6.344,-5.824c2.635,-1.664 6.032,-2.496 10.192,-2.496c2.565,0 4.853,0.347 6.864,1.04c2.011,0.694 3.709,1.838 5.096,3.432c1.387,1.595 2.427,3.762 3.12,6.5c0.693,2.739 1.04,6.119 1.04,10.14l-0,32.344l-13.52,0Z" style="fill:#111827;fill-rule:nonzero;"/></g></svg>