<svg xmlns="http://www.w3.org/2000/svg" xml:space="preserve" style="fill-rule:evenodd;clip-rule:evenodd;stroke-linejoin:round;stroke-miterlimit:2" viewBox="0 0 1125 721"><path d="M.102.332h1124v720H.102z" style="fill:none"/><path d="m172.033 456.804.253 9.746h.38l3.798-9.999 17.341-32.912H211.4l-38.734 63.924h-9.62l-12.405-63.924h17.215zm81.645 4.81a84 84 0 0 0-1.456 9.747 105 105 0 0 0-.443 9.367q0 1.771.064 3.354.063 1.582.19 2.975h-11.519l-1.772-10.886h-.507q-1.393 2.278-3.607 4.493a35 35 0 0 1-4.874 4.051 24.6 24.6 0 0 1-5.633 2.911 17.9 17.9 0 0 1-6.139 1.076q-8.354 0-12.341-5.443t-3.988-14.557q0-9.24 2.342-17.721t7.278-14.937q4.938-6.455 12.469-10.316t17.911-3.861q4.43 0 9.683.823a87 87 0 0 1 10.19 2.215zm-29.746 14.05a10 10 0 0 0 4.303-.949 15.5 15.5 0 0 0 3.734-2.468 22.3 22.3 0 0 0 3.038-3.291 73 73 0 0 0 2.342-3.292l6.329-29.493q-1.392-.633-3.228-.949a21 21 0 0 0-3.607-.317q-4.558 0-8.101 2.722t-6.013 7.088q-2.469 4.368-3.734 9.874a49.3 49.3 0 0 0-1.266 11.075q0 4.052 1.329 7.026 1.33 2.974 4.874 2.974m71.265 11.266 8.354-39.24q.76-3.544.76-6.203 0-2.784-1.14-4.367-1.139-1.582-4.177-1.582-2.278 0-4.557 1.139-2.278 1.14-4.303 3.038a33.5 33.5 0 0 0-3.798 4.241 34.5 34.5 0 0 0-3.038 4.747l-8.101 38.227h-15.57l13.418-63.291h11.772l-.633 11.14h.507a65 65 0 0 1 3.86-4.304q2.215-2.279 5.127-4.177 2.911-1.899 6.519-3.165t8.164-1.266q5.697 0 9.114 3.102 3.418 3.1 3.418 10.316 0 1.899-.19 4.051-.19 2.151-.823 4.683l-9.114 42.911zm41.139-63.291h15.569l-13.417 63.291h-15.57zm2.531-17.974q0-4.178 2.722-6.456t6.898-2.278q4.051 0 6.899 2.278t2.848 6.456q0 4.05-2.848 6.392t-6.899 2.342q-4.176 0-6.898-2.342t-2.722-6.392m19.874 17.974h8.227l2.532-11.898 16.582-4.684-3.544 16.582h14.81l-2.912 13.038h-14.683l-6.202 28.608q-.76 3.417-.76 5.569 0 2.786 1.266 3.798t3.797 1.012q2.406 0 4.367-.506 1.963-.506 4.114-1.646v11.646q-1.392.759-3.354 1.456a30 30 0 0 1-4.241 1.139q-2.278.442-4.683.696t-4.431.253q-6.454 0-9.936-2.974-3.481-2.975-3.481-9.051 0-1.266.19-2.658a97 97 0 0 1 .443-2.912l7.341-34.43h-8.48zm64.429 35.57.127 9.873h.759l3.418-10 17.215-35.443h16.582l-30.379 56.835a694 694 0 0 1-7.152 13.038q-3.355 5.95-6.772 10.253-3.418 4.305-7.089 6.709-3.67 2.406-7.848 2.405-5.57 0-8.354-1.899l4.177-12.404a5.4 5.4 0 0 0 1.582.506q.823.126 1.583.126 3.037 0 6.202-2.911t6.329-9.367l-11.898-63.291h17.847zm103.417-60.886h15.443l-12.025 57.215q-1.9 9.114-4.937 15.38-3.037 6.265-7.342 10.189-4.303 3.924-10.126 5.633t-13.418 1.709q-7.341 0-12.405-1.709t-8.291-4.873a18.7 18.7 0 0 1-4.683-7.468q-1.456-4.304-1.456-9.494 0-2.532.317-5.19.316-2.659.949-5.569l11.899-55.823h16.329l-11.646 55.696q-1.013 4.81-1.013 7.848 0 6.076 3.165 8.607 3.165 2.532 9.24 2.532 7.596 0 11.772-4.43 4.178-4.431 6.33-14.304zm28.861.886q6.075-1.139 12.278-1.645 6.202-.507 11.139-.507 5.823 0 11.013 1.393 5.19 1.392 8.987 4.24 3.798 2.848 6.013 7.342t2.215 10.57q0 6.961-2.089 12.088t-5.506 8.608q-3.418 3.48-7.785 5.443t-8.924 2.594l4.937 3.924 12.278 33.671h-18.227l-12.152-34.683-8.734-1.646-7.595 36.329H536.84zm7.974 39.62h6.709q3.67 0 7.215-.696t6.266-2.532 4.43-4.873 1.709-7.721q0-4.305-2.911-7.405-2.911-3.102-9.367-3.102-2.532 0-4.747.19-2.216.19-3.734.443zm99.366 48.101h-53.29l18.734-88.607h16.455l-15.569 73.164h36.835zm10.38-14.81q2.532 1.392 6.519 2.468t8.418 1.076q4.43 0 6.772-1.709 2.342-1.708 2.468-5.253 0-2.53-1.519-4.367-1.518-1.835-3.861-3.481a145 145 0 0 0-5-3.354 34 34 0 0 1-4.999-3.924q-2.343-2.215-3.861-5.253-1.52-3.039-1.519-7.342 0-4.178 1.645-7.721a17.6 17.6 0 0 1 4.621-6.076q2.975-2.532 7.215-3.924 4.24-1.393 9.557-1.393 7.341 0 12.151 1.076t7.595 2.722l-4.303 11.898q-2.532-1.139-6.14-1.898a36.4 36.4 0 0 0-7.531-.76q-4.05 0-6.393 1.393-2.341 1.392-2.341 4.43 0 2.026 1.519 3.607t3.86 3.228a149 149 0 0 0 5 3.355 28.4 28.4 0 0 1 5 4.114 21.2 21.2 0 0 1 3.861 5.506q1.52 3.101 1.519 7.405 0 10.506-6.835 15.633-6.836 5.126-18.228 5.126-6.456 0-11.835-1.202-5.38-1.203-8.292-2.975z" style="fill:#0f766e;fill-rule:nonzero"/><path d="M722.661 478.576q0-4.431 2.785-7.026t7.342-2.594q4.683 0 7.468 2.594 2.785 2.595 2.785 7.026t-2.785 7.088-7.468 2.658q-4.557 0-7.342-2.658t-2.785-7.088" style="fill:#14b8a6;fill-rule:nonzero"/><path d="M771.522 468.196q-.76 3.671.063 5.443t2.721 1.772q3.545 0 6.709-1.392l-.379 11.265q-2.278 1.393-6.583 2.279a42 42 0 0 1-8.481.886q-5.442 0-8.291-2.089-2.847-2.088-2.848-7.784 0-2.911.76-6.709l15.569-73.544h15.57zm29.999-44.557h15.57l-13.418 63.291h-15.569zm2.532-17.974q0-4.178 2.722-6.456 2.72-2.278 6.898-2.278 4.051 0 6.899 2.278t2.848 6.456q0 4.05-2.848 6.392t-6.899 2.342q-4.177 0-6.898-2.342t-2.722-6.392m50.886 81.265 8.354-39.24q.76-3.544.76-6.203 0-2.784-1.14-4.367-1.139-1.582-4.177-1.582-2.279 0-4.557 1.139t-4.304 3.038a33.5 33.5 0 0 0-3.797 4.241 34.5 34.5 0 0 0-3.038 4.747l-8.101 38.227h-15.57l13.418-63.291h11.772l-.633 11.14h.506a66 66 0 0 1 3.861-4.304q2.216-2.279 5.127-4.177 2.912-1.899 6.519-3.165t8.164-1.266q5.697 0 9.114 3.102 3.418 3.1 3.418 10.316 0 1.899-.19 4.051-.19 2.151-.823 4.683l-9.114 42.911zm56.455-26.202h-5.063l-5.443 26.202h-15.57l18.734-88.607h15.57l-11.139 52.278 4.683-1.645 17.848-25.317h17.342l-18.861 25.443-7.595 4.81 5.696 4.81 9.62 28.228h-16.708z" style="fill:#0f766e;fill-rule:nonzero"/><path d="M728.403 69.694c-271.34 0-668.428 119.519-668.428 319.253 0 137.926 152.237 262.602 465.292 262.602 257.899 0 542.962-104.728 542.962-277.065 0-160.933-202.622-216.48-320.451-222.265v55.333c131.402 6.92 287.748 71.409 280.512 175.985-6.618 95.637-163.935 220.478-509.291 228.152-219.779 4.884-425.326-95.401-420.308-213.761 4.78-112.729 229.807-266.227 620.502-273.239 103.324-1.855 170.112 20.212 194.593 30.972l13.083-69.36s-76.497-16.607-198.466-16.607" style="fill:#14b8a6;fill-rule:nonzero"/><path d="M302.03 310.82q-3.223-1.143-5.824-1.144-3.639 0-6.084 1.924-2.443 1.925-3.276 4.94v33.592h-13.52v-52h10.504l1.56 6.864h.416q1.769-3.848 4.784-5.928 3.016-2.08 7.072-2.08 2.704 0 6.136 1.144zm47.32 34.84q-3.12 2.496-8.476 4.212-5.355 1.716-11.388 1.716-12.583 0-18.408-7.332-5.824-7.332-5.824-20.124 0-13.728 6.552-20.592t18.408-6.864q3.952 0 7.696 1.04t6.656 3.432q2.913 2.392 4.68 6.448 1.768 4.056 1.768 10.088 0 2.184-.26 4.68a61 61 0 0 1-.78 5.2h-31.2q.312 6.553 3.38 9.88t9.932 3.328q4.265 0 7.644-1.3 3.381-1.299 5.148-2.652zm-19.344-38.168q-5.304 0-7.852 3.172t-3.068 8.476h19.344q.417-5.616-1.716-8.632-2.131-3.015-6.708-3.016m72.696 24.336q0 4.368.104 8.736.105 4.368.936 9.672h-9.672l-1.872-6.76h-.416q-2.08 3.64-5.98 5.876t-9.204 2.236q-9.775 0-15.184-6.448-5.408-6.447-5.408-20.176 0-13.311 6.032-20.696 6.033-7.384 17.68-7.384 3.225 0 5.304.364 2.08.365 4.16 1.196v-21.112h13.52zm-22.984 8.32q3.952 0 6.24-1.924t3.224-5.564v-22.048a10.3 10.3 0 0 0-3.224-1.716q-1.767-.572-4.576-.572-5.72 0-8.58 3.848-2.86 3.849-2.86 13.208 0 6.656 2.34 10.712t7.436 4.056m34.008-42.016h13.52v52h-13.52zm-1.976-14.664q0-3.015 2.236-5.148t6.188-2.132q3.952 0 6.396 2.132t2.444 5.148-2.444 5.044-6.396 2.028-6.188-2.028-2.236-5.044m55.328 27.352q-3.223-1.143-5.824-1.144-3.639 0-6.084 1.924-2.444 1.925-3.276 4.94v33.592h-13.52v-52h10.504l1.56 6.864h.416q1.769-3.848 4.784-5.928 3.016-2.08 7.072-2.08 2.704 0 6.136 1.144zm47.32 34.84q-3.12 2.496-8.476 4.212-5.355 1.716-11.388 1.716-12.583 0-18.408-7.332-5.824-7.332-5.824-20.124 0-13.728 6.552-20.592t18.408-6.864q3.952 0 7.696 1.04t6.656 3.432 4.68 6.448 1.768 10.088q0 2.184-.26 4.68a61 61 0 0 1-.78 5.2h-31.2q.312 6.553 3.38 9.88t9.932 3.328q4.264 0 7.644-1.3 3.381-1.299 5.148-2.652zm-19.344-38.168q-5.304 0-7.852 3.172t-3.068 8.476h19.344q.417-5.616-1.716-8.632-2.131-3.015-6.708-3.016m64.792 39.416q-3.12 2.289-7.54 3.484a34.7 34.7 0 0 1-9.1 1.196q-6.24 0-10.556-1.976t-7.02-5.564q-2.703-3.587-3.9-8.684-1.196-5.095-1.196-11.232 0-13.207 5.928-20.332 5.928-7.124 17.264-7.124 5.721 0 9.204.936 3.484.937 6.292 2.392l-3.224 11.024a27.3 27.3 0 0 0-4.732-1.768q-2.34-.624-5.356-.624-5.616 0-8.528 3.692t-2.912 11.804q0 3.328.728 6.136.729 2.808 2.184 4.888t3.796 3.276q2.34 1.197 5.46 1.196 3.433 0 5.824-.884t4.264-2.132zm.728-48.776h7.176v-9.776l13.52-3.848v13.624h12.688v11.44H581.27v19.968q0 5.409 1.092 7.748t4.108 2.34q2.08 0 3.588-.416 1.508-.415 3.38-1.248l2.392 10.4q-2.808 1.352-6.552 2.288a31.2 31.2 0 0 1-7.592.936q-7.176 0-10.556-3.692t-3.38-12.116v-26.208h-7.176zm80.704 47.528q-3.12 2.496-8.476 4.212-5.355 1.716-11.388 1.716-12.583 0-18.408-7.332-5.823-7.332-5.824-20.124 0-13.728 6.552-20.592t18.408-6.864q3.952 0 7.696 1.04t6.656 3.432q2.913 2.392 4.68 6.448 1.768 4.056 1.768 10.088 0 2.184-.26 4.68a61 61 0 0 1-.78 5.2h-31.2q.312 6.553 3.38 9.88t9.932 3.328q4.264 0 7.644-1.3 3.381-1.299 5.148-2.652zm-19.344-38.168q-5.304 0-7.852 3.172t-3.068 8.476h19.344q.417-5.616-1.716-8.632t-6.708-3.016m72.696 24.336q0 4.368.104 8.736.105 4.368.936 9.672h-9.672l-1.872-6.76h-.416q-2.08 3.64-5.98 5.876t-9.204 2.236q-9.775 0-15.184-6.448-5.408-6.447-5.408-20.176 0-13.311 6.032-20.696 6.033-7.384 17.68-7.384 3.225 0 5.304.364 2.08.365 4.16 1.196v-21.112h13.52zm-22.984 8.32q3.953 0 6.24-1.924t3.224-5.564v-22.048a10.3 10.3 0 0 0-3.224-1.716q-1.767-.572-4.576-.572-5.72 0-8.58 3.848-2.86 3.849-2.86 13.208 0 6.656 2.34 10.712t7.436 4.056m56.992-62.816h13.52v24.96h.416q2.184-2.496 5.616-3.952t7.592-1.456q9.36 0 14.3 6.396t4.94 19.5q0 14.04-6.916 21.32-6.915 7.28-18.98 7.28-6.656 0-12.168-1.092t-8.32-2.444zm23.192 30.992q-3.744 0-6.084 1.924-2.34 1.925-3.588 5.564v22.672q1.665.832 3.588 1.144t4.108.312q5.513 0 8.372-4.004t2.86-12.74q0-14.872-9.256-14.872m48.152 19.032 1.872 8.112h.624l1.352-8.216 7.904-29.12h13.936l-15.808 46.904a344 344 0 0 1-3.796 10.66q-1.82 4.836-4.004 8.372-2.184 3.537-4.836 5.46t-6.292 1.924q-5.407 0-8.632-1.768l2.496-10.816q1.56.624 3.12.624 2.393 0 4.628-2.028 2.237-2.028 3.38-7.332l-21.736-52h16.224z" style="fill:#fff;fill-rule:nonzero"/></svg>