<svg xmlns="http://www.w3.org/2000/svg" xml:space="preserve" style="fill-rule:evenodd;clip-rule:evenodd;stroke-linejoin:round;stroke-miterlimit:2" viewBox="0 0 1125 721"><path d="M.071.082h1124v720H.071z" style="fill:none"/><path d="m174.219 456.554.253 9.746h.38l3.797-9.999 17.342-32.912h17.594l-38.733 63.924h-9.621l-12.404-63.924h17.215zm81.645 4.81a83 83 0 0 0-1.456 9.747 105 105 0 0 0-.443 9.367q0 1.771.063 3.354.064 1.582.19 2.975h-11.519l-1.772-10.886h-.506q-1.393 2.279-3.608 4.493a35 35 0 0 1-4.873 4.051 24.6 24.6 0 0 1-5.633 2.911 17.9 17.9 0 0 1-6.139 1.076q-8.355 0-12.342-5.443t-3.987-14.557q0-9.24 2.341-17.721 2.343-8.481 7.279-14.937t12.468-10.316q7.532-3.861 17.911-3.861 4.431 0 9.684.823a87 87 0 0 1 10.19 2.215zm-29.747 14.05q2.279 0 4.304-.949a15.5 15.5 0 0 0 3.734-2.468 22.4 22.4 0 0 0 3.038-3.291 73 73 0 0 0 2.342-3.292l6.329-29.493q-1.393-.633-3.228-.949a21 21 0 0 0-3.608-.317q-4.557 0-8.101 2.722t-6.012 7.088q-2.469 4.368-3.735 9.874a49.3 49.3 0 0 0-1.265 11.075q0 4.052 1.329 7.026t4.873 2.974m71.265 11.266 8.355-39.24q.759-3.544.759-6.203 0-2.784-1.139-4.367-1.14-1.582-4.177-1.582-2.279 0-4.557 1.139t-4.304 3.038a33.5 33.5 0 0 0-3.797 4.241 34.3 34.3 0 0 0-3.038 4.747l-8.102 38.227h-15.569l13.418-63.291h11.772l-.633 11.14h.506a65 65 0 0 1 3.861-4.304q2.214-2.279 5.126-4.177 2.911-1.899 6.519-3.165t8.165-1.266q5.695 0 9.114 3.102 3.417 3.1 3.417 10.316 0 1.899-.19 4.051-.19 2.151-.822 4.683l-9.114 42.911zm41.139-63.291h15.57l-13.418 63.291h-15.569zm2.532-17.974q0-4.178 2.721-6.456t6.899-2.278q4.05 0 6.899 2.278 2.847 2.278 2.848 6.456 0 4.05-2.848 6.392-2.849 2.342-6.899 2.342-4.177 0-6.899-2.342-2.721-2.342-2.721-6.392m19.873 17.974h8.228l2.531-11.898 16.583-4.684-3.545 16.582h14.81l-2.911 13.038h-14.684l-6.202 28.608q-.76 3.417-.76 5.569 0 2.786 1.266 3.798t3.798 1.012q2.405 0 4.367-.506t4.114-1.646v11.646q-1.393.759-3.355 1.456a29.6 29.6 0 0 1-4.24 1.139 55 55 0 0 1-4.684.696 43 43 0 0 1-4.43.253q-6.456 0-9.937-2.974t-3.481-9.051q0-1.266.19-2.658t.443-2.912l7.342-34.43h-8.481zm64.43 35.57.126 9.873h.76l3.418-10 17.215-35.443h16.582l-30.38 56.835a683 683 0 0 1-7.152 13.038q-3.354 5.95-6.772 10.253-3.417 4.305-7.088 6.709-3.67 2.406-7.848 2.405-5.57 0-8.355-1.899l4.178-12.404a5.3 5.3 0 0 0 1.582.506q.823.126 1.582.126 3.038 0 6.203-2.911 3.164-2.911 6.329-9.367l-11.899-63.291h17.848zm103.417-60.886h15.443l-12.026 57.215q-1.899 9.114-4.936 15.38-3.039 6.265-7.342 10.189-4.304 3.924-10.127 5.633-5.822 1.709-13.417 1.709-7.342 0-12.405-1.709t-8.291-4.873a18.7 18.7 0 0 1-4.684-7.468q-1.455-4.304-1.455-9.494 0-2.532.316-5.19t.949-5.569l11.899-55.823h16.329l-11.645 55.696q-1.014 4.81-1.013 7.848 0 6.076 3.164 8.607 3.165 2.532 9.241 2.532 7.594 0 11.772-4.43 4.177-4.431 6.329-14.304zm28.86.886a119 119 0 0 1 12.278-1.645q6.203-.507 11.14-.507 5.822 0 11.012 1.393 5.19 1.392 8.987 4.24 3.798 2.848 6.013 7.342t2.215 10.57q0 6.961-2.088 12.088t-5.507 8.608a25.5 25.5 0 0 1-7.784 5.443q-4.368 1.962-8.924 2.594l4.936 3.924 12.279 33.671h-18.228l-12.152-34.683-8.734-1.646-7.595 36.329h-16.455zm7.975 39.62h6.709q3.67 0 7.215-.696t6.265-2.532q2.723-1.835 4.431-4.873t1.709-7.721q0-4.305-2.912-7.405-2.911-3.102-9.367-3.102-2.532 0-4.747.19t-3.734.443zm99.366 48.101h-53.291l18.734-88.607h16.456l-15.57 73.164h36.835zm10.38-14.81q2.53 1.392 6.519 2.468 3.987 1.077 8.417 1.076t6.772-1.709 2.469-5.253q0-2.53-1.519-4.367-1.52-1.835-3.861-3.481a146 146 0 0 0-5-3.354 34 34 0 0 1-5-3.924q-2.342-2.215-3.861-5.253-1.518-3.039-1.519-7.342 0-4.178 1.646-7.721a17.6 17.6 0 0 1 4.62-6.076q2.974-2.532 7.215-3.924 4.24-1.393 9.557-1.393 7.342 0 12.152 1.076t7.595 2.722l-4.304 11.898q-2.532-1.139-6.139-1.898a36.4 36.4 0 0 0-7.532-.76q-4.05 0-6.392 1.393-2.342 1.392-2.342 4.43 0 2.026 1.519 3.607 1.52 1.582 3.861 3.228a148 148 0 0 0 5 3.355 28.4 28.4 0 0 1 5 4.114 21.2 21.2 0 0 1 3.86 5.506q1.52 3.101 1.519 7.405 0 10.506-6.835 15.633t-18.228 5.126q-6.455 0-11.835-1.202-5.38-1.203-8.291-2.975z" style="fill:#0f766e;fill-rule:nonzero"/><path d="M724.847 478.326q0-4.431 2.785-7.026 2.784-2.594 7.341-2.594 4.684 0 7.469 2.594 2.784 2.595 2.784 7.026t-2.784 7.088-7.469 2.658q-4.557 0-7.341-2.658-2.785-2.658-2.785-7.088" style="fill:#14b8a6;fill-rule:nonzero"/><path d="M773.707 467.946q-.759 3.671.063 5.443t2.722 1.772a16.5 16.5 0 0 0 6.709-1.392l-.38 11.265q-2.279 1.393-6.582 2.279a42 42 0 0 1-8.481.886q-5.443 0-8.291-2.089t-2.848-7.784q0-2.911.759-6.709l15.57-73.544h15.569zm30-44.557h15.569l-13.417 63.291h-15.57zm2.532-17.974q0-4.178 2.721-6.456t6.899-2.278q4.05 0 6.898 2.278t2.848 6.456q0 4.05-2.848 6.392t-6.898 2.342q-4.178 0-6.899-2.342t-2.721-6.392m50.885 81.265 8.355-39.24q.759-3.544.759-6.203 0-2.784-1.139-4.367-1.14-1.582-4.177-1.582-2.279 0-4.557 1.139t-4.304 3.038a33.6 33.6 0 0 0-3.798 4.241 34.4 34.4 0 0 0-3.037 4.747l-8.102 38.227h-15.569l13.417-63.291h11.773l-.633 11.14h.506a65 65 0 0 1 3.861-4.304q2.214-2.279 5.126-4.177 2.911-1.899 6.519-3.165t8.165-1.266q5.696 0 9.113 3.102 3.418 3.1 3.418 10.316 0 1.899-.19 4.051-.19 2.151-.822 4.683l-9.114 42.911zm56.455-26.202h-5.063l-5.443 26.202h-15.569l18.734-88.607h15.569l-11.139 52.278 4.684-1.645 17.847-25.317h17.342l-18.861 25.443-7.594 4.81 5.696 4.81 9.62 28.228h-16.709z" style="fill:#0f766e;fill-rule:nonzero"/><path d="M728.372 69.444c-271.34 0-668.428 119.519-668.428 319.253 0 137.926 152.237 262.602 465.292 262.602 257.899 0 542.962-104.728 542.962-277.065 0-160.933-202.623-216.48-320.452-222.265v55.333c131.403 6.92 287.749 71.409 280.513 175.985-6.618 95.637-163.936 220.478-509.291 228.152-219.779 4.884-425.326-95.401-420.308-213.761 4.78-112.729 229.806-266.227 620.501-273.239 103.325-1.855 170.113 20.212 194.594 30.972l13.082-69.36s-76.496-16.607-198.465-16.607" style="fill:#14b8a6;fill-rule:nonzero"/><path d="m210.824 297.882 9.464 26.624 1.872 8.632h.416l1.456-8.736 6.656-26.52h12.376l-16.016 52.52h-9.984l-10.504-29.12-1.352-6.552h-.52l-1.248 6.656-9.984 29.016H183.16l-16.744-52.52h14.664l7.592 26.104 1.248 9.256h.52l1.768-9.36 8.632-26zm75.92 47.528q-3.12 2.496-8.476 4.212t-11.388 1.716q-12.585 0-18.408-7.332t-5.824-20.124q0-13.728 6.552-20.592t18.408-6.864q3.952 0 7.696 1.04t6.656 3.432 4.68 6.448q1.767 4.056 1.768 10.088 0 2.184-.26 4.68a62 62 0 0 1-.78 5.2h-31.2q.312 6.553 3.38 9.88t9.932 3.328q4.263 0 7.644-1.3 3.38-1.299 5.148-2.652zM267.4 307.242q-5.305 0-7.852 3.172-2.549 3.172-3.068 8.476h19.344q.415-5.616-1.716-8.632-2.133-3.015-6.708-3.016m29.744-9.36h13.52v52h-13.52zm-1.976-14.664q0-3.015 2.236-5.148 2.235-2.132 6.188-2.132 3.951 0 6.396 2.132t2.444 5.148-2.444 5.044q-2.445 2.028-6.396 2.028-3.953 0-6.188-2.028-2.236-2.028-2.236-5.044m21.216 14.664h7.176v-9.776l13.52-3.848v13.624h12.688v11.44H337.08v19.968q0 5.409 1.092 7.748t4.108 2.34q2.079 0 3.588-.416 1.508-.415 3.38-1.248l2.392 10.4q-2.808 1.352-6.552 2.288a31.2 31.2 0 0 1-7.592.936q-7.176 0-10.556-3.692t-3.38-12.116v-26.208h-7.176zm80.704 47.528q-3.12 2.496-8.476 4.212t-11.388 1.716q-12.585 0-18.408-7.332t-5.824-20.124q0-13.728 6.552-20.592t18.408-6.864q3.952 0 7.696 1.04t6.656 3.432 4.68 6.448q1.767 4.056 1.768 10.088 0 2.184-.26 4.68a62 62 0 0 1-.78 5.2h-31.2q.312 6.553 3.38 9.88t9.932 3.328q4.263 0 7.644-1.3 3.38-1.299 5.148-2.652zm-19.344-38.168q-5.305 0-7.852 3.172-2.549 3.172-3.068 8.476h19.344q.415-5.616-1.716-8.632-2.133-3.015-6.708-3.016m57.2 3.328q-3.225-1.143-5.824-1.144-3.64 0-6.084 1.924-2.445 1.925-3.276 4.94v33.592h-13.52v-52h10.504l1.56 6.864h.416q1.767-3.848 4.784-5.928 3.015-2.08 7.072-2.08 2.704 0 6.136 1.144zm49.712 39.312q0 11.337-6.136 16.692t-17.16 5.356q-7.488 0-11.804-1.04t-6.5-2.184l2.808-10.712q2.391.936 5.564 1.872t7.852.936q7.071 0 9.62-3.068t2.548-8.58v-3.328h-.416q-3.64 4.888-12.896 4.888-10.089 0-15.028-6.24-4.94-6.24-4.94-19.552 0-13.935 6.656-21.112t19.344-7.176q6.655 0 11.908.936 5.251.936 8.58 2.184zm-22.88-9.984q3.951 0 6.084-1.768 2.131-1.767 3.276-5.304v-23.4q-3.225-1.352-8.008-1.352-5.2 0-8.112 3.9t-2.912 12.428q0 7.593 2.496 11.544t7.176 3.952m74.152 5.512q-3.12 2.496-8.476 4.212t-11.388 1.716q-12.585 0-18.408-7.332t-5.824-20.124q0-13.728 6.552-20.592t18.408-6.864q3.952 0 7.696 1.04t6.656 3.432 4.68 6.448 1.768 10.088q0 2.184-.26 4.68a62 62 0 0 1-.78 5.2h-31.2q.312 6.553 3.38 9.88t9.932 3.328q4.263 0 7.644-1.3 3.38-1.299 5.148-2.652zm-19.344-38.168q-5.304 0-7.852 3.172t-3.068 8.476h19.344q.416-5.616-1.716-8.632t-6.708-3.016m42.432 25.168q0 3.64.936 5.304t3.016 1.664q1.247 0 2.444-.208 1.196-.207 2.964-.936l1.456 10.608q-1.664.833-5.096 1.664a30 30 0 0 1-7.072.832q-5.928 0-9.048-2.756t-3.12-9.1v-62.4h13.52zm56.16 13q-3.12 2.496-8.476 4.212t-11.388 1.716q-12.585 0-18.408-7.332t-5.824-20.124q0-13.728 6.552-20.592t18.408-6.864q3.952 0 7.696 1.04t6.656 3.432 4.68 6.448 1.768 10.088q0 2.184-.26 4.68a62 62 0 0 1-.78 5.2h-31.2q.311 6.553 3.38 9.88t9.932 3.328q4.263 0 7.644-1.3 3.38-1.299 5.148-2.652zm-19.344-38.168q-5.304 0-7.852 3.172t-3.068 8.476h19.344q.416-5.616-1.716-8.632t-6.708-3.016m29.744-9.36h13.52v52h-13.52zm-1.976-14.664q0-3.015 2.236-5.148 2.235-2.132 6.188-2.132 3.951 0 6.396 2.132t2.444 5.148-2.444 5.044q-2.445 2.028-6.396 2.028-3.953 0-6.188-2.028-2.236-2.028-2.236-5.044m21.216 14.664h7.176v-9.776l13.52-3.848v13.624H678.2v11.44h-12.688v19.968q0 5.409 1.092 7.748t4.108 2.34q2.079 0 3.588-.416 1.508-.415 3.38-1.248l2.392 10.4q-2.808 1.352-6.552 2.288a31.2 31.2 0 0 1-7.592.936q-7.176 0-10.556-3.692t-3.38-12.116v-26.208h-7.176zm80.704 47.528q-3.12 2.496-8.476 4.212t-11.388 1.716q-12.585 0-18.408-7.332t-5.824-20.124q0-13.728 6.552-20.592t18.408-6.864q3.952 0 7.696 1.04t6.656 3.432 4.68 6.448 1.768 10.088q0 2.184-.26 4.68a62 62 0 0 1-.78 5.2h-31.2q.311 6.553 3.38 9.88t9.932 3.328q4.263 0 7.644-1.3 3.38-1.299 5.148-2.652zm-19.344-38.168q-5.304 0-7.852 3.172t-3.068 8.476H714.6q.416-5.616-1.716-8.632t-6.708-3.016m23.088-9.36h7.176v-9.776l13.52-3.848v13.624h12.688v11.44H749.96v19.968q0 5.409 1.092 7.748t4.108 2.34q2.079 0 3.588-.416 1.508-.415 3.38-1.248l2.392 10.4q-2.808 1.352-6.552 2.288a31.2 31.2 0 0 1-7.592.936q-7.176 0-10.556-3.692t-3.38-12.116v-26.208h-7.176zm79.768 27.248 1.768 8.008h.52l1.456-8.216 8.84-27.04h14.56l-21.736 52.52h-8.216l-22.568-52.52h15.704zm26.312-1.248q0-13.207 6.448-20.332 6.447-7.124 18.096-7.124 6.24 0 10.816 1.976 4.575 1.976 7.592 5.564 3.015 3.588 4.524 8.684 1.508 5.097 1.508 11.232 0 13.209-6.396 20.332-6.396 7.125-18.044 7.124-6.24 0-10.816-1.976t-7.644-5.564q-3.069-3.587-4.576-8.684-1.508-5.096-1.508-11.232m13.936 0q0 3.432.624 6.344t1.872 5.096 3.276 3.38q2.028 1.197 4.836 1.196 5.303 0 7.904-3.848t2.6-12.168q0-7.176-2.392-11.596t-8.112-4.42q-4.992 0-7.8 3.744t-2.808 12.272m74.152 26v-29.536q0-6.344-1.82-9.152t-6.188-2.808q-3.849 0-6.5 2.236-2.652 2.237-3.796 5.564v33.696h-13.52v-52h10.712l1.56 6.864h.416q2.391-3.328 6.344-5.824 3.952-2.496 10.192-2.496 3.848 0 6.864 1.04a11.7 11.7 0 0 1 5.096 3.432q2.079 2.393 3.12 6.5t1.04 10.14v32.344z" style="fill:#fff;fill-rule:nonzero"/></svg>