<svg xmlns="http://www.w3.org/2000/svg" xml:space="preserve" style="fill-rule:evenodd;clip-rule:evenodd;stroke-linejoin:round;stroke-miterlimit:2" viewBox="0 0 1125 721"><path d="M.352.77h1124v720H.352z" style="fill:none"/><path d="m172.283 457.241.253 9.747h.38l3.798-10 17.341-32.911h17.595L172.916 488h-9.62l-12.405-63.923h17.215zm81.645 4.81a84 84 0 0 0-1.456 9.747 105 105 0 0 0-.443 9.367q0 1.772.064 3.354.063 1.583.19 2.975h-11.519l-1.772-10.886h-.507q-1.393 2.279-3.607 4.494a35 35 0 0 1-4.874 4.05 24.6 24.6 0 0 1-5.633 2.912 17.9 17.9 0 0 1-6.139 1.076q-8.354 0-12.341-5.443t-3.988-14.557q0-9.24 2.342-17.722 2.341-8.48 7.278-14.936 4.938-6.456 12.469-10.316t17.911-3.861q4.43 0 9.683.823a87 87 0 0 1 10.19 2.215zm-29.746 14.051q2.278 0 4.303-.95a15.4 15.4 0 0 0 3.734-2.468 22.3 22.3 0 0 0 3.038-3.291 73 73 0 0 0 2.342-3.291l6.329-29.494q-1.392-.632-3.228-.949a21 21 0 0 0-3.607-.316q-4.558 0-8.101 2.721t-6.013 7.089q-2.469 4.367-3.734 9.873a49.3 49.3 0 0 0-1.266 11.076q0 4.05 1.329 7.025 1.33 2.975 4.874 2.975m71.265 11.266 8.354-39.241q.76-3.543.76-6.202 0-2.785-1.14-4.367t-4.177-1.582q-2.278 0-4.557 1.139-2.278 1.139-4.303 3.038a33.5 33.5 0 0 0-3.798 4.24 34.6 34.6 0 0 0-3.038 4.747l-8.101 38.228h-15.57l13.418-63.291h11.772l-.633 11.139h.507a65 65 0 0 1 3.86-4.304q2.215-2.278 5.127-4.177t6.519-3.164q3.607-1.266 8.164-1.266 5.697 0 9.114 3.101t3.418 10.316q0 1.899-.19 4.051t-.823 4.684l-9.114 42.911zm41.139-63.291h15.569l-13.417 63.291h-15.57zm2.531-17.975q0-4.176 2.722-6.455t6.898-2.279q4.051 0 6.899 2.279t2.848 6.455q0 4.052-2.848 6.393t-6.899 2.342q-4.176 0-6.898-2.342t-2.722-6.393m19.874 17.975h8.227l2.532-11.899 16.582-4.683-3.544 16.582h14.81l-2.912 13.038h-14.683l-6.202 28.607q-.76 3.418-.76 5.57 0 2.784 1.266 3.797t3.797 1.013q2.406 0 4.367-.507 1.963-.506 4.114-1.645v11.645q-1.392.76-3.354 1.456a29.5 29.5 0 0 1-4.241 1.139q-2.278.444-4.683.697t-4.431.253q-6.454 0-9.936-2.975-3.481-2.975-3.481-9.051 0-1.264.19-2.658.19-1.392.443-2.911l7.341-34.43h-8.48zm64.429 35.569.127 9.874h.759l3.418-10 17.215-35.443h16.582l-30.379 56.835a694 694 0 0 1-7.152 13.038q-3.355 5.95-6.772 10.253t-7.089 6.709q-3.67 2.405-7.848 2.405-5.57 0-8.354-1.899l4.177-12.405a5.3 5.3 0 0 0 1.582.506q.823.127 1.583.127 3.037 0 6.202-2.911t6.329-9.367l-11.898-63.291h17.847zm103.417-60.885h15.443l-12.025 57.214q-1.9 9.114-4.937 15.38t-7.342 10.19q-4.303 3.923-10.126 5.633t-13.418 1.709q-7.341 0-12.405-1.709t-8.291-4.874a18.7 18.7 0 0 1-4.683-7.468q-1.456-4.304-1.456-9.494 0-2.53.317-5.189.316-2.659.949-5.57l11.899-55.822h16.329l-11.646 55.695q-1.013 4.81-1.013 7.848 0 6.076 3.165 8.608t9.24 2.532q7.596 0 11.772-4.431 4.178-4.43 6.33-14.303zm28.861.886q6.075-1.14 12.278-1.646 6.202-.506 11.139-.506 5.823 0 11.013 1.392 5.19 1.393 8.987 4.241 3.798 2.848 6.013 7.341t2.215 10.57q0 6.962-2.089 12.089-2.088 5.125-5.506 8.607a25.4 25.4 0 0 1-7.785 5.443q-4.367 1.962-8.924 2.595l4.937 3.924 12.278 33.671h-18.227l-12.152-34.684-8.734-1.645-7.595 36.329H537.09zm7.974 39.62h6.709q3.67 0 7.215-.696 3.545-.697 6.266-2.532 2.721-1.836 4.43-4.873 1.71-3.039 1.709-7.722 0-4.303-2.911-7.405-2.911-3.1-9.367-3.101-2.532 0-4.747.19-2.216.19-3.734.443zm99.366 48.101h-53.29l18.734-88.607h16.455l-15.569 73.164h36.835zm10.38-14.81q2.532 1.392 6.519 2.468t8.418 1.076q4.43 0 6.772-1.709t2.468-5.253q0-2.532-1.519-4.367-1.518-1.836-3.861-3.481a147 147 0 0 0-5-3.355 34 34 0 0 1-4.999-3.924q-2.343-2.214-3.861-5.253-1.52-3.037-1.519-7.341 0-4.178 1.645-7.722a17.6 17.6 0 0 1 4.621-6.076q2.975-2.532 7.215-3.924t9.557-1.392q7.341 0 12.151 1.076t7.595 2.721l-4.303 11.899q-2.532-1.14-6.14-1.899a36.5 36.5 0 0 0-7.531-.759q-4.05 0-6.393 1.392-2.341 1.392-2.341 4.43 0 2.026 1.519 3.608t3.86 3.228a147 147 0 0 0 5 3.354 28.5 28.5 0 0 1 5 4.114 21.2 21.2 0 0 1 3.861 5.506q1.52 3.102 1.519 7.405 0 10.507-6.835 15.633-6.836 5.127-18.228 5.127-6.456 0-11.835-1.203t-8.292-2.974z" style="fill:#0f766e;fill-rule:nonzero"/><path d="M722.911 479.013q0-4.43 2.785-7.025t7.342-2.595q4.683 0 7.468 2.595t2.785 7.025q0 4.431-2.785 7.089-2.784 2.658-7.468 2.658-4.557 0-7.342-2.658t-2.785-7.089" style="fill:#14b8a6;fill-rule:nonzero"/><path d="M771.772 468.634q-.76 3.67.063 5.443t2.721 1.772q3.545 0 6.709-1.393l-.379 11.266q-2.278 1.392-6.583 2.278a42 42 0 0 1-8.481.887q-5.442 0-8.291-2.089-2.847-2.088-2.848-7.785 0-2.911.76-6.709l15.569-73.543h15.57zm29.999-44.557h15.57l-13.418 63.291h-15.569zm2.532-17.975q0-4.176 2.722-6.455 2.72-2.279 6.898-2.279 4.051 0 6.899 2.279t2.848 6.455q0 4.052-2.848 6.393t-6.899 2.342q-4.177 0-6.898-2.342t-2.722-6.393m50.886 81.266 8.354-39.241q.76-3.543.76-6.202 0-2.785-1.14-4.367t-4.177-1.582q-2.279 0-4.557 1.139t-4.304 3.038a33.5 33.5 0 0 0-3.797 4.24 34.6 34.6 0 0 0-3.038 4.747l-8.101 38.228h-15.57l13.418-63.291h11.772l-.633 11.139h.506a66 66 0 0 1 3.861-4.304q2.216-2.278 5.127-4.177 2.912-1.899 6.519-3.164t8.164-1.266q5.697 0 9.114 3.101t3.418 10.316q0 1.899-.19 4.051t-.823 4.684l-9.114 42.911zm56.455-26.203h-5.063l-5.443 26.203h-15.57l18.734-88.607h15.57l-11.139 52.278 4.683-1.646 17.848-25.316h17.342l-18.861 25.443-7.595 4.81 5.696 4.81 9.62 28.228h-16.708z" style="fill:#0f766e;fill-rule:nonzero"/><path d="M728.653 70.132c-271.34 0-668.428 119.518-668.428 319.253 0 137.925 152.237 262.602 465.292 262.602 257.899 0 542.962-104.728 542.962-277.065 0-160.934-202.622-216.48-320.451-222.265v55.333c131.402 6.92 287.748 71.409 280.512 175.984-6.618 95.638-163.935 220.478-509.291 228.153-219.779 4.884-425.326-95.402-420.308-213.762 4.78-112.729 229.807-266.226 620.502-273.239 103.324-1.854 170.112 20.212 194.593 30.972l13.083-69.36s-76.497-16.606-198.466-16.606" style="fill:#14b8a6;fill-rule:nonzero"/><path d="M302.28 311.258q-3.223-1.144-5.824-1.144-3.639 0-6.084 1.924-2.443 1.924-3.276 4.94v33.592h-13.52v-52h10.504l1.56 6.864h.416q1.769-3.848 4.784-5.928 3.016-2.08 7.072-2.08 2.704 0 6.136 1.144zm47.32 34.84q-3.12 2.496-8.476 4.212-5.355 1.716-11.388 1.716-12.583 0-18.408-7.332-5.824-7.332-5.824-20.124 0-13.728 6.552-20.592t18.408-6.864q3.952 0 7.696 1.04t6.656 3.432q2.913 2.392 4.68 6.448 1.768 4.056 1.768 10.088 0 2.184-.26 4.68a61 61 0 0 1-.78 5.2h-31.2q.312 6.552 3.38 9.88t9.932 3.328q4.265 0 7.644-1.3 3.381-1.3 5.148-2.652zm-19.344-38.168q-5.304 0-7.852 3.172t-3.068 8.476h19.344q.417-5.616-1.716-8.632-2.131-3.016-6.708-3.016m72.696 24.336q0 4.368.104 8.736.105 4.368.936 9.672h-9.672l-1.872-6.76h-.416q-2.08 3.64-5.98 5.876t-9.204 2.236q-9.775 0-15.184-6.448t-5.408-20.176q0-13.312 6.032-20.696 6.033-7.384 17.68-7.384 3.225 0 5.304.364a21 21 0 0 1 4.16 1.196V277.77h13.52zm-22.984 8.32q3.952 0 6.24-1.924t3.224-5.564V311.05a10.3 10.3 0 0 0-3.224-1.716q-1.767-.572-4.576-.572-5.72 0-8.58 3.848t-2.86 13.208q0 6.656 2.34 10.712t7.436 4.056m34.008-42.016h13.52v52h-13.52zM412 283.906q0-3.017 2.236-5.148 2.237-2.132 6.188-2.132 3.952 0 6.396 2.132t2.444 5.148-2.444 5.044-6.396 2.028-6.188-2.028-2.236-5.044m55.328 27.352q-3.223-1.144-5.824-1.144-3.639 0-6.084 1.924t-3.276 4.94v33.592h-13.52v-52h10.504l1.56 6.864h.416q1.769-3.848 4.784-5.928 3.016-2.08 7.072-2.08 2.704 0 6.136 1.144zm47.32 34.84q-3.12 2.496-8.476 4.212-5.355 1.716-11.388 1.716-12.583 0-18.408-7.332-5.824-7.332-5.824-20.124 0-13.728 6.552-20.592t18.408-6.864q3.952 0 7.696 1.04t6.656 3.432 4.68 6.448 1.768 10.088q0 2.184-.26 4.68a61 61 0 0 1-.78 5.2h-31.2q.312 6.552 3.38 9.88t9.932 3.328q4.264 0 7.644-1.3t5.148-2.652zm-19.344-38.168q-5.304 0-7.852 3.172t-3.068 8.476h19.344q.417-5.616-1.716-8.632-2.131-3.016-6.708-3.016m64.792 39.416q-3.12 2.288-7.54 3.484a34.7 34.7 0 0 1-9.1 1.196q-6.24 0-10.556-1.976t-7.02-5.564-3.9-8.684-1.196-11.232q0-13.208 5.928-20.332t17.264-7.124q5.721 0 9.204.936t6.292 2.392l-3.224 11.024a27 27 0 0 0-4.732-1.768q-2.34-.624-5.356-.624-5.616 0-8.528 3.692t-2.912 11.804q0 3.328.728 6.136.729 2.808 2.184 4.888t3.796 3.276q2.34 1.196 5.46 1.196 3.433 0 5.824-.884t4.264-2.132zm.728-48.776H568v-9.776l13.52-3.848v13.624h12.688v11.44H581.52v19.968q0 5.408 1.092 7.748t4.108 2.34q2.08 0 3.588-.416 1.508-.415 3.38-1.248l2.392 10.4q-2.808 1.352-6.552 2.288a31.2 31.2 0 0 1-7.592.936q-7.176 0-10.556-3.692T568 336.218V310.01h-7.176zm80.704 47.528q-3.12 2.496-8.476 4.212-5.355 1.716-11.388 1.716-12.583 0-18.408-7.332-5.823-7.332-5.824-20.124 0-13.728 6.552-20.592t18.408-6.864q3.952 0 7.696 1.04t6.656 3.432q2.913 2.392 4.68 6.448 1.768 4.056 1.768 10.088 0 2.184-.26 4.68a61 61 0 0 1-.78 5.2h-31.2q.312 6.552 3.38 9.88t9.932 3.328q4.264 0 7.644-1.3t5.148-2.652zm-19.344-38.168q-5.304 0-7.852 3.172t-3.068 8.476h19.344q.417-5.616-1.716-8.632t-6.708-3.016m72.696 24.336q0 4.368.104 8.736.105 4.368.936 9.672h-9.672l-1.872-6.76h-.416q-2.08 3.64-5.98 5.876t-9.204 2.236q-9.775 0-15.184-6.448t-5.408-20.176q0-13.312 6.032-20.696 6.033-7.384 17.68-7.384 3.225 0 5.304.364a21 21 0 0 1 4.16 1.196V277.77h13.52zm-22.984 8.32q3.953 0 6.24-1.924t3.224-5.564V311.05a10.3 10.3 0 0 0-3.224-1.716q-1.767-.572-4.576-.572-5.72 0-8.58 3.848t-2.86 13.208q0 6.656 2.34 10.712t7.436 4.056m56.992-62.816h13.52v24.96h.416q2.184-2.496 5.616-3.952t7.592-1.456q9.36 0 14.3 6.396t4.94 19.5q0 14.04-6.916 21.32-6.915 7.28-18.98 7.28-6.656 0-12.168-1.092t-8.32-2.444zm23.192 30.992q-3.744 0-6.084 1.924t-3.588 5.564v22.672q1.665.832 3.588 1.144t4.108.312q5.513 0 8.372-4.004t2.86-12.74q0-14.872-9.256-14.872m48.152 19.032 1.872 8.112h.624l1.352-8.216 7.904-29.12h13.936l-15.808 46.904a344 344 0 0 1-3.796 10.66q-1.82 4.836-4.004 8.372t-4.836 5.46-6.292 1.924q-5.407 0-8.632-1.768l2.496-10.816q1.56.624 3.12.624 2.393 0 4.628-2.028 2.237-2.028 3.38-7.332l-21.736-52h16.224z" style="fill:#111827;fill-rule:nonzero"/></svg>