<svg xmlns="http://www.w3.org/2000/svg" xml:space="preserve" style="fill-rule:evenodd;clip-rule:evenodd;stroke-linejoin:round;stroke-miterlimit:2" viewBox="0 0 1125 721"><path d="M.008.801h1124v720H.008z" style="fill:none"/><path d="m171.94 457.272.253 9.747h.379l3.798-10 17.341-32.911h17.595l-38.734 63.924h-9.62l-12.405-63.924h17.215zm81.644 4.811a83 83 0 0 0-1.455 9.746 105 105 0 0 0-.443 9.367q0 1.773.063 3.355t.19 2.974H240.42l-1.772-10.886h-.507q-1.392 2.279-3.607 4.494a35 35 0 0 1-4.873 4.051 24.7 24.7 0 0 1-5.633 2.911 17.9 17.9 0 0 1-6.14 1.076q-8.354 0-12.341-5.443t-3.987-14.557q0-9.24 2.341-17.721t7.279-14.937q4.936-6.456 12.468-10.316 7.531-3.861 17.911-3.861 4.431 0 9.684.823a87 87 0 0 1 10.189 2.215zm-29.746 14.05q2.278 0 4.304-.949a15.5 15.5 0 0 0 3.734-2.469 22.3 22.3 0 0 0 3.038-3.291 73 73 0 0 0 2.341-3.291l6.329-29.493q-1.392-.633-3.227-.95a21 21 0 0 0-3.608-.316q-4.557 0-8.101 2.721-3.544 2.723-6.013 7.089t-3.734 9.873a49.3 49.3 0 0 0-1.266 11.076q0 4.051 1.329 7.025 1.33 2.976 4.874 2.975m71.265 11.266 8.354-39.24q.76-3.545.76-6.203 0-2.784-1.139-4.367-1.14-1.582-4.178-1.582-2.279 0-4.556 1.139-2.279 1.14-4.304 3.038a33.6 33.6 0 0 0-3.798 4.24 35 35 0 0 0-3.038 4.747l-8.101 38.228h-15.569l13.417-63.291h11.772l-.633 11.139h.507a66 66 0 0 1 3.86-4.303q2.215-2.279 5.127-4.178 2.911-1.898 6.519-3.164t8.164-1.266q5.697 0 9.114 3.101t3.418 10.317q0 1.898-.19 4.05t-.823 4.684l-9.114 42.911zm41.139-63.291h15.569l-13.417 63.291h-15.57zm2.532-17.974q0-4.178 2.721-6.456t6.899-2.278q4.05 0 6.898 2.278t2.848 6.456q0 4.05-2.848 6.392t-6.898 2.342q-4.178 0-6.899-2.342t-2.721-6.392m19.873 17.974h8.228l2.531-11.898 16.582-4.684-3.544 16.582h14.81l-2.911 13.038h-14.684l-6.202 28.607q-.76 3.418-.76 5.57 0 2.785 1.266 3.797 1.266 1.014 3.798 1.013 2.405 0 4.367-.506 1.962-.507 4.113-1.646v11.646q-1.392.759-3.354 1.455a29.6 29.6 0 0 1-4.24 1.14 55 55 0 0 1-4.684.696 43 43 0 0 1-4.43.253q-6.456 0-9.937-2.975t-3.481-9.05q0-1.266.19-2.658.19-1.393.443-2.912l7.342-34.43h-8.481zm64.43 35.57.126 9.873h.76l3.417-10 17.215-35.443h16.583l-30.38 56.835a694 694 0 0 1-7.152 13.038q-3.354 5.95-6.772 10.253-3.417 4.304-7.088 6.709t-7.848 2.405q-5.57 0-8.355-1.899l4.177-12.405a5.4 5.4 0 0 0 1.583.507q.823.126 1.582.126 3.038 0 6.202-2.911t6.329-9.367l-11.898-63.291h17.848zm103.416-60.886h15.443l-12.025 57.215q-1.898 9.114-4.937 15.379-3.038 6.266-7.341 10.19t-10.127 5.633q-5.823 1.709-13.417 1.709-7.342 0-12.405-1.709-5.064-1.709-8.291-4.873a18.7 18.7 0 0 1-4.684-7.469q-1.456-4.303-1.456-9.493 0-2.532.317-5.19.316-2.658.949-5.57l11.899-55.822h16.329l-11.646 55.696q-1.012 4.809-1.012 7.848 0 6.075 3.164 8.607t9.241 2.532q7.595 0 11.772-4.43 4.176-4.431 6.329-14.304zm28.861.886a119 119 0 0 1 12.278-1.646q6.202-.506 11.139-.506 5.823 0 11.013 1.393 5.19 1.392 8.987 4.24 3.798 2.848 6.013 7.342t2.215 10.569q0 6.963-2.089 12.089t-5.506 8.607a25.4 25.4 0 0 1-7.785 5.443q-4.367 1.962-8.924 2.595l4.937 3.924 12.278 33.671h-18.227l-12.152-34.683-8.734-1.646-7.595 36.329h-16.456zm7.975 39.62h6.708q3.672 0 7.215-.696 3.545-.696 6.266-2.532 2.722-1.835 4.431-4.873 1.708-3.038 1.708-7.722 0-4.303-2.911-7.405-2.911-3.1-9.367-3.101-2.532 0-4.747.19t-3.734.443zm99.366 48.101h-53.291l18.734-88.607h16.456l-15.57 73.164h36.835zm10.379-14.81q2.532 1.392 6.519 2.468t8.418 1.076q4.43 0 6.772-1.709t2.468-5.253q0-2.531-1.519-4.367t-3.86-3.481a146 146 0 0 0-5-3.354 34 34 0 0 1-5-3.924q-2.341-2.216-3.861-5.253-1.52-3.039-1.519-7.342 0-4.177 1.646-7.722a17.65 17.65 0 0 1 4.62-6.076q2.975-2.53 7.215-3.924 4.24-1.392 9.557-1.392 7.341 0 12.152 1.076 4.81 1.075 7.595 2.722l-4.304 11.898q-2.532-1.139-6.139-1.899a36.5 36.5 0 0 0-7.532-.759q-4.05 0-6.392 1.392-2.343 1.393-2.342 4.431 0 2.025 1.519 3.607t3.861 3.228a145 145 0 0 0 5 3.354 28.6 28.6 0 0 1 5 4.114 21.2 21.2 0 0 1 3.86 5.507q1.52 3.1 1.519 7.405 0 10.506-6.835 15.632-6.836 5.127-18.228 5.127-6.456 0-11.835-1.203-5.38-1.202-8.291-2.974z" style="fill:#0f766e;fill-rule:nonzero"/><path d="M722.568 479.044q0-4.43 2.784-7.025 2.785-2.595 7.342-2.595 4.683 0 7.468 2.595t2.785 7.025q0 4.431-2.785 7.089-2.784 2.658-7.468 2.658-4.557 0-7.342-2.658t-2.784-7.089" style="fill:#14b8a6;fill-rule:nonzero"/><path d="M771.428 468.665q-.759 3.67.063 5.443t2.722 1.772a16.5 16.5 0 0 0 6.709-1.392l-.38 11.265q-2.279 1.393-6.582 2.279-4.305.886-8.481.886-5.444 0-8.291-2.089t-2.848-7.785q0-2.91.759-6.708l15.569-73.544h15.57zm30-44.557h15.569l-13.417 63.291h-15.57zm2.531-17.974q0-4.178 2.722-6.456t6.898-2.278q4.051 0 6.899 2.278t2.848 6.456q0 4.05-2.848 6.392t-6.899 2.342q-4.177 0-6.898-2.342t-2.722-6.392m50.886 81.265 8.354-39.24q.76-3.545.76-6.203 0-2.784-1.139-4.367-1.14-1.582-4.178-1.582-2.279 0-4.557 1.139t-4.303 3.038a33.6 33.6 0 0 0-3.798 4.24 35 35 0 0 0-3.038 4.747l-8.101 38.228h-15.569l13.417-63.291h11.772l-.633 11.139h.507a66 66 0 0 1 3.86-4.303q2.216-2.279 5.127-4.178 2.912-1.898 6.519-3.164t8.164-1.266q5.697 0 9.114 3.101t3.418 10.317q0 1.898-.19 4.05t-.823 4.684l-9.114 42.911zm56.455-26.203h-5.063l-5.443 26.203h-15.57l18.734-88.607h15.57l-11.139 52.278 4.683-1.646 17.848-25.316h17.342l-18.861 25.443-7.595 4.81 5.697 4.81 9.62 28.228h-16.709z" style="fill:#0f766e;fill-rule:nonzero"/><path d="M728.309 70.163c-271.339 0-668.428 119.519-668.428 319.253 0 137.925 152.237 262.602 465.292 262.602 257.9 0 542.962-104.728 542.962-277.065 0-160.934-202.622-216.48-320.451-222.265v55.333c131.402 6.92 287.748 71.409 280.512 175.984-6.618 95.638-163.935 220.479-509.291 228.153-219.779 4.884-425.326-95.402-420.307-213.762 4.779-112.728 229.806-266.226 620.501-273.239 103.324-1.854 170.113 20.212 194.594 30.972l13.082-69.359s-76.497-16.607-198.466-16.607" style="fill:#14b8a6;fill-rule:nonzero"/><path d="M251.341 311.289q-3.225-1.144-5.824-1.144-3.64 0-6.084 1.924-2.445 1.924-3.276 4.94v33.592h-13.52v-52h10.504l1.56 6.864h.416q1.767-3.847 4.784-5.928 3.015-2.08 7.072-2.08 2.704 0 6.136 1.144zm47.32 34.84q-3.12 2.496-8.476 4.212t-11.388 1.716q-12.585 0-18.408-7.332t-5.824-20.124q0-13.728 6.552-20.592t18.408-6.864q3.951 0 7.696 1.04 3.743 1.04 6.656 3.432 2.911 2.392 4.68 6.448 1.767 4.056 1.768 10.088 0 2.184-.26 4.68a62 62 0 0 1-.78 5.2h-31.2q.312 6.552 3.38 9.88t9.932 3.328q4.263 0 7.644-1.3 3.38-1.3 5.148-2.652zm-19.344-38.168q-5.304 0-7.852 3.172t-3.068 8.476h19.344q.416-5.616-1.716-8.632t-6.708-3.016m29.744-9.36h13.52v52h-13.52zm-1.976-14.664q0-3.016 2.236-5.148 2.235-2.132 6.188-2.132 3.951 0 6.396 2.132 2.444 2.131 2.444 5.148t-2.444 5.044q-2.445 2.028-6.396 2.028-3.953 0-6.188-2.028-2.236-2.028-2.236-5.044m58.448 66.664v-29.536q0-6.344-1.82-9.152t-6.188-2.808q-3.849 0-6.5 2.236-2.652 2.236-3.796 5.564v33.696h-13.52v-52h10.712l1.56 6.864h.416q2.391-3.328 6.344-5.824 3.952-2.496 10.192-2.496 3.848 0 6.864 1.04a11.7 11.7 0 0 1 5.096 3.432q2.079 2.392 3.12 6.5t1.04 10.14v32.344zm66.976-18.304q0 4.368.104 8.736.103 4.368.936 9.672h-9.672l-1.872-6.76h-.416q-2.08 3.64-5.98 5.876t-9.204 2.236q-9.777 0-15.184-6.448-5.409-6.448-5.408-20.176 0-13.312 6.032-20.696 6.031-7.384 17.68-7.384 3.223 0 5.304.364 2.08.364 4.16 1.196v-21.112h13.52zm-22.984 8.32q3.951 0 6.24-1.924 2.288-1.924 3.224-5.564v-22.048a10.3 10.3 0 0 0-3.224-1.716q-1.768-.572-4.576-.572-5.721 0-8.58 3.848t-2.86 13.208q0 6.656 2.34 10.712t7.436 4.056m34.008-42.016h13.52v52h-13.52zm-1.976-14.664q0-3.016 2.236-5.148 2.235-2.132 6.188-2.132 3.951 0 6.396 2.132 2.444 2.131 2.444 5.148t-2.444 5.044q-2.445 2.028-6.396 2.028-3.953 0-6.188-2.028-2.236-2.028-2.236-5.044m55.328 27.352q-3.225-1.144-5.824-1.144-3.64 0-6.084 1.924-2.445 1.924-3.276 4.94v33.592h-13.52v-52h10.504l1.56 6.864h.416q1.767-3.847 4.784-5.928 3.015-2.08 7.072-2.08 2.704 0 6.136 1.144zm6.968-12.688h13.52v52h-13.52zm-1.976-14.664q0-3.016 2.236-5.148 2.235-2.132 6.188-2.132 3.951 0 6.396 2.132 2.444 2.131 2.444 5.148t-2.444 5.044q-2.445 2.028-6.396 2.028-3.953 0-6.188-2.028-2.236-2.028-2.236-5.044m23.92 55.224 20.488-24.648 5.304-4.472h-25.792v-11.44h40.768v11.44l-20.28 25.064-5.2 4.056h25.48v11.44h-40.768zm45.552 0 20.488-24.648 5.304-4.472h-25.792v-11.44h40.768v11.44l-20.28 25.064-5.2 4.056h25.48v11.44h-40.768zm47.944-37.544q4.16-1.872 9.88-2.964t11.96-1.092q5.408 0 9.048 1.3t5.772 3.692q2.131 2.392 3.016 5.72.884 3.329.884 7.488 0 4.577-.312 9.204t-.364 9.1q-.052 4.472.26 8.684t1.56 7.956h-11.024l-2.184-7.176h-.52q-2.08 3.224-5.772 5.564t-9.516 2.34q-3.64 0-6.552-1.092-2.913-1.092-4.992-3.12a14.2 14.2 0 0 1-3.224-4.784q-1.144-2.756-1.144-6.188 0-4.784 2.132-8.06 2.131-3.276 6.136-5.304 4.003-2.028 9.568-2.808t12.428-.468q.728-5.824-.832-8.372t-6.968-2.548q-4.056 0-8.58.832t-7.436 2.184zm17.16 38.688q4.056 0 6.448-1.82 2.391-1.82 3.536-3.9v-6.76a37 37 0 0 0-6.188-.104q-2.964.209-5.252.936-2.289.728-3.64 2.08-1.353 1.352-1.352 3.432 0 2.911 1.716 4.524t4.732 1.612m27.248-41.704h7.176v-9.776l13.52-3.848v13.624h12.688v11.44h-12.688v19.968q0 5.408 1.092 7.748t4.108 2.34q2.079 0 3.588-.416t3.38-1.248l2.392 10.4q-2.808 1.352-6.552 2.288a31.2 31.2 0 0 1-7.592.936q-7.176 0-10.556-3.692t-3.38-12.116v-26.208h-7.176zm36.608 26q0-13.208 6.448-20.332 6.447-7.124 18.096-7.124 6.24 0 10.816 1.976 4.575 1.976 7.592 5.564 3.015 3.588 4.524 8.684t1.508 11.232q0 13.208-6.396 20.332t-18.044 7.124q-6.24 0-10.816-1.976t-7.644-5.564-4.576-8.684-1.508-11.232m13.936 0q0 3.432.624 6.344t1.872 5.096 3.276 3.38 4.836 1.196q5.303 0 7.904-3.848t2.6-12.168q0-7.176-2.392-11.596t-8.112-4.42q-4.992 0-7.8 3.744t-2.808 12.272m110.76 7.696q0 4.368.104 8.736t.936 9.672h-9.672l-1.872-6.76h-.416q-2.08 3.64-5.98 5.876t-9.204 2.236q-9.777 0-15.184-6.448-5.409-6.448-5.408-20.176 0-13.312 6.032-20.696 6.031-7.384 17.68-7.384 3.223 0 5.304.364 2.08.364 4.16 1.196v-21.112h13.52zm-22.984 8.32q3.951 0 6.24-1.924 2.288-1.924 3.224-5.564v-22.048a10.3 10.3 0 0 0-3.224-1.716q-1.768-.572-4.576-.572-5.721 0-8.58 3.848t-2.86 13.208q0 6.656 2.34 10.712t7.436 4.056m32.448-39q4.16-1.872 9.88-2.964t11.96-1.092q5.407 0 9.048 1.3 3.639 1.3 5.772 3.692 2.131 2.392 3.016 5.72.884 3.329.884 7.488 0 4.577-.312 9.204t-.364 9.1q-.052 4.472.26 8.684t1.56 7.956h-11.024l-2.184-7.176h-.52q-2.08 3.224-5.772 5.564t-9.516 2.34q-3.64 0-6.552-1.092-2.913-1.092-4.992-3.12a14.2 14.2 0 0 1-3.224-4.784q-1.144-2.756-1.144-6.188 0-4.784 2.132-8.06 2.131-3.276 6.136-5.304 4.003-2.028 9.568-2.808t12.428-.468q.728-5.824-.832-8.372t-6.968-2.548q-4.056 0-8.58.832t-7.436 2.184zm17.16 38.688q4.056 0 6.448-1.82 2.391-1.82 3.536-3.9v-6.76a37 37 0 0 0-6.188-.104q-2.964.209-5.252.936-2.289.728-3.64 2.08-1.352 1.352-1.352 3.432 0 2.911 1.716 4.524t4.732 1.612" style="fill:#fff;fill-rule:nonzero"/></svg>