<svg xmlns="http://www.w3.org/2000/svg" xml:space="preserve" style="fill-rule:evenodd;clip-rule:evenodd;stroke-linejoin:round;stroke-miterlimit:2" viewBox="0 0 1125 721"><path d="M.321.52h1124v720H.321z" style="fill:none"/><path d="m174.469 456.991.253 9.747h.38l3.797-10 17.342-32.911h17.594l-38.733 63.923h-9.621l-12.404-63.923h17.215zm81.645 4.81a84 84 0 0 0-1.456 9.747 105 105 0 0 0-.443 9.367q0 1.772.063 3.354t.19 2.975h-11.519l-1.772-10.886h-.506q-1.393 2.279-3.608 4.494a35 35 0 0 1-4.873 4.05 24.6 24.6 0 0 1-5.633 2.912 17.9 17.9 0 0 1-6.139 1.076q-8.355 0-12.342-5.443t-3.987-14.557q0-9.24 2.341-17.722 2.343-8.48 7.279-14.936t12.468-10.316 17.911-3.861q4.431 0 9.684.823a87 87 0 0 1 10.19 2.215zm-29.747 14.051q2.279 0 4.304-.95a15.5 15.5 0 0 0 3.734-2.468 22.4 22.4 0 0 0 3.038-3.291 73 73 0 0 0 2.342-3.291l6.329-29.494q-1.393-.632-3.228-.949a21 21 0 0 0-3.608-.316q-4.557 0-8.101 2.721t-6.012 7.089q-2.469 4.367-3.735 9.873a49.3 49.3 0 0 0-1.265 11.076q0 4.05 1.329 7.025t4.873 2.975m71.265 11.266 8.355-39.241q.759-3.543.759-6.202 0-2.785-1.139-4.367t-4.177-1.582q-2.279 0-4.557 1.139t-4.304 3.038a33.5 33.5 0 0 0-3.797 4.24 34.4 34.4 0 0 0-3.038 4.747l-8.102 38.228h-15.569l13.418-63.291h11.772l-.633 11.139h.506a65 65 0 0 1 3.861-4.304q2.214-2.278 5.126-4.177 2.911-1.899 6.519-3.164t8.165-1.266q5.695 0 9.114 3.101 3.417 3.101 3.417 10.316 0 1.899-.19 4.051t-.822 4.684l-9.114 42.911zm41.139-63.291h15.57l-13.418 63.291h-15.569zm2.532-17.975q0-4.176 2.721-6.455t6.899-2.279q4.05 0 6.899 2.279 2.847 2.279 2.848 6.455 0 4.052-2.848 6.393-2.849 2.342-6.899 2.342-4.177 0-6.899-2.342-2.721-2.341-2.721-6.393m19.873 17.975h8.228l2.531-11.899 16.583-4.683-3.545 16.582h14.81l-2.911 13.038h-14.684l-6.202 28.607q-.76 3.418-.76 5.57 0 2.784 1.266 3.797t3.798 1.013q2.405 0 4.367-.506 1.962-.507 4.114-1.646v11.645q-1.393.76-3.355 1.456a29.5 29.5 0 0 1-4.24 1.139q-2.278.444-4.684.697-2.405.252-4.43.253-6.456 0-9.937-2.975t-3.481-9.051q0-1.264.19-2.658.19-1.392.443-2.911l7.342-34.43h-8.481zm64.43 35.569.126 9.874h.76l3.418-10 17.215-35.443h16.582l-30.38 56.835a683 683 0 0 1-7.152 13.038q-3.354 5.95-6.772 10.253-3.417 4.303-7.088 6.709-3.67 2.405-7.848 2.405-5.57 0-8.355-1.899l4.178-12.405a5.3 5.3 0 0 0 1.582.506q.823.127 1.582.127 3.038 0 6.203-2.911 3.164-2.912 6.329-9.367l-11.899-63.291h17.848zm103.417-60.885h15.443l-12.026 57.214q-1.899 9.114-4.936 15.38-3.039 6.266-7.342 10.19-4.304 3.923-10.127 5.633-5.822 1.709-13.417 1.709-7.342 0-12.405-1.709t-8.291-4.874a18.7 18.7 0 0 1-4.684-7.468q-1.455-4.304-1.455-9.494 0-2.53.316-5.189t.949-5.57l11.899-55.822h16.329l-11.645 55.695q-1.014 4.81-1.013 7.848 0 6.076 3.164 8.608t9.241 2.532q7.594 0 11.772-4.431 4.177-4.43 6.329-14.303zm28.86.886q6.077-1.14 12.278-1.646 6.203-.506 11.14-.506 5.822 0 11.012 1.392 5.19 1.393 8.987 4.241 3.798 2.848 6.013 7.341t2.215 10.57q0 6.962-2.088 12.089-2.089 5.125-5.507 8.607a25.4 25.4 0 0 1-7.784 5.443q-4.368 1.962-8.924 2.595l4.936 3.924 12.279 33.671h-18.228l-12.152-34.684-8.734-1.645-7.595 36.329h-16.455zm7.975 39.62h6.709q3.67 0 7.215-.696 3.544-.697 6.265-2.532 2.723-1.836 4.431-4.873 1.709-3.039 1.709-7.722 0-4.303-2.912-7.405-2.911-3.1-9.367-3.101-2.532 0-4.747.19t-3.734.443zm99.366 48.101h-53.291l18.734-88.607h16.456l-15.57 73.164h36.835zm10.38-14.81q2.53 1.392 6.519 2.468 3.987 1.076 8.417 1.076t6.772-1.709 2.469-5.253q0-2.532-1.519-4.367-1.52-1.836-3.861-3.481a148 148 0 0 0-5-3.355 34 34 0 0 1-5-3.924q-2.342-2.214-3.861-5.253-1.518-3.037-1.519-7.341 0-4.178 1.646-7.722a17.65 17.65 0 0 1 4.62-6.076q2.974-2.532 7.215-3.924t9.557-1.392q7.342 0 12.152 1.076t7.595 2.721l-4.304 11.899q-2.532-1.14-6.139-1.899a36.5 36.5 0 0 0-7.532-.759q-4.05 0-6.392 1.392t-2.342 4.43q0 2.026 1.519 3.608 1.52 1.583 3.861 3.228a146 146 0 0 0 5 3.354 28.5 28.5 0 0 1 5 4.114 21.2 21.2 0 0 1 3.86 5.506q1.52 3.102 1.519 7.405 0 10.507-6.835 15.633-6.835 5.127-18.228 5.127-6.455 0-11.835-1.203t-8.291-2.974z" style="fill:#0f766e;fill-rule:nonzero"/><path d="M725.097 478.763q0-4.43 2.785-7.025 2.784-2.595 7.341-2.595 4.684 0 7.469 2.595 2.784 2.595 2.784 7.025 0 4.431-2.784 7.089-2.785 2.658-7.469 2.658-4.557 0-7.341-2.658-2.785-2.658-2.785-7.089" style="fill:#14b8a6;fill-rule:nonzero"/><path d="M773.957 468.384q-.759 3.67.063 5.443t2.722 1.772q3.544 0 6.709-1.393l-.38 11.266q-2.279 1.392-6.582 2.278a42 42 0 0 1-8.481.887q-5.443 0-8.291-2.089t-2.848-7.785q0-2.911.759-6.709l15.57-73.543h15.569zm30-44.557h15.569l-13.417 63.291h-15.57zm2.532-17.975q0-4.176 2.721-6.455t6.899-2.279q4.05 0 6.898 2.279t2.848 6.455q0 4.052-2.848 6.393t-6.898 2.342q-4.178 0-6.899-2.342t-2.721-6.393m50.885 81.266 8.355-39.241q.759-3.543.759-6.202 0-2.785-1.139-4.367t-4.177-1.582q-2.279 0-4.557 1.139t-4.304 3.038a33.6 33.6 0 0 0-3.798 4.24 34.5 34.5 0 0 0-3.037 4.747l-8.102 38.228h-15.569l13.417-63.291h11.773l-.633 11.139h.506a65 65 0 0 1 3.861-4.304q2.214-2.278 5.126-4.177 2.911-1.899 6.519-3.164t8.165-1.266q5.696 0 9.113 3.101 3.418 3.101 3.418 10.316 0 1.899-.19 4.051t-.822 4.684l-9.114 42.911zm56.455-26.203h-5.063l-5.443 26.203h-15.569l18.734-88.607h15.569l-11.139 52.278 4.684-1.646 17.847-25.316h17.342L931.93 449.27l-7.594 4.81 5.696 4.81 9.62 28.228h-16.709z" style="fill:#0f766e;fill-rule:nonzero"/><path d="M728.622 69.882c-271.34 0-668.428 119.518-668.428 319.253 0 137.925 152.237 262.602 465.292 262.602 257.899 0 542.962-104.728 542.962-277.065 0-160.934-202.623-216.48-320.452-222.265v55.333c131.403 6.92 287.749 71.409 280.513 175.984-6.618 95.638-163.936 220.478-509.291 228.153-219.779 4.884-425.326-95.402-420.308-213.762 4.78-112.729 229.806-266.226 620.501-273.239 103.325-1.854 170.113 20.212 194.594 30.972l13.082-69.36s-76.496-16.606-198.465-16.606" style="fill:#14b8a6;fill-rule:nonzero"/><path d="m211.074 298.32 9.464 26.624 1.872 8.632h.416l1.456-8.736 6.656-26.52h12.376l-16.016 52.52h-9.984l-10.504-29.12-1.352-6.552h-.52l-1.248 6.656-9.984 29.016H183.41l-16.744-52.52h14.664l7.592 26.104 1.248 9.256h.52l1.768-9.36 8.632-26zm75.92 47.528q-3.12 2.496-8.476 4.212t-11.388 1.716q-12.585 0-18.408-7.332t-5.824-20.124q0-13.728 6.552-20.592t18.408-6.864q3.952 0 7.696 1.04t6.656 3.432 4.68 6.448q1.767 4.056 1.768 10.088 0 2.184-.26 4.68a62 62 0 0 1-.78 5.2h-31.2q.312 6.552 3.38 9.88t9.932 3.328q4.263 0 7.644-1.3 3.38-1.3 5.148-2.652zM267.65 307.68q-5.305 0-7.852 3.172-2.549 3.172-3.068 8.476h19.344q.415-5.616-1.716-8.632-2.133-3.016-6.708-3.016m29.744-9.36h13.52v52h-13.52zm-1.976-14.664q0-3.017 2.236-5.148 2.235-2.132 6.188-2.132 3.951 0 6.396 2.132t2.444 5.148-2.444 5.044q-2.445 2.028-6.396 2.028-3.953 0-6.188-2.028-2.236-2.028-2.236-5.044m21.216 14.664h7.176v-9.776l13.52-3.848v13.624h12.688v11.44H337.33v19.968q0 5.408 1.092 7.748t4.108 2.34q2.079 0 3.588-.416 1.508-.415 3.38-1.248l2.392 10.4q-2.808 1.352-6.552 2.288a31.2 31.2 0 0 1-7.592.936q-7.176 0-10.556-3.692t-3.38-12.116V309.76h-7.176zm80.704 47.528q-3.12 2.496-8.476 4.212t-11.388 1.716q-12.585 0-18.408-7.332t-5.824-20.124q0-13.728 6.552-20.592t18.408-6.864q3.952 0 7.696 1.04t6.656 3.432 4.68 6.448q1.767 4.056 1.768 10.088 0 2.184-.26 4.68a62 62 0 0 1-.78 5.2h-31.2q.312 6.552 3.38 9.88t9.932 3.328q4.263 0 7.644-1.3 3.38-1.3 5.148-2.652zm-19.344-38.168q-5.305 0-7.852 3.172-2.549 3.172-3.068 8.476h19.344q.415-5.616-1.716-8.632-2.133-3.016-6.708-3.016m57.2 3.328q-3.225-1.144-5.824-1.144-3.64 0-6.084 1.924-2.445 1.924-3.276 4.94v33.592h-13.52v-52h10.504l1.56 6.864h.416q1.767-3.848 4.784-5.928 3.015-2.08 7.072-2.08 2.704 0 6.136 1.144zm49.712 39.312q0 11.336-6.136 16.692t-17.16 5.356q-7.488 0-11.804-1.04t-6.5-2.184l2.808-10.712q2.391.936 5.564 1.872t7.852.936q7.071 0 9.62-3.068t2.548-8.58v-3.328h-.416q-3.64 4.888-12.896 4.888-10.089 0-15.028-6.24-4.94-6.24-4.94-19.552 0-13.936 6.656-21.112t19.344-7.176q6.655 0 11.908.936 5.251.936 8.58 2.184zm-22.88-9.984q3.951 0 6.084-1.768 2.131-1.769 3.276-5.304v-23.4q-3.225-1.352-8.008-1.352-5.2 0-8.112 3.9t-2.912 12.428q0 7.591 2.496 11.544 2.496 3.952 7.176 3.952m74.152 5.512q-3.12 2.496-8.476 4.212t-11.388 1.716q-12.585 0-18.408-7.332t-5.824-20.124q0-13.728 6.552-20.592t18.408-6.864q3.952 0 7.696 1.04t6.656 3.432 4.68 6.448 1.768 10.088q0 2.184-.26 4.68a62 62 0 0 1-.78 5.2h-31.2q.312 6.552 3.38 9.88t9.932 3.328q4.263 0 7.644-1.3 3.38-1.3 5.148-2.652zm-19.344-38.168q-5.304 0-7.852 3.172t-3.068 8.476h19.344q.416-5.616-1.716-8.632t-6.708-3.016m42.432 25.168q0 3.64.936 5.304t3.016 1.664q1.247 0 2.444-.208 1.196-.209 2.964-.936l1.456 10.608q-1.664.832-5.096 1.664a30 30 0 0 1-7.072.832q-5.928 0-9.048-2.756t-3.12-9.1v-62.4h13.52zm56.16 13q-3.12 2.496-8.476 4.212t-11.388 1.716q-12.585 0-18.408-7.332t-5.824-20.124q0-13.728 6.552-20.592t18.408-6.864q3.952 0 7.696 1.04t6.656 3.432 4.68 6.448 1.768 10.088q0 2.184-.26 4.68a62 62 0 0 1-.78 5.2h-31.2q.311 6.552 3.38 9.88t9.932 3.328q4.263 0 7.644-1.3 3.38-1.3 5.148-2.652zm-19.344-38.168q-5.304 0-7.852 3.172t-3.068 8.476h19.344q.416-5.616-1.716-8.632t-6.708-3.016m29.744-9.36h13.52v52h-13.52zm-1.976-14.664q0-3.017 2.236-5.148 2.235-2.132 6.188-2.132 3.951 0 6.396 2.132t2.444 5.148-2.444 5.044q-2.445 2.028-6.396 2.028-3.953 0-6.188-2.028-2.236-2.028-2.236-5.044m21.216 14.664h7.176v-9.776l13.52-3.848v13.624h12.688v11.44h-12.688v19.968q0 5.408 1.092 7.748t4.108 2.34q2.079 0 3.588-.416 1.508-.415 3.38-1.248l2.392 10.4q-2.808 1.352-6.552 2.288a31.2 31.2 0 0 1-7.592.936q-7.176 0-10.556-3.692t-3.38-12.116V309.76h-7.176zm80.704 47.528q-3.12 2.496-8.476 4.212t-11.388 1.716q-12.585 0-18.408-7.332t-5.824-20.124q0-13.728 6.552-20.592t18.408-6.864q3.952 0 7.696 1.04t6.656 3.432 4.68 6.448 1.768 10.088q0 2.184-.26 4.68a62 62 0 0 1-.78 5.2h-31.2q.311 6.552 3.38 9.88t9.932 3.328q4.263 0 7.644-1.3 3.38-1.3 5.148-2.652zm-19.344-38.168q-5.304 0-7.852 3.172t-3.068 8.476h19.344q.416-5.616-1.716-8.632t-6.708-3.016m23.088-9.36h7.176v-9.776l13.52-3.848v13.624h12.688v11.44H750.21v19.968q0 5.408 1.092 7.748t4.108 2.34q2.079 0 3.588-.416 1.508-.415 3.38-1.248l2.392 10.4q-2.808 1.352-6.552 2.288a31.2 31.2 0 0 1-7.592.936q-7.176 0-10.556-3.692t-3.38-12.116V309.76h-7.176zm79.768 27.248 1.768 8.008h.52l1.456-8.216 8.84-27.04h14.56l-21.736 52.52h-8.216l-22.568-52.52h15.704zm26.312-1.248q0-13.208 6.448-20.332 6.447-7.124 18.096-7.124 6.24 0 10.816 1.976 4.575 1.976 7.592 5.564 3.015 3.588 4.524 8.684t1.508 11.232q0 13.208-6.396 20.332t-18.044 7.124q-6.24 0-10.816-1.976t-7.644-5.564-4.576-8.684-1.508-11.232m13.936 0q0 3.432.624 6.344t1.872 5.096 3.276 3.38 4.836 1.196q5.303 0 7.904-3.848t2.6-12.168q0-7.176-2.392-11.596t-8.112-4.42q-4.992 0-7.8 3.744t-2.808 12.272m74.152 26v-29.536q0-6.344-1.82-9.152t-6.188-2.808q-3.849 0-6.5 2.236-2.652 2.236-3.796 5.564v33.696h-13.52v-52h10.712l1.56 6.864h.416q2.391-3.328 6.344-5.824 3.952-2.496 10.192-2.496 3.848 0 6.864 1.04a11.7 11.7 0 0 1 5.096 3.432q2.079 2.392 3.12 6.5t1.04 10.14v32.344z" style="fill:#111827;fill-rule:nonzero"/></svg>