<svg xmlns="http://www.w3.org/2000/svg" xml:space="preserve" style="fill-rule:evenodd;clip-rule:evenodd;stroke-linejoin:round;stroke-miterlimit:2" viewBox="0 0 1125 721"><path d="M.289.926h1124v720H.289z" style="fill:none"/><path d="m172.221 457.397.253 9.747h.38l3.797-10 17.342-32.911h17.595l-38.734 63.924h-9.62l-12.405-63.924h17.215zm81.645 4.811a83 83 0 0 0-1.456 9.746 105 105 0 0 0-.443 9.367q0 1.773.063 3.355.064 1.582.19 2.974h-11.519l-1.772-10.886h-.506q-1.393 2.279-3.608 4.494a35 35 0 0 1-4.873 4.051 24.6 24.6 0 0 1-5.633 2.911 17.9 17.9 0 0 1-6.139 1.076q-8.355 0-12.342-5.443t-3.987-14.557q0-9.24 2.342-17.721t7.278-14.937 12.468-10.316q7.532-3.861 17.911-3.861 4.431 0 9.684.823a87 87 0 0 1 10.19 2.215zm-29.747 14.05q2.279 0 4.304-.949a15.5 15.5 0 0 0 3.734-2.469 22.3 22.3 0 0 0 3.038-3.291 73 73 0 0 0 2.342-3.291l6.329-29.493q-1.393-.633-3.228-.95a21 21 0 0 0-3.608-.316q-4.557 0-8.101 2.721-3.544 2.723-6.012 7.089-2.469 4.367-3.735 9.873a49.3 49.3 0 0 0-1.265 11.076q0 4.051 1.329 7.025 1.329 2.976 4.873 2.975m71.265 11.266 8.355-39.24q.759-3.545.759-6.203 0-2.784-1.139-4.367-1.14-1.582-4.177-1.582-2.279 0-4.557 1.139t-4.304 3.038a33.5 33.5 0 0 0-3.797 4.24 34.6 34.6 0 0 0-3.038 4.747l-8.102 38.228h-15.569l13.418-63.291h11.772l-.633 11.139h.506a65 65 0 0 1 3.861-4.303q2.215-2.279 5.126-4.178 2.911-1.898 6.519-3.164t8.165-1.266q5.695 0 9.114 3.101 3.417 3.102 3.417 10.317 0 1.898-.19 4.05-.189 2.152-.822 4.684l-9.114 42.911zm41.139-63.291h15.57l-13.418 63.291h-15.569zm2.532-17.974q0-4.178 2.721-6.456t6.899-2.278q4.05 0 6.899 2.278 2.848 2.279 2.848 6.456 0 4.05-2.848 6.392-2.849 2.342-6.899 2.342-4.177 0-6.899-2.342-2.721-2.342-2.721-6.392m19.873 17.974h8.228l2.531-11.898 16.583-4.684-3.545 16.582h14.81l-2.911 13.038H379.94l-6.202 28.607q-.759 3.418-.759 5.57 0 2.785 1.265 3.797 1.266 1.014 3.798 1.013 2.405 0 4.367-.506 1.962-.507 4.114-1.646v11.646q-1.393.759-3.355 1.455a29.6 29.6 0 0 1-4.24 1.14 55 55 0 0 1-4.684.696 43 43 0 0 1-4.43.253q-6.456 0-9.937-2.975t-3.481-9.05q0-1.266.19-2.658.19-1.393.443-2.912l7.342-34.43h-8.481zm64.43 35.57.126 9.873h.76l3.418-10 17.215-35.443h16.582l-30.38 56.835a683 683 0 0 1-7.152 13.038q-3.354 5.95-6.772 10.253-3.417 4.304-7.088 6.709-3.67 2.405-7.848 2.405-5.57 0-8.355-1.899l4.178-12.405a5.4 5.4 0 0 0 1.582.507q.822.126 1.582.126 3.038 0 6.203-2.911 3.164-2.911 6.329-9.367l-11.899-63.291h17.848zm103.417-60.886h15.443l-12.026 57.215q-1.898 9.114-4.936 15.379-3.039 6.266-7.342 10.19-4.304 3.924-10.127 5.633-5.822 1.709-13.417 1.709-7.342 0-12.405-1.709t-8.291-4.873a18.7 18.7 0 0 1-4.684-7.469q-1.455-4.303-1.455-9.493 0-2.532.316-5.19.317-2.658.949-5.57l11.899-55.822h16.329l-11.645 55.696q-1.014 4.809-1.013 7.848 0 6.075 3.164 8.607t9.241 2.532q7.594 0 11.772-4.43 4.177-4.431 6.329-14.304zm28.86.886a120 120 0 0 1 12.279-1.646q6.202-.506 11.139-.506 5.822 0 11.012 1.393 5.19 1.392 8.987 4.24 3.798 2.848 6.013 7.342t2.215 10.569q0 6.963-2.088 12.089t-5.507 8.607a25.4 25.4 0 0 1-7.784 5.443q-4.368 1.962-8.924 2.595l4.936 3.924 12.279 33.671h-18.228l-12.152-34.683-8.734-1.646-7.595 36.329h-16.455zm7.975 39.62h6.709q3.67 0 7.215-.696t6.265-2.532q2.723-1.835 4.431-4.873t1.709-7.722q0-4.303-2.912-7.405-2.911-3.1-9.367-3.101-2.531 0-4.747.19-2.214.19-3.734.443zm99.366 48.101h-53.291l18.734-88.607h16.456l-15.57 73.164h36.836zm10.38-14.81q2.53 1.392 6.519 2.468 3.987 1.076 8.417 1.076t6.772-1.709 2.469-5.253q0-2.531-1.519-4.367-1.52-1.836-3.861-3.481a146 146 0 0 0-5-3.354 34 34 0 0 1-5-3.924q-2.342-2.216-3.861-5.253-1.518-3.039-1.519-7.342 0-4.177 1.646-7.722a17.65 17.65 0 0 1 4.62-6.076q2.974-2.53 7.215-3.924 4.24-1.392 9.557-1.392 7.342 0 12.152 1.076 4.81 1.075 7.595 2.722l-4.304 11.898q-2.532-1.139-6.139-1.899a36.5 36.5 0 0 0-7.532-.759q-4.05 0-6.392 1.392-2.342 1.393-2.342 4.431 0 2.025 1.519 3.607 1.52 1.582 3.861 3.228a146 146 0 0 0 5 3.354 28.5 28.5 0 0 1 5 4.114 21.2 21.2 0 0 1 3.86 5.507q1.52 3.1 1.519 7.405 0 10.506-6.835 15.632-6.836 5.127-18.228 5.127-6.454 0-11.835-1.203-5.38-1.202-8.291-2.974z" style="fill:#0f766e;fill-rule:nonzero"/><path d="M722.849 479.169q0-4.43 2.785-7.025 2.784-2.595 7.341-2.595 4.684 0 7.469 2.595 2.784 2.595 2.784 7.025 0 4.431-2.784 7.089-2.785 2.658-7.469 2.658-4.557 0-7.341-2.658-2.785-2.658-2.785-7.089" style="fill:#14b8a6;fill-rule:nonzero"/><path d="M771.709 468.79q-.76 3.67.064 5.443.822 1.772 2.721 1.772a16.5 16.5 0 0 0 6.709-1.392l-.38 11.265q-2.279 1.393-6.582 2.279a42 42 0 0 1-8.481.886q-5.443 0-8.291-2.089t-2.848-7.785q0-2.91.759-6.708l15.57-73.544h15.569zm30-44.557h15.569l-13.417 63.291h-15.57zm2.532-17.974q0-4.178 2.721-6.456t6.899-2.278q4.05 0 6.898 2.278t2.848 6.456q0 4.05-2.848 6.392t-6.898 2.342q-4.178 0-6.899-2.342t-2.721-6.392m50.885 81.265 8.355-39.24q.759-3.545.759-6.203 0-2.784-1.139-4.367-1.14-1.582-4.177-1.582-2.278 0-4.557 1.139t-4.304 3.038a33.5 33.5 0 0 0-3.797 4.24 34.5 34.5 0 0 0-3.038 4.747l-8.102 38.228h-15.569l13.418-63.291h11.772l-.633 11.139h.506a65 65 0 0 1 3.861-4.303q2.214-2.279 5.126-4.178 2.912-1.898 6.519-3.164t8.165-1.266q5.696 0 9.113 3.101 3.418 3.102 3.418 10.317 0 1.898-.19 4.05t-.822 4.684l-9.114 42.911zm56.455-26.203h-5.063l-5.443 26.203h-15.569l18.734-88.607h15.569l-11.139 52.278 4.684-1.646 17.847-25.316h17.342l-18.86 25.443-7.595 4.81 5.696 4.81 9.62 28.228h-16.709z" style="fill:#0f766e;fill-rule:nonzero"/><path d="M728.591 70.288c-271.34 0-668.429 119.519-668.429 319.253 0 137.925 152.237 262.602 465.293 262.602 257.899 0 542.962-104.728 542.962-277.065 0-160.934-202.623-216.48-320.452-222.265v55.333c131.402 6.92 287.749 71.409 280.512 175.984-6.617 95.638-163.935 220.479-509.29 228.153-219.779 4.884-425.326-95.402-420.308-213.762 4.78-112.728 229.806-266.226 620.501-273.239 103.324-1.854 170.113 20.212 194.594 30.972l13.082-69.359s-76.497-16.607-198.465-16.607" style="fill:#14b8a6;fill-rule:nonzero"/><path d="M290.778 311.414q-3.224-1.144-5.824-1.144-3.64 0-6.084 1.924t-3.276 4.94v33.592h-13.52v-52h10.504l1.56 6.864h.416q1.768-3.847 4.784-5.928t7.072-2.08q2.704 0 6.136 1.144zm47.32 34.84q-3.12 2.496-8.476 4.212t-11.388 1.716q-12.583 0-18.408-7.332-5.824-7.332-5.824-20.124 0-13.728 6.552-20.592t18.408-6.864q3.952 0 7.696 1.04t6.656 3.432 4.68 6.448 1.768 10.088q0 2.184-.26 4.68a61 61 0 0 1-.78 5.2h-31.2q.312 6.552 3.38 9.88t9.932 3.328q4.265 0 7.644-1.3t5.148-2.652zm-19.344-38.168q-5.304 0-7.852 3.172t-3.068 8.476h19.344q.416-5.616-1.716-8.632t-6.708-3.016m72.696 24.336q0 4.368.104 8.736.103 4.368.936 9.672h-9.672l-1.872-6.76h-.416q-2.08 3.64-5.98 5.876t-9.204 2.236q-9.776 0-15.184-6.448t-5.408-20.176q0-13.312 6.032-20.696t17.68-7.384q3.224 0 5.304.364a21 21 0 0 1 4.16 1.196v-21.112h13.52zm-22.984 8.32q3.952 0 6.24-1.924t3.224-5.564v-22.048a10.3 10.3 0 0 0-3.224-1.716q-1.768-.572-4.576-.572-5.72 0-8.58 3.848t-2.86 13.208q0 6.656 2.34 10.712t7.436 4.056m34.008-42.016h13.52v52h-13.52zm-1.976-14.664q0-3.016 2.236-5.148t6.188-2.132 6.396 2.132q2.444 2.131 2.444 5.148t-2.444 5.044q-2.444 2.028-6.396 2.028t-6.188-2.028-2.236-5.044m55.328 27.352q-3.224-1.144-5.824-1.144-3.64 0-6.084 1.924t-3.276 4.94v33.592h-13.52v-52h10.504l1.56 6.864h.416q1.768-3.847 4.784-5.928t7.072-2.08q2.704 0 6.136 1.144zm6.968-12.688h13.52v52h-13.52zm-1.976-14.664q0-3.016 2.236-5.148t6.188-2.132 6.396 2.132q2.444 2.131 2.444 5.148t-2.444 5.044q-2.444 2.028-6.396 2.028t-6.188-2.028-2.236-5.044m70.616 66.664q0 11.336-6.136 16.692t-17.16 5.356q-7.488 0-11.804-1.04t-6.5-2.184l2.808-10.712q2.392.936 5.564 1.872t7.852.936q7.072 0 9.62-3.068t2.548-8.58v-3.328h-.416q-3.64 4.888-12.896 4.888-10.088 0-15.028-6.24t-4.94-19.552q0-13.936 6.656-21.112t19.344-7.176q6.656 0 11.908.936t8.58 2.184zm-22.88-9.984q3.952 0 6.084-1.768t3.276-5.304v-23.4q-3.224-1.352-8.008-1.352-5.2 0-8.112 3.9t-2.912 12.428q0 7.591 2.496 11.544 2.496 3.952 7.176 3.952m33.8-42.016h13.52v52h-13.52zm-1.976-14.664q0-3.016 2.236-5.148t6.188-2.132 6.396 2.132q2.444 2.131 2.444 5.148t-2.444 5.044q-2.443 2.028-6.396 2.028t-6.188-2.028-2.236-5.044m70.824 48.36q0 4.368.104 8.736.103 4.368.936 9.672h-9.672l-1.872-6.76h-.416q-2.08 3.64-5.98 5.876t-9.204 2.236q-9.776 0-15.184-6.448t-5.408-20.176q0-13.312 6.032-20.696t17.68-7.384q3.224 0 5.304.364a21 21 0 0 1 4.16 1.196v-21.112h13.52zm-22.984 8.32q3.952 0 6.24-1.924t3.224-5.564v-22.048a10.3 10.3 0 0 0-3.224-1.716q-1.768-.572-4.576-.572-5.72 0-8.58 3.848t-2.86 13.208q0 6.656 2.34 10.712t7.436 4.056m30.264-16.016q0-13.208 6.448-20.332t18.096-7.124q6.24 0 10.816 1.976t7.592 5.564 4.524 8.684 1.508 11.232q0 13.208-6.396 20.332t-18.044 7.124q-6.24 0-10.816-1.976t-7.644-5.564-4.576-8.684-1.508-11.232m13.936 0q0 3.432.624 6.344t1.872 5.096 3.276 3.38 4.836 1.196q5.304 0 7.904-3.848t2.6-12.168q0-7.176-2.392-11.596t-8.112-4.42q-4.992 0-7.8 3.744t-2.808 12.272m66.56-26h9.88l1.56 6.24h.416q2.705-3.952 6.396-5.824 3.692-1.872 8.996-1.872 9.775 0 14.664 6.188t4.888 19.916q0 6.656-1.56 12.012t-4.628 9.1a20.2 20.2 0 0 1-7.488 5.72q-4.42 1.976-10.14 1.976-3.224 0-5.304-.468a18.3 18.3 0 0 1-4.16-1.508v21.32h-13.52zm23.192 9.984q-3.952 0-6.188 1.976t-3.484 5.928v21.632a12.6 12.6 0 0 0 3.172 1.82q1.716.676 4.524.676 5.824 0 8.736-4.108t2.912-13.572q0-6.864-2.288-10.608t-7.384-3.744m28.392 16.016q0-13.208 6.448-20.332t18.096-7.124q6.24 0 10.816 1.976t7.592 5.564 4.524 8.684 1.508 11.232q0 13.208-6.396 20.332t-18.044 7.124q-6.24 0-10.816-1.976t-7.644-5.564-4.576-8.684-1.508-11.232m13.936 0q0 3.432.624 6.344t1.872 5.096 3.276 3.38 4.836 1.196q5.304 0 7.904-3.848t2.6-12.168q0-7.176-2.392-11.596t-8.112-4.42q-4.992 0-7.8 3.744t-2.808 12.272m71.032-13.312q-3.224-1.144-5.824-1.144-3.64 0-6.084 1.924t-3.276 4.94v33.592h-13.52v-52h10.504l1.56 6.864h.416q1.768-3.847 4.784-5.928t7.072-2.08q2.704 0 6.136 1.144z" style="fill:#fff;fill-rule:nonzero"/></svg>