<?xml version="1.0" encoding="UTF-8" standalone="no"?><!DOCTYPE svg PUBLIC "-//W3C//DTD SVG 1.1//EN" "http://www.w3.org/Graphics/SVG/1.1/DTD/svg11.dtd"><svg width="100%" height="100%" viewBox="0 0 769 501" version="1.1" xmlns="http://www.w3.org/2000/svg" xmlns:xlink="http://www.w3.org/1999/xlink" xml:space="preserve" xmlns:serif="http://www.serif.com/" style="fill-rule:evenodd;clip-rule:evenodd;stroke-linejoin:round;stroke-miterlimit:2;"><path id="v8s-logo" d="M768.705,150.58l-0,200c-0,82.787 -67.213,150 -150,150l-468,0c-82.787,0 -150,-67.213 -150,-150l-0,-200c-0,-82.787 67.213,-150 150,-150l468,0c82.787,0 150,67.213 150,150Z" style="fill:#0f766e;"/><clipPath id="_clip1"><path d="M768.705,150.58l-0,200c-0,82.787 -67.213,150 -150,150l-468,0c-82.787,0 -150,-67.213 -150,-150l-0,-200c-0,-82.787 67.213,-150 150,-150l468,0c82.787,0 150,67.213 150,150Z"/></clipPath><g clip-path="url(#_clip1)"><g><path d="M169.994,297.825l0.844,32.481c-0,-0 1.183,0.196 1.265,-0c2.32,-5.554 12.655,-33.325 12.655,-33.325l57.79,-109.675l58.635,-0l-129.08,213.024l-32.059,-0l-41.339,-213.024l57.369,-0l13.92,110.519Z" style="fill:#fff;fill-rule:nonzero;"/><path d="M516.737,348.866c5.625,3.094 12.866,5.836 21.724,8.226c8.859,2.39 18.209,3.586 28.052,3.586c9.843,-0 17.365,-1.899 22.568,-5.695c5.202,-3.797 7.944,-9.632 8.226,-17.506c-0,-5.624 -1.688,-10.475 -5.062,-14.553c-3.375,-4.078 -7.664,-7.945 -12.866,-11.6c-5.203,-3.656 -10.757,-7.382 -16.662,-11.179c-5.906,-3.796 -11.46,-8.155 -16.663,-13.077c-5.202,-4.921 -9.491,-10.756 -12.865,-17.505c-3.375,-6.75 -5.062,-14.905 -5.062,-24.467c-0,-9.28 1.828,-17.857 5.483,-25.731c3.656,-7.874 8.789,-14.623 15.397,-20.248c6.609,-5.624 14.624,-9.983 24.044,-13.077c9.421,-3.093 20.037,-4.64 31.849,-4.64c16.31,0 29.809,1.195 40.495,3.586c10.686,2.39 19.123,5.413 25.31,9.069l-14.342,39.652c-5.625,-2.531 -12.444,-4.64 -20.459,-6.327c-8.015,-1.688 -16.381,-2.531 -25.099,-2.531c-8.999,-0 -16.1,1.546 -21.302,4.64c-5.203,3.093 -7.804,8.015 -7.804,14.764c-0,4.499 1.687,8.507 5.062,12.022c3.375,3.515 7.663,7.101 12.866,10.757c5.202,3.655 10.756,7.382 16.662,11.178c5.906,3.796 11.46,8.366 16.662,13.709c5.203,5.344 9.491,11.46 12.866,18.35c3.375,6.89 5.062,15.116 5.062,24.677c-0,23.341 -7.593,40.707 -22.779,52.096c-15.186,11.389 -35.434,17.084 -60.743,17.084c-14.342,-0 -27.489,-1.336 -39.441,-4.007c-11.952,-2.672 -21.162,-5.976 -27.63,-9.913l16.451,-41.34Z" style="fill:#fff;fill-rule:nonzero;"/><g><path d="M416.474,317.092c-3.094,0.303 -6.208,0.406 -9.322,0.321l-18.788,38.867c-8.804,18.217 -30.362,25.055 -48.058,15.247c-17.697,-9.809 -24.93,-32.605 -16.124,-50.821l26.313,-54.442l7.903,-16.348c0.136,-0.283 0.279,-0.563 0.424,-0.842c0.126,-0.247 0.249,-0.485 0.377,-0.732c0.098,-0.168 0.19,-0.338 0.288,-0.507c0.127,-0.229 0.257,-0.447 0.388,-0.665c0.162,-0.286 0.335,-0.574 0.518,-0.85c0.091,-0.154 0.195,-0.301 0.291,-0.446c-0,-0.004 0.002,-0.005 0.002,-0.006c0.141,-0.214 0.28,-0.429 0.425,-0.636c0.143,-0.212 0.283,-0.416 0.431,-0.617l0.003,-0.007c0.019,-0.023 0.028,-0.044 0.048,-0.067c0.14,-0.204 0.284,-0.398 0.434,-0.589c0.105,-0.147 0.213,-0.284 0.323,-0.427c0.124,-0.172 0.252,-0.331 0.385,-0.488c0.004,-0.007 0.004,-0.007 0.013,-0.01c0.029,-0.043 0.069,-0.09 0.105,-0.131c0.173,-0.219 0.35,-0.429 0.532,-0.636c0.009,-0.02 0.029,-0.043 0.052,-0.056l0.004,-0.007c0.068,-0.09 0.143,-0.177 0.215,-0.257c0.062,-0.077 0.121,-0.147 0.192,-0.209c-0.003,-0.01 0.003,-0.007 0.003,-0.007c0.056,-0.07 0.12,-0.136 0.181,-0.202c0.063,-0.072 0.128,-0.142 0.193,-0.214c0.068,-0.076 0.136,-0.157 0.21,-0.227c0.066,-0.074 0.135,-0.152 0.205,-0.227c0.04,-0.042 0.082,-0.081 0.122,-0.124c0.001,-0.001 0.002,-0.003 0.004,-0.003l0.001,-0.002c0.183,-0.192 0.37,-0.38 0.557,-0.565c0.123,-0.126 0.249,-0.251 0.373,-0.373c0.264,-0.254 0.529,-0.503 0.799,-0.747c0.309,-0.279 0.625,-0.558 0.944,-0.824c0.12,-0.111 0.252,-0.211 0.376,-0.313c0.042,-0.042 0.09,-0.08 0.14,-0.113c0.016,-0.014 0.033,-0.027 0.051,-0.04c0.314,-0.257 0.63,-0.505 0.951,-0.742c0.149,-0.113 0.301,-0.219 0.452,-0.328c0.17,-0.124 0.339,-0.249 0.511,-0.37c0.372,-0.259 0.747,-0.509 1.128,-0.752c0.089,-0.061 0.184,-0.12 0.279,-0.179c0.242,-0.156 0.486,-0.302 0.732,-0.449c0.744,-0.442 1.509,-0.855 2.284,-1.238c0.258,-0.123 0.507,-0.241 0.761,-0.356c0.516,-0.244 1.043,-0.474 1.576,-0.682c0.529,-0.22 1.065,-0.419 1.602,-0.6c0.267,-0.091 0.536,-0.181 0.811,-0.268c0.274,-0.087 0.545,-0.169 0.817,-0.249c0.278,-0.077 0.549,-0.157 0.823,-0.227c0.214,-0.062 0.429,-0.112 0.642,-0.157c0.068,-0.021 0.125,-0.035 0.189,-0.049c1.089,-0.26 2.192,-0.461 3.303,-0.614c0.294,-0.043 0.586,-0.078 0.881,-0.103c0.587,-0.067 1.173,-0.11 1.762,-0.143c0.281,-0.014 0.563,-0.029 0.851,-0.041c0.016,0.001 0.025,-0.002 0.032,0.002c0.277,-0.009 0.562,-0.014 0.844,-0.012c0.242,-0.002 0.48,0.003 0.719,0.006c1.512,0.017 3.036,0.144 4.552,0.377c0.231,0.034 0.465,0.07 0.7,0.114c0.913,0.157 1.826,0.346 2.732,0.583c0.245,0.06 0.489,0.126 0.738,0.195c0.081,0.02 0.17,0.043 0.255,0.073c0.249,0.07 0.494,0.146 0.74,0.222c0.288,0.091 0.576,0.182 0.859,0.28c0.467,0.155 0.931,0.328 1.393,0.506c0.251,0.098 0.511,0.199 0.766,0.305c0.204,0.078 0.402,0.163 0.599,0.256c0.117,0.048 0.243,0.098 0.357,0.155c0.182,0.084 0.37,0.162 0.557,0.256c0.238,0.107 0.48,0.225 0.716,0.338l0.039,0.023c0.501,0.252 1,0.509 1.497,0.786c0.498,0.276 0.982,0.561 1.464,0.855l0.04,0.021c0.222,0.141 0.452,0.284 0.67,0.431c0.181,0.109 0.349,0.228 0.519,0.338c0.107,0.069 0.22,0.149 0.323,0.224c0.184,0.118 0.365,0.244 0.541,0.375c0.229,0.162 0.455,0.33 0.675,0.494c0.404,0.3 0.803,0.608 1.19,0.925c0.239,0.191 0.474,0.392 0.71,0.59c0.201,0.171 0.399,0.341 0.597,0.519c0.071,0.057 0.14,0.12 0.203,0.181c0.196,0.177 0.386,0.351 0.573,0.531c0.704,0.657 1.377,1.344 2.023,2.053c0.169,0.179 0.33,0.363 0.49,0.547c1.053,1.189 2.032,2.449 2.916,3.76c0.142,0.207 0.282,0.413 0.42,0.626c0.164,0.245 0.325,0.497 0.479,0.745c0.007,0.004 0.01,0.014 0.02,0.029c0.158,0.257 0.308,0.511 0.458,0.767c0.317,0.533 0.622,1.07 0.904,1.619c1.664,-1.657 3.056,-3.605 4.104,-5.777l11.126,-23.017c-0.255,-0.296 -0.519,-0.578 -0.79,-0.856c-0.27,-0.286 -0.545,-0.577 -0.816,-0.855c-0.292,-0.307 -0.594,-0.611 -0.899,-0.909c-0.213,-0.211 -0.429,-0.416 -0.646,-0.622c-0.108,-0.119 -0.228,-0.229 -0.351,-0.339c-0.261,-0.248 -0.518,-0.493 -0.783,-0.733c-0.305,-0.281 -0.608,-0.561 -0.911,-0.831c-0.458,-0.407 -0.921,-0.809 -1.385,-1.204c-0.226,-0.184 -0.449,-0.377 -0.679,-0.555c-0.261,-0.215 -0.518,-0.424 -0.782,-0.63c-0.321,-0.265 -0.65,-0.514 -0.977,-0.764c-0.052,-0.047 -0.115,-0.09 -0.17,-0.128c-0.344,-0.268 -0.692,-0.529 -1.041,-0.784c-0.403,-0.3 -0.816,-0.597 -1.236,-0.88c-0.091,-0.068 -0.183,-0.137 -0.278,-0.198c-0.415,-0.29 -0.828,-0.57 -1.25,-0.848c-0.035,-0.016 -0.064,-0.042 -0.096,-0.061c-0.448,-0.29 -0.904,-0.586 -1.366,-0.867c-0.419,-0.266 -0.852,-0.524 -1.291,-0.783c-0.546,-0.33 -1.101,-0.644 -1.663,-0.956c-0.564,-0.314 -1.124,-0.614 -1.69,-0.902c-0.452,-0.235 -0.897,-0.464 -1.342,-0.677c-0.481,-0.241 -0.969,-0.469 -1.451,-0.693c-0.036,-0.01 -0.068,-0.029 -0.101,-0.047c-0.455,-0.209 -0.907,-0.409 -1.369,-0.605c-0.101,-0.047 -0.205,-0.089 -0.312,-0.13c-0.457,-0.202 -0.922,-0.392 -1.384,-0.571c-0.396,-0.16 -0.795,-0.312 -1.198,-0.459c-0.062,-0.026 -0.13,-0.056 -0.195,-0.075c-0.381,-0.141 -0.76,-0.283 -1.147,-0.411c-0.288,-0.11 -0.576,-0.2 -0.868,-0.302c-0.356,-0.122 -0.71,-0.232 -1.07,-0.346c-0.51,-0.163 -1.023,-0.32 -1.541,-0.47c-0.355,-0.093 -0.711,-0.196 -1.074,-0.286c-0.039,-0.023 -0.078,-0.027 -0.124,-0.036c-0.314,-0.087 -0.638,-0.173 -0.959,-0.248c-0.153,-0.043 -0.311,-0.078 -0.462,-0.111c-0.281,-0.071 -0.563,-0.142 -0.847,-0.205c-0.403,-0.095 -0.803,-0.18 -1.205,-0.258c-0.377,-0.08 -0.746,-0.156 -1.129,-0.224c-0.369,-0.076 -0.735,-0.143 -1.109,-0.196c-0.012,-0.007 -0.036,-0.01 -0.052,-0.011c-0.782,-0.134 -1.559,-0.249 -2.341,-0.348c-0.381,-0.05 -0.774,-0.097 -1.161,-0.141c-0.393,-0.045 -0.774,-0.078 -1.164,-0.114l-0.007,-0.003c-0.818,-0.078 -1.637,-0.139 -2.453,-0.181c-0.35,-0.016 -0.695,-0.025 -1.044,-0.041c-0.384,-0.015 -0.775,-0.028 -1.165,-0.029l-0.115,-0.005c-0.726,-0.009 -1.442,-0.004 -2.172,0.011c-0.033,-0.001 -0.065,-0.002 -0.097,-0.004c-0.305,0.012 -0.617,0.019 -0.92,0.03l-0.246,0.01c-1.125,0.042 -2.244,0.123 -3.359,0.232c-0.009,0.003 -0.016,-0.001 -0.027,0.002c-0.591,0.057 -1.19,0.127 -1.789,0.196c-0.591,0.075 -1.18,0.158 -1.772,0.249c-0.592,0.091 -1.18,0.193 -1.763,0.297c-0.592,0.109 -1.17,0.224 -1.755,0.351c-0.582,0.122 -1.165,0.261 -1.747,0.401c-0.095,0.024 -0.189,0.049 -0.284,0.073c-0.235,0.058 -0.474,0.121 -0.709,0.179c-0.152,0.036 -0.296,0.076 -0.439,0.116c-0.239,0.064 -0.477,0.129 -0.712,0.204c-0.056,0.011 -0.105,0.027 -0.165,0.046c-0.332,0.088 -0.662,0.187 -0.996,0.293c-0.096,0.024 -0.184,0.052 -0.271,0.08c-0.341,0.103 -0.684,0.212 -1.021,0.324c-0.275,0.087 -0.543,0.178 -0.804,0.273c-0.317,0.107 -0.627,0.216 -0.942,0.332c-0.159,0.057 -0.323,0.12 -0.482,0.177c-0.515,0.186 -1.028,0.388 -1.541,0.592c-0.083,0.031 -0.167,0.07 -0.247,0.101c-0.511,0.212 -1.021,0.426 -1.527,0.649c-0.442,0.192 -0.887,0.39 -1.321,0.602c-0.261,0.112 -0.513,0.238 -0.765,0.363c-0.455,0.219 -0.909,0.436 -1.363,0.672c-0.435,0.229 -0.869,0.458 -1.3,0.699c-0.04,0.012 -0.076,0.034 -0.112,0.058c-0.483,0.261 -0.954,0.529 -1.428,0.806c-0.042,0.02 -0.081,0.049 -0.127,0.074c-0.509,0.299 -1.012,0.602 -1.512,0.914c-0.511,0.316 -1.017,0.643 -1.514,0.983c-0.464,0.307 -0.921,0.617 -1.376,0.939c-0.127,0.091 -0.263,0.186 -0.395,0.286c-0.32,0.231 -0.64,0.465 -0.954,0.701c-0.153,0.112 -0.307,0.223 -0.457,0.345c-0.405,0.305 -0.806,0.622 -1.202,0.941c-0.474,0.378 -0.94,0.759 -1.407,1.16c-0.464,0.393 -0.921,0.789 -1.379,1.201c-0.441,0.398 -0.879,0.804 -1.31,1.215c-0.006,0.014 -0.018,0.024 -0.033,0.034c-0.861,0.821 -1.704,1.671 -2.52,2.551c-0.055,0.065 -0.112,0.127 -0.175,0.194c-0.102,0.106 -0.193,0.209 -0.288,0.319c-0.291,0.31 -0.571,0.633 -0.85,0.949c-0.41,0.473 -0.811,0.943 -1.209,1.422c-0.403,0.488 -0.787,0.975 -1.175,1.47c-0.777,0.988 -1.522,2.012 -2.236,3.06c-0.346,0.51 -0.685,1.023 -1.027,1.543c-0.03,0.043 -0.056,0.097 -0.095,0.142c-0.32,0.507 -0.642,1.021 -0.953,1.541c-0.256,0.431 -0.518,0.869 -0.772,1.309c-0.482,0.843 -0.955,1.701 -1.405,2.58c-0.262,0.505 -0.515,1.013 -0.765,1.533l-34.217,70.789c-15.988,33.084 -2.849,74.498 29.288,92.311c32.144,17.816 71.301,5.387 87.291,-27.695l30.023,-62.114c-1.585,0.839 -3.216,1.62 -4.874,2.352c-7.374,3.246 -15.192,5.282 -23.238,6.053Z" style="fill:#2dd4bf;fill-rule:nonzero;"/><path d="M502.047,141.717c-0.085,-0.27 -0.174,-0.533 -0.274,-0.792c-0.121,-0.332 -0.243,-0.665 -0.371,-1.002c-0.076,-0.22 -0.163,-0.439 -0.246,-0.658c-0.165,-0.415 -0.332,-0.841 -0.511,-1.264c-0.041,-0.101 -0.084,-0.202 -0.124,-0.309c-0.236,-0.559 -0.473,-1.118 -0.726,-1.676c-0.264,-0.591 -0.532,-1.185 -0.809,-1.764c-0.265,-0.55 -0.539,-1.103 -0.814,-1.649c-0.292,-0.564 -0.584,-1.127 -0.882,-1.678c-0.552,-1.024 -1.129,-2.027 -1.737,-3.021c-0.748,-1.236 -1.531,-2.448 -2.355,-3.631c-0.213,-0.315 -0.436,-0.626 -0.663,-0.932c-0.637,-0.9 -1.299,-1.78 -1.985,-2.647c-0.232,-0.292 -0.464,-0.583 -0.708,-0.871c-0.769,-0.948 -1.566,-1.878 -2.392,-2.78c-0.27,-0.302 -0.548,-0.602 -0.83,-0.895c-0.268,-0.286 -0.543,-0.576 -0.816,-0.855c-0.291,-0.307 -0.594,-0.61 -0.898,-0.908c-0.213,-0.211 -0.429,-0.417 -0.646,-0.622c-0.108,-0.12 -0.228,-0.229 -0.351,-0.34c-0.262,-0.247 -0.518,-0.492 -0.782,-0.734c-0.306,-0.279 -0.61,-0.559 -0.913,-0.829c-0.457,-0.408 -0.92,-0.809 -1.384,-1.204c-0.226,-0.186 -0.448,-0.377 -0.679,-0.556c-0.261,-0.214 -0.517,-0.424 -0.782,-0.63c-0.322,-0.264 -0.65,-0.513 -0.977,-0.763c-0.052,-0.047 -0.115,-0.09 -0.169,-0.129c-0.345,-0.267 -0.693,-0.528 -1.042,-0.783c-0.404,-0.3 -0.818,-0.597 -1.235,-0.882c-0.092,-0.067 -0.184,-0.135 -0.28,-0.196c-0.415,-0.29 -0.828,-0.57 -1.25,-0.848c-0.033,-0.017 -0.064,-0.042 -0.095,-0.061c-0.448,-0.29 -0.904,-0.586 -1.366,-0.868c-0.419,-0.266 -0.852,-0.523 -1.292,-0.783c-0.545,-0.329 -1.1,-0.644 -1.661,-0.956c-0.565,-0.313 -1.123,-0.614 -1.691,-0.902c-0.452,-0.234 -0.897,-0.465 -1.343,-0.677c-0.481,-0.24 -0.968,-0.468 -1.45,-0.693c-0.036,-0.01 -0.068,-0.028 -0.101,-0.047c-0.455,-0.209 -0.908,-0.408 -1.369,-0.604c-0.101,-0.047 -0.205,-0.089 -0.312,-0.13c-0.458,-0.204 -0.923,-0.393 -1.384,-0.571c-0.396,-0.16 -0.795,-0.313 -1.198,-0.459c-0.062,-0.026 -0.131,-0.056 -0.196,-0.075c-0.38,-0.141 -0.76,-0.284 -1.146,-0.413c-0.288,-0.108 -0.576,-0.198 -0.867,-0.301c-0.358,-0.121 -0.711,-0.231 -1.07,-0.346c-0.512,-0.162 -1.025,-0.319 -1.542,-0.469c-0.354,-0.093 -0.71,-0.197 -1.075,-0.287c-0.039,-0.022 -0.077,-0.027 -0.123,-0.035c-0.315,-0.089 -0.639,-0.175 -0.96,-0.25c-0.153,-0.041 -0.311,-0.077 -0.461,-0.11c-0.282,-0.07 -0.563,-0.141 -0.847,-0.205c-0.403,-0.094 -0.803,-0.179 -1.205,-0.257c-0.376,-0.08 -0.746,-0.157 -1.129,-0.224c-0.386,-0.077 -0.775,-0.147 -1.162,-0.207c-0.781,-0.135 -1.557,-0.25 -2.339,-0.349c-0.383,-0.05 -0.775,-0.096 -1.162,-0.14c-0.394,-0.046 -0.781,-0.083 -1.172,-0.119c-0.818,-0.077 -1.635,-0.137 -2.452,-0.18c-0.351,-0.015 -0.696,-0.026 -1.044,-0.04c-0.384,-0.015 -0.776,-0.028 -1.165,-0.03c-0.798,-0.016 -1.589,-0.01 -2.385,0.003c-0.363,0.013 -0.727,0.025 -1.09,0.038c-1.158,0.041 -2.308,0.121 -3.46,0.236c-0.591,0.056 -1.19,0.126 -1.789,0.196c-0.593,0.075 -1.18,0.158 -1.772,0.248c-0.593,0.092 -1.181,0.192 -1.763,0.297c-0.592,0.109 -1.17,0.224 -1.756,0.352c-0.582,0.122 -1.164,0.261 -1.746,0.4c-0.481,0.119 -0.955,0.24 -1.433,0.369c-0.239,0.064 -0.476,0.129 -0.712,0.203c-0.476,0.129 -0.96,0.27 -1.433,0.42c-0.339,0.101 -0.682,0.21 -1.019,0.323c-0.275,0.087 -0.543,0.179 -0.804,0.273c-0.477,0.163 -0.952,0.336 -1.426,0.509c-0.513,0.186 -1.026,0.388 -1.539,0.592c-0.083,0.031 -0.167,0.07 -0.248,0.1c-0.511,0.214 -1.02,0.427 -1.528,0.651c-0.44,0.192 -0.886,0.389 -1.319,0.601c-0.262,0.113 -0.515,0.238 -0.766,0.362c-0.454,0.219 -0.908,0.437 -1.361,0.673c-0.436,0.229 -0.872,0.459 -1.301,0.699c-0.04,0.012 -0.077,0.035 -0.112,0.057c-0.483,0.263 -0.955,0.531 -1.429,0.808c-0.041,0.019 -0.081,0.049 -0.126,0.074c-0.511,0.299 -1.014,0.601 -1.514,0.914c-0.509,0.315 -1.016,0.642 -1.512,0.982c-0.464,0.308 -0.922,0.617 -1.377,0.939c-0.126,0.091 -0.264,0.187 -0.394,0.285c-0.321,0.232 -0.64,0.466 -0.954,0.703c-0.153,0.111 -0.308,0.222 -0.458,0.345c-0.404,0.305 -0.805,0.621 -1.201,0.94c-0.474,0.379 -0.942,0.76 -1.408,1.16c-0.465,0.394 -0.921,0.788 -1.378,1.201c-0.441,0.398 -0.879,0.805 -1.31,1.216c-0.007,0.014 -0.019,0.022 -0.033,0.033c-0.861,0.822 -1.704,1.671 -2.52,2.552c-0.055,0.064 -0.112,0.126 -0.177,0.193c-0.385,0.42 -0.763,0.842 -1.136,1.268c-0.412,0.473 -0.811,0.943 -1.209,1.423c-0.403,0.487 -0.787,0.974 -1.177,1.468c-0.776,0.99 -1.52,2.014 -2.235,3.061c-0.345,0.511 -0.685,1.024 -1.026,1.543c-0.031,0.043 -0.057,0.097 -0.096,0.143c-0.32,0.507 -0.643,1.021 -0.953,1.541c-0.257,0.43 -0.519,0.867 -0.772,1.307c-0.483,0.845 -0.956,1.701 -1.405,2.581c-0.261,0.505 -0.514,1.014 -0.766,1.534l-30.026,62.119c0.194,-0.107 0.386,-0.213 0.583,-0.311l0.09,-0.051c0.554,-0.284 1.095,-0.547 1.648,-0.814c0.349,-0.173 0.686,-0.337 1.036,-0.493c0.519,-0.252 1.049,-0.489 1.572,-0.711c0.582,-0.259 1.164,-0.5 1.739,-0.745l0.187,-0.076c0.111,-0.042 0.215,-0.087 0.31,-0.127c0.638,-0.255 1.278,-0.499 1.913,-0.728c0.493,-0.179 1.019,-0.375 1.549,-0.56c0.36,-0.125 0.729,-0.254 1.102,-0.372c0.405,-0.135 0.818,-0.266 1.225,-0.389c0.546,-0.167 1.108,-0.335 1.664,-0.488c0.322,-0.096 0.648,-0.189 0.978,-0.27c0.556,-0.153 1.128,-0.307 1.71,-0.446l0.085,-0.021c0.686,-0.166 1.377,-0.323 2.063,-0.472c0.724,-0.156 1.44,-0.297 2.179,-0.433c0.719,-0.133 1.426,-0.255 2.132,-0.357c0.726,-0.111 1.439,-0.211 2.155,-0.301l0.117,-0.021c0.72,-0.08 1.398,-0.158 2.078,-0.226c1.403,-0.136 2.856,-0.238 4.276,-0.289l1.373,-0.043c0.929,-0.014 1.856,-0.023 2.784,-0.003c0.297,0.002 0.595,0.005 0.887,0.021l18.789,-38.873c0.136,-0.283 0.279,-0.563 0.424,-0.843c0.126,-0.246 0.25,-0.485 0.377,-0.731c0.098,-0.168 0.189,-0.34 0.287,-0.507c0.128,-0.229 0.257,-0.447 0.388,-0.665c0.387,-0.665 0.804,-1.317 1.236,-1.94c0.145,-0.211 0.285,-0.415 0.43,-0.615l0.004,-0.007c0.02,-0.025 0.03,-0.045 0.049,-0.067c0.141,-0.205 0.285,-0.399 0.434,-0.589c0.106,-0.148 0.212,-0.284 0.323,-0.429c0.124,-0.17 0.253,-0.33 0.384,-0.487c2.472,-3.083 5.383,-5.65 8.594,-7.658c0.243,-0.156 0.487,-0.302 0.732,-0.448c0.745,-0.442 1.51,-0.856 2.285,-1.239c0.258,-0.122 0.505,-0.241 0.761,-0.357c0.516,-0.243 1.043,-0.472 1.576,-0.681c0.529,-0.22 1.064,-0.418 1.6,-0.599c0.269,-0.092 0.537,-0.183 0.811,-0.27c0.275,-0.087 0.546,-0.167 0.819,-0.247c0.276,-0.077 0.549,-0.158 0.823,-0.228c0.279,-0.076 0.56,-0.143 0.831,-0.206c1.089,-0.26 2.191,-0.462 3.303,-0.613c0.88,-0.12 1.756,-0.2 2.642,-0.246c0.282,-0.015 0.564,-0.03 0.851,-0.042c0.016,0.001 0.026,-0.002 0.032,0.001c0.278,-0.008 0.563,-0.013 0.845,-0.011c0.241,-0.002 0.48,0.002 0.719,0.007c1.512,0.016 3.036,0.144 4.551,0.376c0.232,0.035 0.466,0.07 0.7,0.115c0.914,0.156 1.827,0.345 2.733,0.583c0.245,0.059 0.488,0.124 0.736,0.194c0.083,0.02 0.171,0.044 0.257,0.073c0.248,0.07 0.493,0.147 0.739,0.222c0.288,0.092 0.576,0.183 0.86,0.28c0.466,0.156 0.93,0.328 1.391,0.506c0.252,0.099 0.513,0.199 0.767,0.306c0.204,0.078 0.402,0.163 0.598,0.255c0.119,0.049 0.243,0.099 0.357,0.154c0.184,0.085 0.37,0.163 0.557,0.258c0.239,0.107 0.481,0.225 0.717,0.338l0.04,0.022c0.502,0.251 0.999,0.51 1.497,0.786c0.497,0.275 0.981,0.562 1.464,0.855l0.039,0.021c0.222,0.142 0.451,0.285 0.671,0.432c0.18,0.109 0.347,0.228 0.518,0.338c0.106,0.068 0.219,0.147 0.323,0.224c0.184,0.116 0.365,0.243 0.541,0.375c0.228,0.162 0.456,0.329 0.675,0.494c0.404,0.3 0.804,0.607 1.189,0.924c0.24,0.192 0.475,0.391 0.711,0.591c0.2,0.169 0.399,0.341 0.596,0.517c0.072,0.058 0.141,0.122 0.203,0.183c0.196,0.177 0.387,0.351 0.574,0.531c0.704,0.657 1.377,1.344 2.022,2.053c0.171,0.179 0.332,0.362 0.492,0.546c1.052,1.19 2.031,2.45 2.915,3.761c0.142,0.206 0.282,0.413 0.42,0.627c0.164,0.243 0.325,0.495 0.478,0.744c0.007,0.002 0.011,0.013 0.021,0.027c0.158,0.259 0.309,0.512 0.458,0.768c0.478,0.802 0.924,1.613 1.341,2.451c0.525,1.061 1.009,2.14 1.438,3.243c0.11,0.274 0.22,0.559 0.321,0.845c0.107,0.282 0.203,0.565 0.305,0.852c0.095,0.284 0.19,0.568 0.282,0.857c0.092,0.291 0.178,0.577 0.264,0.864c0.171,0.573 0.328,1.157 0.467,1.747c0.148,0.586 0.277,1.179 0.389,1.771c0.06,0.29 0.113,0.575 0.169,0.871c0.156,0.9 0.283,1.807 0.374,2.713c0.03,0.299 0.06,0.598 0.081,0.899c0.325,3.968 0.048,7.993 -0.878,11.934c-0.041,0.208 -0.09,0.412 -0.148,0.618c-0.114,0.442 -0.232,0.89 -0.362,1.331l-0.002,0.006c-0.069,0.245 -0.143,0.485 -0.221,0.733c-0.225,0.739 -0.482,1.477 -0.766,2.201c-0.09,0.238 -0.182,0.479 -0.283,0.723c-0.07,0.183 -0.149,0.361 -0.221,0.544c-0.114,0.253 -0.226,0.5 -0.339,0.752c-0.131,0.287 -0.26,0.573 -0.397,0.856l-26.31,54.434l-7.907,16.356c-2.975,6.155 -7.404,11.01 -12.651,14.358c-4.443,2.854 -9.481,4.618 -14.709,5.174c-6.858,0.738 -14.052,-0.6 -20.699,-4.284c-6.647,-3.683 -11.82,-9.2 -15.217,-15.623c-0.539,0.531 -1.046,1.097 -1.526,1.694l-1.046,1.412c-0.202,0.297 -0.405,0.613 -0.594,0.936l-0.391,0.671c-0.017,0.034 -0.033,0.069 -0.059,0.106l-0.242,0.463c-0.07,0.149 -0.159,0.314 -0.244,0.489l-11.128,23.023c4.93,5.416 10.764,10.113 17.413,13.798c6.647,3.683 13.597,6.074 20.574,7.257c5.464,0.925 10.947,1.109 16.32,0.591c6.575,-0.628 12.991,-2.304 19.006,-4.955c7.801,-3.428 14.939,-8.49 20.896,-15.026c4.114,-4.509 7.667,-9.711 10.495,-15.562l34.217,-70.791c0.251,-0.518 0.491,-1.035 0.727,-1.554c0.41,-0.901 0.79,-1.809 1.156,-2.719c0.187,-0.477 0.37,-0.957 0.548,-1.431l0.011,-0.02c0.209,-0.567 0.416,-1.136 0.615,-1.702c0.013,-0.062 0.04,-0.115 0.056,-0.165c0.198,-0.601 0.392,-1.193 0.582,-1.789c0.388,-1.23 0.738,-2.472 1.043,-3.722c0.152,-0.624 0.302,-1.243 0.441,-1.875c0.136,-0.625 0.264,-1.247 0.386,-1.88c0.11,-0.571 0.214,-1.147 0.311,-1.726c0.013,-0.095 0.029,-0.181 0.045,-0.266c0.2,-1.222 0.362,-2.45 0.49,-3.677c0.001,-0.017 0.001,-0.034 0.007,-0.048c0.064,-0.614 0.122,-1.231 0.169,-1.845c0.052,-0.639 0.091,-1.267 0.122,-1.9c0.034,-0.638 0.057,-1.267 0.071,-1.901c0.016,-0.529 0.024,-1.063 0.023,-1.594c0.007,-0.201 0.002,-0.4 -0,-0.599c-0.001,-0.411 -0.008,-0.825 -0.016,-1.238c0.001,-0.172 -0.007,-0.347 -0.011,-0.512c-0.017,-0.582 -0.044,-1.162 -0.079,-1.745c-0.027,-0.629 -0.071,-1.261 -0.124,-1.889c-0.051,-0.617 -0.11,-1.232 -0.177,-1.851c-0.007,-0.054 -0.006,-0.106 -0.017,-0.154c-0.063,-0.573 -0.129,-1.14 -0.21,-1.713c-0.003,-0.046 -0.005,-0.091 -0.018,-0.131c-0.067,-0.517 -0.144,-1.029 -0.218,-1.541c-0.084,-0.533 -0.18,-1.057 -0.275,-1.58c-0.051,-0.293 -0.101,-0.585 -0.166,-0.878c-0.09,-0.503 -0.196,-1.006 -0.304,-1.501c-0.122,-0.572 -0.254,-1.142 -0.387,-1.71c-0.019,-0.096 -0.042,-0.187 -0.065,-0.277c-0.143,-0.565 -0.284,-1.131 -0.438,-1.687c-0.138,-0.521 -0.282,-1.029 -0.436,-1.541c-0.078,-0.282 -0.163,-0.569 -0.256,-0.86c-0.099,-0.363 -0.217,-0.718 -0.342,-1.078c-0.154,-0.504 -0.329,-1.003 -0.506,-1.495Z" style="fill:#14b8a6;fill-rule:nonzero;"/></g></g></g></svg>