<?xml version="1.0" encoding="UTF-8" standalone="no"?><!DOCTYPE svg PUBLIC "-//W3C//DTD SVG 1.1//EN" "http://www.w3.org/Graphics/SVG/1.1/DTD/svg11.dtd"><svg width="100%" height="100%" viewBox="0 0 769 501" version="1.1" xmlns="http://www.w3.org/2000/svg" xmlns:xlink="http://www.w3.org/1999/xlink" xml:space="preserve" xmlns:serif="http://www.serif.com/" style="fill-rule:evenodd;clip-rule:evenodd;stroke-linejoin:round;stroke-miterlimit:2;"><path id="v8s-logo-domain" d="M768.903,150.58l-0,200c-0,82.787 -67.213,150 -150,150l-468,0c-82.788,0 -150,-67.213 -150,-150l-0,-200c-0,-82.787 67.212,-150 150,-150l468,0c82.787,0 150,67.213 150,150Z" style="fill:#0f766e;"/><clipPath id="_clip1"><path d="M768.903,150.58l-0,200c-0,82.787 -67.213,150 -150,150l-468,0c-82.788,0 -150,-67.213 -150,-150l-0,-200c-0,-82.787 67.212,-150 150,-150l468,0c82.787,0 150,67.213 150,150Z"/></clipPath><g clip-path="url(#_clip1)"><g><g><path d="M170.192,254.19l0.843,32.48c0,0 1.184,0.197 1.266,0c2.32,-5.554 12.655,-33.324 12.655,-33.324l57.79,-109.676l58.635,0l-129.08,213.024l-32.059,0l-41.339,-213.024l57.368,0l13.921,110.52Z" style="fill:#fff;fill-rule:nonzero;"/><path d="M516.935,305.231c5.625,3.093 12.866,5.835 21.724,8.226c8.859,2.39 18.209,3.585 28.052,3.585c9.843,0 17.365,-1.898 22.568,-5.695c5.202,-3.796 7.944,-9.631 8.226,-17.505c-0,-5.625 -1.688,-10.476 -5.062,-14.554c-3.375,-4.077 -7.664,-7.944 -12.866,-11.6c-5.203,-3.656 -10.757,-7.382 -16.662,-11.178c-5.906,-3.797 -11.46,-8.156 -16.663,-13.077c-5.202,-4.921 -9.491,-10.757 -12.865,-17.506c-3.375,-6.749 -5.062,-14.905 -5.062,-24.466c-0,-9.28 1.828,-17.857 5.483,-25.732c3.656,-7.874 8.788,-14.623 15.397,-20.247c6.609,-5.625 14.624,-9.984 24.044,-13.077c9.421,-3.093 20.037,-4.64 31.848,-4.64c16.311,-0 29.81,1.195 40.496,3.585c10.686,2.391 19.123,5.414 25.31,9.07l-14.342,39.652c-5.625,-2.531 -12.444,-4.641 -20.459,-6.328c-8.015,-1.687 -16.381,-2.531 -25.099,-2.531c-8.999,0 -16.1,1.547 -21.302,4.64c-5.203,3.094 -7.804,8.015 -7.804,14.764c-0,4.5 1.687,8.507 5.062,12.022c3.374,3.516 7.663,7.101 12.866,10.757c5.202,3.656 10.756,7.382 16.662,11.179c5.905,3.796 11.46,8.366 16.662,13.709c5.203,5.343 9.491,11.46 12.866,18.35c3.374,6.889 5.062,15.115 5.062,24.677c-0,23.341 -7.593,40.706 -22.779,52.095c-15.186,11.39 -35.434,17.084 -60.743,17.084c-14.343,0 -27.49,-1.335 -39.441,-4.007c-11.952,-2.671 -21.162,-5.976 -27.63,-9.913l16.451,-41.339Z" style="fill:#fff;fill-rule:nonzero;"/><g><path d="M416.672,273.457c-3.094,0.302 -6.208,0.405 -9.322,0.321l-18.788,38.866c-8.804,18.217 -30.362,25.056 -48.058,15.248c-17.697,-9.809 -24.93,-32.605 -16.124,-50.821l26.313,-54.442l7.903,-16.349c0.136,-0.282 0.279,-0.562 0.424,-0.841c0.126,-0.247 0.249,-0.486 0.377,-0.732c0.098,-0.168 0.19,-0.339 0.287,-0.507c0.128,-0.229 0.258,-0.447 0.389,-0.665c0.162,-0.287 0.335,-0.574 0.518,-0.85c0.091,-0.154 0.195,-0.302 0.291,-0.446c-0,-0.005 0.002,-0.005 0.002,-0.007c0.141,-0.214 0.28,-0.429 0.425,-0.636c0.143,-0.211 0.283,-0.416 0.431,-0.616l0.003,-0.008c0.019,-0.022 0.028,-0.044 0.048,-0.067c0.14,-0.204 0.284,-0.398 0.434,-0.588c0.105,-0.148 0.213,-0.284 0.323,-0.427c0.124,-0.172 0.252,-0.331 0.385,-0.488c0.004,-0.007 0.004,-0.007 0.013,-0.01c0.029,-0.043 0.069,-0.091 0.105,-0.131c0.173,-0.219 0.349,-0.429 0.532,-0.636c0.009,-0.02 0.029,-0.043 0.052,-0.057l0.004,-0.007c0.068,-0.09 0.143,-0.176 0.215,-0.257c0.062,-0.076 0.121,-0.146 0.192,-0.209c-0.004,-0.009 0.003,-0.007 0.003,-0.007c0.056,-0.069 0.12,-0.135 0.181,-0.202c0.063,-0.072 0.128,-0.141 0.193,-0.213c0.068,-0.077 0.136,-0.158 0.21,-0.227c0.066,-0.074 0.135,-0.152 0.204,-0.228c0.041,-0.042 0.083,-0.081 0.122,-0.124c0.002,-0 0.003,-0.002 0.005,-0.003l0.001,-0.002c0.183,-0.192 0.37,-0.379 0.557,-0.565c0.123,-0.126 0.249,-0.251 0.373,-0.373c0.264,-0.254 0.529,-0.503 0.799,-0.747c0.309,-0.279 0.625,-0.557 0.944,-0.823c0.12,-0.112 0.252,-0.211 0.376,-0.313c0.042,-0.042 0.09,-0.08 0.14,-0.113c0.016,-0.014 0.033,-0.027 0.051,-0.04c0.314,-0.257 0.63,-0.505 0.951,-0.743c0.149,-0.112 0.301,-0.218 0.452,-0.327c0.17,-0.124 0.339,-0.249 0.511,-0.371c0.372,-0.258 0.747,-0.508 1.128,-0.751c0.089,-0.062 0.184,-0.121 0.279,-0.18c0.242,-0.156 0.486,-0.302 0.732,-0.448c0.744,-0.442 1.509,-0.856 2.284,-1.238c0.258,-0.123 0.507,-0.242 0.761,-0.356c0.516,-0.245 1.043,-0.474 1.576,-0.683c0.529,-0.22 1.065,-0.419 1.601,-0.599c0.268,-0.092 0.537,-0.181 0.811,-0.268c0.275,-0.088 0.546,-0.169 0.818,-0.249c0.277,-0.078 0.549,-0.158 0.823,-0.228c0.214,-0.062 0.429,-0.111 0.642,-0.156c0.068,-0.022 0.124,-0.035 0.189,-0.05c1.089,-0.26 2.192,-0.46 3.303,-0.613c0.294,-0.043 0.586,-0.078 0.881,-0.103c0.587,-0.068 1.173,-0.11 1.762,-0.143c0.281,-0.015 0.563,-0.029 0.851,-0.042c0.016,0.001 0.025,-0.002 0.032,0.002c0.277,-0.008 0.562,-0.014 0.844,-0.012c0.242,-0.002 0.48,0.003 0.719,0.007c1.512,0.017 3.036,0.144 4.552,0.376c0.231,0.035 0.464,0.07 0.7,0.114c0.913,0.157 1.826,0.346 2.732,0.584c0.245,0.059 0.489,0.125 0.737,0.194c0.082,0.02 0.171,0.043 0.255,0.073c0.25,0.07 0.495,0.146 0.741,0.222c0.288,0.092 0.576,0.183 0.859,0.28c0.467,0.155 0.931,0.328 1.393,0.506c0.251,0.099 0.511,0.199 0.766,0.305c0.204,0.079 0.402,0.164 0.599,0.257c0.117,0.048 0.243,0.098 0.357,0.155c0.182,0.083 0.37,0.161 0.557,0.256c0.238,0.107 0.48,0.225 0.716,0.337l0.039,0.023c0.501,0.253 1,0.51 1.497,0.787c0.498,0.276 0.982,0.561 1.464,0.854l0.04,0.021c0.222,0.141 0.452,0.285 0.67,0.432c0.181,0.108 0.348,0.227 0.519,0.338c0.107,0.068 0.22,0.148 0.323,0.223c0.184,0.119 0.365,0.244 0.541,0.376c0.229,0.162 0.455,0.329 0.675,0.494c0.404,0.3 0.803,0.607 1.19,0.925c0.239,0.191 0.474,0.392 0.71,0.59c0.201,0.17 0.399,0.341 0.597,0.519c0.071,0.056 0.14,0.12 0.203,0.18c0.196,0.177 0.386,0.352 0.573,0.531c0.704,0.658 1.377,1.344 2.023,2.053c0.169,0.18 0.329,0.363 0.49,0.547c1.053,1.189 2.032,2.449 2.916,3.761c0.142,0.206 0.282,0.413 0.42,0.625c0.164,0.245 0.325,0.497 0.479,0.746c0.007,0.003 0.01,0.013 0.02,0.028c0.158,0.258 0.308,0.512 0.458,0.767c0.316,0.534 0.622,1.07 0.904,1.619c1.664,-1.657 3.056,-3.605 4.104,-5.776l11.126,-23.018c-0.255,-0.295 -0.519,-0.577 -0.79,-0.855c-0.27,-0.286 -0.545,-0.577 -0.816,-0.855c-0.292,-0.308 -0.594,-0.611 -0.899,-0.909c-0.213,-0.211 -0.429,-0.417 -0.646,-0.622c-0.108,-0.12 -0.228,-0.23 -0.351,-0.34c-0.261,-0.248 -0.518,-0.492 -0.783,-0.733c-0.305,-0.281 -0.608,-0.561 -0.911,-0.83c-0.458,-0.408 -0.921,-0.809 -1.385,-1.204c-0.226,-0.185 -0.449,-0.377 -0.679,-0.556c-0.261,-0.214 -0.518,-0.424 -0.782,-0.629c-0.321,-0.265 -0.65,-0.514 -0.977,-0.764c-0.052,-0.047 -0.115,-0.09 -0.17,-0.129c-0.344,-0.267 -0.692,-0.528 -1.041,-0.783c-0.403,-0.3 -0.816,-0.597 -1.236,-0.88c-0.091,-0.069 -0.183,-0.137 -0.279,-0.198c-0.414,-0.29 -0.827,-0.571 -1.25,-0.848c-0.034,-0.017 -0.063,-0.042 -0.095,-0.061c-0.448,-0.291 -0.904,-0.586 -1.366,-0.868c-0.419,-0.266 -0.852,-0.523 -1.291,-0.783c-0.546,-0.329 -1.101,-0.644 -1.664,-0.956c-0.563,-0.313 -1.123,-0.614 -1.689,-0.902c-0.452,-0.234 -0.897,-0.463 -1.343,-0.677c-0.481,-0.24 -0.968,-0.468 -1.45,-0.693c-0.036,-0.01 -0.068,-0.029 -0.101,-0.047c-0.455,-0.209 -0.907,-0.408 -1.369,-0.605c-0.101,-0.047 -0.205,-0.088 -0.312,-0.129c-0.457,-0.202 -0.922,-0.393 -1.384,-0.571c-0.396,-0.161 -0.795,-0.313 -1.198,-0.459c-0.062,-0.026 -0.13,-0.056 -0.196,-0.075c-0.38,-0.142 -0.759,-0.283 -1.146,-0.412c-0.288,-0.11 -0.576,-0.2 -0.868,-0.302c-0.356,-0.121 -0.71,-0.232 -1.07,-0.346c-0.51,-0.163 -1.024,-0.319 -1.541,-0.469c-0.355,-0.093 -0.712,-0.196 -1.074,-0.287c-0.039,-0.023 -0.078,-0.027 -0.124,-0.035c-0.315,-0.088 -0.639,-0.174 -0.959,-0.249c-0.153,-0.043 -0.311,-0.078 -0.462,-0.111c-0.281,-0.07 -0.563,-0.141 -0.847,-0.205c-0.403,-0.094 -0.803,-0.179 -1.205,-0.257c-0.377,-0.08 -0.746,-0.157 -1.129,-0.224c-0.369,-0.076 -0.735,-0.143 -1.109,-0.197c-0.012,-0.006 -0.036,-0.009 -0.053,-0.01c-0.781,-0.135 -1.558,-0.249 -2.34,-0.349c-0.382,-0.049 -0.774,-0.097 -1.161,-0.14c-0.393,-0.046 -0.774,-0.079 -1.164,-0.115l-0.007,-0.002c-0.818,-0.079 -1.637,-0.139 -2.453,-0.182c-0.351,-0.015 -0.695,-0.025 -1.044,-0.04c-0.384,-0.016 -0.776,-0.028 -1.165,-0.03l-0.115,-0.004c-0.726,-0.009 -1.442,-0.005 -2.172,0.011c-0.033,-0.002 -0.065,-0.002 -0.098,-0.004c-0.304,0.011 -0.616,0.019 -0.919,0.029l-0.246,0.01c-1.125,0.043 -2.244,0.124 -3.359,0.232c-0.01,0.003 -0.017,-0 -0.027,0.003c-0.591,0.056 -1.19,0.126 -1.789,0.196c-0.591,0.075 -1.18,0.158 -1.772,0.248c-0.592,0.092 -1.181,0.193 -1.763,0.297c-0.592,0.109 -1.17,0.224 -1.755,0.352c-0.582,0.122 -1.165,0.261 -1.747,0.4c-0.095,0.024 -0.189,0.049 -0.284,0.073c-0.235,0.058 -0.474,0.122 -0.709,0.18c-0.152,0.036 -0.296,0.075 -0.439,0.116c-0.239,0.064 -0.477,0.129 -0.712,0.203c-0.056,0.012 -0.105,0.027 -0.165,0.046c-0.332,0.089 -0.662,0.188 -0.996,0.294c-0.096,0.024 -0.184,0.052 -0.271,0.08c-0.341,0.103 -0.684,0.212 -1.021,0.323c-0.275,0.088 -0.543,0.179 -0.804,0.274c-0.317,0.107 -0.627,0.215 -0.942,0.332c-0.159,0.057 -0.323,0.119 -0.483,0.176c-0.514,0.186 -1.027,0.389 -1.54,0.592c-0.083,0.031 -0.167,0.07 -0.248,0.102c-0.51,0.212 -1.02,0.426 -1.527,0.649c-0.441,0.192 -0.886,0.389 -1.32,0.601c-0.261,0.112 -0.514,0.238 -0.765,0.364c-0.455,0.218 -0.909,0.436 -1.363,0.671c-0.435,0.23 -0.87,0.459 -1.3,0.699c-0.04,0.013 -0.076,0.035 -0.112,0.058c-0.483,0.262 -0.954,0.53 -1.428,0.807c-0.042,0.019 -0.081,0.048 -0.127,0.074c-0.509,0.298 -1.012,0.601 -1.513,0.914c-0.51,0.316 -1.016,0.642 -1.513,0.983c-0.464,0.307 -0.921,0.616 -1.376,0.939c-0.127,0.09 -0.263,0.186 -0.395,0.285c-0.32,0.231 -0.64,0.465 -0.954,0.702c-0.153,0.111 -0.307,0.222 -0.457,0.344c-0.406,0.306 -0.807,0.622 -1.202,0.941c-0.474,0.379 -0.94,0.76 -1.407,1.161c-0.464,0.392 -0.921,0.789 -1.379,1.201c-0.442,0.397 -0.879,0.804 -1.31,1.215c-0.006,0.014 -0.018,0.024 -0.033,0.033c-0.861,0.822 -1.704,1.671 -2.521,2.552c-0.054,0.064 -0.111,0.126 -0.174,0.194c-0.102,0.105 -0.193,0.209 -0.288,0.318c-0.291,0.31 -0.571,0.634 -0.85,0.949c-0.41,0.473 -0.811,0.943 -1.21,1.423c-0.402,0.487 -0.787,0.975 -1.174,1.469c-0.777,0.989 -1.522,2.013 -2.236,3.06c-0.346,0.511 -0.685,1.023 -1.027,1.543c-0.03,0.043 -0.056,0.097 -0.095,0.143c-0.32,0.507 -0.642,1.02 -0.953,1.541c-0.256,0.43 -0.518,0.868 -0.772,1.308c-0.483,0.843 -0.955,1.702 -1.405,2.58c-0.262,0.505 -0.516,1.014 -0.766,1.533l-34.216,70.789c-15.988,33.084 -2.849,74.498 29.288,92.312c32.144,17.816 71.301,5.386 87.291,-27.695l30.023,-62.115c-1.585,0.84 -3.216,1.621 -4.874,2.352c-7.374,3.246 -15.192,5.282 -23.238,6.054Z" style="fill:#2dd4bf;fill-rule:nonzero;"/><path d="M502.245,98.081c-0.085,-0.27 -0.175,-0.532 -0.274,-0.792c-0.121,-0.331 -0.243,-0.665 -0.371,-1.002c-0.076,-0.219 -0.163,-0.439 -0.246,-0.657c-0.165,-0.416 -0.332,-0.841 -0.511,-1.264c-0.041,-0.102 -0.084,-0.202 -0.124,-0.31c-0.236,-0.558 -0.473,-1.117 -0.726,-1.675c-0.264,-0.591 -0.532,-1.186 -0.809,-1.765c-0.265,-0.549 -0.539,-1.102 -0.814,-1.649c-0.292,-0.564 -0.584,-1.126 -0.883,-1.677c-0.551,-1.024 -1.128,-2.028 -1.736,-3.022c-0.748,-1.235 -1.532,-2.448 -2.355,-3.631c-0.213,-0.314 -0.436,-0.626 -0.663,-0.932c-0.637,-0.899 -1.299,-1.78 -1.985,-2.647c-0.232,-0.291 -0.464,-0.582 -0.708,-0.87c-0.769,-0.949 -1.566,-1.878 -2.392,-2.78c-0.27,-0.303 -0.548,-0.603 -0.83,-0.896c-0.268,-0.285 -0.543,-0.576 -0.816,-0.855c-0.292,-0.306 -0.594,-0.609 -0.899,-0.907c-0.212,-0.212 -0.429,-0.417 -0.645,-0.623c-0.108,-0.119 -0.228,-0.229 -0.351,-0.339c-0.262,-0.248 -0.518,-0.492 -0.782,-0.735c-0.306,-0.279 -0.61,-0.559 -0.913,-0.828c-0.457,-0.408 -0.92,-0.81 -1.384,-1.205c-0.226,-0.185 -0.448,-0.377 -0.679,-0.555c-0.261,-0.214 -0.517,-0.424 -0.782,-0.631c-0.322,-0.264 -0.65,-0.513 -0.977,-0.762c-0.052,-0.048 -0.115,-0.09 -0.169,-0.13c-0.346,-0.266 -0.693,-0.528 -1.042,-0.782c-0.404,-0.301 -0.818,-0.597 -1.235,-0.882c-0.092,-0.067 -0.184,-0.135 -0.28,-0.196c-0.415,-0.291 -0.828,-0.571 -1.25,-0.848c-0.033,-0.017 -0.064,-0.043 -0.096,-0.061c-0.448,-0.291 -0.903,-0.587 -1.365,-0.868c-0.419,-0.266 -0.852,-0.523 -1.292,-0.783c-0.545,-0.33 -1.1,-0.644 -1.662,-0.956c-0.564,-0.313 -1.122,-0.615 -1.69,-0.902c-0.452,-0.235 -0.897,-0.465 -1.343,-0.677c-0.481,-0.24 -0.968,-0.468 -1.45,-0.693c-0.036,-0.01 -0.068,-0.029 -0.101,-0.047c-0.456,-0.209 -0.908,-0.408 -1.369,-0.605c-0.101,-0.047 -0.205,-0.089 -0.312,-0.129c-0.458,-0.204 -0.923,-0.393 -1.384,-0.571c-0.397,-0.161 -0.795,-0.313 -1.199,-0.459c-0.061,-0.027 -0.13,-0.057 -0.195,-0.075c-0.38,-0.142 -0.76,-0.285 -1.146,-0.414c-0.288,-0.108 -0.576,-0.198 -0.867,-0.301c-0.358,-0.121 -0.711,-0.231 -1.07,-0.345c-0.513,-0.162 -1.025,-0.32 -1.542,-0.469c-0.354,-0.094 -0.711,-0.197 -1.075,-0.287c-0.039,-0.023 -0.078,-0.027 -0.123,-0.036c-0.315,-0.088 -0.639,-0.175 -0.96,-0.25c-0.153,-0.041 -0.311,-0.076 -0.461,-0.109c-0.282,-0.071 -0.563,-0.141 -0.847,-0.205c-0.403,-0.095 -0.803,-0.179 -1.206,-0.258c-0.375,-0.08 -0.745,-0.156 -1.128,-0.223c-0.386,-0.078 -0.775,-0.147 -1.162,-0.208c-0.781,-0.134 -1.557,-0.249 -2.339,-0.348c-0.383,-0.051 -0.775,-0.097 -1.162,-0.14c-0.394,-0.046 -0.781,-0.083 -1.172,-0.119c-0.818,-0.077 -1.635,-0.138 -2.452,-0.18c-0.351,-0.015 -0.696,-0.026 -1.045,-0.041c-0.383,-0.015 -0.775,-0.028 -1.164,-0.029c-0.798,-0.017 -1.59,-0.011 -2.385,0.002c-0.363,0.014 -0.727,0.025 -1.09,0.039c-1.158,0.041 -2.308,0.121 -3.46,0.235c-0.591,0.057 -1.19,0.126 -1.789,0.196c-0.593,0.075 -1.18,0.158 -1.772,0.248c-0.593,0.093 -1.181,0.192 -1.763,0.298c-0.592,0.108 -1.17,0.223 -1.756,0.351c-0.583,0.123 -1.164,0.261 -1.746,0.4c-0.481,0.119 -0.955,0.241 -1.433,0.37c-0.239,0.063 -0.476,0.128 -0.712,0.203c-0.476,0.128 -0.96,0.269 -1.433,0.419c-0.339,0.102 -0.682,0.211 -1.019,0.324c-0.275,0.087 -0.543,0.178 -0.804,0.273c-0.477,0.162 -0.952,0.336 -1.426,0.509c-0.513,0.185 -1.026,0.388 -1.539,0.592c-0.083,0.031 -0.167,0.069 -0.248,0.1c-0.511,0.214 -1.02,0.427 -1.528,0.651c-0.44,0.191 -0.886,0.389 -1.319,0.601c-0.262,0.112 -0.515,0.238 -0.766,0.362c-0.454,0.218 -0.908,0.437 -1.362,0.672c-0.435,0.23 -0.871,0.46 -1.3,0.699c-0.04,0.013 -0.077,0.036 -0.112,0.057c-0.483,0.263 -0.955,0.532 -1.429,0.809c-0.041,0.019 -0.081,0.048 -0.126,0.073c-0.511,0.299 -1.014,0.602 -1.514,0.915c-0.509,0.315 -1.016,0.642 -1.512,0.982c-0.464,0.307 -0.922,0.617 -1.377,0.938c-0.126,0.092 -0.264,0.187 -0.394,0.285c-0.321,0.233 -0.64,0.467 -0.954,0.703c-0.153,0.111 -0.308,0.223 -0.458,0.345c-0.405,0.305 -0.806,0.621 -1.201,0.94c-0.474,0.379 -0.942,0.761 -1.409,1.16c-0.464,0.394 -0.92,0.789 -1.377,1.202c-0.442,0.397 -0.879,0.804 -1.31,1.215c-0.007,0.015 -0.019,0.023 -0.033,0.033c-0.861,0.822 -1.704,1.671 -2.521,2.552c-0.054,0.065 -0.111,0.127 -0.176,0.193c-0.385,0.421 -0.763,0.842 -1.136,1.269c-0.412,0.473 -0.811,0.942 -1.21,1.422c-0.402,0.488 -0.787,0.975 -1.176,1.469c-0.776,0.989 -1.52,2.013 -2.235,3.061c-0.345,0.51 -0.685,1.023 -1.026,1.543c-0.031,0.043 -0.057,0.097 -0.096,0.143c-0.32,0.507 -0.643,1.02 -0.953,1.541c-0.257,0.43 -0.519,0.866 -0.772,1.306c-0.483,0.845 -0.956,1.702 -1.405,2.582c-0.261,0.505 -0.515,1.013 -0.766,1.533l-30.026,62.12c0.194,-0.107 0.386,-0.214 0.583,-0.311l0.09,-0.052c0.554,-0.284 1.095,-0.547 1.648,-0.814c0.349,-0.173 0.686,-0.336 1.036,-0.493c0.519,-0.251 1.049,-0.488 1.572,-0.71c0.582,-0.26 1.164,-0.501 1.739,-0.745l0.187,-0.077c0.111,-0.041 0.215,-0.086 0.31,-0.127c0.638,-0.254 1.278,-0.498 1.913,-0.727c0.493,-0.18 1.019,-0.375 1.549,-0.56c0.36,-0.125 0.729,-0.254 1.102,-0.373c0.405,-0.134 0.818,-0.265 1.225,-0.388c0.546,-0.168 1.108,-0.335 1.664,-0.489c0.322,-0.096 0.648,-0.189 0.978,-0.269c0.556,-0.154 1.128,-0.308 1.71,-0.446l0.085,-0.021c0.686,-0.166 1.377,-0.323 2.063,-0.472c0.724,-0.157 1.44,-0.297 2.179,-0.434c0.718,-0.132 1.426,-0.254 2.132,-0.357c0.726,-0.111 1.439,-0.211 2.155,-0.301l0.117,-0.02c0.719,-0.081 1.398,-0.159 2.078,-0.227c1.403,-0.136 2.856,-0.237 4.276,-0.289l1.373,-0.042c0.929,-0.015 1.855,-0.024 2.784,-0.003c0.297,0.002 0.595,0.005 0.887,0.02l18.788,-38.873c0.137,-0.282 0.28,-0.562 0.424,-0.843c0.127,-0.245 0.251,-0.485 0.378,-0.73c0.098,-0.168 0.189,-0.341 0.287,-0.507c0.128,-0.23 0.257,-0.448 0.388,-0.666c0.387,-0.665 0.804,-1.317 1.236,-1.94c0.145,-0.21 0.285,-0.414 0.43,-0.614l0.003,-0.008c0.021,-0.024 0.031,-0.044 0.05,-0.067c0.141,-0.205 0.285,-0.398 0.434,-0.589c0.106,-0.147 0.212,-0.283 0.323,-0.428c0.124,-0.17 0.253,-0.33 0.384,-0.488c2.472,-3.083 5.383,-5.65 8.594,-7.657c0.243,-0.156 0.487,-0.303 0.732,-0.449c0.745,-0.442 1.51,-0.855 2.285,-1.238c0.258,-0.123 0.505,-0.241 0.761,-0.357c0.516,-0.243 1.043,-0.473 1.576,-0.682c0.529,-0.219 1.064,-0.418 1.6,-0.599c0.269,-0.091 0.537,-0.182 0.811,-0.269c0.275,-0.087 0.546,-0.167 0.819,-0.248c0.276,-0.077 0.549,-0.157 0.823,-0.228c0.279,-0.076 0.56,-0.142 0.831,-0.205c1.089,-0.26 2.191,-0.462 3.303,-0.614c0.88,-0.119 1.756,-0.199 2.642,-0.246c0.282,-0.014 0.564,-0.029 0.851,-0.041c0.016,0.001 0.026,-0.002 0.032,0c0.278,-0.007 0.563,-0.012 0.845,-0.01c0.241,-0.002 0.48,0.001 0.719,0.006c1.512,0.017 3.036,0.144 4.551,0.377c0.232,0.034 0.465,0.07 0.7,0.114c0.914,0.157 1.827,0.345 2.733,0.583c0.245,0.06 0.488,0.124 0.736,0.195c0.083,0.019 0.171,0.043 0.256,0.072c0.249,0.071 0.494,0.147 0.739,0.223c0.289,0.091 0.577,0.183 0.861,0.28c0.466,0.155 0.93,0.328 1.391,0.506c0.252,0.098 0.513,0.198 0.767,0.305c0.203,0.079 0.402,0.164 0.598,0.255c0.119,0.049 0.243,0.1 0.357,0.155c0.184,0.085 0.37,0.163 0.557,0.257c0.239,0.107 0.481,0.226 0.717,0.338l0.04,0.022c0.502,0.251 0.999,0.511 1.497,0.787c0.496,0.275 0.981,0.562 1.464,0.855l0.038,0.021c0.222,0.141 0.452,0.285 0.672,0.431c0.18,0.109 0.347,0.228 0.518,0.339c0.106,0.068 0.219,0.146 0.323,0.223c0.184,0.117 0.365,0.244 0.541,0.375c0.228,0.162 0.456,0.329 0.675,0.494c0.404,0.301 0.804,0.608 1.189,0.924c0.24,0.192 0.474,0.392 0.711,0.591c0.2,0.17 0.399,0.341 0.596,0.518c0.072,0.058 0.141,0.121 0.203,0.182c0.196,0.177 0.387,0.351 0.574,0.531c0.704,0.657 1.377,1.344 2.022,2.053c0.171,0.179 0.331,0.363 0.492,0.546c1.052,1.19 2.03,2.45 2.915,3.762c0.141,0.206 0.282,0.413 0.42,0.626c0.164,0.244 0.325,0.496 0.478,0.744c0.007,0.003 0.01,0.014 0.021,0.027c0.158,0.259 0.309,0.513 0.458,0.769c0.478,0.802 0.924,1.613 1.341,2.451c0.525,1.061 1.009,2.14 1.438,3.242c0.11,0.274 0.22,0.559 0.321,0.846c0.107,0.281 0.202,0.565 0.305,0.852c0.095,0.284 0.19,0.567 0.282,0.856c0.092,0.291 0.177,0.578 0.264,0.864c0.17,0.574 0.328,1.157 0.466,1.747c0.149,0.587 0.278,1.18 0.39,1.772c0.06,0.29 0.113,0.575 0.169,0.871c0.156,0.899 0.283,1.807 0.374,2.713c0.03,0.298 0.06,0.598 0.081,0.899c0.325,3.967 0.048,7.993 -0.878,11.934c-0.041,0.208 -0.09,0.412 -0.148,0.618c-0.114,0.441 -0.232,0.89 -0.362,1.33l-0.002,0.007c-0.069,0.244 -0.143,0.484 -0.221,0.733c-0.225,0.739 -0.482,1.477 -0.766,2.2c-0.09,0.239 -0.182,0.48 -0.283,0.724c-0.07,0.182 -0.149,0.361 -0.221,0.544c-0.114,0.252 -0.226,0.499 -0.339,0.752c-0.131,0.286 -0.26,0.573 -0.397,0.855l-26.31,54.435l-7.907,16.356c-2.975,6.155 -7.404,11.009 -12.651,14.357c-4.444,2.854 -9.482,4.619 -14.709,5.174c-6.859,0.738 -14.052,-0.599 -20.699,-4.283c-6.647,-3.683 -11.82,-9.2 -15.217,-15.623c-0.539,0.53 -1.046,1.096 -1.526,1.693l-1.046,1.412c-0.202,0.298 -0.405,0.613 -0.594,0.937l-0.391,0.671c-0.017,0.034 -0.033,0.068 -0.059,0.105l-0.242,0.464c-0.071,0.149 -0.159,0.314 -0.244,0.489l-11.128,23.023c4.93,5.416 10.764,10.112 17.413,13.797c6.647,3.683 13.597,6.074 20.574,7.257c5.463,0.925 10.947,1.11 16.32,0.592c6.575,-0.629 12.991,-2.305 19.006,-4.955c7.801,-3.429 14.939,-8.49 20.896,-15.027c4.114,-4.508 7.667,-9.711 10.495,-15.562l34.217,-70.79c0.25,-0.518 0.491,-1.035 0.727,-1.555c0.41,-0.901 0.79,-1.809 1.156,-2.718c0.187,-0.477 0.37,-0.957 0.548,-1.431l0.011,-0.02c0.209,-0.568 0.416,-1.136 0.615,-1.702c0.013,-0.062 0.04,-0.115 0.056,-0.166c0.198,-0.6 0.392,-1.192 0.582,-1.788c0.387,-1.231 0.738,-2.472 1.043,-3.722c0.152,-0.624 0.302,-1.243 0.441,-1.875c0.136,-0.625 0.264,-1.248 0.386,-1.881c0.11,-0.571 0.214,-1.146 0.311,-1.725c0.013,-0.096 0.029,-0.182 0.045,-0.266c0.2,-1.223 0.362,-2.45 0.49,-3.677c0.001,-0.017 0.001,-0.034 0.007,-0.048c0.064,-0.615 0.122,-1.232 0.169,-1.845c0.052,-0.64 0.091,-1.268 0.122,-1.9c0.033,-0.639 0.057,-1.268 0.071,-1.901c0.016,-0.53 0.024,-1.064 0.023,-1.595c0.007,-0.2 0.002,-0.4 -0,-0.599c-0.001,-0.411 -0.008,-0.824 -0.016,-1.238c0,-0.172 -0.007,-0.346 -0.011,-0.511c-0.017,-0.583 -0.044,-1.162 -0.079,-1.745c-0.027,-0.63 -0.071,-1.262 -0.124,-1.889c-0.051,-0.618 -0.11,-1.233 -0.177,-1.851c-0.007,-0.054 -0.006,-0.107 -0.017,-0.155c-0.063,-0.573 -0.129,-1.14 -0.21,-1.713c-0.003,-0.046 -0.006,-0.091 -0.018,-0.131c-0.068,-0.516 -0.144,-1.028 -0.218,-1.541c-0.084,-0.532 -0.18,-1.056 -0.275,-1.579c-0.051,-0.293 -0.101,-0.585 -0.166,-0.878c-0.09,-0.504 -0.196,-1.006 -0.304,-1.502c-0.122,-0.572 -0.254,-1.141 -0.387,-1.71c-0.019,-0.096 -0.042,-0.186 -0.065,-0.276c-0.143,-0.566 -0.284,-1.132 -0.438,-1.687c-0.139,-0.522 -0.282,-1.029 -0.436,-1.541c-0.078,-0.283 -0.163,-0.57 -0.256,-0.86c-0.099,-0.363 -0.217,-0.719 -0.342,-1.079c-0.154,-0.504 -0.329,-1.002 -0.506,-1.495Z" style="fill:#14b8a6;fill-rule:nonzero;"/></g></g><g><path d="M125.27,428.255l0.174,6.725l0.262,-0l2.62,-6.9l11.965,-22.707l12.14,-0l-26.725,44.105l-6.637,-0l-8.559,-44.105l11.877,-0l2.883,22.882Z" style="fill:#14b8a6;fill-rule:nonzero;"/><path d="M181.601,431.574c-0.465,2.212 -0.8,4.454 -1.004,6.724c-0.204,2.271 -0.306,4.426 -0.306,6.463c0,0.815 0.015,1.587 0.044,2.315c0.029,0.728 0.073,1.412 0.131,2.052l-7.948,0l-1.222,-7.511l-0.35,0c-0.64,1.048 -1.47,2.082 -2.489,3.101c-1.019,1.019 -2.139,1.95 -3.362,2.794c-1.223,0.845 -2.518,1.514 -3.887,2.009c-1.368,0.495 -2.78,0.743 -4.235,0.743c-3.843,-0 -6.682,-1.252 -8.516,-3.756c-1.834,-2.504 -2.751,-5.851 -2.751,-10.044c0,-4.25 0.539,-8.326 1.616,-12.227c1.077,-3.901 2.751,-7.336 5.022,-10.305c2.271,-2.97 5.138,-5.342 8.602,-7.118c3.465,-1.776 7.584,-2.664 12.358,-2.664c2.038,0 4.265,0.189 6.682,0.568c2.416,0.378 4.76,0.888 7.03,1.528l-5.415,25.328Zm-20.524,9.694c1.048,-0 2.038,-0.218 2.97,-0.655c0.931,-0.437 1.79,-1.004 2.576,-1.703c0.786,-0.699 1.485,-1.456 2.096,-2.271c0.612,-0.815 1.15,-1.572 1.616,-2.271l4.367,-20.349c-0.641,-0.291 -1.383,-0.509 -2.227,-0.655c-0.844,-0.146 -1.674,-0.218 -2.489,-0.218c-2.096,-0 -3.96,0.626 -5.59,1.877c-1.63,1.252 -3.013,2.882 -4.148,4.891c-1.136,2.009 -1.994,4.28 -2.577,6.812c-0.582,2.533 -0.873,5.08 -0.873,7.642c-0,1.864 0.306,3.479 0.917,4.848c0.611,1.368 1.732,2.052 3.362,2.052Z" style="fill:#14b8a6;fill-rule:nonzero;"/><path d="M210.248,449.041l5.764,-27.074c0.349,-1.631 0.524,-3.057 0.524,-4.28c-0,-1.281 -0.262,-2.285 -0.786,-3.013c-0.524,-0.728 -1.485,-1.092 -2.882,-1.092c-1.048,0 -2.096,0.262 -3.144,0.786c-1.048,0.524 -2.038,1.223 -2.97,2.096c-0.931,0.874 -1.805,1.849 -2.62,2.926c-0.815,1.077 -1.514,2.169 -2.096,3.275l-5.589,26.376l-10.743,-0l9.258,-43.668l8.122,-0l-0.437,7.685l0.35,0c0.757,-0.931 1.645,-1.921 2.664,-2.969c1.018,-1.048 2.198,-2.009 3.537,-2.882c1.339,-0.874 2.838,-1.601 4.498,-2.184c1.659,-0.582 3.537,-0.873 5.633,-0.873c2.62,0 4.716,0.713 6.288,2.14c1.572,1.426 2.358,3.799 2.358,7.118c-0,0.873 -0.044,1.805 -0.131,2.794c-0.087,0.99 -0.277,2.067 -0.568,3.232l-6.288,29.607l-10.742,-0Z" style="fill:#14b8a6;fill-rule:nonzero;"/><path d="M238.632,405.373l10.742,-0l-9.257,43.668l-10.743,-0l9.258,-43.668Zm1.747,-12.402c-0,-1.921 0.626,-3.406 1.877,-4.454c1.252,-1.048 2.839,-1.572 4.76,-1.572c1.863,-0 3.45,0.524 4.76,1.572c1.31,1.048 1.965,2.533 1.965,4.454c0,1.863 -0.655,3.333 -1.965,4.41c-1.31,1.078 -2.897,1.616 -4.76,1.616c-1.921,0 -3.508,-0.538 -4.76,-1.616c-1.251,-1.077 -1.877,-2.547 -1.877,-4.41Z" style="fill:#14b8a6;fill-rule:nonzero;"/><path d="M254.091,405.373l5.676,-0l1.747,-8.21l11.441,-3.231l-2.445,11.441l10.218,-0l-2.009,8.995l-10.131,0l-4.279,19.738c-0.349,1.572 -0.524,2.853 -0.524,3.843c-0,1.281 0.291,2.154 0.873,2.62c0.582,0.466 1.456,0.699 2.62,0.699c1.107,-0 2.111,-0.117 3.013,-0.349c0.903,-0.233 1.849,-0.612 2.839,-1.136l-0,8.035c-0.641,0.349 -1.412,0.684 -2.315,1.004c-0.902,0.321 -1.877,0.583 -2.925,0.787c-1.048,0.203 -2.126,0.363 -3.232,0.48c-1.106,0.116 -2.125,0.175 -3.057,0.175c-2.969,-0 -5.254,-0.685 -6.855,-2.053c-1.602,-1.368 -2.402,-3.45 -2.402,-6.244c-0,-0.583 0.043,-1.194 0.131,-1.834c0.087,-0.641 0.189,-1.311 0.305,-2.009l5.066,-23.756l-5.852,0l2.097,-8.995Z" style="fill:#14b8a6;fill-rule:nonzero;"/><path d="M298.545,429.914l0.087,6.812l0.524,0l2.358,-6.899l11.878,-24.454l11.441,-0l-20.961,39.214c-1.747,3.26 -3.391,6.259 -4.934,8.995c-1.543,2.737 -3.101,5.095 -4.673,7.075c-1.572,1.979 -3.202,3.522 -4.891,4.628c-1.688,1.107 -3.493,1.66 -5.414,1.66c-2.562,-0 -4.484,-0.437 -5.765,-1.31l2.882,-8.559c0.35,0.174 0.714,0.291 1.092,0.349c0.379,0.058 0.742,0.087 1.092,0.087c1.397,0 2.824,-0.669 4.279,-2.008c1.456,-1.339 2.912,-3.494 4.367,-6.463l-8.209,-43.668l12.314,-0l2.533,24.541Z" style="fill:#14b8a6;fill-rule:nonzero;"/><path d="M369.898,387.905l10.655,0l-8.297,39.476c-0.873,4.193 -2.008,7.73 -3.406,10.612c-1.397,2.882 -3.086,5.225 -5.065,7.03c-1.98,1.805 -4.309,3.101 -6.987,3.887c-2.678,0.786 -5.764,1.179 -9.258,1.179c-3.377,-0 -6.23,-0.393 -8.559,-1.179c-2.329,-0.786 -4.235,-1.907 -5.72,-3.363c-1.485,-1.455 -2.562,-3.173 -3.232,-5.152c-0.669,-1.98 -1.004,-4.163 -1.004,-6.551c0,-1.164 0.073,-2.358 0.218,-3.58c0.146,-1.223 0.364,-2.504 0.655,-3.843l8.21,-38.516l11.266,0l-8.035,38.428c-0.465,2.213 -0.698,4.018 -0.698,5.415c-0,2.795 0.728,4.775 2.183,5.939c1.456,1.165 3.581,1.747 6.376,1.747c3.493,-0 6.201,-1.019 8.122,-3.057c1.921,-2.038 3.377,-5.327 4.367,-9.869l8.209,-38.603Z" style="fill:#14b8a6;fill-rule:nonzero;"/><path d="M389.811,388.517c2.795,-0.524 5.619,-0.903 8.472,-1.136c2.853,-0.232 5.415,-0.349 7.685,-0.349c2.679,0 5.211,0.32 7.599,0.961c2.387,0.64 4.454,1.616 6.2,2.926c1.747,1.31 3.13,2.998 4.149,5.065c1.019,2.067 1.528,4.498 1.528,7.293c0,3.202 -0.48,5.982 -1.441,8.34c-0.961,2.358 -2.227,4.338 -3.799,5.939c-1.572,1.601 -3.362,2.853 -5.371,3.756c-2.009,0.902 -4.061,1.499 -6.157,1.79l3.406,2.707l8.471,23.232l-12.576,-0l-8.384,-23.93l-6.026,-1.136l-5.241,25.066l-11.353,-0l12.838,-60.524Zm5.502,27.336l4.629,0c1.689,0 3.348,-0.16 4.978,-0.48c1.63,-0.321 3.072,-0.903 4.323,-1.747c1.252,-0.844 2.271,-1.965 3.057,-3.362c0.786,-1.398 1.179,-3.174 1.179,-5.328c0,-1.98 -0.669,-3.683 -2.009,-5.109c-1.339,-1.427 -3.493,-2.14 -6.462,-2.14c-1.165,0 -2.257,0.044 -3.276,0.131c-1.018,0.087 -1.877,0.189 -2.576,0.306l-3.843,17.729Z" style="fill:#14b8a6;fill-rule:nonzero;"/><path d="M463.872,449.041l-36.768,-0l12.925,-61.136l11.354,0l-10.742,50.481l25.415,-0l-2.184,10.655Z" style="fill:#14b8a6;fill-rule:nonzero;"/><path d="M471.034,438.822c1.164,0.641 2.664,1.209 4.498,1.704c1.834,0.494 3.77,0.742 5.807,0.742c2.038,-0 3.596,-0.393 4.673,-1.179c1.077,-0.786 1.645,-1.994 1.703,-3.625c-0,-1.164 -0.349,-2.168 -1.048,-3.013c-0.699,-0.844 -1.587,-1.645 -2.664,-2.401c-1.077,-0.757 -2.227,-1.529 -3.45,-2.315c-1.222,-0.786 -2.372,-1.688 -3.449,-2.707c-1.078,-1.019 -1.965,-2.227 -2.664,-3.625c-0.699,-1.397 -1.048,-3.086 -1.048,-5.065c-0,-1.922 0.378,-3.697 1.135,-5.328c0.757,-1.63 1.82,-3.027 3.188,-4.192c1.368,-1.164 3.028,-2.067 4.978,-2.707c1.951,-0.641 4.149,-0.961 6.594,-0.961c3.377,0 6.172,0.247 8.384,0.742c2.213,0.495 3.96,1.121 5.24,1.878l-2.969,8.21c-1.164,-0.524 -2.576,-0.961 -4.236,-1.31c-1.659,-0.35 -3.391,-0.524 -5.196,-0.524c-1.863,-0 -3.334,0.32 -4.411,0.96c-1.077,0.641 -1.615,1.66 -1.615,3.057c-0,0.932 0.349,1.761 1.048,2.489c0.698,0.728 1.586,1.47 2.663,2.227c1.077,0.757 2.227,1.529 3.45,2.315c1.223,0.786 2.373,1.732 3.45,2.838c1.077,1.106 1.965,2.373 2.664,3.799c0.698,1.427 1.048,3.13 1.048,5.109c-0,4.833 -1.572,8.428 -4.716,10.786c-3.145,2.359 -7.337,3.538 -12.577,3.538c-2.969,-0 -5.691,-0.277 -8.166,-0.83c-2.474,-0.553 -4.381,-1.237 -5.72,-2.053l3.406,-8.559Z" style="fill:#14b8a6;fill-rule:nonzero;"/><path d="M505.182,443.277c0,-2.038 0.641,-3.654 1.922,-4.848c1.281,-1.193 2.969,-1.79 5.065,-1.79c2.154,0 3.872,0.597 5.153,1.79c1.281,1.194 1.921,2.81 1.921,4.848c0,2.037 -0.64,3.668 -1.921,4.89c-1.281,1.223 -2.999,1.835 -5.153,1.835c-2.096,-0 -3.784,-0.612 -5.065,-1.835c-1.281,-1.222 -1.922,-2.853 -1.922,-4.89Z" style="fill:#fff;fill-rule:nonzero;"/><path d="M538.894,436.115c-0.349,1.689 -0.335,2.94 0.044,3.756c0.378,0.815 1.004,1.222 1.877,1.222c1.631,0 3.174,-0.32 4.629,-0.96l-0.262,7.772c-1.048,0.641 -2.562,1.165 -4.541,1.573c-1.98,0.407 -3.93,0.611 -5.852,0.611c-2.503,-0 -4.41,-0.48 -5.72,-1.441c-1.31,-0.961 -1.965,-2.751 -1.965,-5.371c-0,-1.34 0.174,-2.882 0.524,-4.629l10.742,-50.743l10.742,0l-10.218,48.21Z" style="fill:#14b8a6;fill-rule:nonzero;"/><path d="M559.593,405.373l10.742,-0l-9.258,43.668l-10.742,-0l9.258,-43.668Zm1.746,-12.402c0,-1.921 0.626,-3.406 1.878,-4.454c1.252,-1.048 2.839,-1.572 4.76,-1.572c1.863,-0 3.45,0.524 4.76,1.572c1.31,1.048 1.965,2.533 1.965,4.454c-0,1.863 -0.655,3.333 -1.965,4.41c-1.31,1.078 -2.897,1.616 -4.76,1.616c-1.921,0 -3.508,-0.538 -4.76,-1.616c-1.252,-1.077 -1.878,-2.547 -1.878,-4.41Z" style="fill:#14b8a6;fill-rule:nonzero;"/><path d="M596.449,449.041l5.764,-27.074c0.349,-1.631 0.524,-3.057 0.524,-4.28c-0,-1.281 -0.262,-2.285 -0.786,-3.013c-0.524,-0.728 -1.485,-1.092 -2.882,-1.092c-1.048,0 -2.096,0.262 -3.144,0.786c-1.048,0.524 -2.038,1.223 -2.97,2.096c-0.931,0.874 -1.805,1.849 -2.62,2.926c-0.815,1.077 -1.514,2.169 -2.096,3.275l-5.59,26.376l-10.742,-0l9.258,-43.668l8.122,-0l-0.437,7.685l0.35,0c0.757,-0.931 1.645,-1.921 2.663,-2.969c1.019,-1.048 2.198,-2.009 3.538,-2.882c1.339,-0.874 2.838,-1.601 4.497,-2.184c1.66,-0.582 3.537,-0.873 5.634,-0.873c2.62,0 4.716,0.713 6.288,2.14c1.572,1.426 2.358,3.799 2.358,7.118c-0,0.873 -0.044,1.805 -0.131,2.794c-0.087,0.99 -0.277,2.067 -0.568,3.232l-6.288,29.607l-10.742,-0Z" style="fill:#14b8a6;fill-rule:nonzero;"/><path d="M635.401,430.962l-3.494,0l-3.755,18.079l-10.743,-0l12.926,-61.136l10.742,0l-7.685,36.07l3.231,-1.135l12.315,-17.467l11.965,-0l-13.013,17.554l-5.241,3.319l3.931,3.319l6.637,19.476l-11.528,-0l-6.288,-18.079Z" style="fill:#14b8a6;fill-rule:nonzero;"/></g></g></g></svg>