<?xml version="1.0" encoding="UTF-8" standalone="no"?><!DOCTYPE svg PUBLIC "-//W3C//DTD SVG 1.1//EN" "http://www.w3.org/Graphics/SVG/1.1/DTD/svg11.dtd"><svg width="100%" height="100%" viewBox="0 0 11921 2334" version="1.1" xmlns="http://www.w3.org/2000/svg" xmlns:xlink="http://www.w3.org/1999/xlink" xml:space="preserve" xmlns:serif="http://www.serif.com/" style="fill-rule:evenodd;clip-rule:evenodd;stroke-linejoin:round;stroke-miterlimit:2;"><rect id="vanityURLs-link-logo" x="3.299" y="0" width="11916.7" height="2333.33" style="fill:none;"/><g><path d="M2064.14,1209.93c-15.227,1.658 -30.531,2.381 -45.822,2.224l-95.318,183.867c-44.666,86.18 -151.109,119.938 -237.282,75.27c-86.182,-44.672 -119.945,-151.106 -75.27,-237.282l133.494,-257.547l40.095,-77.34c0.692,-1.336 1.417,-2.661 2.15,-3.982c0.639,-1.17 1.262,-2.299 1.91,-3.465c0.494,-0.796 0.956,-1.604 1.45,-2.401c0.644,-1.086 1.298,-2.119 1.958,-3.153c0.822,-1.356 1.691,-2.72 2.612,-4.029c0.459,-0.729 0.984,-1.429 1.463,-2.115c0.001,-0.021 0.014,-0.025 0.012,-0.032c0.709,-1.014 1.41,-2.033 2.136,-3.017c0.72,-1.004 1.422,-1.973 2.165,-2.927l0.018,-0.034c0.094,-0.108 0.14,-0.209 0.24,-0.319c0.703,-0.969 1.428,-1.889 2.179,-2.796c0.525,-0.7 1.066,-1.348 1.618,-2.028c0.623,-0.816 1.264,-1.575 1.931,-2.32c0.018,-0.034 0.018,-0.034 0.063,-0.048c0.149,-0.204 0.347,-0.43 0.528,-0.623c0.864,-1.042 1.749,-2.041 2.66,-3.027c0.048,-0.093 0.149,-0.203 0.263,-0.268l0.018,-0.034c0.341,-0.428 0.715,-0.839 1.077,-1.224c0.312,-0.362 0.604,-0.696 0.958,-0.994c-0.015,-0.045 0.017,-0.034 0.017,-0.034c0.28,-0.33 0.599,-0.645 0.904,-0.962c0.318,-0.343 0.64,-0.672 0.965,-1.017c0.34,-0.364 0.68,-0.749 1.051,-1.08c0.329,-0.354 0.673,-0.726 1.021,-1.085c0.201,-0.199 0.411,-0.387 0.609,-0.592c0.007,-0.002 0.011,-0.011 0.024,-0.015l0.005,-0.008c0.911,-0.915 1.844,-1.808 2.779,-2.695c0.613,-0.6 1.242,-1.198 1.861,-1.778c1.315,-1.214 2.638,-2.402 3.982,-3.568c1.54,-1.335 3.116,-2.667 4.704,-3.939c0.599,-0.531 1.251,-1.008 1.872,-1.497c0.206,-0.2 0.447,-0.383 0.696,-0.541c0.078,-0.067 0.165,-0.13 0.251,-0.193c1.566,-1.229 3.138,-2.418 4.733,-3.557c0.739,-0.54 1.494,-1.05 2.246,-1.573c0.843,-0.594 1.683,-1.195 2.536,-1.779c1.847,-1.24 3.713,-2.444 5.604,-3.612c0.439,-0.296 0.911,-0.581 1.383,-0.866c1.198,-0.75 2.411,-1.455 3.631,-2.162c3.691,-2.131 7.48,-4.129 11.315,-5.986c1.276,-0.597 2.509,-1.172 3.769,-1.729c2.554,-1.187 5.158,-2.304 7.793,-3.325c2.618,-1.073 5.267,-2.048 7.915,-2.938c1.323,-0.448 2.648,-0.89 4.005,-1.32c1.357,-0.431 2.695,-0.833 4.034,-1.23c1.371,-0.385 2.711,-0.782 4.064,-1.133c1.055,-0.306 2.114,-0.556 3.166,-0.783c0.336,-0.107 0.613,-0.174 0.932,-0.246c5.368,-1.305 10.803,-2.332 16.273,-3.136c1.451,-0.225 2.886,-0.41 4.335,-0.55c2.893,-0.363 5.774,-0.608 8.669,-0.808c1.38,-0.089 2.766,-0.181 4.185,-0.261c0.079,0.004 0.124,-0.011 0.158,0.007c1.361,-0.062 2.761,-0.108 4.144,-0.12c1.193,-0.03 2.361,-0.023 3.534,-0.025c7.428,-0.038 14.905,0.442 22.333,1.414c1.134,0.145 2.277,0.295 3.432,0.483c4.471,0.666 8.94,1.481 13.376,2.528c1.199,0.26 2.393,0.549 3.607,0.854c0.397,0.088 0.835,0.191 1.247,0.323c1.222,0.309 2.418,0.648 3.62,0.985c1.409,0.407 2.818,0.813 4.201,1.249c2.282,0.692 4.548,1.467 6.8,2.267c1.229,0.443 2.496,0.894 3.743,1.373c0.994,0.353 1.962,0.736 2.92,1.158c0.574,0.216 1.186,0.441 1.744,0.698c0.888,0.38 1.803,0.73 2.714,1.159c1.164,0.484 2.344,1.02 3.494,1.53l0.19,0.104c2.44,1.146 4.874,2.316 7.293,3.575c2.426,1.258 4.78,2.559 7.126,3.899l0.193,0.095c1.08,0.646 2.198,1.301 3.258,1.975c0.883,0.495 1.696,1.041 2.525,1.546c0.518,0.312 1.068,0.678 1.569,1.024c0.897,0.541 1.777,1.115 2.63,1.719c1.11,0.743 2.207,1.512 3.279,2.267c1.959,1.377 3.894,2.791 5.772,4.25c1.16,0.877 2.3,1.803 3.442,2.713c0.975,0.786 1.935,1.57 2.892,2.39c0.346,0.26 0.68,0.552 0.983,0.833c0.948,0.816 1.871,1.619 2.775,2.449c3.408,3.029 6.661,6.201 9.778,9.479c0.817,0.829 1.592,1.679 2.366,2.528c5.081,5.501 9.792,11.339 14.034,17.426c0.681,0.957 1.355,1.917 2.016,2.902c0.788,1.137 1.557,2.308 2.293,3.462c0.034,0.017 0.049,0.063 0.099,0.132c0.757,1.196 1.473,2.378 2.191,3.565c1.511,2.479 2.972,4.975 4.315,7.528c8.303,-7.904 15.29,-17.154 20.609,-27.426l56.444,-108.891c-1.23,-1.366 -2.504,-2.669 -3.814,-3.953c-1.302,-1.323 -2.631,-2.665 -3.941,-3.949c-1.412,-1.423 -2.873,-2.823 -4.347,-4.197c-1.028,-0.975 -2.076,-1.923 -3.123,-2.871c-0.524,-0.552 -1.104,-1.058 -1.699,-1.566c-1.265,-1.142 -2.505,-2.271 -3.788,-3.379c-1.478,-1.295 -2.947,-2.586 -4.415,-3.827c-2.217,-1.878 -4.461,-3.727 -6.709,-5.546c-1.094,-0.848 -2.179,-1.734 -3.293,-2.554c-1.265,-0.985 -2.51,-1.949 -3.791,-2.894c-1.56,-1.219 -3.154,-2.364 -4.741,-3.51c-0.254,-0.218 -0.558,-0.414 -0.827,-0.591c-1.67,-1.227 -3.359,-2.427 -5.053,-3.596c-1.959,-1.378 -3.963,-2.74 -6.002,-4.035c-0.441,-0.315 -0.889,-0.628 -1.355,-0.907c-2.015,-1.331 -4.022,-2.615 -6.075,-3.884c-0.166,-0.075 -0.31,-0.193 -0.466,-0.279c-2.178,-1.329 -4.392,-2.682 -6.642,-3.967c-2.036,-1.217 -4.144,-2.391 -6.283,-3.575c-2.654,-1.506 -5.356,-2.938 -8.097,-4.359c-2.743,-1.427 -5.474,-2.794 -8.229,-4.104c-2.201,-1.065 -4.373,-2.104 -6.544,-3.073c-2.344,-1.091 -4.72,-2.123 -7.07,-3.141c-0.177,-0.044 -0.332,-0.129 -0.494,-0.213c-2.22,-0.946 -4.426,-1.846 -6.677,-2.733c-0.495,-0.213 -1.002,-0.4 -1.523,-0.583c-2.231,-0.914 -4.502,-1.773 -6.755,-2.573c-1.936,-0.723 -3.881,-1.407 -5.853,-2.062c-0.3,-0.118 -0.635,-0.254 -0.953,-0.338c-1.858,-0.634 -3.71,-1.27 -5.599,-1.844c-1.408,-0.492 -2.815,-0.892 -4.241,-1.35c-1.743,-0.542 -3.471,-1.033 -5.232,-1.541c-2.492,-0.724 -5.003,-1.421 -7.532,-2.084c-1.737,-0.409 -3.482,-0.866 -5.258,-1.262c-0.189,-0.104 -0.38,-0.122 -0.604,-0.157c-1.538,-0.387 -3.124,-0.766 -4.693,-1.093c-0.749,-0.189 -1.523,-0.342 -2.259,-0.486c-1.378,-0.309 -2.756,-0.619 -4.146,-0.896c-1.973,-0.413 -3.932,-0.78 -5.901,-1.115c-1.845,-0.347 -3.65,-0.678 -5.526,-0.964c-1.812,-0.329 -3.602,-0.615 -5.436,-0.836c-0.06,-0.031 -0.177,-0.044 -0.257,-0.047c-3.829,-0.57 -7.636,-1.048 -11.47,-1.454c-1.871,-0.203 -3.796,-0.396 -5.693,-0.569c-1.929,-0.185 -3.797,-0.311 -5.712,-0.45l-0.032,-0.011c-4.015,-0.305 -8.032,-0.525 -12.037,-0.662c-1.721,-0.045 -3.413,-0.063 -5.127,-0.109c-1.884,-0.043 -3.807,-0.073 -5.72,-0.049l-0.565,-0.013c-3.566,0.014 -7.083,0.092 -10.67,0.22c-0.165,-0.005 -0.322,-0.005 -0.48,-0.012c-1.498,0.077 -3.03,0.136 -4.521,0.211l-1.21,0.064c-5.527,0.288 -11.033,0.755 -16.52,1.35c-0.045,0.014 -0.079,-0.003 -0.131,0.013c-2.91,0.312 -5.857,0.685 -8.804,1.057c-2.911,0.398 -5.809,0.833 -8.725,1.303c-2.915,0.477 -5.815,0.998 -8.682,1.531c-2.918,0.556 -5.769,1.14 -8.652,1.784c-2.869,0.619 -5.741,1.317 -8.614,2.015c-0.467,0.119 -0.932,0.245 -1.399,0.365c-1.16,0.29 -2.339,0.607 -3.499,0.897c-0.747,0.18 -1.459,0.377 -2.163,0.579c-1.18,0.318 -2.357,0.641 -3.514,1.008c-0.28,0.061 -0.519,0.136 -0.816,0.231c-1.638,0.441 -3.268,0.93 -4.916,1.452c-0.473,0.122 -0.906,0.26 -1.339,0.397c-1.68,0.511 -3.373,1.048 -5.04,1.599c-1.357,0.43 -2.68,0.878 -3.969,1.344c-1.569,0.526 -3.099,1.061 -4.653,1.632c-0.787,0.278 -1.599,0.586 -2.386,0.864c-2.541,0.913 -5.079,1.903 -7.615,2.899c-0.407,0.151 -0.824,0.34 -1.223,0.495c-2.523,1.035 -5.045,2.077 -7.552,3.164c-2.186,0.935 -4.384,1.895 -6.533,2.925c-1.292,0.545 -2.542,1.155 -3.786,1.763c-2.252,1.063 -4.499,2.117 -6.748,3.257c-2.158,1.112 -4.309,2.221 -6.444,3.382c-0.194,0.061 -0.374,0.168 -0.551,0.281c-2.394,1.265 -4.729,2.56 -7.079,3.896c-0.211,0.095 -0.402,0.234 -0.633,0.357c-2.523,1.441 -5.019,2.901 -7.5,4.406c-2.533,1.522 -5.043,3.093 -7.511,4.73c-2.304,1.478 -4.571,2.965 -6.832,4.514c-0.63,0.435 -1.31,0.892 -1.962,1.369c-1.59,1.109 -3.182,2.233 -4.743,3.368c-0.762,0.534 -1.525,1.067 -2.271,1.652c-2.017,1.465 -4.012,2.98 -5.981,4.508c-2.355,1.814 -4.677,3.639 -6.999,5.556c-2.313,1.879 -4.586,3.773 -6.87,5.742c-2.199,1.9 -4.378,3.843 -6.529,5.805c-0.029,0.066 -0.092,0.115 -0.164,0.159c-4.295,3.923 -8.501,7.974 -12.582,12.17c-0.273,0.307 -0.556,0.603 -0.873,0.924c-0.509,0.503 -0.965,0.996 -1.44,1.517c-1.451,1.477 -2.854,3.018 -4.249,4.519c-2.052,2.252 -4.059,4.489 -6.052,6.771c-2.017,2.318 -3.942,4.636 -5.884,6.987c-3.894,4.699 -7.635,9.563 -11.222,14.534c-1.742,2.423 -3.445,4.855 -5.166,7.322c-0.149,0.203 -0.281,0.459 -0.475,0.677c-1.613,2.403 -3.238,4.839 -4.802,7.305c-1.295,2.039 -2.614,4.115 -3.894,6.2c-2.438,3.995 -4.826,8.059 -7.105,12.218c-1.326,2.39 -2.611,4.796 -3.88,7.254l-173.591,334.881c-81.116,156.51 -19.779,349.87 136.721,430.997c156.531,81.138 349.864,19.781 430.991,-136.718l152.314,-293.844c-7.851,4.063 -15.923,7.854 -24.124,11.415c-36.479,15.804 -75.048,25.962 -114.633,30.205Z" style="fill:#14b8a6;fill-rule:nonzero;"/><path d="M2498.15,380.213c-0.4,-1.26 -0.817,-2.486 -1.286,-3.696c-0.569,-1.547 -1.14,-3.101 -1.746,-4.673c-0.353,-1.026 -0.763,-2.048 -1.158,-3.068c-0.778,-1.937 -1.563,-3.921 -2.41,-5.893c-0.192,-0.472 -0.397,-0.94 -0.585,-1.443c-1.118,-2.604 -2.236,-5.208 -3.437,-7.807c-1.25,-2.754 -2.52,-5.523 -3.838,-8.22c-1.26,-2.559 -2.56,-5.134 -3.872,-7.676c-1.387,-2.625 -2.779,-5.242 -4.204,-7.806c-2.628,-4.764 -5.388,-9.428 -8.296,-14.046c-3.579,-5.742 -7.334,-11.372 -11.287,-16.86c-1.025,-1.46 -2.096,-2.906 -3.185,-4.324c-3.059,-4.172 -6.246,-8.253 -9.547,-12.27c-1.119,-1.352 -2.235,-2.697 -3.412,-4.031c-3.705,-4.393 -7.545,-8.694 -11.534,-12.863c-1.305,-1.4 -2.648,-2.787 -4.009,-4.14c-1.293,-1.318 -2.622,-2.661 -3.941,-3.949c-1.41,-1.416 -2.871,-2.816 -4.345,-4.191c-1.028,-0.975 -2.075,-1.923 -3.123,-2.871c-0.523,-0.552 -1.104,-1.058 -1.699,-1.566c-1.265,-1.142 -2.505,-2.271 -3.784,-3.387c-1.482,-1.287 -2.951,-2.577 -4.419,-3.819c-2.217,-1.878 -4.461,-3.727 -6.709,-5.546c-1.096,-0.854 -2.172,-1.736 -3.292,-2.554c-1.266,-0.985 -2.504,-1.951 -3.794,-2.9c-1.558,-1.213 -3.151,-2.358 -4.738,-3.504c-0.255,-0.218 -0.558,-0.413 -0.822,-0.593c-1.675,-1.225 -3.365,-2.425 -5.059,-3.594c-1.958,-1.377 -3.969,-2.738 -5.997,-4.043c-0.446,-0.307 -0.894,-0.62 -1.36,-0.899c-2.015,-1.331 -4.022,-2.615 -6.075,-3.884c-0.159,-0.077 -0.31,-0.193 -0.465,-0.279c-2.179,-1.329 -4.393,-2.682 -6.643,-3.967c-2.036,-1.217 -4.143,-2.391 -6.283,-3.575c-2.654,-1.505 -5.356,-2.938 -8.09,-4.361c-2.749,-1.425 -5.467,-2.796 -8.235,-4.102c-2.202,-1.065 -4.369,-2.113 -6.544,-3.073c-2.345,-1.091 -4.721,-2.123 -7.071,-3.141c-0.177,-0.043 -0.332,-0.129 -0.494,-0.213c-2.22,-0.946 -4.426,-1.846 -6.677,-2.732c-0.495,-0.213 -1.002,-0.401 -1.523,-0.584c-2.233,-0.921 -4.502,-1.773 -6.754,-2.573c-1.937,-0.723 -3.882,-1.407 -5.853,-2.062c-0.301,-0.118 -0.636,-0.254 -0.954,-0.338c-1.858,-0.633 -3.712,-1.276 -5.601,-1.85c-1.406,-0.486 -2.813,-0.886 -4.232,-1.346c-1.75,-0.54 -3.478,-1.031 -5.232,-1.541c-2.505,-0.72 -5.01,-1.419 -7.538,-2.082c-1.731,-0.411 -3.476,-0.868 -5.258,-1.262c-0.19,-0.104 -0.38,-0.122 -0.605,-0.157c-1.54,-0.393 -3.125,-0.772 -4.694,-1.1c-0.748,-0.182 -1.522,-0.335 -2.257,-0.479c-1.379,-0.309 -2.757,-0.619 -4.147,-0.896c-1.973,-0.413 -3.931,-0.78 -5.901,-1.115c-1.839,-0.349 -3.65,-0.677 -5.526,-0.964c-1.891,-0.332 -3.799,-0.63 -5.693,-0.883c-3.829,-0.57 -7.63,-1.05 -11.464,-1.455c-1.879,-0.208 -3.802,-0.395 -5.699,-0.568c-1.929,-0.185 -3.831,-0.328 -5.745,-0.468c-4.014,-0.298 -8.024,-0.52 -12.036,-0.655c-1.721,-0.045 -3.414,-0.069 -5.127,-0.109c-1.884,-0.043 -3.807,-0.073 -5.719,-0.049c-3.917,-0.017 -7.808,0.072 -11.716,0.196c-1.785,0.089 -3.572,0.173 -5.357,0.262c-5.693,0.284 -11.349,0.748 -17.018,1.373c-2.91,0.312 -5.857,0.685 -8.804,1.058c-2.917,0.399 -5.809,0.833 -8.726,1.302c-2.92,0.479 -5.816,0.992 -8.682,1.531c-2.917,0.556 -5.769,1.14 -8.658,1.787c-2.869,0.618 -5.735,1.314 -8.607,2.012c-2.372,0.595 -4.711,1.202 -7.068,1.844c-1.18,0.317 -2.351,0.638 -3.514,1.007c-2.35,0.639 -4.738,1.34 -7.071,2.08c-1.675,0.503 -3.368,1.04 -5.034,1.597c-1.357,0.43 -2.68,0.878 -3.969,1.344c-2.357,0.798 -4.704,1.649 -7.045,2.498c-2.535,0.911 -5.072,1.901 -7.608,2.897c-0.408,0.151 -0.824,0.34 -1.225,0.488c-2.528,1.044 -5.043,2.084 -7.557,3.173c-2.179,0.933 -4.384,1.896 -6.526,2.923c-1.299,0.548 -2.549,1.158 -3.795,1.759c-2.245,1.061 -4.49,2.122 -6.739,3.261c-2.158,1.112 -4.316,2.223 -6.445,3.382c-0.194,0.062 -0.38,0.17 -0.553,0.275c-2.392,1.271 -4.732,2.568 -7.082,3.904c-0.206,0.093 -0.403,0.234 -0.627,0.355c-2.53,1.443 -5.025,2.903 -7.507,4.408c-2.526,1.52 -5.042,3.094 -7.504,4.728c-2.305,1.478 -4.578,2.967 -6.841,4.51c-0.621,0.439 -1.308,0.898 -1.956,1.367c-1.594,1.117 -3.18,2.239 -4.74,3.374c-0.762,0.534 -1.531,1.069 -2.277,1.654c-2.011,1.463 -4.006,2.978 -5.975,4.506c-2.355,1.814 -4.684,3.641 -7.008,5.551c-2.311,1.886 -4.586,3.774 -6.861,5.747c-2.2,1.9 -4.379,3.843 -6.53,5.805c-0.035,0.068 -0.093,0.108 -0.163,0.159c-4.296,3.923 -8.501,7.974 -12.583,12.17c-0.272,0.307 -0.555,0.603 -0.881,0.92c-1.925,2.004 -3.813,4.012 -5.68,6.041c-2.059,2.253 -4.06,4.488 -6.052,6.77c-2.017,2.318 -3.942,4.636 -5.893,6.983c-3.892,4.705 -7.627,9.567 -11.22,14.54c-1.735,2.421 -3.445,4.855 -5.16,7.32c-0.155,0.205 -0.287,0.461 -0.481,0.679c-1.613,2.403 -3.237,4.839 -4.802,7.305c-1.295,2.04 -2.616,4.109 -3.896,6.193c-2.436,4.002 -4.826,8.06 -7.103,12.225c-1.319,2.388 -2.604,4.794 -3.879,7.254l-152.334,293.871c0.959,-0.518 1.913,-1.033 2.886,-1.506l0.448,-0.248c2.743,-1.375 5.424,-2.653 8.157,-3.947c1.732,-0.841 3.401,-1.633 5.129,-2.395c2.572,-1.221 5.194,-2.372 7.78,-3.456c2.879,-1.262 5.756,-2.438 8.599,-3.631l0.927,-0.373c0.548,-0.202 1.061,-0.422 1.532,-0.62c3.154,-1.243 6.317,-2.438 9.453,-3.561c2.438,-0.88 5.035,-1.839 7.656,-2.749c1.775,-0.613 3.6,-1.249 5.442,-1.833c2.002,-0.663 4.037,-1.309 6.049,-1.918c2.696,-0.827 5.469,-1.657 8.214,-2.421c1.585,-0.475 3.196,-0.936 4.824,-1.339c2.745,-0.764 5.567,-1.531 8.433,-2.227l0.422,-0.105c3.385,-0.832 6.79,-1.621 10.171,-2.373c3.569,-0.791 7.098,-1.505 10.738,-2.204c3.541,-0.675 7.025,-1.304 10.504,-1.839c3.572,-0.578 7.083,-1.102 10.608,-1.58l0.579,-0.105c3.539,-0.433 6.877,-0.852 10.223,-1.223c6.904,-0.747 14.05,-1.335 21.029,-1.686l6.752,-0.306c4.565,-0.14 9.116,-0.253 13.676,-0.228c1.46,-0.015 2.922,-0.024 4.354,0.027l95.323,-183.896c0.693,-1.337 1.417,-2.662 2.148,-3.989c0.641,-1.164 1.271,-2.295 1.912,-3.458c0.494,-0.797 0.954,-1.612 1.45,-2.402c0.644,-1.086 1.298,-2.119 1.958,-3.153c1.952,-3.151 4.051,-6.242 6.221,-9.2c0.729,-0.999 1.431,-1.968 2.161,-2.918l0.018,-0.034c0.104,-0.119 0.153,-0.212 0.247,-0.32c0.708,-0.972 1.434,-1.892 2.178,-2.797c0.531,-0.702 1.066,-1.348 1.623,-2.036c0.618,-0.808 1.266,-1.569 1.925,-2.318c12.383,-14.66 26.881,-26.934 42.811,-36.603c1.205,-0.752 2.418,-1.457 3.631,-2.161c3.697,-2.133 7.487,-4.132 11.322,-5.989c1.276,-0.596 2.502,-1.17 3.767,-1.735c2.555,-1.181 5.159,-2.298 7.794,-3.319c2.619,-1.073 5.261,-2.046 7.909,-2.936c1.33,-0.45 2.653,-0.898 4.003,-1.326c1.357,-0.431 2.697,-0.827 4.043,-1.226c1.364,-0.383 2.71,-0.781 4.064,-1.133c1.373,-0.378 2.761,-0.712 4.097,-1.029c5.368,-1.305 10.801,-2.338 16.274,-3.135c4.331,-0.628 8.643,-1.071 12.997,-1.357c1.387,-0.091 2.773,-0.182 4.185,-0.26c0.079,0.003 0.131,-0.014 0.157,-0c1.368,-0.058 2.769,-0.104 4.152,-0.116c1.186,-0.027 2.359,-0.03 3.534,-0.025c7.427,-0.038 14.905,0.442 22.326,1.416c1.141,0.144 2.284,0.293 3.432,0.483c4.478,0.664 8.947,1.479 13.383,2.526c1.199,0.26 2.385,0.545 3.6,0.857c0.404,0.085 0.835,0.19 1.254,0.32c1.215,0.311 2.411,0.651 3.613,0.988c1.409,0.406 2.818,0.812 4.208,1.246c2.275,0.694 4.541,1.469 6.793,2.269c1.229,0.443 2.502,0.892 3.743,1.373c0.994,0.354 1.962,0.736 2.918,1.151c0.583,0.221 1.188,0.449 1.744,0.699c0.897,0.384 1.805,0.736 2.717,1.165c1.163,0.485 2.343,1.021 3.494,1.53l0.195,0.102c2.445,1.138 4.868,2.318 7.294,3.575c2.417,1.253 4.773,2.561 7.125,3.899l0.187,0.097c1.08,0.646 2.198,1.301 3.265,1.973c0.876,0.497 1.689,1.043 2.518,1.548c0.519,0.312 1.067,0.672 1.57,1.024c0.894,0.534 1.776,1.115 2.629,1.72c1.11,0.743 2.214,1.509 3.279,2.266c1.959,1.378 3.9,2.789 5.77,4.244c1.162,0.883 2.3,1.802 3.445,2.719c0.972,0.78 1.934,1.57 2.889,2.384c0.348,0.266 0.683,0.559 0.985,0.84c0.949,0.815 1.872,1.618 2.775,2.448c3.408,3.03 6.661,6.201 9.778,9.479c0.824,0.827 1.599,1.677 2.373,2.526c5.074,5.503 9.785,11.341 14.027,17.428c0.681,0.957 1.355,1.917 2.018,2.909c0.786,1.13 1.556,2.301 2.291,3.455c0.032,0.011 0.049,0.063 0.097,0.126c0.759,1.203 1.481,2.382 2.193,3.571c2.285,3.728 4.412,7.498 6.397,11.399c2.498,4.94 4.79,9.966 6.812,15.107c0.519,1.279 1.04,2.608 1.514,3.944c0.502,1.313 0.95,2.636 1.432,3.976c0.442,1.325 0.89,2.648 1.318,3.999c0.431,1.357 0.827,2.696 1.23,4.034c0.793,2.678 1.523,5.405 2.156,8.163c0.684,2.742 1.272,5.514 1.774,8.285c0.274,1.357 0.512,2.689 0.766,4.074c0.696,4.21 1.247,8.459 1.627,12.705c0.123,1.398 0.249,2.802 0.327,4.214c1.289,18.595 -0.384,37.51 -5.241,56.077c-0.215,0.979 -0.472,1.942 -0.775,2.914c-0.592,2.079 -1.209,4.195 -1.88,6.271l-0.011,0.032c-0.36,1.153 -0.741,2.284 -1.144,3.457c-1.163,3.484 -2.484,6.968 -3.931,10.386c-0.46,1.128 -0.932,2.266 -1.448,3.418c-0.36,0.861 -0.76,1.706 -1.127,2.569c-0.581,1.195 -1.149,2.363 -1.724,3.556c-0.665,1.356 -1.323,2.71 -2.016,4.046l-133.483,257.515l-40.112,77.374c-15.094,29.119 -37.232,52.243 -63.27,68.362c-22.05,13.737 -46.937,22.407 -72.66,25.417c-33.754,3.994 -68.989,-1.728 -101.359,-18.507c-32.368,-16.772 -57.354,-42.266 -73.547,-72.15c-2.689,2.532 -5.22,5.226 -7.626,8.066l-5.248,6.707c-1.017,1.411 -2.036,2.908 -2.993,4.442l-1.972,3.179c-0.084,0.161 -0.168,0.323 -0.297,0.499l-1.224,2.195c-0.359,0.704 -0.808,1.487 -1.236,2.313l-56.457,108.916c23.796,25.04 52.095,46.631 84.474,63.414c32.368,16.773 66.326,27.458 100.512,32.474c26.769,3.919 53.693,4.361 80.13,1.515c32.352,-3.456 64.002,-11.818 93.756,-24.72c38.593,-16.695 74.053,-41.001 103.827,-72.138c20.561,-21.479 38.418,-46.169 52.766,-73.849l173.595,-334.889c1.271,-2.452 2.494,-4.895 3.692,-7.352c2.084,-4.26 4.023,-8.552 5.888,-12.849c0.957,-2.252 1.895,-4.52 2.807,-6.758l0.055,-0.095c1.07,-2.68 2.132,-5.364 3.155,-8.035c0.064,-0.291 0.205,-0.542 0.286,-0.781c1.021,-2.834 2.02,-5.626 2.998,-8.44c1.999,-5.805 3.819,-11.659 5.414,-17.549c0.795,-2.941 1.578,-5.856 2.311,-8.834c0.717,-2.944 1.394,-5.876 2.042,-8.855c0.584,-2.689 1.14,-5.397 1.662,-8.123c0.071,-0.449 0.156,-0.853 0.243,-1.251c1.077,-5.754 1.969,-11.527 2.692,-17.297c0.004,-0.079 0.007,-0.159 0.036,-0.225c0.364,-2.889 0.695,-5.789 0.975,-8.673c0.306,-3.006 0.544,-5.955 0.746,-8.928c0.215,-2.998 0.38,-5.952 0.496,-8.926c0.122,-2.486 0.202,-4.993 0.236,-7.486c0.05,-0.94 0.044,-1.878 0.047,-2.81c0.028,-1.929 0.025,-3.87 0.021,-5.81c0.014,-0.808 -0.011,-1.626 -0.015,-2.4c-0.041,-2.732 -0.128,-5.449 -0.256,-8.183c-0.083,-2.953 -0.248,-5.917 -0.462,-8.857c-0.2,-2.895 -0.446,-5.776 -0.725,-8.674c-0.031,-0.254 -0.023,-0.498 -0.073,-0.724c-0.261,-2.684 -0.542,-5.34 -0.895,-8.023c-0.012,-0.217 -0.022,-0.427 -0.081,-0.615c-0.291,-2.418 -0.625,-4.816 -0.952,-7.215c-0.371,-2.493 -0.801,-4.945 -1.228,-7.391c-0.229,-1.372 -0.449,-2.738 -0.748,-4.108c-0.399,-2.356 -0.882,-4.707 -1.375,-7.025c-0.557,-2.675 -1.16,-5.336 -1.768,-7.995c-0.086,-0.449 -0.191,-0.871 -0.297,-1.293c-0.66,-2.642 -1.308,-5.289 -2.025,-7.885c-0.637,-2.436 -1.304,-4.807 -2.019,-7.197c-0.363,-1.322 -0.759,-2.661 -1.19,-4.018c-0.459,-1.696 -1.014,-3.355 -1.596,-5.034c-0.719,-2.354 -1.542,-4.681 -2.371,-6.979Z" style="fill:#2dd4bf;fill-rule:nonzero;"/></g><g><path d="M3966.57,1184.67l2.4,92.4l3.6,-0l36,-94.8l164.4,-312l166.8,-0l-367.2,606l-91.2,-0l-117.6,-606l163.2,-0l39.6,314.4Z" style="fill:#0f766e;fill-rule:nonzero;"/><path d="M4740.57,1230.27c-6.4,30.4 -11,61.2 -13.8,92.4c-2.8,31.2 -4.2,60.8 -4.2,88.8c0,11.2 0.2,21.8 0.6,31.8c0.4,10 1,19.4 1.8,28.2l-109.2,-0l-16.8,-103.2l-4.8,-0c-8.8,14.4 -20.2,28.6 -34.2,42.6c-14,14 -29.4,26.8 -46.2,38.4c-16.8,11.6 -34.6,20.8 -53.4,27.6c-18.8,6.8 -38.2,10.2 -58.2,10.2c-52.8,-0 -91.8,-17.2 -117,-51.6c-25.2,-34.4 -37.8,-80.4 -37.8,-138c0,-58.4 7.4,-114.4 22.2,-168c14.8,-53.6 37.8,-100.8 69,-141.6c31.2,-40.8 70.6,-73.4 118.2,-97.8c47.6,-24.4 104.2,-36.6 169.8,-36.6c28,-0 58.6,2.6 91.8,7.8c33.2,5.2 65.4,12.2 96.6,21l-74.4,348Zm-282,133.2c14.4,-0 28,-3 40.8,-9c12.8,-6 24.6,-13.8 35.4,-23.4c10.8,-9.6 20.4,-20 28.8,-31.2c8.4,-11.2 15.8,-21.6 22.2,-31.2l60,-279.6c-8.8,-4 -19,-7 -30.6,-9c-11.6,-2 -23,-3 -34.2,-3c-28.8,-0 -54.4,8.6 -76.8,25.8c-22.4,17.2 -41.4,39.6 -57,67.2c-15.6,27.6 -27.4,58.8 -35.4,93.6c-8,34.8 -12,69.8 -12,105c0,25.6 4.2,47.8 12.6,66.6c8.4,18.8 23.8,28.2 46.2,28.2Z" style="fill:#0f766e;fill-rule:nonzero;"/><path d="M5134.16,1470.27l79.2,-372c4.8,-22.4 7.2,-42 7.2,-58.8c0,-17.6 -3.6,-31.4 -10.8,-41.4c-7.2,-10 -20.4,-15 -39.6,-15c-14.4,-0 -28.8,3.6 -43.2,10.8c-14.4,7.2 -28,16.8 -40.8,28.8c-12.8,12 -24.8,25.4 -36,40.2c-11.2,14.8 -20.8,29.8 -28.8,45l-76.8,362.4l-147.6,-0l127.2,-600l111.6,-0l-6,105.6l4.8,-0c10.4,-12.8 22.6,-26.4 36.6,-40.8c14,-14.4 30.2,-27.6 48.6,-39.6c18.4,-12 39,-22 61.8,-30c22.8,-8 48.6,-12 77.4,-12c36,-0 64.8,9.8 86.4,29.4c21.6,19.6 32.4,52.2 32.4,97.8c0,12 -0.6,24.8 -1.8,38.4c-1.2,13.6 -3.8,28.4 -7.8,44.4l-86.4,406.8l-147.6,-0Z" style="fill:#0f766e;fill-rule:nonzero;"/><path d="M5524.16,870.267l147.6,-0l-127.2,600l-147.6,-0l127.2,-600Zm24,-170.4c0,-26.4 8.6,-46.8 25.8,-61.2c17.2,-14.4 39,-21.6 65.4,-21.6c25.6,-0 47.4,7.2 65.4,21.6c18,14.4 27,34.8 27,61.2c0,25.6 -9,45.8 -27,60.6c-18,14.8 -39.8,22.2 -65.4,22.2c-26.4,-0 -48.2,-7.4 -65.4,-22.2c-17.2,-14.8 -25.8,-35 -25.8,-60.6Z" style="fill:#0f766e;fill-rule:nonzero;"/><path d="M5736.57,870.267l78,-0l24,-112.8l157.2,-44.4l-33.6,157.2l140.4,-0l-27.6,123.6l-139.2,-0l-58.8,271.2c-4.8,21.6 -7.2,39.2 -7.2,52.8c0,17.6 4,29.6 12,36c8,6.4 20,9.6 36,9.6c15.2,-0 29,-1.6 41.4,-4.8c12.4,-3.2 25.4,-8.4 39,-15.6l0,110.4c-8.8,4.8 -19.4,9.4 -31.8,13.8c-12.4,4.4 -25.8,8 -40.2,10.8c-14.4,2.8 -29.2,5 -44.4,6.6c-15.2,1.6 -29.2,2.4 -42,2.4c-40.8,-0 -72.2,-9.4 -94.2,-28.2c-22,-18.8 -33,-47.4 -33,-85.8c0,-8 0.6,-16.4 1.8,-25.2c1.2,-8.8 2.6,-18 4.2,-27.6l69.6,-326.4l-80.4,-0l28.8,-123.6Z" style="fill:#0f766e;fill-rule:nonzero;"/><path d="M6347.36,1207.47l1.2,93.6l7.2,-0l32.4,-94.8l163.2,-336l157.2,-0l-288,538.8c-24,44.8 -46.6,86 -67.8,123.6c-21.2,37.6 -42.6,70 -64.2,97.2c-21.6,27.2 -44,48.4 -67.2,63.6c-23.2,15.2 -48,22.8 -74.4,22.8c-35.2,-0 -61.6,-6 -79.2,-18l39.6,-117.6c4.8,2.4 9.8,4 15,4.8c5.2,0.8 10.2,1.2 15,1.2c19.2,-0 38.8,-9.2 58.8,-27.6c20,-18.4 40,-48 60,-88.8l-112.8,-600l169.2,-0l34.8,337.2Z" style="fill:#0f766e;fill-rule:nonzero;"/><path d="M7327.77,630.267l146.4,-0l-114,542.4c-12,57.6 -27.6,106.2 -46.8,145.8c-19.2,39.6 -42.4,71.8 -69.6,96.6c-27.2,24.8 -59.2,42.6 -96,53.4c-36.8,10.8 -79.2,16.2 -127.2,16.2c-46.4,-0 -85.6,-5.4 -117.6,-16.2c-32,-10.8 -58.2,-26.2 -78.6,-46.2c-20.4,-20 -35.2,-43.6 -44.4,-70.8c-9.2,-27.2 -13.8,-57.2 -13.8,-90c0,-16 1,-32.4 3,-49.2c2,-16.8 5,-34.4 9,-52.8l112.8,-529.2l154.8,-0l-110.4,528c-6.4,30.4 -9.6,55.2 -9.6,74.4c0,38.4 10,65.6 30,81.6c20,16 49.2,24 87.6,24c48,-0 85.2,-14 111.6,-42c26.4,-28 46.4,-73.2 60,-135.6l112.8,-530.4Z" style="fill:#0f766e;fill-rule:nonzero;"/><path d="M7601.36,638.667c38.4,-7.2 77.2,-12.4 116.4,-15.6c39.2,-3.2 74.4,-4.8 105.6,-4.8c36.8,-0 71.6,4.4 104.4,13.2c32.8,8.8 61.2,22.2 85.2,40.2c24,18 43,41.2 57,69.6c14,28.4 21,61.8 21,100.2c0,44 -6.6,82.2 -19.8,114.6c-13.2,32.4 -30.6,59.6 -52.2,81.6c-21.6,22 -46.2,39.2 -73.8,51.6c-27.6,12.4 -55.8,20.6 -84.6,24.6l46.8,37.2l116.4,319.2l-172.8,-0l-115.2,-328.8l-82.8,-15.6l-72,344.4l-156,-0l176.4,-831.6Zm75.6,375.6l63.6,-0c23.2,-0 46,-2.2 68.4,-6.6c22.4,-4.4 42.2,-12.4 59.4,-24c17.2,-11.6 31.2,-27 42,-46.2c10.8,-19.2 16.2,-43.6 16.2,-73.2c0,-27.2 -9.2,-50.6 -27.6,-70.2c-18.4,-19.6 -48,-29.4 -88.8,-29.4c-16,-0 -31,0.6 -45,1.8c-14,1.2 -25.8,2.6 -35.4,4.2l-52.8,243.6Z" style="fill:#0f766e;fill-rule:nonzero;"/><path d="M8618.97,1470.27l-505.2,-0l177.6,-840l156,-0l-147.6,693.6l349.2,-0l-30,146.4Z" style="fill:#0f766e;fill-rule:nonzero;"/><path d="M8717.36,1329.87c16,8.8 36.6,16.6 61.8,23.4c25.2,6.8 51.8,10.2 79.8,10.2c28,-0 49.4,-5.4 64.2,-16.2c14.8,-10.8 22.6,-27.4 23.4,-49.8c0,-16 -4.8,-29.8 -14.4,-41.4c-9.6,-11.6 -21.8,-22.6 -36.6,-33c-14.8,-10.4 -30.6,-21 -47.4,-31.8c-16.8,-10.8 -32.6,-23.2 -47.4,-37.2c-14.8,-14 -27,-30.6 -36.6,-49.8c-9.6,-19.2 -14.4,-42.4 -14.4,-69.6c0,-26.4 5.2,-50.8 15.6,-73.2c10.4,-22.4 25,-41.6 43.8,-57.6c18.8,-16 41.6,-28.4 68.4,-37.2c26.8,-8.8 57,-13.2 90.6,-13.2c46.4,-0 84.8,3.4 115.2,10.2c30.4,6.8 54.4,15.4 72,25.8l-40.8,112.8c-16,-7.2 -35.4,-13.2 -58.2,-18c-22.8,-4.8 -46.6,-7.2 -71.4,-7.2c-25.6,-0 -45.8,4.4 -60.6,13.2c-14.8,8.8 -22.2,22.8 -22.2,42c0,12.8 4.8,24.2 14.4,34.2c9.6,10 21.8,20.2 36.6,30.6c14.8,10.4 30.6,21 47.4,31.8c16.8,10.8 32.6,23.8 47.4,39c14.8,15.2 27,32.6 36.6,52.2c9.6,19.6 14.4,43 14.4,70.2c0,66.4 -21.6,115.8 -64.8,148.2c-43.2,32.4 -100.8,48.6 -172.8,48.6c-40.8,-0 -78.2,-3.8 -112.2,-11.4c-34,-7.6 -60.2,-17 -78.6,-28.2l46.8,-117.6Z" style="fill:#0f766e;fill-rule:nonzero;"/><path d="M9186.57,1391.07c0,-28 8.8,-50.2 26.4,-66.6c17.6,-16.4 40.8,-24.6 69.6,-24.6c29.6,-0 53.2,8.2 70.8,24.6c17.6,16.4 26.4,38.6 26.4,66.6c0,28 -8.8,50.4 -26.4,67.2c-17.6,16.8 -41.2,25.2 -70.8,25.2c-28.8,-0 -52,-8.4 -69.6,-25.2c-17.6,-16.8 -26.4,-39.2 -26.4,-67.2Z" style="fill:#2dd4bf;fill-rule:nonzero;"/><path d="M9649.76,1292.67c-4.8,23.2 -4.6,40.4 0.6,51.6c5.2,11.2 13.8,16.8 25.8,16.8c22.4,-0 43.6,-4.4 63.6,-13.2l-3.6,106.8c-14.4,8.8 -35.2,16 -62.4,21.6c-27.2,5.6 -54,8.4 -80.4,8.4c-34.4,-0 -60.6,-6.6 -78.6,-19.8c-18,-13.2 -27,-37.8 -27,-73.8c0,-18.4 2.4,-39.6 7.2,-63.6l147.6,-697.2l147.6,-0l-140.4,662.4Z" style="fill:#0f766e;fill-rule:nonzero;"/><path d="M9934.17,870.267l147.6,-0l-127.2,600l-147.6,-0l127.2,-600Zm24,-170.4c0,-26.4 8.6,-46.8 25.8,-61.2c17.2,-14.4 39,-21.6 65.4,-21.6c25.6,-0 47.4,7.2 65.4,21.6c18,14.4 27,34.8 27,61.2c0,25.6 -9,45.8 -27,60.6c-18,14.8 -39.8,22.2 -65.4,22.2c-26.4,-0 -48.2,-7.4 -65.4,-22.2c-17.2,-14.8 -25.8,-35 -25.8,-60.6Z" style="fill:#0f766e;fill-rule:nonzero;"/><path d="M10440.6,1470.27l79.2,-372c4.8,-22.4 7.2,-42 7.2,-58.8c0,-17.6 -3.6,-31.4 -10.8,-41.4c-7.2,-10 -20.4,-15 -39.6,-15c-14.4,-0 -28.8,3.6 -43.2,10.8c-14.4,7.2 -28,16.8 -40.8,28.8c-12.8,12 -24.8,25.4 -36,40.2c-11.2,14.8 -20.8,29.8 -28.8,45l-76.8,362.4l-147.6,-0l127.2,-600l111.6,-0l-6,105.6l4.8,-0c10.4,-12.8 22.6,-26.4 36.6,-40.8c14,-14.4 30.2,-27.6 48.6,-39.6c18.4,-12 39,-22 61.8,-30c22.8,-8 48.6,-12 77.4,-12c36,-0 64.8,9.8 86.4,29.4c21.6,19.6 32.4,52.2 32.4,97.8c0,12 -0.6,24.8 -1.8,38.4c-1.2,13.6 -3.8,28.4 -7.8,44.4l-86.4,406.8l-147.6,-0Z" style="fill:#0f766e;fill-rule:nonzero;"/><path d="M10975.8,1221.87l-48,-0l-51.6,248.4l-147.6,-0l177.6,-840l147.6,-0l-105.6,495.6l44.4,-15.6l169.2,-240l164.4,-0l-178.8,241.2l-72,45.6l54,45.6l91.2,267.6l-158.4,-0l-86.4,-248.4Z" style="fill:#0f766e;fill-rule:nonzero;"/></g><path d="M902.315,1131.26l3.933,151.425c0,0 5.518,0.915 5.9,0c10.816,-25.893 58.997,-155.358 58.997,-155.358l269.42,-511.308l273.353,-0l-601.77,993.117l-149.459,-0l-192.724,-993.117l267.454,-0l64.896,515.241Z" style="fill:#0f766e;fill-rule:nonzero;"/><path d="M2518.84,1369.21c26.22,14.422 59.98,27.205 101.278,38.349c41.298,11.143 84.89,16.715 130.777,16.715c45.886,0 80.957,-8.849 105.211,-26.548c24.254,-17.699 37.037,-44.904 38.348,-81.613c0,-26.221 -7.866,-48.836 -23.599,-67.846c-15.732,-19.011 -35.726,-37.038 -59.98,-54.081c-24.254,-17.044 -50.148,-34.415 -77.68,-52.114c-27.532,-17.699 -53.425,-38.021 -77.679,-60.964c-24.254,-22.943 -44.248,-50.147 -59.98,-81.612c-15.733,-31.465 -23.599,-69.486 -23.599,-114.061c-0,-43.265 8.522,-83.252 25.565,-119.961c17.044,-36.709 40.97,-68.174 71.78,-94.395c30.81,-26.221 68.174,-46.542 112.094,-60.964c43.92,-14.421 93.412,-21.632 148.476,-21.632c76.041,-0 138.971,5.572 188.791,16.716c49.82,11.144 89.151,25.237 117.994,42.281l-66.863,184.857c-26.221,-11.799 -58.014,-21.632 -95.379,-29.498c-37.365,-7.866 -76.368,-11.8 -117.011,-11.8c-41.953,0 -75.057,7.211 -99.311,21.633c-24.255,14.421 -36.382,37.364 -36.382,68.83c0,20.976 7.866,39.659 23.599,56.047c15.732,16.388 35.726,33.104 59.98,50.147c24.255,17.044 50.148,34.415 77.68,52.114c27.532,17.699 53.425,39.004 77.679,63.914c24.254,24.91 44.248,53.425 59.98,85.545c15.733,32.121 23.599,70.469 23.599,115.045c0,108.816 -35.398,189.774 -106.194,242.871c-70.797,53.097 -165.192,79.646 -283.186,79.646c-66.864,-0 -128.155,-6.228 -183.874,-18.682c-55.72,-12.455 -98.657,-27.86 -128.811,-46.215l76.697,-192.724Z" style="fill:#0f766e;fill-rule:nonzero;"/></svg>