<?xml version="1.0" encoding="UTF-8" standalone="no"?><!DOCTYPE svg PUBLIC "-//W3C//DTD SVG 1.1//EN" "http://www.w3.org/Graphics/SVG/1.1/DTD/svg11.dtd"><svg width="100%" height="100%" viewBox="0 0 7588 1105" version="1.1" xmlns="http://www.w3.org/2000/svg" xmlns:xlink="http://www.w3.org/1999/xlink" xml:space="preserve" xmlns:serif="http://www.serif.com/" style="fill-rule:evenodd;clip-rule:evenodd;stroke-linejoin:round;stroke-miterlimit:2;"><path id="vanityURLs-link-slim" d="M7584.93,1.421l-19.183,1099l-7562.5,-0l19.183,-1099l7562.5,0Z" style="fill:none;"/><clipPath id="_clip1"><path d="M7584.93,1.421l-19.183,1099l-7562.5,-0l19.183,-1099l7562.5,0Z"/></clipPath><g clip-path="url(#_clip1)"><g><path d="M215.643,568.921l2.4,92.4l3.601,0l36,-94.8l164.402,-312l166.802,0l-367.204,606l-91.202,0l-117.601,-606l163.202,0l39.6,314.4Z" style="fill:#0f766e;fill-rule:nonzero;"/><path d="M989.654,614.521c-6.4,30.4 -11,61.2 -13.801,92.4c-2.8,31.2 -4.2,60.8 -4.2,88.8c0,11.2 0.2,21.8 0.6,31.8c0.4,10 1,19.4 1.8,28.2l-109.201,0l-16.8,-103.2l-4.8,0c-8.8,14.4 -20.201,28.6 -34.201,42.6c-14,14 -29.4,26.8 -46.2,38.4c-16.801,11.6 -34.601,20.8 -53.401,27.6c-18.8,6.8 -38.201,10.2 -58.201,10.2c-52.801,0 -91.801,-17.2 -117.001,-51.6c-25.201,-34.4 -37.801,-80.4 -37.801,-138c0,-58.4 7.4,-114.4 22.2,-168c14.801,-53.6 37.801,-100.8 69.001,-141.6c31.201,-40.8 70.601,-73.4 118.202,-97.8c47.601,-24.4 104.201,-36.6 169.802,-36.6c28.001,0 58.601,2.6 91.801,7.8c33.201,5.2 65.401,12.2 96.602,21l-74.401,348Zm-282.004,133.2c14.4,0 28,-3 40.8,-9c12.801,-6 24.601,-13.8 35.401,-23.4c10.8,-9.6 20.4,-20 28.8,-31.2c8.4,-11.2 15.801,-21.6 22.201,-31.2l60,-279.6c-8.8,-4 -19,-7 -30.6,-9c-11.6,-2 -23,-3 -34.2,-3c-28.801,0 -54.401,8.6 -76.801,25.8c-22.401,17.2 -41.401,39.6 -57.001,67.2c-15.6,27.6 -27.401,58.8 -35.401,93.6c-8,34.8 -12,69.8 -12,105c0,25.6 4.2,47.8 12.6,66.6c8.4,18.8 23.801,28.2 46.201,28.2Z" style="fill:#0f766e;fill-rule:nonzero;"/><path d="M1383.26,854.521l79.201,-372c4.8,-22.4 7.2,-42 7.2,-58.8c0,-17.6 -3.6,-31.4 -10.8,-41.4c-7.2,-10 -20.4,-15 -39.601,-15c-14.4,0 -28.8,3.6 -43.2,10.8c-14.4,7.2 -28.001,16.8 -40.801,28.8c-12.8,12 -24.8,25.4 -36,40.2c-11.2,14.8 -20.801,29.8 -28.801,45l-76.801,362.4l-147.602,0l127.202,-600l111.602,0l-6.001,105.6l4.801,0c10.4,-12.8 22.6,-26.4 36.6,-40.8c14,-14.4 30.2,-27.6 48.601,-39.6c18.4,-12 39,-22 61.8,-30c22.801,-8 48.601,-12 77.402,-12c36,0 64.8,9.8 86.401,29.4c21.6,19.6 32.4,52.2 32.4,97.8c0,12 -0.6,24.8 -1.8,38.4c-1.2,13.6 -3.8,28.4 -7.8,44.4l-86.401,406.8l-147.602,0Z" style="fill:#0f766e;fill-rule:nonzero;"/><path d="M1773.26,254.521l147.602,0l-127.202,600l-147.602,0l127.202,-600Zm24,-170.4c0,-26.4 8.6,-46.8 25.801,-61.2c17.2,-14.4 39,-21.6 65.401,-21.6c25.6,0 47.4,7.2 65.4,21.6c18.001,14.4 27.001,34.8 27.001,61.2c-0,25.6 -9,45.8 -27.001,60.6c-18,14.8 -39.8,22.2 -65.4,22.2c-26.401,0 -48.201,-7.4 -65.401,-22.2c-17.201,-14.8 -25.801,-35 -25.801,-60.6Z" style="fill:#0f766e;fill-rule:nonzero;"/><path d="M1985.67,254.521l78.001,0l24,-112.8l157.202,-44.4l-33.6,157.2l140.402,0l-27.601,123.6l-139.202,0l-58.8,271.2c-4.8,21.6 -7.2,39.2 -7.2,52.8c-0,17.6 4,29.6 12,36c8,6.4 20,9.6 36,9.6c15.2,0 29.001,-1.6 41.401,-4.8c12.4,-3.2 25.4,-8.4 39,-15.6l0,110.4c-8.8,4.8 -19.4,9.4 -31.8,13.8c-12.4,4.4 -25.8,8 -40.201,10.8c-14.4,2.8 -29.2,5 -44.4,6.6c-15.2,1.6 -29.201,2.4 -42.001,2.4c-40.8,0 -72.201,-9.4 -94.201,-28.2c-22,-18.8 -33,-47.4 -33,-85.8c-0,-8 0.6,-16.4 1.8,-25.2c1.2,-8.8 2.6,-18 4.2,-27.6l69.601,-326.4l-80.402,0l28.801,-123.6Z" style="fill:#0f766e;fill-rule:nonzero;"/><path d="M2596.47,591.721l1.2,93.6l7.2,0l32.4,-94.8l163.203,-336l157.202,0l-288.004,538.8c-24,44.8 -46.601,86 -67.801,123.6c-21.2,37.6 -42.601,70 -64.201,97.2c-21.6,27.2 -44,48.4 -67.201,63.6c-23.2,15.2 -48,22.8 -74.401,22.8c-35.2,0 -61.601,-6 -79.201,-18l39.601,-117.6c4.8,2.4 9.8,4 15,4.8c5.2,0.8 10.2,1.2 15,1.2c19.2,0 38.801,-9.2 58.801,-27.6c20,-18.4 40,-48 60.001,-88.8l-112.802,-600l169.202,0l34.801,337.2Z" style="fill:#0f766e;fill-rule:nonzero;"/><path d="M3576.89,14.521l146.402,0l-114.002,542.4c-12,57.6 -27.6,106.2 -46.8,145.8c-19.201,39.6 -42.401,71.8 -69.601,96.6c-27.201,24.8 -59.201,42.6 -96.002,53.4c-36.8,10.8 -79.201,16.2 -127.201,16.2c-46.401,0 -85.601,-5.4 -117.602,-16.2c-32,-10.8 -58.201,-26.2 -78.601,-46.2c-20.4,-20 -35.2,-43.6 -44.4,-70.8c-9.2,-27.2 -13.801,-57.2 -13.801,-90c0,-16 1,-32.4 3,-49.2c2.001,-16.8 5.001,-34.4 9.001,-52.8l112.801,-529.2l154.802,0l-110.401,528c-6.4,30.4 -9.6,55.2 -9.6,74.4c-0,38.4 10,65.6 30,81.6c20,16 49.201,24 87.601,24c48.001,0 85.201,-14 111.602,-42c26.4,-28 46.4,-73.2 60,-135.6l112.802,-530.4Z" style="fill:#0f766e;fill-rule:nonzero;"/><path d="M3850.49,22.921c38.401,-7.2 77.202,-12.4 116.402,-15.6c39.201,-3.2 74.401,-4.8 105.601,-4.8c36.801,0 71.601,4.4 104.402,13.2c32.8,8.8 61.201,22.2 85.201,40.2c24,18 43,41.2 57.001,69.6c14,28.4 21,61.8 21,100.2c-0,44 -6.6,82.2 -19.8,114.6c-13.2,32.4 -30.601,59.6 -52.201,81.6c-21.6,22 -46.201,39.2 -73.801,51.6c-27.6,12.4 -55.801,20.6 -84.601,24.6l46.801,37.2l116.401,319.2l-172.802,0l-115.202,-328.8l-82.801,-15.6l-72.001,344.4l-156.002,0l176.402,-831.6Zm75.601,375.6l63.601,0c23.201,0 46.001,-2.2 68.401,-6.6c22.401,-4.4 42.201,-12.4 59.401,-24c17.2,-11.6 31.2,-27 42.001,-46.2c10.8,-19.2 16.2,-43.6 16.2,-73.2c-0,-27.2 -9.2,-50.6 -27.601,-70.2c-18.4,-19.6 -48,-29.4 -88.801,-29.4c-16,0 -31,0.6 -45,1.8c-14.001,1.2 -25.801,2.6 -35.401,4.2l-52.801,243.6Z" style="fill:#0f766e;fill-rule:nonzero;"/><path d="M4868.11,854.521l-505.207,0l177.603,-840l156.002,0l-147.602,693.6l349.204,0l-30,146.4Z" style="fill:#0f766e;fill-rule:nonzero;"/><path d="M4966.51,714.121c16,8.8 36.601,16.6 61.801,23.4c25.2,6.8 51.801,10.2 79.801,10.2c28,0 49.401,-5.4 64.201,-16.2c14.8,-10.8 22.6,-27.4 23.4,-49.8c0,-16 -4.8,-29.8 -14.4,-41.4c-9.6,-11.6 -21.8,-22.6 -36.6,-33c-14.801,-10.4 -30.601,-21 -47.401,-31.8c-16.8,-10.8 -32.6,-23.2 -47.401,-37.2c-14.8,-14 -27,-30.6 -36.6,-49.8c-9.6,-19.2 -14.4,-42.4 -14.4,-69.6c-0,-26.4 5.2,-50.8 15.6,-73.2c10.4,-22.4 25,-41.6 43.8,-57.6c18.801,-16 41.601,-28.4 68.401,-37.2c26.801,-8.8 57.001,-13.2 90.602,-13.2c46.4,0 84.801,3.4 115.201,10.2c30.4,6.8 54.401,15.4 72.001,25.8l-40.801,112.8c-16,-7.2 -35.4,-13.2 -58.2,-18c-22.801,-4.8 -46.601,-7.2 -71.401,-7.2c-25.601,0 -45.801,4.4 -60.601,13.2c-14.8,8.8 -22.2,22.8 -22.2,42c-0,12.8 4.8,24.2 14.4,34.2c9.6,10 21.8,20.2 36.6,30.6c14.801,10.4 30.601,21 47.401,31.8c16.8,10.8 32.6,23.8 47.401,39c14.8,15.2 27,32.6 36.6,52.2c9.6,19.6 14.4,43 14.4,70.2c0,66.4 -21.6,115.8 -64.801,148.2c-43.2,32.4 -100.801,48.6 -172.802,48.6c-40.8,0 -78.201,-3.8 -112.201,-11.4c-34.001,-7.6 -60.201,-17 -78.601,-28.2l46.8,-117.6Z" style="fill:#0f766e;fill-rule:nonzero;"/><path d="M5435.71,775.321c0,-28 8.801,-50.2 26.401,-66.6c17.6,-16.4 40.8,-24.6 69.601,-24.6c29.6,0 53.2,8.2 70.801,24.6c17.6,16.4 26.4,38.6 26.4,66.6c0,28 -8.8,50.4 -26.4,67.2c-17.601,16.8 -41.201,25.2 -70.801,25.2c-28.801,0 -52.001,-8.4 -69.601,-25.2c-17.6,-16.8 -26.401,-39.2 -26.401,-67.2Z" style="fill:#2dd4bf;fill-rule:nonzero;"/><path d="M5898.92,676.921c-4.8,23.2 -4.6,40.4 0.6,51.6c5.2,11.2 13.8,16.8 25.8,16.8c22.4,0 43.601,-4.4 63.601,-13.2l-3.6,106.8c-14.4,8.8 -35.201,16 -62.401,21.6c-27.2,5.6 -54.001,8.4 -80.401,8.4c-34.401,0 -60.601,-6.6 -78.601,-19.8c-18,-13.2 -27.001,-37.8 -27.001,-73.8c0,-18.4 2.4,-39.6 7.201,-63.6l147.601,-697.2l147.602,0l-140.401,662.4Z" style="fill:#0f766e;fill-rule:nonzero;"/><path d="M6183.32,254.521l147.602,0l-127.201,600l-147.602,0l127.201,-600Zm24.001,-170.4c-0,-26.4 8.6,-46.8 25.8,-61.2c17.2,-14.4 39.001,-21.6 65.401,-21.6c25.6,0 47.4,7.2 65.401,21.6c18,14.4 27,34.8 27,61.2c0,25.6 -9,45.8 -27,60.6c-18.001,14.8 -39.801,22.2 -65.401,22.2c-26.4,0 -48.201,-7.4 -65.401,-22.2c-17.2,-14.8 -25.8,-35 -25.8,-60.6Z" style="fill:#0f766e;fill-rule:nonzero;"/><path d="M6689.73,854.521l79.201,-372c4.8,-22.4 7.2,-42 7.2,-58.8c0,-17.6 -3.6,-31.4 -10.8,-41.4c-7.2,-10 -20.4,-15 -39.6,-15c-14.401,0 -28.801,3.6 -43.201,10.8c-14.4,7.2 -28,16.8 -40.801,28.8c-12.8,12 -24.8,25.4 -36,40.2c-11.2,14.8 -20.8,29.8 -28.8,45l-76.801,362.4l-147.602,0l127.201,-600l111.602,0l-6,105.6l4.8,0c10.4,-12.8 22.6,-26.4 36.6,-40.8c14,-14.4 30.201,-27.6 48.601,-39.6c18.4,-12 39,-22 61.801,-30c22.8,-8 48.6,-12 77.401,-12c36,0 64.801,9.8 86.401,29.4c21.6,19.6 32.4,52.2 32.4,97.8c0,12 -0.6,24.8 -1.8,38.4c-1.2,13.6 -3.8,28.4 -7.8,44.4l-86.401,406.8l-147.602,0Z" style="fill:#0f766e;fill-rule:nonzero;"/><path d="M7224.94,606.121l-48.001,0l-51.6,248.4l-147.602,0l177.602,-840l147.602,0l-105.601,495.6l44.4,-15.6l169.203,-240l164.402,0l-178.803,241.2l-72.001,45.6l54.001,45.6l91.201,267.6l-158.402,0l-86.401,-248.4Z" style="fill:#0f766e;fill-rule:nonzero;"/></g></g></svg>