<?xml version="1.0" encoding="UTF-8" standalone="no"?><!DOCTYPE svg PUBLIC "-//W3C//DTD SVG 1.1//EN" "http://www.w3.org/Graphics/SVG/1.1/DTD/svg11.dtd"><svg width="100%" height="100%" viewBox="0 0 5396 1105" version="1.1" xmlns="http://www.w3.org/2000/svg" xmlns:xlink="http://www.w3.org/1999/xlink" xml:space="preserve" xmlns:serif="http://www.serif.com/" style="fill-rule:evenodd;clip-rule:evenodd;stroke-linejoin:round;stroke-miterlimit:2;"><rect id="vanityURLs-dark-slim" x="3.985" y="1.989" width="5391.67" height="1099.17" style="fill:#0f766e;"/><clipPath id="_clip1"><rect x="3.985" y="1.989" width="5391.67" height="1099.17"/></clipPath><g clip-path="url(#_clip1)"><g><path d="M206.818,569.572l2.4,92.397l3.6,-0l36,-94.797l164.4,-311.991l166.8,0l-367.2,605.982l-91.2,-0l-117.6,-605.982l163.2,0l39.6,314.391Z" style="fill:#fff;fill-rule:nonzero;"/><path d="M980.818,615.17c-6.4,30.399 -11,61.198 -13.8,92.397c-2.8,31.199 -4.2,60.799 -4.2,88.798c0,11.199 0.2,21.799 0.6,31.799c0.4,9.999 1,19.399 1.8,28.199l-109.2,-0l-16.8,-103.197l-4.8,0c-8.8,14.4 -20.2,28.599 -34.2,42.599c-14,13.999 -29.4,26.799 -46.2,38.399c-16.8,11.599 -34.6,20.799 -53.4,27.599c-18.8,6.8 -38.2,10.199 -58.2,10.199c-52.8,0 -91.8,-17.199 -117,-51.598c-25.2,-34.399 -37.8,-80.398 -37.8,-137.996c0,-58.398 7.4,-114.396 22.2,-167.995c14.8,-53.598 37.8,-100.797 69,-141.595c31.2,-40.799 70.6,-73.398 118.2,-97.797c47.6,-24.4 104.2,-36.599 169.8,-36.599c28,-0 58.6,2.6 91.8,7.799c33.2,5.2 65.4,12.2 96.6,21l-74.4,347.989Zm-282,133.196c14.4,0 28,-3 40.8,-9c12.8,-5.999 24.6,-13.799 35.4,-23.399c10.8,-9.6 20.4,-19.999 28.8,-31.199c8.4,-11.2 15.8,-21.599 22.2,-31.199l60,-279.591c-8.8,-4 -19,-7 -30.6,-9c-11.6,-2 -23,-3 -34.2,-3c-28.8,-0 -54.4,8.6 -76.8,25.799c-22.4,17.2 -41.4,39.599 -57,67.198c-15.6,27.599 -27.4,58.798 -35.4,93.597c-8,34.799 -12,69.798 -12,104.997c0,25.599 4.2,47.799 12.6,66.598c8.4,18.799 23.8,28.199 46.2,28.199Z" style="fill:#fff;fill-rule:nonzero;"/><path d="M1374.42,855.163l79.2,-371.989c4.8,-22.399 7.2,-41.998 7.2,-58.798c0,-17.599 -3.6,-31.399 -10.8,-41.399c-7.2,-9.999 -20.4,-14.999 -39.6,-14.999c-14.4,-0 -28.8,3.6 -43.2,10.799c-14.4,7.2 -28,16.8 -40.8,28.8c-12.8,11.999 -24.8,25.399 -36,40.198c-11.2,14.8 -20.8,29.799 -28.8,44.999l-76.8,362.389l-147.6,-0l127.2,-599.982l111.6,0l-6,105.597l4.8,-0c10.4,-12.8 22.6,-26.399 36.6,-40.799c14,-14.399 30.2,-27.599 48.6,-39.599c18.4,-11.999 39,-21.999 61.8,-29.999c22.8,-7.999 48.6,-11.999 77.4,-11.999c36,-0 64.8,9.799 86.4,29.399c21.6,19.599 32.4,52.198 32.4,97.797c0,11.999 -0.6,24.799 -1.8,38.399c-1.2,13.599 -3.8,28.399 -7.8,44.398l-86.4,406.788l-147.6,-0Z" style="fill:#fff;fill-rule:nonzero;"/><path d="M1764.42,255.181l147.6,0l-127.2,599.982l-147.6,-0l127.2,-599.982Zm24,-170.395c0,-26.399 8.6,-46.798 25.8,-61.198c17.2,-14.399 39,-21.599 65.4,-21.599c25.6,-0 47.4,7.2 65.4,21.599c18,14.4 27,34.799 27,61.198c0,25.6 -9,45.799 -27,60.598c-18,14.8 -39.8,22.2 -65.4,22.2c-26.4,-0 -48.2,-7.4 -65.4,-22.2c-17.2,-14.799 -25.8,-34.998 -25.8,-60.598Z" style="fill:#fff;fill-rule:nonzero;"/><path d="M1976.82,255.181l78,0l24,-112.796l157.2,-44.399l-33.6,157.195l140.4,0l-27.6,123.596l-139.2,0l-58.8,271.192c-4.8,21.6 -7.2,39.199 -7.2,52.799c0,17.599 4,29.599 12,35.998c8,6.4 20,9.6 36,9.6c15.2,0 29,-1.6 41.4,-4.8c12.4,-3.2 25.4,-8.399 39,-15.599l0,110.396c-8.8,4.8 -19.4,9.4 -31.8,13.8c-12.4,4.4 -25.8,8 -40.2,10.8c-14.4,2.8 -29.2,5 -44.4,6.6c-15.2,1.599 -29.2,2.399 -42,2.399c-40.8,0 -72.2,-9.399 -94.2,-28.199c-22,-18.799 -33,-47.398 -33,-85.797c0,-8 0.6,-16.4 1.8,-25.199c1.2,-8.8 2.6,-18 4.2,-27.599l69.6,-326.391l-80.4,0l28.8,-123.596Z" style="fill:#fff;fill-rule:nonzero;"/><path d="M2587.62,592.371l1.2,93.597l7.2,0l32.4,-94.797l163.2,-335.99l157.2,0l-288,538.784c-24,44.798 -46.6,85.997 -67.8,123.596c-21.2,37.599 -42.6,69.998 -64.2,97.197c-21.6,27.199 -44,48.399 -67.2,63.598c-23.2,15.2 -48,22.8 -74.4,22.8c-35.2,-0 -61.6,-6 -79.2,-18l39.6,-117.596c4.8,2.4 9.8,3.999 15,4.799c5.2,0.8 10.2,1.2 15,1.2c19.2,0 38.8,-9.199 58.8,-27.599c20,-18.399 40,-47.998 60,-88.797l-112.8,-599.982l169.2,0l34.8,337.19Z" style="fill:#fff;fill-rule:nonzero;"/><path d="M3568.02,15.188l146.4,0l-114,542.384c-12,57.598 -27.6,106.197 -46.8,145.796c-19.2,39.598 -42.4,71.797 -69.6,96.597c-27.2,24.799 -59.2,42.598 -96,53.398c-36.8,10.8 -79.2,16.2 -127.2,16.2c-46.4,-0 -85.6,-5.4 -117.6,-16.2c-32,-10.8 -58.2,-26.199 -78.6,-46.199c-20.4,-19.999 -35.2,-43.598 -44.4,-70.797c-9.2,-27.2 -13.8,-57.199 -13.8,-89.998c0,-15.999 1,-32.399 3,-49.198c2,-16.8 5,-34.399 9,-52.799l112.8,-529.184l154.8,0l-110.4,527.984c-6.4,30.4 -9.6,55.199 -9.6,74.398c0,38.399 10,65.598 30,81.598c20,15.999 49.2,23.999 87.6,23.999c48,-0 85.2,-14 111.6,-41.999c26.4,-27.999 46.4,-73.198 60,-135.596l112.8,-530.384Z" style="fill:#fff;fill-rule:nonzero;"/><path d="M3841.62,23.588c38.4,-7.2 77.2,-12.399 116.4,-15.599c39.2,-3.2 74.4,-4.8 105.6,-4.8c36.8,-0 71.6,4.4 104.4,13.199c32.8,8.8 61.2,22.2 85.2,40.199c24,18 43,41.199 57,69.598c14,28.399 21,61.798 21,100.197c0,43.999 -6.6,82.198 -19.8,114.597c-13.2,32.399 -30.6,59.598 -52.2,81.597c-21.6,21.999 -46.2,39.199 -73.8,51.599c-27.6,12.399 -55.8,20.599 -84.6,24.599l46.8,37.199l116.4,319.19l-172.8,-0l-115.2,-328.79l-82.8,-15.6l-72,344.39l-156,-0l176.4,-831.575Zm75.6,375.589l63.6,-0c23.2,-0 46,-2.2 68.4,-6.6c22.4,-4.4 42.2,-12.4 59.4,-23.999c17.2,-11.6 31.2,-26.999 42,-46.199c10.8,-19.199 16.2,-43.599 16.2,-73.198c0,-27.199 -9.2,-50.598 -27.6,-70.198c-18.4,-19.599 -48,-29.399 -88.8,-29.399c-16,0 -31,0.6 -45,1.8c-14,1.2 -25.8,2.6 -35.4,4.2l-52.8,243.593Z" style="fill:#fff;fill-rule:nonzero;"/><path d="M4859.22,855.163l-505.2,-0l177.6,-839.975l156,0l-147.6,693.579l349.2,0l-30,146.396Z" style="fill:#fff;fill-rule:nonzero;"/><path d="M4957.62,714.767c16,8.8 36.6,16.6 61.8,23.4c25.2,6.799 51.8,10.199 79.8,10.199c28,0 49.4,-5.4 64.2,-16.199c14.8,-10.8 22.6,-27.399 23.4,-49.799c0,-15.999 -4.8,-29.799 -14.4,-41.399c-9.6,-11.599 -21.8,-22.599 -36.6,-32.999c-14.8,-10.399 -30.6,-20.999 -47.4,-31.799c-16.8,-10.799 -32.6,-23.199 -47.4,-37.198c-14.8,-14 -27,-30.6 -36.6,-49.799c-9.6,-19.199 -14.4,-42.399 -14.4,-69.598c0,-26.399 5.2,-50.798 15.6,-73.198c10.4,-22.399 25,-41.598 43.8,-57.598c18.8,-15.999 41.6,-28.399 68.4,-37.199c26.8,-8.799 57,-13.199 90.6,-13.199c46.4,-0 84.8,3.4 115.2,10.199c30.4,6.8 54.4,15.4 72,25.8l-40.8,112.796c-16,-7.2 -35.4,-13.199 -58.2,-17.999c-22.8,-4.8 -46.6,-7.2 -71.4,-7.2c-25.6,-0 -45.8,4.4 -60.6,13.2c-14.8,8.799 -22.2,22.799 -22.2,41.998c0,12.8 4.8,24.2 14.4,34.199c9.6,10 21.8,20.2 36.6,30.599c14.8,10.4 30.6,21 47.4,31.799c16.8,10.8 32.6,23.8 47.4,38.999c14.8,15.2 27,32.599 36.6,52.199c9.6,19.599 14.4,42.998 14.4,70.197c0,66.398 -21.6,115.797 -64.8,148.196c-43.2,32.399 -100.8,48.598 -172.8,48.598c-40.8,0 -78.2,-3.799 -112.2,-11.399c-34,-7.6 -60.2,-17 -78.6,-28.199l46.8,-117.597Z" style="fill:#fff;fill-rule:nonzero;"/></g></g></svg>