<?xml version="1.0" encoding="UTF-8" standalone="no"?><!DOCTYPE svg PUBLIC "-//W3C//DTD SVG 1.1//EN" "http://www.w3.org/Graphics/SVG/1.1/DTD/svg11.dtd"><svg width="100%" height="100%" viewBox="0 0 7588 1105" version="1.1" xmlns="http://www.w3.org/2000/svg" xmlns:xlink="http://www.w3.org/1999/xlink" xml:space="preserve" xmlns:serif="http://www.serif.com/" style="fill-rule:evenodd;clip-rule:evenodd;stroke-linejoin:round;stroke-miterlimit:2;"><path id="vanityURLs-link-dark-slim" d="M7584.07,2.398l-19.183,1099l-7562.5,-0l19.183,-1099l7562.5,-0Z" style="fill:#0f766e;"/><clipPath id="_clip1"><path d="M7584.07,2.398l-19.183,1099l-7562.5,-0l19.183,-1099l7562.5,-0Z"/></clipPath><g clip-path="url(#_clip1)"><g><path d="M214.785,569.897l2.4,92.4l3.6,0l36.001,-94.8l164.402,-312l166.802,0l-367.205,606l-91.201,0l-117.602,-606l163.203,0l39.6,314.4Z" style="fill:#fff;fill-rule:nonzero;"/><path d="M988.795,615.497c-6.4,30.4 -11,61.2 -13.8,92.4c-2.8,31.2 -4.2,60.8 -4.2,88.8c0,11.2 0.2,21.8 0.6,31.8c0.4,10 1,19.4 1.8,28.2l-109.201,0l-16.801,-103.2l-4.8,0c-8.8,14.4 -20.2,28.6 -34.2,42.6c-14,14 -29.4,26.8 -46.201,38.4c-16.8,11.6 -34.6,20.8 -53.4,27.6c-18.801,6.8 -38.201,10.2 -58.201,10.2c-52.801,0 -91.801,-17.2 -117.002,-51.6c-25.2,-34.4 -37.8,-80.4 -37.8,-138c-0,-58.4 7.4,-114.4 22.2,-168c14.8,-53.6 37.801,-100.8 69.001,-141.6c31.2,-40.8 70.601,-73.4 118.202,-97.8c47.6,-24.4 104.201,-36.6 169.802,-36.6c28,0 58.601,2.6 91.801,7.8c33.201,5.2 65.401,12.2 96.601,21l-74.401,348Zm-282.003,133.2c14.4,0 28,-3 40.8,-9c12.8,-6 24.601,-13.8 35.401,-23.4c10.8,-9.6 20.4,-20 28.8,-31.2c8.4,-11.2 15.8,-21.6 22.2,-31.2l60.001,-279.6c-8.8,-4 -19,-7 -30.6,-9c-11.6,-2 -23.001,-3 -34.201,-3c-28.8,0 -54.4,8.6 -76.801,25.8c-22.4,17.2 -41.4,39.6 -57.001,67.2c-15.6,27.6 -27.4,58.8 -35.4,93.6c-8,34.8 -12,69.8 -12,105c-0,25.6 4.2,47.8 12.6,66.6c8.4,18.8 23.8,28.2 46.201,28.2Z" style="fill:#fff;fill-rule:nonzero;"/><path d="M1382.4,855.497l79.201,-372c4.8,-22.4 7.2,-42 7.2,-58.8c-0,-17.6 -3.6,-31.4 -10.8,-41.4c-7.201,-10 -20.401,-15 -39.601,-15c-14.4,0 -28.8,3.6 -43.201,10.8c-14.4,7.2 -28,16.8 -40.8,28.8c-12.8,12 -24.8,25.4 -36.001,40.2c-11.2,14.8 -20.8,29.8 -28.8,45l-76.801,362.4l-147.602,0l127.202,-600l111.601,0l-6,105.6l4.8,0c10.4,-12.8 22.601,-26.4 36.601,-40.8c14,-14.4 30.2,-27.6 48.6,-39.6c18.401,-12 39.001,-22 61.801,-30c22.801,-8 48.601,-12 77.401,-12c36.001,0 64.801,9.8 86.401,29.4c21.601,19.6 32.401,52.2 32.401,97.8c-0,12 -0.6,24.8 -1.8,38.4c-1.2,13.6 -3.8,28.4 -7.8,44.4l-86.401,406.8l-147.602,0Z" style="fill:#fff;fill-rule:nonzero;"/><path d="M1772.41,255.497l147.602,0l-127.202,600l-147.602,0l127.202,-600Zm24,-170.4c0,-26.4 8.6,-46.8 25.8,-61.2c17.201,-14.4 39.001,-21.6 65.401,-21.6c25.601,0 47.401,7.2 65.401,21.6c18,14.4 27,34.8 27,61.2c0,25.6 -9,45.8 -27,60.6c-18,14.8 -39.8,22.2 -65.401,22.2c-26.4,0 -48.2,-7.4 -65.401,-22.2c-17.2,-14.8 -25.8,-35 -25.8,-60.6Z" style="fill:#fff;fill-rule:nonzero;"/><path d="M1984.81,255.497l78.001,0l24,-112.8l157.202,-44.4l-33.6,157.2l140.401,0l-27.6,123.6l-139.202,0l-58.801,271.2c-4.8,21.6 -7.2,39.2 -7.2,52.8c0,17.6 4,29.6 12,36c8.001,6.4 20.001,9.6 36.001,9.6c15.2,0 29,-1.6 41.4,-4.8c12.401,-3.2 25.401,-8.4 39.001,-15.6l0,110.4c-8.8,4.8 -19.4,9.4 -31.8,13.8c-12.401,4.4 -25.801,8 -40.201,10.8c-14.4,2.8 -29.2,5 -44.401,6.6c-15.2,1.6 -29.2,2.4 -42,2.4c-40.801,0 -72.201,-9.4 -94.201,-28.2c-22.001,-18.8 -33.001,-47.4 -33.001,-85.8c0,-8 0.6,-16.4 1.8,-25.2c1.2,-8.8 2.6,-18 4.2,-27.6l69.601,-326.4l-80.401,0l28.801,-123.6Z" style="fill:#fff;fill-rule:nonzero;"/><path d="M2595.62,592.697l1.2,93.6l7.2,0l32.4,-94.8l163.202,-336l157.202,0l-288.003,538.8c-24.001,44.8 -46.601,86 -67.801,123.6c-21.201,37.6 -42.601,70 -64.201,97.2c-21.6,27.2 -44.001,48.4 -67.201,63.6c-23.2,15.2 -48.001,22.8 -74.401,22.8c-35.2,0 -61.601,-6 -79.201,-18l39.6,-117.6c4.801,2.4 9.801,4 15.001,4.8c5.2,0.8 10.2,1.2 15,1.2c19.2,0 38.8,-9.2 58.801,-27.6c20,-18.4 40,-48 60,-88.8l-112.801,-600l169.202,0l34.801,337.2Z" style="fill:#fff;fill-rule:nonzero;"/><path d="M3576.03,15.497l146.402,0l-114.002,542.4c-12,57.6 -27.6,106.2 -46.801,145.8c-19.2,39.6 -42.4,71.8 -69.601,96.6c-27.2,24.8 -59.2,42.6 -96.001,53.4c-36.8,10.8 -79.201,16.2 -127.201,16.2c-46.401,0 -85.602,-5.4 -117.602,-16.2c-32,-10.8 -58.201,-26.2 -78.601,-46.2c-20.4,-20 -35.201,-43.6 -44.401,-70.8c-9.2,-27.2 -13.8,-57.2 -13.8,-90c0,-16 1,-32.4 3,-49.2c2,-16.8 5,-34.4 9,-52.8l112.802,-529.2l154.802,0l-110.402,528c-6.4,30.4 -9.6,55.2 -9.6,74.4c0,38.4 10,65.6 30.001,81.6c20,16 49.2,24 87.601,24c48,0 85.201,-14 111.601,-42c26.401,-28 46.401,-73.2 60.001,-135.6l112.802,-530.4Z" style="fill:#fff;fill-rule:nonzero;"/><path d="M3849.63,23.897c38.401,-7.2 77.201,-12.4 116.402,-15.6c39.2,-3.2 74.401,-4.8 105.601,-4.8c36.801,0 71.601,4.4 104.402,13.2c32.8,8.8 61.2,22.2 85.201,40.2c24,18 43,41.2 57,69.6c14.001,28.4 21.001,61.8 21.001,100.2c-0,44 -6.6,82.2 -19.801,114.6c-13.2,32.4 -30.6,59.6 -52.2,81.6c-21.601,22 -46.201,39.2 -73.801,51.6c-27.601,12.4 -55.801,20.6 -84.601,24.6l46.8,37.2l116.402,319.2l-172.802,0l-115.202,-328.8l-82.801,-15.6l-72.001,344.4l-156.002,0l176.402,-831.6Zm75.601,375.6l63.601,0c23.2,0 46.001,-2.2 68.401,-6.6c22.4,-4.4 42.201,-12.4 59.401,-24c17.2,-11.6 31.2,-27 42,-46.2c10.8,-19.2 16.201,-43.6 16.201,-73.2c-0,-27.2 -9.201,-50.6 -27.601,-70.2c-18.4,-19.6 -48,-29.4 -88.801,-29.4c-16,0 -31,0.6 -45.001,1.8c-14,1.2 -25.8,2.6 -35.4,4.2l-52.801,243.6Z" style="fill:#fff;fill-rule:nonzero;"/><path d="M4867.25,855.497l-505.207,0l177.602,-840l156.002,0l-147.602,693.6l349.205,0l-30,146.4Z" style="fill:#fff;fill-rule:nonzero;"/><path d="M4965.65,715.097c16,8.8 36.6,16.6 61.801,23.4c25.2,6.8 51.8,10.2 79.801,10.2c28,0 49.4,-5.4 64.201,-16.2c14.8,-10.8 22.6,-27.4 23.4,-49.8c-0,-16 -4.8,-29.8 -14.4,-41.4c-9.6,-11.6 -21.8,-22.6 -36.601,-33c-14.8,-10.4 -30.6,-21 -47.4,-31.8c-16.801,-10.8 -32.601,-23.2 -47.401,-37.2c-14.8,-14 -27,-30.6 -36.6,-49.8c-9.601,-19.2 -14.401,-42.4 -14.401,-69.6c0,-26.4 5.2,-50.8 15.601,-73.2c10.4,-22.4 25,-41.6 43.8,-57.6c18.8,-16 41.601,-28.4 68.401,-37.2c26.8,-8.8 57.001,-13.2 90.601,-13.2c46.401,0 84.801,3.4 115.202,10.2c30.4,6.8 54.401,15.4 72.001,25.8l-40.801,112.8c-16,-7.2 -35.4,-13.2 -58.201,-18c-22.8,-4.8 -46.6,-7.2 -71.401,-7.2c-25.6,0 -45.8,4.4 -60.6,13.2c-14.8,8.8 -22.201,22.8 -22.201,42c0,12.8 4.8,24.2 14.401,34.2c9.6,10 21.8,20.2 36.6,30.6c14.8,10.4 30.6,21 47.401,31.8c16.8,10.8 32.6,23.8 47.4,39c14.801,15.2 27.001,32.6 36.601,52.2c9.6,19.6 14.4,43 14.4,70.2c0,66.4 -21.6,115.8 -64.801,148.2c-43.2,32.4 -100.801,48.6 -172.802,48.6c-40.801,0 -78.201,-3.8 -112.202,-11.4c-34,-7.6 -60.2,-17 -78.601,-28.2l46.801,-117.6Z" style="fill:#fff;fill-rule:nonzero;"/><path d="M5434.85,776.297c0,-28 8.8,-50.2 26.401,-66.6c17.6,-16.4 40.8,-24.6 69.6,-24.6c29.601,0 53.201,8.2 70.801,24.6c17.601,16.4 26.401,38.6 26.401,66.6c-0,28 -8.8,50.4 -26.401,67.2c-17.6,16.8 -41.2,25.2 -70.801,25.2c-28.8,0 -52,-8.4 -69.6,-25.2c-17.601,-16.8 -26.401,-39.2 -26.401,-67.2Z" style="fill:#2dd4bf;fill-rule:nonzero;"/><path d="M5898.06,677.897c-4.8,23.2 -4.6,40.4 0.6,51.6c5.2,11.2 13.8,16.8 25.801,16.8c22.4,0 43.6,-4.4 63.6,-13.2l-3.6,106.8c-14.4,8.8 -35.2,16 -62.4,21.6c-27.201,5.6 -54.001,8.4 -80.401,8.4c-34.401,0 -60.601,-6.6 -78.601,-19.8c-18.001,-13.2 -27.001,-37.8 -27.001,-73.8c0,-18.4 2.4,-39.6 7.2,-63.6l147.602,-697.2l147.602,0l-140.402,662.4Z" style="fill:#fff;fill-rule:nonzero;"/><path d="M6182.46,255.497l147.602,0l-127.202,600l-147.602,0l127.202,-600Zm24,-170.4c0,-26.4 8.6,-46.8 25.801,-61.2c17.2,-14.4 39,-21.6 65.401,-21.6c25.6,0 47.4,7.2 65.4,21.6c18.001,14.4 27.001,34.8 27.001,61.2c-0,25.6 -9,45.8 -27.001,60.6c-18,14.8 -39.8,22.2 -65.4,22.2c-26.401,0 -48.201,-7.4 -65.401,-22.2c-17.201,-14.8 -25.801,-35 -25.801,-60.6Z" style="fill:#fff;fill-rule:nonzero;"/><path d="M6688.87,855.497l79.201,-372c4.8,-22.4 7.2,-42 7.2,-58.8c-0,-17.6 -3.6,-31.4 -10.8,-41.4c-7.2,-10 -20.401,-15 -39.601,-15c-14.4,0 -28.8,3.6 -43.2,10.8c-14.401,7.2 -28.001,16.8 -40.801,28.8c-12.8,12 -24.8,25.4 -36,40.2c-11.201,14.8 -20.801,29.8 -28.801,45l-76.801,362.4l-147.602,0l127.202,-600l111.601,0l-6,105.6l4.8,0c10.401,-12.8 22.601,-26.4 36.601,-40.8c14,-14.4 30.2,-27.6 48.601,-39.6c18.4,-12 39,-22 61.8,-30c22.801,-8 48.601,-12 77.401,-12c36.001,0 64.801,9.8 86.402,29.4c21.6,19.6 32.4,52.2 32.4,97.8c-0,12 -0.6,24.8 -1.8,38.4c-1.2,13.6 -3.8,28.4 -7.8,44.4l-86.401,406.8l-147.602,0Z" style="fill:#fff;fill-rule:nonzero;"/><path d="M7224.08,607.097l-48.001,0l-51.6,248.4l-147.602,0l177.602,-840l147.602,0l-105.602,495.6l44.401,-15.6l169.202,-240l164.402,0l-178.802,241.2l-72.001,45.6l54.001,45.6l91.201,267.6l-158.402,0l-86.401,-248.4Z" style="fill:#fff;fill-rule:nonzero;"/></g></g></svg>