<?xml version="1.0" encoding="UTF-8" standalone="no"?>
<!DOCTYPE svg PUBLIC "-//W3C//DTD SVG 1.1//EN" "http://www.w3.org/Graphics/SVG/1.1/DTD/svg11.dtd">
<svg width="100%" height="100%" viewBox="0 0 513 513" version="1.1" xmlns="http://www.w3.org/2000/svg" xmlns:xlink="http://www.w3.org/1999/xlink" xml:space="preserve" xmlns:serif="http://www.serif.com/" style="fill-rule:evenodd;clip-rule:evenodd;stroke-linejoin:round;stroke-miterlimit:2;">
    <g transform="matrix(1,0,0,1,-1805,-4103)">
        <g id="V8S-favIcon" serif:id="V8S favIcon" transform="matrix(0.376471,0,0,0.691892,2024.06,1607.9)">
            <rect x="-579.874" y="3607.11" width="1360" height="740" style="fill:none;"/>
            <g transform="matrix(1,0,0,1,-52.1189,94.202)">
                <g transform="matrix(2.37349,-0.409746,0.796347,1.36572,121.933,3882.9)">
                    <g transform="matrix(1,0,0,1,-96,-96)">
                        <g>
                            <path d="M93.643,143.35C91.428,142.904 89.244,142.323 87.101,141.619L65.498,163.22C55.374,173.345 38.902,173.344 28.778,163.22C18.653,153.095 18.653,136.624 28.778,126.5L59.035,96.242L68.122,87.156C68.279,86.999 68.44,86.845 68.602,86.692C68.744,86.556 68.882,86.425 69.025,86.29C69.13,86.2 69.231,86.107 69.336,86.017C69.475,85.893 69.613,85.777 69.752,85.661C69.928,85.507 70.111,85.354 70.299,85.211C70.396,85.129 70.501,85.054 70.599,84.979C70.6,84.976 70.602,84.976 70.602,84.975C70.747,84.864 70.891,84.752 71.037,84.646C71.183,84.537 71.325,84.432 71.472,84.331L71.476,84.327C71.494,84.316 71.505,84.304 71.524,84.293C71.666,84.188 71.809,84.091 71.955,83.997C72.06,83.922 72.165,83.855 72.273,83.784C72.397,83.697 72.521,83.619 72.648,83.544C72.652,83.54 72.652,83.54 72.659,83.54C72.689,83.518 72.727,83.495 72.761,83.476C72.929,83.368 73.098,83.267 73.27,83.169C73.281,83.158 73.3,83.147 73.319,83.143L73.323,83.139C73.39,83.094 73.461,83.053 73.529,83.015C73.589,82.978 73.645,82.944 73.708,82.918C73.708,82.911 73.712,82.914 73.712,82.914C73.766,82.88 73.825,82.85 73.882,82.819C73.942,82.785 74.002,82.753 74.063,82.719C74.127,82.683 74.192,82.644 74.259,82.614C74.321,82.579 74.386,82.542 74.451,82.507C74.488,82.488 74.526,82.471 74.563,82.451C74.564,82.451 74.565,82.45 74.567,82.45L74.568,82.449C74.737,82.361 74.908,82.277 75.079,82.194C75.192,82.137 75.307,82.081 75.42,82.027C75.659,81.915 75.898,81.807 76.139,81.703C76.415,81.584 76.696,81.467 76.976,81.359C77.084,81.311 77.197,81.273 77.306,81.232C77.344,81.213 77.386,81.198 77.428,81.187C77.442,81.181 77.457,81.176 77.472,81.171C77.747,81.068 78.021,80.971 78.296,80.882C78.424,80.839 78.553,80.801 78.682,80.761C78.827,80.715 78.972,80.668 79.118,80.624C79.433,80.532 79.749,80.446 80.067,80.366C80.142,80.344 80.221,80.325 80.3,80.306C80.502,80.254 80.704,80.209 80.907,80.164C81.521,80.029 82.143,79.917 82.765,79.827C82.971,79.8 83.17,79.774 83.372,79.752C83.784,79.699 84.2,79.658 84.616,79.632C85.032,79.598 85.448,79.579 85.86,79.572C86.066,79.568 86.272,79.565 86.482,79.565C86.692,79.565 86.898,79.568 87.104,79.572C87.314,79.579 87.52,79.583 87.726,79.594C87.888,79.598 88.048,79.61 88.206,79.625C88.258,79.625 88.3,79.628 88.348,79.632C89.161,79.688 89.971,79.786 90.776,79.917C90.99,79.95 91.2,79.988 91.41,80.033C91.833,80.111 92.249,80.205 92.665,80.306C92.863,80.355 93.062,80.404 93.265,80.456C93.276,80.46 93.283,80.46 93.287,80.464C93.481,80.516 93.68,80.572 93.875,80.632C94.044,80.681 94.208,80.734 94.373,80.786C95.419,81.112 96.449,81.513 97.45,81.981C97.603,82.052 97.757,82.124 97.911,82.202C98.51,82.495 99.102,82.809 99.679,83.154C99.836,83.244 99.991,83.338 100.148,83.435C100.2,83.465 100.257,83.499 100.309,83.536C100.467,83.634 100.62,83.735 100.774,83.836C100.954,83.956 101.134,84.076 101.309,84.199C101.599,84.398 101.883,84.608 102.164,84.821C102.317,84.938 102.475,85.058 102.629,85.181C102.753,85.275 102.872,85.372 102.988,85.474C103.059,85.53 103.135,85.589 103.202,85.65C103.31,85.743 103.423,85.833 103.532,85.934C103.674,86.054 103.816,86.182 103.955,86.305L103.977,86.328C104.269,86.598 104.559,86.871 104.843,87.156C105.128,87.441 105.401,87.729 105.671,88.022L105.694,88.044C105.817,88.183 105.945,88.325 106.064,88.467C106.166,88.576 106.256,88.689 106.35,88.797C106.409,88.864 106.47,88.94 106.525,89.011C106.627,89.127 106.725,89.247 106.818,89.37C106.941,89.524 107.061,89.681 107.178,89.835C107.392,90.116 107.601,90.401 107.8,90.69C107.924,90.865 108.043,91.046 108.163,91.225C108.265,91.379 108.365,91.532 108.463,91.69C108.5,91.742 108.534,91.798 108.564,91.851C108.661,92.008 108.755,92.162 108.845,92.319C109.189,92.897 109.505,93.488 109.797,94.088C109.875,94.241 109.946,94.395 110.017,94.549C110.486,95.549 110.888,96.58 111.213,97.625C111.266,97.79 111.318,97.955 111.367,98.123C111.427,98.318 111.483,98.517 111.535,98.712C111.539,98.716 111.539,98.723 111.543,98.735C111.596,98.937 111.644,99.135 111.692,99.334C111.794,99.75 111.888,100.166 111.963,100.585C113.483,99.844 114.878,98.855 116.084,97.648L128.877,84.855C128.765,84.608 128.644,84.368 128.517,84.129C128.393,83.885 128.266,83.637 128.139,83.398C128.004,83.135 127.861,82.873 127.715,82.614C127.614,82.431 127.509,82.251 127.404,82.071C127.355,81.97 127.296,81.873 127.235,81.775C127.108,81.558 126.984,81.344 126.853,81.131C126.703,80.883 126.554,80.636 126.403,80.396C126.175,80.033 125.942,79.673 125.707,79.317C125.591,79.149 125.478,78.976 125.358,78.811C125.224,78.616 125.092,78.425 124.954,78.235C124.789,77.994 124.616,77.762 124.444,77.53C124.418,77.488 124.384,77.447 124.354,77.41C124.174,77.163 123.99,76.919 123.804,76.679C123.59,76.398 123.369,76.117 123.14,75.844C123.092,75.78 123.043,75.716 122.99,75.656C122.766,75.379 122.541,75.109 122.309,74.839C122.289,74.821 122.274,74.798 122.256,74.779C122.009,74.495 121.758,74.206 121.499,73.925C121.267,73.663 121.023,73.404 120.775,73.142C120.469,72.812 120.153,72.49 119.831,72.168C119.509,71.845 119.186,71.531 118.857,71.224C118.595,70.976 118.336,70.733 118.074,70.5C117.793,70.242 117.505,69.991 117.22,69.743C117.197,69.729 117.179,69.71 117.16,69.691C116.89,69.459 116.62,69.234 116.343,69.009C116.283,68.957 116.22,68.908 116.155,68.859C115.882,68.631 115.601,68.409 115.32,68.196C115.08,68.008 114.837,67.825 114.589,67.645C114.552,67.615 114.511,67.581 114.47,67.555C114.237,67.383 114.005,67.211 113.765,67.046C113.589,66.914 113.409,66.795 113.229,66.667C113.008,66.513 112.787,66.367 112.562,66.217C112.244,66.004 111.922,65.794 111.596,65.588C111.37,65.453 111.145,65.311 110.913,65.176C110.891,65.153 110.865,65.142 110.835,65.127C110.636,65.004 110.43,64.88 110.224,64.764C110.127,64.704 110.025,64.648 109.928,64.595C109.748,64.49 109.568,64.385 109.385,64.284C109.126,64.138 108.867,63.999 108.605,63.864C108.361,63.733 108.122,63.606 107.871,63.482C107.631,63.355 107.392,63.235 107.144,63.122C107.137,63.115 107.121,63.108 107.11,63.104C106.597,62.853 106.083,62.616 105.562,62.388C105.308,62.276 105.046,62.163 104.787,62.054C104.524,61.942 104.267,61.841 104.004,61.736L104,61.733C103.449,61.511 102.894,61.301 102.337,61.103C102.097,61.02 101.86,60.942 101.621,60.859C101.358,60.769 101.089,60.679 100.819,60.597L100.74,60.57C100.238,60.413 99.74,60.267 99.23,60.125C99.207,60.117 99.185,60.11 99.163,60.102C98.949,60.046 98.731,59.986 98.518,59.93L98.345,59.885C97.555,59.679 96.76,59.499 95.962,59.338C95.955,59.338 95.951,59.334 95.943,59.334C95.52,59.248 95.089,59.169 94.658,59.09C94.231,59.016 93.804,58.948 93.373,58.884C92.942,58.821 92.511,58.765 92.084,58.712C91.649,58.66 91.222,58.615 90.788,58.577C90.357,58.536 89.922,58.506 89.487,58.476C89.416,58.472 89.345,58.469 89.274,58.465C89.098,58.454 88.918,58.446 88.742,58.435C88.629,58.427 88.52,58.423 88.412,58.42C88.232,58.412 88.052,58.405 87.873,58.405C87.831,58.401 87.794,58.401 87.748,58.401C87.498,58.39 87.247,58.386 86.992,58.386C86.92,58.382 86.853,58.382 86.786,58.382C86.527,58.379 86.265,58.379 86.006,58.382C85.796,58.382 85.59,58.386 85.388,58.394C85.144,58.398 84.905,58.405 84.661,58.416C84.538,58.42 84.41,58.427 84.287,58.431C83.889,58.446 83.488,58.472 83.087,58.499C83.023,58.502 82.956,58.51 82.893,58.514C82.492,58.547 82.091,58.581 81.69,58.622C81.341,58.656 80.989,58.693 80.641,58.742C80.435,58.761 80.232,58.791 80.03,58.821C79.666,58.87 79.303,58.918 78.936,58.978C78.583,59.038 78.231,59.098 77.879,59.166C77.849,59.166 77.819,59.173 77.789,59.181C77.396,59.252 77.01,59.33 76.62,59.413C76.586,59.417 76.553,59.428 76.515,59.435C76.096,59.525 75.68,59.619 75.264,59.72C74.84,59.821 74.417,59.93 73.997,60.05C73.607,60.155 73.222,60.263 72.835,60.38C72.727,60.413 72.611,60.447 72.498,60.485C72.225,60.57 71.951,60.657 71.681,60.747C71.55,60.788 71.419,60.829 71.288,60.878C70.939,60.994 70.591,61.118 70.246,61.245C69.834,61.395 69.426,61.548 69.014,61.714C68.605,61.875 68.201,62.04 67.792,62.215C67.398,62.384 67.005,62.56 66.615,62.74C66.608,62.748 66.597,62.752 66.585,62.755C65.806,63.115 65.034,63.497 64.273,63.905C64.221,63.936 64.168,63.965 64.109,63.996C64.015,64.044 63.929,64.093 63.839,64.145C63.569,64.288 63.303,64.442 63.04,64.591C62.651,64.816 62.269,65.041 61.887,65.273C61.5,65.509 61.126,65.749 60.748,65.993C59.991,66.48 59.248,66.997 58.522,67.536C58.169,67.799 57.821,68.065 57.469,68.335C57.439,68.357 57.409,68.387 57.372,68.409C57.038,68.675 56.701,68.945 56.371,69.222C56.098,69.451 55.82,69.684 55.547,69.92C55.026,70.373 54.509,70.838 54.003,71.321C53.71,71.598 53.422,71.879 53.134,72.168L13.79,111.511C-4.596,129.899 -4.596,159.822 13.79,178.209C32.18,196.599 62.1,196.595 80.487,178.209L115.009,143.687C113.724,143.908 112.42,144.081 111.108,144.216C105.274,144.811 99.398,144.519 93.643,143.35Z" style="fill:rgb(17,94,89);fill-rule:nonzero;"/>
                            <path d="M191.674,46.047C191.674,45.852 191.67,45.661 191.658,45.47C191.647,45.227 191.636,44.983 191.621,44.735C191.617,44.575 191.605,44.413 191.595,44.252C191.572,43.945 191.55,43.631 191.519,43.316C191.513,43.241 191.505,43.166 191.501,43.087C191.46,42.671 191.419,42.255 191.366,41.836C191.313,41.393 191.258,40.947 191.193,40.509C191.13,40.093 191.062,39.673 190.991,39.257C190.913,38.826 190.834,38.396 190.748,37.972C190.591,37.185 190.411,36.406 190.208,35.627C189.961,34.66 189.684,33.701 189.373,32.753C189.294,32.502 189.208,32.251 189.118,32.003C188.874,31.28 188.608,30.564 188.323,29.852C188.226,29.612 188.129,29.373 188.023,29.133C187.698,28.35 187.35,27.574 186.975,26.81C186.854,26.555 186.727,26.3 186.596,26.049C186.473,25.806 186.346,25.558 186.218,25.318C186.083,25.056 185.94,24.794 185.794,24.535C185.693,24.352 185.588,24.172 185.483,23.992C185.434,23.891 185.375,23.794 185.314,23.696C185.187,23.479 185.063,23.265 184.933,23.051C184.782,22.804 184.633,22.557 184.482,22.317C184.254,21.954 184.021,21.594 183.786,21.238C183.67,21.069 183.558,20.897 183.437,20.732C183.303,20.537 183.172,20.346 183.033,20.155C182.868,19.915 182.695,19.683 182.523,19.451C182.497,19.409 182.463,19.368 182.434,19.331C182.253,19.084 182.069,18.84 181.883,18.6C181.669,18.319 181.447,18.038 181.22,17.764C181.171,17.701 181.122,17.637 181.069,17.577C180.845,17.3 180.62,17.03 180.388,16.76C180.369,16.742 180.353,16.719 180.335,16.7C180.088,16.416 179.837,16.127 179.578,15.846C179.346,15.584 179.102,15.325 178.854,15.063C178.548,14.733 178.232,14.411 177.911,14.089C177.588,13.766 177.267,13.452 176.936,13.145C176.674,12.897 176.416,12.653 176.153,12.421C175.872,12.163 175.584,11.912 175.299,11.664C175.276,11.65 175.258,11.631 175.239,11.612C174.969,11.38 174.699,11.155 174.422,10.93C174.362,10.878 174.299,10.829 174.234,10.78C173.961,10.551 173.68,10.33 173.399,10.117C173.159,9.929 172.916,9.746 172.668,9.566C172.631,9.536 172.59,9.502 172.549,9.476C172.316,9.304 172.084,9.131 171.844,8.966C171.668,8.835 171.488,8.716 171.309,8.588C171.087,8.434 170.866,8.288 170.642,8.138C170.322,7.925 170.001,7.715 169.675,7.509C169.45,7.374 169.225,7.232 168.992,7.097C168.97,7.074 168.944,7.063 168.914,7.048C168.715,6.924 168.509,6.8 168.303,6.684C168.206,6.625 168.104,6.569 168.007,6.516C167.827,6.411 167.647,6.306 167.464,6.205C167.205,6.059 166.946,5.92 166.684,5.785C166.441,5.654 166.201,5.527 165.95,5.403C165.699,5.272 165.444,5.145 165.189,5.025C164.676,4.774 164.163,4.537 163.642,4.309C163.387,4.196 163.125,4.084 162.866,3.975C162.603,3.863 162.342,3.758 162.079,3.653C161.528,3.432 160.974,3.222 160.416,3.024C160.176,2.941 159.939,2.862 159.7,2.78C159.437,2.69 159.168,2.6 158.898,2.518C158.348,2.341 157.797,2.18 157.242,2.023C156.987,1.956 156.732,1.888 156.477,1.821C155.664,1.607 154.848,1.42 154.023,1.255C153.6,1.169 153.169,1.09 152.738,1.011C152.31,0.937 151.884,0.869 151.453,0.805C151.021,0.742 150.591,0.685 150.164,0.633C149.729,0.581 149.302,0.536 148.867,0.498C148.436,0.457 148.002,0.427 147.567,0.397C147.207,0.375 146.851,0.356 146.491,0.341C146.311,0.333 146.132,0.326 145.952,0.326C145.593,0.311 145.226,0.303 144.865,0.303C144.607,0.299 144.345,0.299 144.086,0.303C143.876,0.303 143.67,0.307 143.468,0.315C143.101,0.322 142.733,0.337 142.366,0.352C141.969,0.367 141.568,0.393 141.167,0.42C141.103,0.423 141.036,0.431 140.973,0.434C140.571,0.468 140.171,0.502 139.769,0.543C139.421,0.577 139.068,0.614 138.721,0.663C138.514,0.682 138.311,0.712 138.109,0.741C137.746,0.79 137.383,0.839 137.016,0.899C136.663,0.959 136.31,1.019 135.959,1.087C135.929,1.087 135.898,1.094 135.869,1.101C135.476,1.173 135.089,1.251 134.699,1.334C134.666,1.338 134.632,1.349 134.595,1.356C134.175,1.446 133.759,1.54 133.343,1.641C132.92,1.742 132.496,1.851 132.077,1.971C131.687,2.076 131.301,2.184 130.914,2.3C130.807,2.334 130.69,2.368 130.578,2.405C130.304,2.491 130.031,2.578 129.761,2.668C129.63,2.709 129.498,2.75 129.367,2.799C129.019,2.915 128.671,3.039 128.326,3.166C127.914,3.316 127.505,3.469 127.093,3.634C126.684,3.796 126.28,3.96 125.872,4.136C125.478,4.305 125.085,4.481 124.695,4.661C124.687,4.669 124.677,4.672 124.665,4.676C123.886,5.036 123.114,5.418 122.353,5.826C122.301,5.857 122.248,5.886 122.188,5.916C121.828,6.112 121.473,6.31 121.12,6.512C120.73,6.737 120.349,6.962 119.967,7.194C119.58,7.43 119.206,7.67 118.827,7.913C118.07,8.401 117.328,8.918 116.601,9.457C116.249,9.72 115.9,9.986 115.549,10.256C115.518,10.278 115.488,10.308 115.451,10.33C115.117,10.596 114.78,10.866 114.45,11.143C114.177,11.372 113.899,11.604 113.626,11.84C113.105,12.294 112.588,12.758 112.082,13.242C111.79,13.519 111.502,13.8 111.213,14.089L76.687,48.614C76.845,48.584 77.002,48.554 77.16,48.531L77.234,48.516C77.681,48.445 78.115,48.385 78.557,48.325C78.838,48.284 79.108,48.247 79.385,48.217C79.801,48.16 80.221,48.115 80.633,48.078C81.094,48.029 81.551,47.992 82.004,47.951L82.151,47.94C82.237,47.936 82.319,47.928 82.394,47.921C82.893,47.887 83.391,47.86 83.882,47.842C84.264,47.827 84.672,47.808 85.081,47.797C85.358,47.79 85.643,47.782 85.928,47.782C86.239,47.778 86.554,47.778 86.864,47.782C87.28,47.786 87.707,47.793 88.127,47.808C88.371,47.812 88.618,47.819 88.865,47.835C89.285,47.85 89.716,47.868 90.15,47.898L90.214,47.902C90.727,47.936 91.241,47.977 91.75,48.022C92.287,48.07 92.815,48.127 93.358,48.191C93.886,48.254 94.404,48.321 94.917,48.401C95.445,48.479 95.962,48.562 96.479,48.652L96.565,48.663C97.082,48.76 97.57,48.85 98.057,48.947C99.061,49.15 100.092,49.386 101.089,49.648L102.052,49.906C102.7,50.09 103.345,50.277 103.985,50.484C104.191,50.547 104.397,50.611 104.596,50.682L126.201,29.077C126.358,28.92 126.519,28.766 126.681,28.612C126.823,28.477 126.962,28.346 127.104,28.211C127.209,28.121 127.31,28.027 127.415,27.938C127.554,27.814 127.692,27.698 127.831,27.582C128.246,27.226 128.679,26.885 129.116,26.566C129.263,26.458 129.405,26.353 129.55,26.252L129.554,26.248C129.574,26.236 129.585,26.225 129.603,26.214C129.746,26.109 129.889,26.012 130.034,25.918C130.14,25.843 130.244,25.776 130.353,25.704C130.476,25.618 130.601,25.54 130.727,25.464C133.122,23.955 135.708,22.876 138.379,22.227C138.582,22.175 138.784,22.13 138.986,22.085C139.601,21.95 140.223,21.838 140.845,21.748C141.051,21.721 141.249,21.695 141.452,21.672C141.864,21.62 142.28,21.579 142.696,21.553C143.112,21.519 143.527,21.5 143.939,21.493C144.146,21.489 144.352,21.485 144.561,21.485C144.771,21.485 144.977,21.489 145.184,21.493C145.393,21.5 145.6,21.504 145.806,21.515C146.016,21.523 146.226,21.538 146.428,21.553C147.241,21.609 148.051,21.706 148.856,21.838C149.493,21.943 150.119,22.073 150.744,22.227C150.943,22.276 151.142,22.325 151.344,22.377C151.355,22.381 151.363,22.381 151.366,22.384C151.561,22.437 151.76,22.493 151.955,22.553C152.123,22.602 152.288,22.654 152.453,22.707C153.499,23.033 154.529,23.434 155.529,23.902C155.683,23.973 155.837,24.045 155.99,24.123C156.59,24.416 157.182,24.73 157.759,25.075C157.916,25.165 158.07,25.258 158.227,25.356C158.28,25.386 158.336,25.42 158.389,25.457C158.546,25.555 158.699,25.656 158.853,25.757C159.033,25.877 159.213,25.997 159.389,26.12C159.678,26.319 159.962,26.529 160.243,26.742C160.396,26.859 160.555,26.979 160.708,27.102C160.832,27.196 160.951,27.293 161.067,27.394C161.139,27.451 161.214,27.51 161.281,27.57C161.39,27.664 161.502,27.754 161.611,27.855C161.753,27.975 161.895,28.103 162.034,28.226L162.057,28.249C162.35,28.518 162.638,28.792 162.923,29.077C163.207,29.361 163.48,29.65 163.751,29.943L163.773,29.965C163.896,30.104 164.024,30.246 164.144,30.388C164.245,30.497 164.335,30.61 164.429,30.718C164.488,30.785 164.549,30.86 164.604,30.932C164.706,31.047 164.804,31.168 164.897,31.291C165.02,31.445 165.141,31.602 165.257,31.756C165.471,32.037 165.681,32.322 165.879,32.61C166.003,32.786 166.122,32.966 166.242,33.146C166.344,33.299 166.444,33.453 166.542,33.61C166.579,33.663 166.613,33.719 166.643,33.772C166.74,33.929 166.834,34.083 166.924,34.24C167.268,34.818 167.584,35.409 167.876,36.009C167.955,36.162 168.026,36.316 168.097,36.47C168.565,37.47 168.967,38.501 169.292,39.546C169.345,39.711 169.397,39.876 169.446,40.045C169.506,40.239 169.562,40.438 169.614,40.633C169.618,40.636 169.618,40.644 169.622,40.655C169.675,40.858 169.724,41.056 169.771,41.255C169.926,41.881 170.057,42.506 170.162,43.143C170.293,43.949 170.391,44.758 170.446,45.571C170.462,45.774 170.476,45.984 170.483,46.193C170.495,46.4 170.499,46.606 170.507,46.816C170.51,47.022 170.514,47.228 170.514,47.437C170.514,47.647 170.51,47.853 170.507,48.059C170.499,48.471 170.48,48.887 170.446,49.303C170.42,49.719 170.379,50.135 170.326,50.547C170.304,50.75 170.278,50.948 170.252,51.154C170.162,51.777 170.05,52.399 169.914,53.013C169.869,53.215 169.824,53.418 169.772,53.62C169.124,56.292 168.045,58.877 166.534,61.271C166.46,61.399 166.381,61.523 166.295,61.646C166.119,61.912 165.938,62.182 165.751,62.444L165.748,62.448C165.646,62.594 165.542,62.736 165.433,62.883C165.114,63.321 164.773,63.752 164.417,64.168C164.302,64.306 164.185,64.445 164.061,64.584C163.972,64.689 163.878,64.79 163.788,64.895C163.653,65.037 163.521,65.176 163.387,65.318C163.233,65.479 163.08,65.64 162.923,65.797L132.669,96.051L123.578,105.141C120.157,108.562 116.013,110.826 111.633,111.931C107.92,112.879 104.034,112.988 100.283,112.264C95.359,111.32 90.66,108.944 86.857,105.141C83.054,101.339 80.678,96.64 79.734,91.716C79.243,91.952 78.767,92.218 78.302,92.51L77.265,93.219C77.059,93.372 76.849,93.537 76.646,93.71L76.227,94.069C76.208,94.088 76.189,94.107 76.163,94.126L75.893,94.38C75.811,94.463 75.713,94.553 75.616,94.65L62.82,107.446C65.049,112.028 68.065,116.326 71.869,120.13C75.672,123.932 79.97,126.949 84.553,129.179C88.142,130.924 91.908,132.187 95.752,132.966C100.455,133.923 105.278,134.159 110.037,133.672C116.208,133.046 122.278,131.21 127.853,128.16C131.702,126.057 135.314,123.382 138.566,120.13L177.911,80.786C178.199,80.498 178.48,80.209 178.758,79.917C179.241,79.411 179.705,78.894 180.159,78.373C180.394,78.099 180.627,77.822 180.855,77.548L180.867,77.537C181.137,77.208 181.406,76.878 181.669,76.548C181.691,76.51 181.722,76.481 181.744,76.451C182.014,76.098 182.279,75.75 182.542,75.398C183.082,74.671 183.599,73.929 184.086,73.172C184.329,72.794 184.569,72.419 184.805,72.033C185.037,71.651 185.263,71.269 185.487,70.879C185.689,70.527 185.888,70.171 186.083,69.811C186.113,69.751 186.143,69.698 186.173,69.646C186.581,68.885 186.964,68.113 187.323,67.334C187.327,67.323 187.331,67.312 187.338,67.304C187.518,66.914 187.694,66.521 187.862,66.128C188.039,65.719 188.204,65.315 188.365,64.906C188.529,64.494 188.684,64.086 188.833,63.673C188.961,63.329 189.084,62.98 189.2,62.631C189.249,62.501 189.29,62.369 189.332,62.238C189.422,61.968 189.508,61.695 189.594,61.422C189.632,61.309 189.665,61.193 189.699,61.084C189.815,60.698 189.924,60.312 190.028,59.922C190.148,59.503 190.257,59.079 190.358,58.656C190.459,58.24 190.553,57.824 190.643,57.404C190.65,57.367 190.662,57.333 190.665,57.299C190.748,56.91 190.827,56.524 190.897,56.131C190.905,56.1 190.913,56.07 190.913,56.041C190.98,55.688 191.04,55.336 191.101,54.984C191.16,54.617 191.209,54.253 191.258,53.89C191.287,53.687 191.317,53.485 191.336,53.279C191.385,52.93 191.422,52.578 191.456,52.23C191.497,51.829 191.531,51.428 191.564,51.027C191.572,50.96 191.576,50.896 191.58,50.832C191.605,50.431 191.632,50.03 191.647,49.633C191.666,49.262 191.678,48.899 191.684,48.531C191.692,48.329 191.696,48.123 191.696,47.913C191.707,47.654 191.703,47.396 191.696,47.134C191.7,46.771 191.688,46.407 191.674,46.047Z" style="fill:rgb(13,148,136);fill-rule:nonzero;"/>
                        </g>
                    </g>
                </g>
                <g transform="matrix(2.97288,0,0,0.850874,4495.4,1994.75)">
                    <path d="M-1605.89,2247.12L-1607.69,2307.23L-1606.66,2307.23L-1595.34,2247.12L-1539.76,2040L-1502.19,2040L-1603.83,2396.14L-1628.02,2396.14L-1654.01,2040L-1617.47,2040L-1605.89,2247.12Z" style="fill:rgb(17,24,39);fill-rule:nonzero;"/>
                </g>
                <g transform="matrix(2.97288,0,0,0.823992,4426.34,2055.42)">
                    <path d="M-1261.59,2111.23C-1264.85,2107.19 -1269.65,2103.06 -1276,2098.85C-1282.35,2094.64 -1289.38,2092.54 -1297.1,2092.54C-1301.05,2092.54 -1304.9,2093.3 -1308.68,2094.81C-1312.45,2096.33 -1315.8,2098.77 -1318.71,2102.14C-1321.63,2105.5 -1323.95,2109.88 -1325.66,2115.27C-1327.38,2120.66 -1328.24,2127.06 -1328.24,2134.47C-1328.24,2144.23 -1326.69,2152.48 -1323.6,2159.22C-1320.52,2165.95 -1316.61,2172.27 -1311.89,2178.16C-1307.18,2184.06 -1302.12,2190.03 -1296.71,2196.1C-1291.31,2202.16 -1286.25,2209.23 -1281.53,2217.31C-1276.81,2225.39 -1272.91,2235.08 -1269.82,2246.36C-1266.74,2257.64 -1265.19,2271.53 -1265.19,2288.03C-1265.19,2307.91 -1266.95,2325 -1270.47,2339.31C-1273.98,2353.62 -1278.96,2365.33 -1285.39,2374.42C-1291.82,2383.51 -1299.54,2390.16 -1308.55,2394.37C-1317.56,2398.58 -1327.55,2400.69 -1338.53,2400.69C-1344.53,2400.69 -1350.24,2400.01 -1355.64,2398.66C-1361.05,2397.32 -1366.06,2395.63 -1370.69,2393.61C-1375.33,2391.59 -1379.4,2389.32 -1382.92,2386.79C-1386.43,2384.27 -1389.22,2381.83 -1391.28,2379.47L-1374.04,2320.87C-1372.32,2322.89 -1370.09,2325.08 -1367.35,2327.44C-1364.6,2329.8 -1361.47,2331.98 -1357.96,2334.01C-1354.44,2336.03 -1350.62,2337.71 -1346.51,2339.06C-1342.39,2340.4 -1338.27,2341.08 -1334.15,2341.08C-1329.35,2341.08 -1324.8,2340.32 -1320.52,2338.8C-1316.23,2337.29 -1312.5,2334.76 -1309.32,2331.23C-1306.15,2327.69 -1303.66,2323.23 -1301.86,2317.84C-1300.06,2312.45 -1299.16,2305.72 -1299.16,2297.63C-1299.16,2288.54 -1300.7,2280.79 -1303.79,2274.39C-1306.88,2268 -1310.78,2261.93 -1315.5,2256.21C-1320.21,2250.48 -1325.28,2244.51 -1330.68,2238.28C-1336.08,2232.05 -1341.14,2224.72 -1345.86,2216.3C-1350.58,2207.88 -1354.48,2197.7 -1357.57,2185.74C-1360.66,2173.78 -1362.2,2159.22 -1362.2,2142.04C-1362.2,2122.51 -1360.44,2105.84 -1356.93,2092.03C-1353.41,2078.22 -1348.65,2066.94 -1342.65,2058.19C-1336.64,2049.43 -1329.61,2043.03 -1321.55,2038.99C-1313.48,2034.95 -1304.82,2032.93 -1295.56,2032.93C-1290.58,2032.93 -1285.61,2033.43 -1280.63,2034.44C-1275.65,2035.45 -1270.94,2036.88 -1266.48,2038.74C-1262.02,2040.59 -1257.9,2042.78 -1254.13,2045.3C-1250.35,2047.83 -1247.18,2050.61 -1244.61,2053.64L-1261.59,2111.23Z" style="fill:rgb(17,24,39);fill-rule:nonzero;"/>
                </g>
            </g>
        </g>
    </g>
</svg>
