<?xml version="1.0" encoding="UTF-8" standalone="no"?><!DOCTYPE svg PUBLIC "-//W3C//DTD SVG 1.1//EN" "http://www.w3.org/Graphics/SVG/1.1/DTD/svg11.dtd"><svg width="100%" height="100%" viewBox="0 0 7617 1105" version="1.1" xmlns="http://www.w3.org/2000/svg" xmlns:xlink="http://www.w3.org/1999/xlink" xml:space="preserve" xmlns:serif="http://www.serif.com/" style="fill-rule:evenodd;clip-rule:evenodd;stroke-linejoin:round;stroke-miterlimit:2;"><rect id="vanityURLs-link-logo--no-padding-" serif:id="vanityURLs-link logo (no padding)" x="2.533" y="2.188" width="7610.42" height="1099.17" style="fill:none;"/><clipPath id="_clip1"><rect x="2.533" y="2.188" width="7610.42" height="1099.17"/></clipPath><g clip-path="url(#_clip1)"><g><path d="M227.05,507.373l-8.4,142.795l4.8,0l52.798,-142.795l259.193,-491.985l175.194,-0l-473.985,845.974l-112.797,0l-121.196,-845.974l170.395,-0l53.998,491.985Z" style="fill:#0f766e;fill-rule:nonzero;"/><path d="M1027.43,615.37c-6.4,30.399 -11,61.198 -13.8,92.397c-2.8,31.199 -4.2,60.798 -4.2,88.797c0,11.2 0.2,21.799 0.6,31.799c0.4,10 1,19.399 1.8,28.199l-109.197,0l-16.799,-103.197l-4.8,0c-8.8,14.4 -20.199,28.599 -34.199,42.599c-13.999,14 -29.399,26.799 -46.198,38.399c-16.8,11.6 -34.599,20.799 -53.399,27.599c-18.799,6.8 -38.199,10.2 -58.198,10.2c-52.798,-0 -91.797,-17.2 -116.996,-51.599c-25.2,-34.399 -37.799,-80.397 -37.799,-137.996c-0,-58.398 7.399,-114.396 22.199,-167.994c14.8,-53.599 37.799,-100.797 68.998,-141.596c31.199,-40.799 70.598,-73.398 118.196,-97.797c47.599,-24.399 104.197,-36.599 169.795,-36.599c27.999,-0 58.598,2.6 91.797,7.8c33.199,5.2 65.398,12.199 96.597,20.999l-74.397,347.99Zm-281.992,133.195c14.4,0 27.999,-2.999 40.799,-8.999c12.8,-6 24.599,-13.8 35.399,-23.4c10.8,-9.599 20.399,-19.999 28.799,-31.199c8.4,-11.199 15.8,-21.599 22.199,-31.199l59.999,-279.591c-8.8,-4 -19,-7 -30.599,-9c-11.6,-2 -23,-3 -34.199,-3c-28.8,0 -54.399,8.6 -76.798,25.799c-22.399,17.2 -41.399,39.599 -56.998,67.198c-15.6,27.6 -27.4,58.799 -35.399,93.598c-8,34.798 -12,69.797 -12,104.996c0,25.6 4.2,47.799 12.6,66.598c8.399,18.8 23.799,28.199 46.198,28.199Z" style="fill:#0f766e;fill-rule:nonzero;"/><path d="M1421.01,855.362l79.197,-371.988c4.8,-22.4 7.2,-41.999 7.2,-58.799c0,-17.599 -3.6,-31.399 -10.8,-41.398c-7.199,-10 -20.399,-15 -39.598,-15c-14.4,-0 -28.799,3.6 -43.199,10.8c-14.4,7.199 -27.999,16.799 -40.799,28.799c-12.799,11.999 -24.799,25.399 -35.999,40.199c-11.199,14.799 -20.799,29.799 -28.799,44.998l-76.797,362.389l-147.596,0l127.196,-599.982l111.597,0l-6,105.597l4.8,0c10.399,-12.799 22.599,-26.399 36.599,-40.799c13.999,-14.399 30.199,-27.599 48.598,-39.598c18.4,-12 38.999,-22 61.798,-29.999c22.8,-8 48.599,-12 77.398,-12c35.999,-0 64.798,9.8 86.397,29.399c21.6,19.599 32.399,52.198 32.399,97.797c0,12 -0.6,24.799 -1.8,38.399c-1.2,13.599 -3.799,28.399 -7.799,44.399l-86.398,406.787l-147.595,0Z" style="fill:#0f766e;fill-rule:nonzero;"/><path d="M1811,255.38l147.595,0l-127.196,599.982l-147.595,0l127.196,-599.982Zm23.999,-170.394c0,-26.4 8.6,-46.799 25.799,-61.199c17.2,-14.399 38.999,-21.599 65.398,-21.599c25.6,0 47.399,7.2 65.398,21.599c18,14.4 27,34.799 27,61.199c-0,25.599 -9,45.798 -27,60.598c-17.999,14.799 -39.798,22.199 -65.398,22.199c-26.399,0 -48.198,-7.4 -65.398,-22.199c-17.199,-14.8 -25.799,-34.999 -25.799,-60.598Z" style="fill:#0f766e;fill-rule:nonzero;"/><path d="M2023.4,255.38l77.997,0l23.999,-112.796l157.196,-44.399l-33.599,157.195l140.395,0l-27.599,123.597l-139.196,-0l-58.798,271.191c-4.8,21.6 -7.2,39.199 -7.2,52.799c0,17.599 4,29.599 12,35.999c8,6.4 19.999,9.599 35.999,9.599c15.2,0 28.999,-1.599 41.399,-4.799c12.399,-3.2 25.399,-8.4 38.999,-15.6l-0,110.397c-8.8,4.8 -19.4,9.399 -31.799,13.799c-12.4,4.4 -25.8,8 -40.199,10.8c-14.4,2.8 -29.199,5 -44.399,6.6c-15.199,1.6 -29.199,2.4 -41.999,2.4c-40.798,-0 -72.197,-9.4 -94.197,-28.199c-21.999,-18.8 -32.999,-47.399 -32.999,-85.798c0,-8 0.6,-16.399 1.8,-25.199c1.2,-8.8 2.6,-18 4.2,-27.599l69.598,-326.39l-80.398,-0l28.8,-123.597Z" style="fill:#0f766e;fill-rule:nonzero;"/><path d="M2634.18,592.57l1.2,93.597l7.2,0l32.399,-94.797l163.195,-335.99l157.195,0l-287.991,538.784c-24,44.799 -46.599,85.997 -67.798,123.596c-21.2,37.599 -42.599,69.998 -64.198,97.197c-21.6,27.2 -43.999,48.399 -67.198,63.598c-23.199,15.2 -47.999,22.8 -74.398,22.8c-35.199,-0 -61.598,-6 -79.198,-18l39.599,-117.596c4.8,2.4 9.8,4 15,4.8c5.2,0.8 10.199,1.2 14.999,1.2c19.2,-0 38.799,-9.2 58.799,-27.599c19.999,-18.4 39.998,-47.999 59.998,-88.798l-112.797,-599.982l169.195,0l34.799,337.19Z" style="fill:#0f766e;fill-rule:nonzero;"/><path d="M3614.55,15.388l146.396,-0l-113.997,542.383c-11.999,57.599 -27.599,106.197 -46.798,145.796c-19.2,39.599 -42.399,71.798 -69.598,96.597c-27.199,24.799 -59.198,42.599 -95.997,53.398c-36.799,10.8 -79.198,16.2 -127.196,16.2c-46.399,-0 -85.598,-5.4 -117.597,-16.2c-31.999,-10.799 -58.198,-26.199 -78.597,-46.198c-20.4,-20 -35.199,-43.599 -44.399,-70.798c-9.2,-27.199 -13.8,-57.198 -13.8,-89.997c0,-16 1,-32.399 3,-49.199c2,-16.799 5,-34.399 9,-52.798l112.796,-529.184l154.796,-0l-110.397,527.984c-6.4,30.399 -9.6,55.198 -9.6,74.397c0,38.399 10,65.598 30,81.598c19.999,15.999 49.198,23.999 87.597,23.999c47.998,0 85.197,-13.999 111.596,-41.998c26.4,-28 46.399,-73.198 59.999,-135.596l112.796,-530.384Z" style="fill:#0f766e;fill-rule:nonzero;"/><path d="M3888.14,23.787c38.399,-7.199 77.198,-12.399 116.396,-15.599c39.199,-3.2 74.398,-4.8 105.597,-4.8c36.799,0 71.598,4.4 104.397,13.2c32.799,8.799 61.198,22.199 85.197,40.198c24,18 42.999,41.199 56.999,69.598c13.999,28.399 20.999,61.798 20.999,100.197c0,43.999 -6.6,82.198 -19.799,114.597c-13.2,32.399 -30.599,59.598 -52.199,81.597c-21.599,22 -46.198,39.199 -73.797,51.599c-27.6,12.399 -55.799,20.599 -84.598,24.599l46.799,37.199l116.396,319.19l-172.795,0l-115.196,-328.79l-82.798,-15.599l-71.997,344.389l-155.996,0l176.395,-831.575Zm75.598,375.589l63.598,0c23.199,0 45.998,-2.2 68.398,-6.6c22.399,-4.4 42.198,-12.399 59.398,-23.999c17.199,-11.6 31.199,-26.999 41.999,-46.199c10.799,-19.199 16.199,-43.598 16.199,-73.197c0,-27.2 -9.2,-50.599 -27.599,-70.198c-18.4,-19.6 -47.999,-29.399 -88.797,-29.399c-16,-0 -30.999,0.6 -44.999,1.8c-14,1.2 -25.799,2.599 -35.399,4.199l-52.798,243.593Z" style="fill:#0f766e;fill-rule:nonzero;"/><path d="M4905.71,855.362l-505.185,0l177.595,-839.974l155.995,-0l-147.595,693.579l349.189,-0l-29.999,146.395Z" style="fill:#0f766e;fill-rule:nonzero;"/><path d="M5004.11,714.966c16,8.8 36.599,16.6 61.798,23.4c25.199,6.8 51.799,10.199 79.798,10.199c27.999,0 49.398,-5.399 64.198,-16.199c14.799,-10.8 22.599,-27.399 23.399,-49.799c0,-15.999 -4.8,-29.799 -14.399,-41.398c-9.6,-11.6 -21.8,-22.6 -36.599,-32.999c-14.8,-10.4 -30.599,-21 -47.399,-31.799c-16.799,-10.8 -32.599,-23.2 -47.398,-37.199c-14.8,-14 -27,-30.599 -36.599,-49.799c-9.6,-19.199 -14.4,-42.398 -14.4,-69.598c0,-26.399 5.2,-50.798 15.6,-73.197c10.399,-22.4 24.999,-41.599 43.798,-57.599c18.8,-15.999 41.599,-28.399 68.398,-37.198c26.799,-8.8 56.999,-13.2 90.598,-13.2c46.398,-0 84.797,3.4 115.196,10.2c30.399,6.799 54.398,15.399 71.998,25.799l-40.799,112.796c-15.999,-7.199 -35.399,-13.199 -58.198,-17.999c-22.799,-4.8 -46.599,-7.2 -71.398,-7.2c-25.599,0 -45.799,4.4 -60.598,13.2c-14.8,8.8 -22.199,22.799 -22.199,41.999c-0,12.799 4.799,24.199 14.399,34.198c9.6,10 21.799,20.2 36.599,30.6c14.8,10.399 30.599,20.999 47.399,31.799c16.799,10.799 32.599,23.799 47.398,38.998c14.8,15.2 26.999,32.599 36.599,52.199c9.6,19.599 14.4,42.999 14.4,70.198c-0,66.398 -21.6,115.796 -64.798,148.195c-43.199,32.399 -100.797,48.599 -172.795,48.599c-40.799,-0 -78.198,-3.8 -112.197,-11.4c-33.999,-7.6 -60.198,-16.999 -78.597,-28.199l46.798,-117.597Z" style="fill:#0f766e;fill-rule:nonzero;"/><path d="M5473.29,776.165c-0,-28 8.8,-50.199 26.399,-66.598c17.6,-16.4 40.799,-24.6 69.598,-24.6c29.599,0 53.198,8.2 70.798,24.6c17.599,16.399 26.399,38.598 26.399,66.598c0,27.999 -8.8,50.398 -26.399,67.198c-17.6,16.799 -41.199,25.199 -70.798,25.199c-28.799,-0 -51.998,-8.4 -69.598,-25.199c-17.599,-16.8 -26.399,-39.199 -26.399,-67.198Z" style="fill:#ccfbf1;fill-rule:nonzero;"/><path d="M5936.48,677.768c-4.8,23.199 -4.6,40.398 0.6,51.598c5.2,11.2 13.799,16.8 25.799,16.8c22.399,-0 43.599,-4.4 63.598,-13.2l-3.6,106.797c-14.399,8.799 -35.199,15.999 -62.398,21.599c-27.199,5.6 -53.998,8.4 -80.397,8.4c-34.399,-0 -60.599,-6.6 -78.598,-19.8c-18,-13.199 -26.999,-37.798 -26.999,-73.797c-0,-18.4 2.4,-39.599 7.2,-63.598l147.595,-697.179l147.596,-0l-140.396,662.38Z" style="fill:#0f766e;fill-rule:nonzero;"/><path d="M6220.87,255.38l147.596,0l-127.196,599.982l-147.596,0l127.196,-599.982Zm23.999,-170.394c0,-26.4 8.6,-46.799 25.8,-61.199c17.199,-14.399 38.999,-21.599 65.398,-21.599c25.599,0 47.398,7.2 65.398,21.599c17.999,14.4 26.999,34.799 26.999,61.199c-0,25.599 -9,45.798 -26.999,60.598c-18,14.799 -39.799,22.199 -65.398,22.199c-26.399,0 -48.199,-7.4 -65.398,-22.199c-17.2,-14.8 -25.8,-34.999 -25.8,-60.598Z" style="fill:#0f766e;fill-rule:nonzero;"/><path d="M6727.25,855.362l79.197,-371.988c4.8,-22.4 7.2,-41.999 7.2,-58.799c0,-17.599 -3.6,-31.399 -10.799,-41.398c-7.2,-10 -20.4,-15 -39.599,-15c-14.4,-0 -28.799,3.6 -43.199,10.8c-14.399,7.199 -27.999,16.799 -40.799,28.799c-12.799,11.999 -24.799,25.399 -35.999,40.199c-11.199,14.799 -20.799,29.799 -28.799,44.998l-76.797,362.389l-147.596,0l127.196,-599.982l111.597,0l-6,105.597l4.8,0c10.4,-12.799 22.599,-26.399 36.599,-40.799c13.999,-14.399 30.199,-27.599 48.598,-39.598c18.4,-12 38.999,-22 61.798,-29.999c22.8,-8 48.599,-12 77.398,-12c35.999,-0 64.798,9.8 86.397,29.399c21.6,19.599 32.399,52.198 32.399,97.797c0,12 -0.6,24.799 -1.799,38.399c-1.2,13.599 -3.8,28.399 -7.8,44.399l-86.398,406.787l-147.595,0Z" style="fill:#0f766e;fill-rule:nonzero;"/><path d="M7262.44,606.97l-47.999,-0l-51.598,248.392l-147.596,0l177.595,-839.974l147.595,-0l-105.597,495.585l44.399,-15.6l169.195,-239.993l164.395,0l-178.795,241.193l-71.997,45.599l53.998,45.598l91.197,267.592l-158.395,0l-86.397,-248.392Z" style="fill:#0f766e;fill-rule:nonzero;"/></g></g></svg>