<?xml version="1.0" encoding="UTF-8" standalone="no"?><!DOCTYPE svg PUBLIC "-//W3C//DTD SVG 1.1//EN" "http://www.w3.org/Graphics/SVG/1.1/DTD/svg11.dtd"><svg width="100%" height="100%" viewBox="0 0 769 501" version="1.1" xmlns="http://www.w3.org/2000/svg" xmlns:xlink="http://www.w3.org/1999/xlink" xml:space="preserve" xmlns:serif="http://www.serif.com/" style="fill-rule:evenodd;clip-rule:evenodd;stroke-linejoin:round;stroke-miterlimit:2;"><path id="V8S-logo" serif:id="V8S logo" d="M768.878,150.618l0,200c0,82.787 -67.213,150 -150,150l-468,0c-82.787,0 -150,-67.213 -150,-150l0,-200c0,-82.787 67.213,-150 150,-150l468,0c82.787,0 150,67.213 150,150Z" style="fill:#0f766e;"/><clipPath id="_clip1"><path d="M768.878,150.618l0,200c0,82.787 -67.213,150 -150,150l-468,0c-82.787,0 -150,-67.213 -150,-150l0,-200c0,-82.787 67.213,-150 150,-150l468,0c82.787,0 150,67.213 150,150Z"/></clipPath><g clip-path="url(#_clip1)"><g><path d="M158.265,277.357l-2.816,49.429l1.609,0l17.699,-49.429l86.887,-170.304l58.728,-0l-158.889,292.839l-37.812,0l-40.627,-292.839l57.119,-0l18.102,170.304Z" style="fill:#fff;fill-rule:nonzero;"/><path d="M660.164,169.402c-5.095,-3.218 -12.604,-6.503 -22.526,-9.855c-9.922,-3.353 -20.917,-5.029 -32.985,-5.029c-6.168,0 -12.202,0.604 -18.101,1.811c-5.9,1.206 -11.129,3.151 -15.688,5.832c-4.559,2.682 -8.179,6.168 -10.861,10.459c-2.682,4.29 -4.022,9.386 -4.022,15.285c-0,7.777 2.413,14.347 7.24,19.711c4.827,5.363 10.928,10.391 18.303,15.084c7.374,4.693 15.285,9.453 23.732,14.28c8.448,4.827 16.359,10.459 23.733,16.895c7.375,6.436 13.476,14.146 18.303,23.129c4.827,8.984 7.24,20.046 7.24,33.186c0,15.822 -2.748,29.432 -8.246,40.829c-5.497,11.397 -13.274,20.716 -23.33,27.956c-10.057,7.241 -22.124,12.537 -36.203,15.889c-14.079,3.352 -29.7,5.028 -46.862,5.028c-9.386,0 -18.303,-0.536 -26.75,-1.609c-8.448,-1.072 -16.291,-2.413 -23.532,-4.022c-7.241,-1.609 -13.61,-3.419 -19.107,-5.431c-5.497,-2.011 -9.855,-3.955 -13.073,-5.832l26.951,-46.662c2.681,1.609 6.168,3.353 10.458,5.23c4.291,1.877 9.185,3.62 14.682,5.229c5.498,1.609 11.465,2.95 17.901,4.023c6.436,1.072 12.872,1.609 19.308,1.609c7.509,-0 14.615,-0.604 21.319,-1.811c6.704,-1.206 12.537,-3.218 17.498,-6.033c4.961,-2.816 8.85,-6.369 11.665,-10.66c2.816,-4.291 4.224,-9.654 4.224,-16.09c0,-7.241 -2.413,-13.409 -7.24,-18.504c-4.827,-5.095 -10.928,-9.922 -18.303,-14.481c-7.375,-4.559 -15.286,-9.319 -23.733,-14.28c-8.447,-4.961 -16.358,-10.794 -23.733,-17.498c-7.374,-6.704 -13.475,-14.816 -18.302,-24.336c-4.827,-9.52 -7.241,-21.118 -7.241,-34.795c0,-15.554 2.749,-28.828 8.246,-39.823c5.498,-10.995 12.94,-19.978 22.325,-26.951c9.386,-6.972 20.381,-12.067 32.985,-15.285c12.604,-3.218 26.147,-4.827 40.628,-4.827c7.777,-0 15.553,0.402 23.33,1.206c7.777,0.805 15.152,1.945 22.124,3.42c6.973,1.475 13.409,3.218 19.308,5.229c5.9,2.011 10.861,4.224 14.884,6.637l-26.549,45.857Z" style="fill:#fff;fill-rule:nonzero;"/><g><path d="M353.11,192.394c3.145,-0.253 6.301,-0.313 9.45,-0.192l20.697,-37.313c9.699,-17.489 31.816,-23.824 49.304,-14.124c17.49,9.7 23.825,31.816 14.124,49.304l-28.987,52.265l-8.706,15.695c-0.151,0.272 -0.308,0.54 -0.466,0.808c-0.139,0.237 -0.273,0.466 -0.414,0.703c-0.106,0.161 -0.206,0.325 -0.312,0.486c-0.139,0.22 -0.28,0.429 -0.422,0.638c-0.177,0.274 -0.364,0.55 -0.561,0.814c-0.099,0.148 -0.211,0.289 -0.314,0.427c0,0.005 -0.003,0.005 -0.002,0.007c-0.152,0.205 -0.302,0.41 -0.458,0.609c-0.154,0.202 -0.304,0.398 -0.463,0.59l-0.003,0.007c-0.02,0.022 -0.031,0.042 -0.052,0.064c-0.15,0.196 -0.305,0.381 -0.465,0.563c-0.112,0.141 -0.227,0.272 -0.345,0.409c-0.133,0.164 -0.269,0.317 -0.411,0.466c-0.004,0.007 -0.004,0.007 -0.013,0.01c-0.032,0.041 -0.074,0.086 -0.113,0.125c-0.184,0.21 -0.372,0.41 -0.565,0.608c-0.01,0.019 -0.032,0.041 -0.056,0.054l-0.003,0.007c-0.073,0.086 -0.153,0.168 -0.229,0.245c-0.067,0.073 -0.129,0.14 -0.203,0.199c0.002,0.01 -0.004,0.007 -0.004,0.007c-0.06,0.067 -0.127,0.13 -0.192,0.193c-0.067,0.069 -0.136,0.135 -0.205,0.204c-0.072,0.073 -0.144,0.151 -0.222,0.217c-0.07,0.07 -0.143,0.145 -0.217,0.217c-0.042,0.04 -0.087,0.077 -0.129,0.118c-0.001,0.001 -0.002,0.002 -0.005,0.003l-0.001,0.002c-0.193,0.183 -0.39,0.362 -0.588,0.539c-0.13,0.12 -0.262,0.239 -0.393,0.355c-0.278,0.243 -0.558,0.48 -0.841,0.712c-0.325,0.266 -0.657,0.531 -0.992,0.784c-0.126,0.106 -0.263,0.2 -0.394,0.297c-0.044,0.04 -0.094,0.077 -0.146,0.108c-0.017,0.013 -0.035,0.025 -0.053,0.038c-0.33,0.244 -0.661,0.48 -0.996,0.705c-0.155,0.107 -0.313,0.208 -0.471,0.311c-0.177,0.117 -0.354,0.236 -0.533,0.352c-0.388,0.244 -0.779,0.481 -1.175,0.711c-0.092,0.058 -0.191,0.114 -0.29,0.17c-0.251,0.148 -0.505,0.286 -0.76,0.424c-0.773,0.418 -1.565,0.807 -2.365,1.167c-0.267,0.116 -0.524,0.227 -0.786,0.335c-0.533,0.229 -1.076,0.444 -1.625,0.639c-0.545,0.206 -1.096,0.391 -1.647,0.559c-0.275,0.085 -0.55,0.168 -0.832,0.249c-0.282,0.081 -0.56,0.156 -0.838,0.23c-0.285,0.071 -0.563,0.145 -0.844,0.21c-0.219,0.057 -0.438,0.102 -0.656,0.143c-0.07,0.02 -0.128,0.032 -0.194,0.045c-1.113,0.237 -2.238,0.417 -3.369,0.551c-0.3,0.038 -0.597,0.068 -0.896,0.088c-0.598,0.058 -1.193,0.092 -1.79,0.116c-0.285,0.011 -0.571,0.021 -0.864,0.03c-0.016,-0.001 -0.025,0.001 -0.032,-0.003c-0.281,0.005 -0.569,0.007 -0.854,0.001c-0.246,-0.001 -0.487,-0.009 -0.728,-0.015c-1.53,-0.036 -3.067,-0.178 -4.591,-0.421c-0.233,-0.037 -0.468,-0.074 -0.704,-0.12c-0.917,-0.163 -1.833,-0.356 -2.74,-0.598c-0.246,-0.06 -0.49,-0.127 -0.738,-0.197c-0.082,-0.02 -0.171,-0.044 -0.255,-0.073c-0.25,-0.071 -0.494,-0.148 -0.74,-0.224c-0.288,-0.092 -0.576,-0.184 -0.858,-0.282c-0.466,-0.156 -0.928,-0.328 -1.387,-0.506c-0.251,-0.098 -0.509,-0.199 -0.763,-0.305c-0.203,-0.078 -0.4,-0.163 -0.595,-0.255c-0.117,-0.048 -0.241,-0.098 -0.355,-0.154c-0.181,-0.083 -0.367,-0.161 -0.552,-0.254c-0.237,-0.107 -0.477,-0.224 -0.711,-0.336l-0.038,-0.022c-0.496,-0.25 -0.991,-0.505 -1.482,-0.779c-0.492,-0.273 -0.969,-0.555 -1.444,-0.844l-0.04,-0.021c-0.218,-0.139 -0.445,-0.281 -0.659,-0.426c-0.179,-0.107 -0.343,-0.224 -0.511,-0.333c-0.105,-0.067 -0.216,-0.145 -0.317,-0.22c-0.182,-0.116 -0.36,-0.24 -0.532,-0.369c-0.224,-0.159 -0.446,-0.324 -0.662,-0.486c-0.396,-0.295 -0.786,-0.597 -1.164,-0.909c-0.234,-0.187 -0.463,-0.384 -0.693,-0.578c-0.197,-0.168 -0.39,-0.335 -0.582,-0.509c-0.07,-0.056 -0.137,-0.118 -0.198,-0.178c-0.19,-0.173 -0.376,-0.344 -0.557,-0.52c-0.684,-0.644 -1.336,-1.316 -1.959,-2.009c-0.163,-0.175 -0.318,-0.355 -0.472,-0.534c-1.015,-1.163 -1.951,-2.392 -2.789,-3.67c-0.135,-0.202 -0.268,-0.403 -0.399,-0.61c-0.155,-0.239 -0.307,-0.484 -0.452,-0.726c-0.007,-0.004 -0.009,-0.013 -0.019,-0.028c-0.149,-0.251 -0.29,-0.498 -0.431,-0.747c-0.297,-0.519 -0.583,-1.042 -0.845,-1.575c-1.756,1.579 -3.248,3.444 -4.404,5.528l-12.256,22.098c0.246,0.289 0.5,0.565 0.763,0.837c0.26,0.28 0.526,0.564 0.788,0.836c0.283,0.301 0.576,0.598 0.871,0.889c0.206,0.207 0.417,0.408 0.627,0.61c0.104,0.117 0.221,0.224 0.341,0.332c0.254,0.243 0.502,0.482 0.76,0.718c0.297,0.275 0.592,0.55 0.887,0.814c0.446,0.399 0.897,0.793 1.35,1.181c0.22,0.181 0.438,0.37 0.663,0.545c0.255,0.21 0.506,0.416 0.764,0.618c0.314,0.26 0.636,0.505 0.956,0.75c0.051,0.047 0.112,0.089 0.167,0.127c0.337,0.262 0.677,0.519 1.02,0.77c0.395,0.295 0.8,0.587 1.212,0.866c0.089,0.067 0.18,0.134 0.274,0.194c0.407,0.286 0.813,0.562 1.229,0.835c0.033,0.017 0.062,0.042 0.094,0.061c0.441,0.286 0.889,0.577 1.345,0.855c0.412,0.263 0.839,0.517 1.273,0.773c0.538,0.325 1.086,0.636 1.642,0.945c0.557,0.309 1.111,0.607 1.671,0.892c0.447,0.233 0.889,0.459 1.33,0.671c0.476,0.239 0.96,0.465 1.438,0.688c0.036,0.01 0.068,0.029 0.1,0.047c0.452,0.208 0.901,0.406 1.36,0.602c0.1,0.046 0.204,0.088 0.31,0.129c0.454,0.201 0.917,0.391 1.376,0.569c0.395,0.16 0.791,0.312 1.193,0.458c0.062,0.026 0.13,0.056 0.195,0.075c0.379,0.142 0.756,0.283 1.142,0.413c0.287,0.109 0.575,0.2 0.866,0.302c0.356,0.122 0.709,0.233 1.068,0.348c0.509,0.164 1.022,0.322 1.539,0.473c0.356,0.094 0.712,0.198 1.076,0.29c0.038,0.023 0.077,0.028 0.123,0.036c0.315,0.089 0.639,0.176 0.96,0.253c0.154,0.043 0.312,0.079 0.463,0.113c0.282,0.071 0.564,0.143 0.849,0.208c0.404,0.097 0.805,0.184 1.208,0.264c0.378,0.082 0.748,0.161 1.133,0.231c0.371,0.078 0.738,0.147 1.115,0.204c0.012,0.006 0.036,0.01 0.052,0.011c0.785,0.139 1.567,0.26 2.354,0.366c0.384,0.052 0.779,0.103 1.169,0.15c0.396,0.049 0.78,0.086 1.174,0.126l0.006,0.002c0.826,0.086 1.651,0.155 2.476,0.207c0.354,0.019 0.702,0.032 1.055,0.052c0.388,0.019 0.783,0.037 1.177,0.043l0.117,0.006c0.734,0.018 1.459,0.022 2.198,0.017c0.034,0.001 0.067,0.002 0.099,0.005c0.309,-0.007 0.625,-0.011 0.932,-0.017l0.25,-0.007c1.14,-0.027 2.277,-0.091 3.41,-0.182c0.01,-0.002 0.016,0.001 0.027,-0.002c0.601,-0.047 1.21,-0.107 1.819,-0.166c0.602,-0.065 1.202,-0.138 1.805,-0.218c0.603,-0.081 1.203,-0.172 1.797,-0.265c0.604,-0.097 1.195,-0.201 1.792,-0.317c0.594,-0.111 1.19,-0.238 1.786,-0.365c0.097,-0.022 0.193,-0.045 0.29,-0.067c0.24,-0.053 0.485,-0.111 0.726,-0.164c0.155,-0.033 0.302,-0.07 0.449,-0.107c0.244,-0.059 0.489,-0.119 0.729,-0.187c0.058,-0.011 0.108,-0.025 0.169,-0.043c0.34,-0.082 0.679,-0.173 1.021,-0.271c0.099,-0.022 0.189,-0.048 0.278,-0.074c0.349,-0.095 0.701,-0.196 1.048,-0.3c0.282,-0.08 0.557,-0.165 0.825,-0.253c0.326,-0.1 0.644,-0.201 0.968,-0.31c0.163,-0.052 0.332,-0.111 0.496,-0.164c0.529,-0.173 1.057,-0.362 1.585,-0.553c0.085,-0.028 0.172,-0.065 0.255,-0.094c0.526,-0.199 1.051,-0.399 1.574,-0.608c0.455,-0.18 0.913,-0.365 1.362,-0.565c0.269,-0.104 0.53,-0.223 0.79,-0.341c0.47,-0.206 0.939,-0.41 1.408,-0.631c0.451,-0.217 0.901,-0.433 1.347,-0.659c0.041,-0.012 0.078,-0.033 0.115,-0.055c0.501,-0.247 0.989,-0.5 1.481,-0.761c0.044,-0.019 0.084,-0.046 0.132,-0.07c0.528,-0.282 1.051,-0.568 1.57,-0.864c0.531,-0.299 1.057,-0.608 1.575,-0.931c0.483,-0.291 0.958,-0.584 1.433,-0.89c0.132,-0.085 0.275,-0.176 0.412,-0.27c0.334,-0.219 0.668,-0.442 0.996,-0.666c0.16,-0.106 0.321,-0.211 0.478,-0.327c0.424,-0.29 0.843,-0.591 1.257,-0.894c0.496,-0.36 0.985,-0.722 1.474,-1.103c0.488,-0.374 0.967,-0.751 1.448,-1.143c0.464,-0.379 0.924,-0.766 1.379,-1.158c0.006,-0.013 0.019,-0.023 0.034,-0.032c0.908,-0.783 1.797,-1.592 2.662,-2.433c0.058,-0.062 0.118,-0.121 0.185,-0.185c0.108,-0.101 0.205,-0.2 0.306,-0.304c0.307,-0.296 0.605,-0.605 0.901,-0.906c0.436,-0.452 0.862,-0.901 1.286,-1.36c0.429,-0.465 0.838,-0.931 1.252,-1.404c0.829,-0.945 1.628,-1.925 2.395,-2.928c0.373,-0.489 0.738,-0.98 1.107,-1.478c0.032,-0.041 0.061,-0.093 0.102,-0.137c0.346,-0.486 0.695,-0.978 1.031,-1.477c0.279,-0.412 0.562,-0.832 0.838,-1.254c0.525,-0.808 1.041,-1.632 1.534,-2.475c0.287,-0.484 0.566,-0.972 0.841,-1.471l37.694,-67.96c17.614,-31.761 6.104,-71.939 -25.655,-89.555c-31.766,-17.619 -71.938,-6.105 -89.554,25.655l-33.074,59.631c1.64,-0.791 3.325,-1.525 5.034,-2.211c7.605,-3.042 15.607,-4.911 23.784,-5.555Z" style="fill:#99f6e4;fill-rule:nonzero;"/><path d="M258.911,360.75c0.075,0.262 0.154,0.517 0.243,0.769c0.109,0.322 0.217,0.646 0.333,0.973c0.067,0.213 0.145,0.426 0.221,0.638c0.148,0.404 0.299,0.817 0.462,1.228c0.037,0.098 0.076,0.196 0.112,0.3c0.215,0.543 0.43,1.086 0.662,1.628c0.242,0.575 0.487,1.152 0.743,1.715c0.245,0.535 0.497,1.072 0.753,1.604c0.27,0.548 0.542,1.095 0.82,1.632c0.514,0.996 1.055,1.973 1.627,2.941c0.704,1.203 1.445,2.384 2.227,3.537c0.203,0.307 0.415,0.611 0.631,0.909c0.606,0.877 1.238,1.736 1.895,2.583c0.222,0.285 0.444,0.568 0.679,0.85c0.738,0.926 1.503,1.834 2.301,2.716c0.26,0.295 0.529,0.589 0.801,0.876c0.259,0.279 0.525,0.563 0.789,0.836c0.282,0.3 0.575,0.596 0.871,0.888c0.206,0.207 0.416,0.408 0.626,0.609c0.105,0.117 0.221,0.225 0.341,0.333c0.254,0.242 0.503,0.482 0.76,0.719c0.297,0.274 0.592,0.548 0.887,0.812c0.446,0.4 0.897,0.794 1.35,1.181c0.221,0.183 0.437,0.371 0.663,0.546c0.255,0.21 0.504,0.416 0.765,0.619c0.313,0.259 0.635,0.504 0.955,0.749c0.051,0.046 0.113,0.088 0.166,0.127c0.338,0.262 0.679,0.519 1.021,0.769c0.395,0.295 0.801,0.587 1.212,0.868c0.09,0.066 0.18,0.133 0.274,0.193c0.408,0.286 0.814,0.562 1.229,0.835c0.032,0.017 0.063,0.042 0.094,0.06c0.441,0.287 0.889,0.578 1.345,0.856c0.412,0.262 0.84,0.516 1.273,0.773c0.538,0.325 1.086,0.636 1.641,0.945c0.558,0.309 1.11,0.607 1.672,0.892c0.448,0.232 0.888,0.461 1.33,0.671c0.477,0.238 0.96,0.465 1.438,0.688c0.036,0.01 0.068,0.028 0.101,0.047c0.451,0.207 0.9,0.406 1.359,0.601c0.1,0.047 0.204,0.088 0.31,0.129c0.455,0.203 0.917,0.391 1.376,0.569c0.395,0.16 0.791,0.313 1.194,0.459c0.061,0.026 0.129,0.056 0.194,0.075c0.379,0.141 0.757,0.284 1.143,0.414c0.287,0.108 0.574,0.198 0.864,0.301c0.357,0.122 0.71,0.233 1.068,0.348c0.512,0.163 1.024,0.321 1.541,0.473c0.354,0.094 0.71,0.198 1.075,0.29c0.039,0.022 0.078,0.027 0.124,0.036c0.315,0.09 0.639,0.177 0.96,0.254c0.153,0.041 0.312,0.077 0.462,0.111c0.282,0.072 0.564,0.144 0.849,0.209c0.404,0.096 0.805,0.183 1.209,0.264c0.376,0.082 0.748,0.161 1.132,0.231c0.388,0.079 0.779,0.151 1.167,0.214c0.786,0.14 1.566,0.261 2.353,0.367c0.386,0.053 0.781,0.103 1.17,0.15c0.397,0.049 0.787,0.089 1.181,0.129c0.825,0.085 1.649,0.154 2.475,0.205c0.354,0.019 0.703,0.034 1.055,0.052c0.388,0.02 0.784,0.037 1.178,0.044c0.806,0.026 1.608,0.03 2.414,0.027c0.368,-0.008 0.736,-0.015 1.104,-0.023c1.174,-0.025 2.342,-0.088 3.513,-0.184c0.601,-0.047 1.21,-0.107 1.819,-0.166c0.604,-0.066 1.202,-0.138 1.805,-0.218c0.604,-0.082 1.204,-0.17 1.797,-0.265c0.604,-0.097 1.195,-0.201 1.793,-0.317c0.595,-0.111 1.189,-0.238 1.785,-0.365c0.491,-0.109 0.977,-0.22 1.466,-0.339c0.245,-0.058 0.488,-0.118 0.729,-0.187c0.488,-0.118 0.984,-0.248 1.469,-0.387c0.348,-0.094 0.7,-0.195 1.046,-0.3c0.282,-0.08 0.557,-0.165 0.825,-0.253c0.49,-0.151 0.978,-0.313 1.465,-0.474c0.528,-0.173 1.056,-0.362 1.584,-0.553c0.085,-0.028 0.172,-0.065 0.255,-0.093c0.527,-0.2 1.051,-0.4 1.575,-0.609c0.454,-0.18 0.914,-0.365 1.361,-0.565c0.27,-0.105 0.531,-0.223 0.792,-0.34c0.468,-0.205 0.937,-0.411 1.406,-0.632c0.451,-0.217 0.902,-0.433 1.347,-0.659c0.041,-0.012 0.08,-0.033 0.116,-0.054c0.5,-0.248 0.989,-0.501 1.481,-0.763c0.043,-0.018 0.084,-0.046 0.131,-0.069c0.53,-0.283 1.052,-0.569 1.572,-0.864c0.529,-0.299 1.056,-0.608 1.573,-0.931c0.483,-0.291 0.96,-0.584 1.435,-0.889c0.13,-0.086 0.274,-0.177 0.41,-0.27c0.335,-0.221 0.668,-0.443 0.996,-0.667c0.16,-0.106 0.322,-0.211 0.479,-0.328c0.422,-0.289 0.842,-0.59 1.256,-0.893c0.496,-0.36 0.986,-0.722 1.476,-1.103c0.487,-0.374 0.966,-0.75 1.446,-1.143c0.464,-0.379 0.924,-0.766 1.379,-1.158c0.007,-0.014 0.02,-0.022 0.034,-0.032c0.908,-0.783 1.797,-1.592 2.662,-2.433c0.058,-0.062 0.118,-0.121 0.187,-0.184c0.408,-0.402 0.809,-0.804 1.205,-1.211c0.437,-0.452 0.862,-0.901 1.286,-1.36c0.429,-0.465 0.838,-0.931 1.254,-1.403c0.829,-0.947 1.626,-1.926 2.395,-2.93c0.371,-0.488 0.738,-0.98 1.105,-1.477c0.033,-0.042 0.062,-0.094 0.103,-0.137c0.346,-0.486 0.695,-0.978 1.031,-1.477c0.279,-0.412 0.563,-0.831 0.839,-1.253c0.525,-0.81 1.04,-1.632 1.534,-2.476c0.285,-0.484 0.564,-0.972 0.841,-1.472l33.078,-59.637c-0.201,0.101 -0.4,0.202 -0.604,0.294l-0.093,0.048c-0.573,0.268 -1.133,0.515 -1.703,0.766c-0.362,0.163 -0.71,0.316 -1.07,0.463c-0.537,0.237 -1.084,0.459 -1.622,0.667c-0.601,0.243 -1.2,0.468 -1.792,0.698l-0.194,0.071c-0.114,0.038 -0.221,0.081 -0.319,0.119c-0.657,0.238 -1.315,0.465 -1.967,0.678c-0.507,0.167 -1.048,0.35 -1.593,0.522c-0.369,0.116 -0.749,0.236 -1.131,0.346c-0.416,0.125 -0.839,0.246 -1.257,0.36c-0.56,0.155 -1.136,0.309 -1.706,0.451c-0.329,0.088 -0.663,0.174 -1.001,0.247c-0.57,0.142 -1.155,0.284 -1.75,0.41l-0.087,0.019c-0.702,0.152 -1.408,0.295 -2.109,0.43c-0.739,0.142 -1.47,0.269 -2.224,0.392c-0.733,0.118 -1.454,0.228 -2.174,0.317c-0.739,0.099 -1.465,0.186 -2.194,0.264l-0.119,0.019c-0.732,0.068 -1.422,0.135 -2.113,0.192c-1.426,0.114 -2.901,0.193 -4.341,0.225l-1.392,0.024c-0.941,0.002 -1.879,-0.001 -2.818,-0.032c-0.3,-0.006 -0.602,-0.012 -0.896,-0.031l-20.699,37.319c-0.15,0.271 -0.307,0.54 -0.466,0.809c-0.138,0.236 -0.275,0.465 -0.413,0.701c-0.107,0.161 -0.206,0.326 -0.313,0.486c-0.139,0.22 -0.279,0.429 -0.421,0.638c-0.421,0.638 -0.871,1.262 -1.335,1.859c-0.156,0.201 -0.306,0.397 -0.462,0.588l-0.004,0.007c-0.022,0.024 -0.033,0.043 -0.053,0.065c-0.151,0.196 -0.306,0.381 -0.464,0.563c-0.114,0.141 -0.228,0.271 -0.346,0.41c-0.132,0.163 -0.27,0.316 -0.41,0.466c-2.636,2.948 -5.693,5.391 -9.029,7.29c-0.253,0.148 -0.507,0.286 -0.761,0.424c-0.774,0.418 -1.566,0.807 -2.366,1.168c-0.267,0.115 -0.522,0.226 -0.786,0.335c-0.533,0.228 -1.076,0.443 -1.625,0.638c-0.545,0.206 -1.095,0.391 -1.646,0.559c-0.276,0.085 -0.551,0.17 -0.832,0.25c-0.282,0.081 -0.56,0.155 -0.839,0.229c-0.284,0.071 -0.563,0.145 -0.844,0.21c-0.285,0.07 -0.573,0.13 -0.85,0.188c-1.113,0.237 -2.238,0.419 -3.369,0.551c-0.896,0.104 -1.787,0.17 -2.685,0.204c-0.286,0.011 -0.572,0.021 -0.863,0.029c-0.017,-0.001 -0.027,0.002 -0.033,-0.001c-0.282,0.004 -0.57,0.006 -0.855,0c-0.245,-0.001 -0.486,-0.007 -0.728,-0.015c-1.53,-0.036 -3.067,-0.178 -4.59,-0.421c-0.234,-0.037 -0.469,-0.074 -0.704,-0.12c-0.918,-0.163 -1.834,-0.356 -2.742,-0.598c-0.245,-0.06 -0.487,-0.126 -0.736,-0.197c-0.083,-0.02 -0.171,-0.044 -0.256,-0.073c-0.249,-0.071 -0.493,-0.148 -0.739,-0.225c-0.288,-0.092 -0.575,-0.183 -0.859,-0.281c-0.465,-0.156 -0.927,-0.329 -1.386,-0.507c-0.25,-0.098 -0.51,-0.198 -0.763,-0.304c-0.202,-0.079 -0.4,-0.163 -0.594,-0.254c-0.119,-0.049 -0.242,-0.099 -0.355,-0.154c-0.183,-0.084 -0.368,-0.162 -0.553,-0.256c-0.237,-0.106 -0.477,-0.224 -0.711,-0.335l-0.039,-0.022c-0.497,-0.249 -0.989,-0.506 -1.482,-0.779c-0.49,-0.272 -0.968,-0.555 -1.444,-0.844l-0.038,-0.021c-0.219,-0.14 -0.446,-0.281 -0.661,-0.426c-0.178,-0.107 -0.342,-0.224 -0.51,-0.333c-0.105,-0.067 -0.216,-0.144 -0.317,-0.22c-0.181,-0.115 -0.359,-0.24 -0.532,-0.369c-0.224,-0.16 -0.447,-0.324 -0.662,-0.486c-0.395,-0.295 -0.787,-0.597 -1.164,-0.908c-0.234,-0.188 -0.463,-0.384 -0.693,-0.58c-0.196,-0.166 -0.389,-0.334 -0.581,-0.507c-0.07,-0.057 -0.138,-0.119 -0.198,-0.179c-0.191,-0.173 -0.376,-0.344 -0.558,-0.52c-0.684,-0.644 -1.335,-1.316 -1.958,-2.009c-0.165,-0.175 -0.32,-0.355 -0.474,-0.534c-1.013,-1.163 -1.95,-2.393 -2.788,-3.671c-0.135,-0.201 -0.268,-0.403 -0.399,-0.611c-0.155,-0.237 -0.307,-0.483 -0.452,-0.724c-0.006,-0.003 -0.009,-0.014 -0.019,-0.027c-0.149,-0.252 -0.291,-0.499 -0.431,-0.748c-0.449,-0.781 -0.865,-1.57 -1.251,-2.385c-0.486,-1.032 -0.929,-2.08 -1.315,-3.151c-0.1,-0.266 -0.199,-0.543 -0.289,-0.821c-0.096,-0.273 -0.18,-0.548 -0.272,-0.827c-0.083,-0.275 -0.168,-0.55 -0.248,-0.831c-0.081,-0.282 -0.155,-0.56 -0.23,-0.838c-0.148,-0.556 -0.282,-1.122 -0.397,-1.694c-0.125,-0.568 -0.23,-1.143 -0.317,-1.716c-0.048,-0.281 -0.09,-0.557 -0.134,-0.844c-0.119,-0.871 -0.208,-1.749 -0.261,-2.626c-0.018,-0.288 -0.035,-0.578 -0.043,-0.869c-0.158,-3.837 0.297,-7.723 1.405,-11.519c0.05,-0.2 0.108,-0.397 0.176,-0.595c0.134,-0.425 0.273,-0.857 0.424,-1.281l0.002,-0.006c0.081,-0.236 0.166,-0.466 0.256,-0.706c0.26,-0.711 0.552,-1.42 0.87,-2.116c0.101,-0.229 0.205,-0.461 0.318,-0.695c0.079,-0.176 0.166,-0.347 0.247,-0.523c0.126,-0.243 0.25,-0.48 0.375,-0.722c0.145,-0.276 0.289,-0.551 0.439,-0.822l28.985,-52.259l8.71,-15.702c3.278,-5.909 7.971,-10.543 13.427,-13.712c4.621,-2.701 9.797,-4.342 15.111,-4.812c6.975,-0.627 14.198,0.756 20.767,4.399c6.569,3.643 11.567,9.038 14.728,15.286c0.569,-0.505 1.106,-1.046 1.618,-1.617l1.119,-1.35c0.218,-0.285 0.437,-0.587 0.643,-0.898l0.424,-0.643c0.018,-0.033 0.037,-0.066 0.064,-0.101l0.265,-0.445c0.078,-0.143 0.175,-0.302 0.268,-0.469l12.259,-22.103c-4.755,-5.295 -10.458,-9.906 -17.029,-13.55c-6.568,-3.643 -13.5,-6.04 -20.511,-7.272c-5.49,-0.962 -11.033,-1.209 -16.494,-0.777c-6.683,0.524 -13.249,2.063 -19.452,4.547c-8.045,3.214 -15.489,8.014 -21.801,14.254c-4.359,4.304 -8.18,9.285 -11.296,14.902l-37.695,67.962c-0.276,0.497 -0.542,0.993 -0.803,1.492c-0.454,0.865 -0.878,1.738 -1.287,2.612c-0.21,0.458 -0.416,0.92 -0.617,1.376l-0.012,0.019c-0.236,0.546 -0.47,1.092 -0.696,1.636c-0.015,0.06 -0.046,0.111 -0.064,0.16c-0.227,0.577 -0.449,1.147 -0.666,1.72c-0.446,1.184 -0.854,2.379 -1.217,3.583c-0.181,0.601 -0.359,1.197 -0.527,1.806c-0.165,0.602 -0.322,1.202 -0.472,1.812c-0.136,0.55 -0.266,1.105 -0.39,1.663c-0.017,0.092 -0.037,0.175 -0.057,0.256c-0.255,1.179 -0.473,2.363 -0.655,3.547c-0.001,0.016 -0.002,0.032 -0.009,0.046c-0.091,0.593 -0.176,1.188 -0.251,1.78c-0.08,0.618 -0.146,1.224 -0.205,1.835c-0.062,0.616 -0.113,1.223 -0.154,1.835c-0.04,0.511 -0.071,1.027 -0.092,1.541c-0.016,0.193 -0.02,0.386 -0.026,0.578c-0.017,0.397 -0.028,0.797 -0.038,1.196c-0.008,0.167 -0.007,0.335 -0.011,0.495c-0.007,0.563 -0.005,1.123 0.005,1.686c0,0.609 0.017,1.22 0.044,1.827c0.024,0.598 0.058,1.192 0.099,1.791c0.005,0.052 0.002,0.103 0.011,0.149c0.038,0.555 0.08,1.103 0.137,1.658c0.002,0.045 0.002,0.088 0.014,0.127c0.045,0.5 0.1,0.995 0.154,1.491c0.062,0.516 0.136,1.023 0.21,1.53c0.039,0.283 0.076,0.566 0.13,0.85c0.069,0.488 0.154,0.974 0.242,1.455c0.1,0.554 0.208,1.105 0.318,1.657c0.015,0.093 0.034,0.18 0.054,0.268c0.12,0.548 0.238,1.096 0.371,1.635c0.117,0.506 0.241,0.998 0.374,1.494c0.067,0.274 0.141,0.553 0.222,0.834c0.085,0.352 0.189,0.697 0.299,1.046c0.135,0.489 0.291,0.974 0.448,1.451Z" style="fill:#5eead4;fill-rule:nonzero;"/></g></g></g></svg>