<?xml version="1.0" encoding="UTF-8" standalone="no"?><!DOCTYPE svg PUBLIC "-//W3C//DTD SVG 1.1//EN" "http://www.w3.org/Graphics/SVG/1.1/DTD/svg11.dtd"><svg width="100%" height="100%" viewBox="0 0 10759 1555" version="1.1" xmlns="http://www.w3.org/2000/svg" xmlns:xlink="http://www.w3.org/1999/xlink" xml:space="preserve" xmlns:serif="http://www.serif.com/" style="fill-rule:evenodd;clip-rule:evenodd;stroke-linejoin:round;stroke-miterlimit:2;"><rect id="vanityURLs-link-logo-dark-slim" x="0" y="3.203" width="10756.2" height="1550" style="fill:#0f766e;"/><clipPath id="_clip1"><rect x="0" y="3.203" width="10756.2" height="1550"/></clipPath><g clip-path="url(#_clip1)"><g><g><path d="M3396.62,1051.87l2.4,92.4l3.6,-0l36,-94.8l164.4,-312l166.8,-0l-367.2,606l-91.2,-0l-117.6,-606l163.2,-0l39.6,314.4Z" style="fill:#fff;fill-rule:nonzero;"/><path d="M4170.62,1097.47c-6.4,30.4 -11,61.2 -13.8,92.4c-2.8,31.2 -4.2,60.8 -4.2,88.8c0,11.2 0.2,21.8 0.6,31.8c0.4,10 1,19.4 1.8,28.2l-109.2,-0l-16.8,-103.2l-4.8,-0c-8.8,14.4 -20.2,28.6 -34.2,42.6c-14,14 -29.4,26.8 -46.2,38.4c-16.8,11.6 -34.6,20.8 -53.4,27.6c-18.8,6.8 -38.2,10.2 -58.2,10.2c-52.8,-0 -91.8,-17.2 -117,-51.6c-25.2,-34.4 -37.8,-80.4 -37.8,-138c0,-58.4 7.4,-114.4 22.2,-168c14.8,-53.6 37.8,-100.8 69,-141.6c31.2,-40.8 70.6,-73.4 118.2,-97.8c47.6,-24.4 104.2,-36.6 169.8,-36.6c28,-0 58.6,2.6 91.8,7.8c33.2,5.2 65.4,12.2 96.6,21l-74.4,348Zm-282,133.2c14.4,-0 28,-3 40.8,-9c12.8,-6 24.6,-13.8 35.4,-23.4c10.8,-9.6 20.4,-20 28.8,-31.2c8.4,-11.2 15.8,-21.6 22.2,-31.2l60,-279.6c-8.8,-4 -19,-7 -30.6,-9c-11.6,-2 -23,-3 -34.2,-3c-28.8,-0 -54.4,8.6 -76.8,25.8c-22.4,17.2 -41.4,39.6 -57,67.2c-15.6,27.6 -27.4,58.8 -35.4,93.6c-8,34.8 -12,69.8 -12,105c0,25.6 4.2,47.8 12.6,66.6c8.4,18.8 23.8,28.2 46.2,28.2Z" style="fill:#fff;fill-rule:nonzero;"/><path d="M4564.23,1337.47l79.2,-372c4.8,-22.4 7.2,-42 7.2,-58.8c0,-17.6 -3.6,-31.4 -10.8,-41.4c-7.2,-10 -20.4,-15 -39.6,-15c-14.4,-0 -28.8,3.6 -43.2,10.8c-14.4,7.2 -28,16.8 -40.8,28.8c-12.8,12 -24.8,25.4 -36,40.2c-11.2,14.8 -20.8,29.8 -28.8,45l-76.8,362.4l-147.6,-0l127.2,-600l111.6,-0l-6,105.6l4.8,-0c10.4,-12.8 22.6,-26.4 36.6,-40.8c14,-14.4 30.2,-27.6 48.6,-39.6c18.4,-12 39,-22 61.8,-30c22.8,-8 48.6,-12 77.4,-12c36,-0 64.8,9.8 86.4,29.4c21.6,19.6 32.4,52.2 32.4,97.8c0,12 -0.6,24.8 -1.8,38.4c-1.2,13.6 -3.8,28.4 -7.8,44.4l-86.4,406.8l-147.6,-0Z" style="fill:#fff;fill-rule:nonzero;"/><path d="M4954.23,737.467l147.6,-0l-127.2,600l-147.6,-0l127.2,-600Zm24,-170.4c0,-26.4 8.6,-46.8 25.8,-61.2c17.2,-14.4 39,-21.6 65.4,-21.6c25.6,-0 47.4,7.2 65.4,21.6c18,14.4 27,34.8 27,61.2c0,25.6 -9,45.8 -27,60.6c-18,14.8 -39.8,22.2 -65.4,22.2c-26.4,-0 -48.2,-7.4 -65.4,-22.2c-17.2,-14.8 -25.8,-35 -25.8,-60.6Z" style="fill:#fff;fill-rule:nonzero;"/><path d="M5166.62,737.467l78,-0l24,-112.8l157.2,-44.4l-33.6,157.2l140.4,-0l-27.6,123.6l-139.2,-0l-58.8,271.2c-4.8,21.6 -7.2,39.2 -7.2,52.8c0,17.6 4,29.6 12,36c8,6.4 20,9.6 36,9.6c15.2,-0 29,-1.6 41.4,-4.8c12.4,-3.2 25.4,-8.4 39,-15.6l0,110.4c-8.8,4.8 -19.4,9.4 -31.8,13.8c-12.4,4.4 -25.8,8 -40.2,10.8c-14.4,2.8 -29.2,5 -44.4,6.6c-15.2,1.6 -29.2,2.4 -42,2.4c-40.8,-0 -72.2,-9.4 -94.2,-28.2c-22,-18.8 -33,-47.4 -33,-85.8c0,-8 0.6,-16.4 1.8,-25.2c1.2,-8.8 2.6,-18 4.2,-27.6l69.6,-326.4l-80.4,-0l28.8,-123.6Z" style="fill:#fff;fill-rule:nonzero;"/><path d="M5777.43,1074.67l1.2,93.6l7.2,-0l32.4,-94.8l163.2,-336l157.2,-0l-288,538.8c-24,44.8 -46.6,86 -67.8,123.6c-21.2,37.6 -42.6,70 -64.2,97.2c-21.6,27.2 -44,48.4 -67.2,63.6c-23.2,15.2 -48,22.8 -74.4,22.8c-35.2,-0 -61.6,-6 -79.2,-18l39.6,-117.6c4.8,2.4 9.8,4 15,4.8c5.2,0.8 10.2,1.2 15,1.2c19.2,-0 38.8,-9.2 58.8,-27.6c20,-18.4 40,-48 60,-88.8l-112.8,-600l169.2,-0l34.8,337.2Z" style="fill:#fff;fill-rule:nonzero;"/><path d="M6757.82,497.467l146.4,-0l-114,542.4c-12,57.6 -27.6,106.2 -46.8,145.8c-19.2,39.6 -42.4,71.8 -69.6,96.6c-27.2,24.8 -59.2,42.6 -96,53.4c-36.8,10.8 -79.2,16.2 -127.2,16.2c-46.4,-0 -85.6,-5.4 -117.6,-16.2c-32,-10.8 -58.2,-26.2 -78.6,-46.2c-20.4,-20 -35.2,-43.6 -44.4,-70.8c-9.2,-27.2 -13.8,-57.2 -13.8,-90c0,-16 1,-32.4 3,-49.2c2,-16.8 5,-34.4 9,-52.8l112.8,-529.2l154.8,-0l-110.4,528c-6.4,30.4 -9.6,55.2 -9.6,74.4c0,38.4 10,65.6 30,81.6c20,16 49.2,24 87.6,24c48,-0 85.2,-14 111.6,-42c26.4,-28 46.4,-73.2 60,-135.6l112.8,-530.4Z" style="fill:#fff;fill-rule:nonzero;"/><path d="M7031.43,505.867c38.4,-7.2 77.2,-12.4 116.4,-15.6c39.2,-3.2 74.4,-4.8 105.6,-4.8c36.8,-0 71.6,4.4 104.4,13.2c32.8,8.8 61.2,22.2 85.2,40.2c24,18 43,41.2 57,69.6c14,28.4 21,61.8 21,100.2c0,44 -6.6,82.2 -19.8,114.6c-13.2,32.4 -30.6,59.6 -52.2,81.6c-21.6,22 -46.2,39.2 -73.8,51.6c-27.6,12.4 -55.8,20.6 -84.6,24.6l46.8,37.2l116.4,319.2l-172.8,-0l-115.2,-328.8l-82.8,-15.6l-72,344.4l-156,-0l176.4,-831.6Zm75.6,375.6l63.6,-0c23.2,-0 46,-2.2 68.4,-6.6c22.4,-4.4 42.2,-12.4 59.4,-24c17.2,-11.6 31.2,-27 42,-46.2c10.8,-19.2 16.2,-43.6 16.2,-73.2c0,-27.2 -9.2,-50.6 -27.6,-70.2c-18.4,-19.6 -48,-29.4 -88.8,-29.4c-16,-0 -31,0.6 -45,1.8c-14,1.2 -25.8,2.6 -35.4,4.2l-52.8,243.6Z" style="fill:#fff;fill-rule:nonzero;"/><path d="M8049.03,1337.47l-505.2,-0l177.6,-840l156,-0l-147.6,693.6l349.2,-0l-30,146.4Z" style="fill:#fff;fill-rule:nonzero;"/><path d="M8147.43,1197.07c16,8.8 36.6,16.6 61.8,23.4c25.2,6.8 51.8,10.2 79.8,10.2c28,-0 49.4,-5.4 64.2,-16.2c14.8,-10.8 22.6,-27.4 23.4,-49.8c0,-16 -4.8,-29.8 -14.4,-41.4c-9.6,-11.6 -21.8,-22.6 -36.6,-33c-14.8,-10.4 -30.6,-21 -47.4,-31.8c-16.8,-10.8 -32.6,-23.2 -47.4,-37.2c-14.8,-14 -27,-30.6 -36.6,-49.8c-9.6,-19.2 -14.4,-42.4 -14.4,-69.6c0,-26.4 5.2,-50.8 15.6,-73.2c10.4,-22.4 25,-41.6 43.8,-57.6c18.8,-16 41.6,-28.4 68.4,-37.2c26.8,-8.8 57,-13.2 90.6,-13.2c46.4,-0 84.8,3.4 115.2,10.2c30.4,6.8 54.4,15.4 72,25.8l-40.8,112.8c-16,-7.2 -35.4,-13.2 -58.2,-18c-22.8,-4.8 -46.6,-7.2 -71.4,-7.2c-25.6,-0 -45.8,4.4 -60.6,13.2c-14.8,8.8 -22.2,22.8 -22.2,42c0,12.8 4.8,24.2 14.4,34.2c9.6,10 21.8,20.2 36.6,30.6c14.8,10.4 30.6,21 47.4,31.8c16.8,10.8 32.6,23.8 47.4,39c14.8,15.2 27,32.6 36.6,52.2c9.6,19.6 14.4,43 14.4,70.2c0,66.4 -21.6,115.8 -64.8,148.2c-43.2,32.4 -100.8,48.6 -172.8,48.6c-40.8,-0 -78.2,-3.8 -112.2,-11.4c-34,-7.6 -60.2,-17 -78.6,-28.2l46.8,-117.6Z" style="fill:#fff;fill-rule:nonzero;"/><path d="M8616.62,1258.27c0,-28 8.8,-50.2 26.4,-66.6c17.6,-16.4 40.8,-24.6 69.6,-24.6c29.6,-0 53.2,8.2 70.8,24.6c17.6,16.4 26.4,38.6 26.4,66.6c0,28 -8.8,50.4 -26.4,67.2c-17.6,16.8 -41.2,25.2 -70.8,25.2c-28.8,-0 -52,-8.4 -69.6,-25.2c-17.6,-16.8 -26.4,-39.2 -26.4,-67.2Z" style="fill:#2dd4bf;fill-rule:nonzero;"/><path d="M9079.83,1159.87c-4.8,23.2 -4.6,40.4 0.6,51.6c5.2,11.2 13.8,16.8 25.8,16.8c22.4,-0 43.6,-4.4 63.6,-13.2l-3.6,106.8c-14.4,8.8 -35.2,16 -62.4,21.6c-27.2,5.6 -54,8.4 -80.4,8.4c-34.4,-0 -60.6,-6.6 -78.6,-19.8c-18,-13.2 -27,-37.8 -27,-73.8c0,-18.4 2.4,-39.6 7.2,-63.6l147.6,-697.2l147.6,-0l-140.4,662.4Z" style="fill:#fff;fill-rule:nonzero;"/><path d="M9364.23,737.467l147.6,-0l-127.2,600l-147.6,-0l127.2,-600Zm24,-170.4c0,-26.4 8.6,-46.8 25.8,-61.2c17.2,-14.4 39,-21.6 65.4,-21.6c25.6,-0 47.4,7.2 65.4,21.6c18,14.4 27,34.8 27,61.2c0,25.6 -9,45.8 -27,60.6c-18,14.8 -39.8,22.2 -65.4,22.2c-26.4,-0 -48.2,-7.4 -65.4,-22.2c-17.2,-14.8 -25.8,-35 -25.8,-60.6Z" style="fill:#fff;fill-rule:nonzero;"/><path d="M9870.62,1337.47l79.2,-372c4.8,-22.4 7.2,-42 7.2,-58.8c0,-17.6 -3.6,-31.4 -10.8,-41.4c-7.2,-10 -20.4,-15 -39.6,-15c-14.4,-0 -28.8,3.6 -43.2,10.8c-14.4,7.2 -28,16.8 -40.8,28.8c-12.8,12 -24.8,25.4 -36,40.2c-11.2,14.8 -20.8,29.8 -28.8,45l-76.8,362.4l-147.6,-0l127.2,-600l111.6,-0l-6,105.6l4.8,-0c10.4,-12.8 22.6,-26.4 36.6,-40.8c14,-14.4 30.2,-27.6 48.6,-39.6c18.4,-12 39,-22 61.8,-30c22.8,-8 48.6,-12 77.4,-12c36,-0 64.8,9.8 86.4,29.4c21.6,19.6 32.4,52.2 32.4,97.8c0,12 -0.6,24.8 -1.8,38.4c-1.2,13.6 -3.8,28.4 -7.8,44.4l-86.4,406.8l-147.6,-0Z" style="fill:#fff;fill-rule:nonzero;"/><path d="M10405.8,1089.07l-48,-0l-51.6,248.4l-147.6,-0l177.6,-840l147.6,-0l-105.6,495.6l44.4,-15.6l169.2,-240l164.4,-0l-178.8,241.2l-72,45.6l54,45.6l91.2,267.6l-158.4,-0l-86.4,-248.4Z" style="fill:#fff;fill-rule:nonzero;"/></g><g><path d="M332.375,998.459l3.933,151.425c0,0 5.518,0.915 5.9,0c10.816,-25.893 58.997,-155.359 58.997,-155.359l269.42,-511.307l273.353,-0l-601.77,993.117l-149.459,-0l-192.724,-993.117l267.453,-0l64.897,515.241Z" style="fill:#fff;fill-rule:nonzero;"/><path d="M1948.89,1236.41c26.221,14.422 59.981,27.205 101.278,38.348c41.298,11.144 84.891,16.716 130.777,16.716c45.887,0 80.957,-8.849 105.212,-26.548c24.254,-17.699 37.037,-44.904 38.348,-81.613c-0,-26.221 -7.866,-48.836 -23.599,-67.847c-15.733,-19.01 -35.726,-37.037 -59.98,-54.08c-24.255,-17.044 -50.148,-34.415 -77.68,-52.114c-27.532,-17.699 -53.425,-38.021 -77.679,-60.964c-24.255,-22.943 -44.248,-50.147 -59.981,-81.612c-15.732,-31.466 -23.598,-69.486 -23.598,-114.061c-0,-43.265 8.521,-83.252 25.565,-119.961c17.044,-36.709 40.97,-68.174 71.78,-94.395c30.809,-26.221 68.174,-46.542 112.094,-60.964c43.92,-14.421 93.412,-21.632 148.476,-21.632c76.041,-0 138.971,5.572 188.791,16.716c49.819,11.143 89.151,25.237 117.994,42.281l-66.864,184.857c-26.221,-11.799 -58.013,-21.632 -95.378,-29.498c-37.365,-7.867 -76.369,-11.8 -117.011,-11.8c-41.953,0 -75.057,7.211 -99.312,21.633c-24.254,14.421 -36.381,37.364 -36.381,68.829c-0,20.977 7.866,39.66 23.599,56.048c15.732,16.388 35.726,33.104 59.98,50.147c24.254,17.044 50.147,34.415 77.679,52.114c27.532,17.699 53.425,39.004 77.68,63.914c24.254,24.91 44.248,53.425 59.98,85.545c15.733,32.121 23.599,70.469 23.599,115.045c-0,108.816 -35.398,189.773 -106.195,242.871c-70.796,53.097 -165.191,79.646 -283.186,79.646c-66.863,-0 -128.154,-6.228 -183.874,-18.683c-55.719,-12.454 -98.656,-27.859 -128.81,-46.214l76.696,-192.724Z" style="fill:#fff;fill-rule:nonzero;"/><g><path d="M1481.47,1088.28c-14.428,1.41 -28.943,1.889 -43.46,1.495l-87.59,181.197c-41.044,84.928 -141.55,116.809 -224.046,71.084c-82.505,-45.729 -116.224,-152.005 -75.172,-236.929l122.67,-253.807l36.844,-76.217c0.636,-1.317 1.304,-2.622 1.979,-3.923c0.588,-1.153 1.162,-2.265 1.758,-3.413c0.456,-0.784 0.882,-1.579 1.338,-2.363c0.595,-1.07 1.199,-2.085 1.81,-3.103c0.758,-1.334 1.562,-2.676 2.416,-3.962c0.424,-0.717 0.911,-1.404 1.356,-2.078c-0,-0.021 0.012,-0.025 0.01,-0.031c0.657,-0.997 1.307,-1.999 1.98,-2.965c0.668,-0.986 1.32,-1.939 2.01,-2.875l0.016,-0.033c0.087,-0.106 0.13,-0.205 0.223,-0.313c0.652,-0.952 1.326,-1.855 2.024,-2.744c0.487,-0.687 0.991,-1.323 1.504,-1.99c0.579,-0.801 1.176,-1.545 1.797,-2.274c0.016,-0.034 0.016,-0.034 0.059,-0.048c0.138,-0.2 0.323,-0.421 0.491,-0.61c0.804,-1.022 1.629,-2.001 2.477,-2.966c0.045,-0.092 0.138,-0.2 0.246,-0.263l0.016,-0.033c0.317,-0.42 0.666,-0.822 1.003,-1.199c0.291,-0.355 0.563,-0.683 0.894,-0.973c-0.014,-0.045 0.016,-0.033 0.016,-0.033c0.26,-0.324 0.559,-0.632 0.843,-0.942c0.297,-0.336 0.597,-0.658 0.9,-0.996c0.316,-0.356 0.633,-0.733 0.981,-1.057c0.306,-0.346 0.627,-0.71 0.952,-1.062c0.187,-0.194 0.384,-0.377 0.569,-0.578c0.006,-0.002 0.01,-0.01 0.022,-0.014l0.004,-0.009c0.851,-0.894 1.723,-1.767 2.596,-2.634c0.573,-0.587 1.16,-1.171 1.739,-1.738c1.229,-1.185 2.466,-2.345 3.723,-3.482c1.441,-1.302 2.916,-2.601 4.403,-3.84c0.561,-0.519 1.173,-0.983 1.754,-1.458c0.193,-0.197 0.418,-0.375 0.652,-0.527c0.073,-0.066 0.154,-0.127 0.236,-0.188c1.467,-1.197 2.94,-2.354 4.436,-3.46c0.693,-0.525 1.402,-1.02 2.107,-1.528c0.791,-0.578 1.579,-1.162 2.38,-1.728c1.734,-1.204 3.486,-2.37 5.262,-3.502c0.413,-0.287 0.856,-0.563 1.299,-0.838c1.126,-0.727 2.266,-1.408 3.413,-2.091c3.47,-2.06 7.036,-3.987 10.646,-5.772c1.202,-0.573 2.363,-1.126 3.551,-1.659c2.405,-1.139 4.859,-2.209 7.344,-3.182c2.469,-1.025 4.968,-1.953 7.468,-2.795c1.248,-0.425 2.499,-0.843 3.78,-1.25c1.282,-0.406 2.545,-0.786 3.81,-1.159c1.295,-0.361 2.56,-0.734 3.84,-1.062c0.997,-0.287 1.997,-0.52 2.992,-0.729c0.317,-0.101 0.58,-0.163 0.881,-0.23c5.075,-1.212 10.218,-2.148 15.398,-2.861c1.373,-0.201 2.732,-0.363 4.106,-0.479c2.74,-0.315 5.471,-0.514 8.216,-0.668c1.308,-0.067 2.623,-0.136 3.968,-0.193c0.075,0.004 0.118,-0.009 0.15,0.009c1.29,-0.04 2.619,-0.064 3.932,-0.055c1.131,-0.011 2.241,0.014 3.354,0.03c7.049,0.079 14.155,0.672 21.22,1.754c1.079,0.162 2.166,0.328 3.266,0.533c4.254,0.731 8.509,1.611 12.736,2.72c1.142,0.277 2.28,0.584 3.437,0.906c0.378,0.093 0.796,0.202 1.189,0.34c1.164,0.326 2.305,0.682 3.451,1.035c1.344,0.426 2.688,0.852 4.008,1.307c2.176,0.722 4.339,1.528 6.49,2.358c1.173,0.459 2.382,0.927 3.574,1.423c0.949,0.366 1.873,0.762 2.79,1.195c0.548,0.224 1.132,0.458 1.666,0.722c0.849,0.39 1.723,0.752 2.595,1.193c1.112,0.5 2.24,1.051 3.34,1.575l0.182,0.106c2.334,1.177 4.662,2.377 6.979,3.666c2.322,1.287 4.577,2.617 6.824,3.985l0.186,0.097c1.035,0.659 2.107,1.327 3.123,2.013c0.846,0.506 1.626,1.061 2.421,1.576c0.497,0.318 1.025,0.69 1.506,1.042c0.86,0.551 1.703,1.136 2.522,1.749c1.066,0.756 2.12,1.536 3.149,2.304c1.881,1.398 3.74,2.833 5.545,4.312c1.115,0.889 2.212,1.827 3.31,2.749c0.938,0.797 1.861,1.59 2.783,2.42c0.332,0.264 0.654,0.559 0.946,0.843c0.913,0.826 1.802,1.637 2.672,2.476c3.282,3.064 6.42,6.265 9.43,9.571c0.789,0.837 1.538,1.693 2.286,2.549c4.909,5.544 9.472,11.419 13.595,17.532c0.661,0.962 1.316,1.926 1.959,2.915c0.765,1.142 1.514,2.318 2.231,3.475c0.032,0.018 0.047,0.064 0.096,0.133c0.736,1.201 1.435,2.386 2.135,3.577c1.474,2.487 2.899,4.989 4.214,7.547c7.758,-7.724 14.245,-16.805 19.132,-26.928l51.867,-107.31c-1.189,-1.377 -2.418,-2.691 -3.683,-3.987c-1.256,-1.335 -2.538,-2.689 -3.802,-3.985c-1.362,-1.436 -2.771,-2.849 -4.192,-4.238c-0.991,-0.985 -2,-1.943 -3.009,-2.902c-0.506,-0.556 -1.065,-1.068 -1.638,-1.582c-1.219,-1.155 -2.413,-2.295 -3.649,-3.416c-1.423,-1.31 -2.837,-2.615 -4.25,-3.871c-2.134,-1.901 -4.293,-3.773 -6.456,-5.615c-1.051,-0.86 -2.095,-1.757 -3.165,-2.589c-1.217,-0.999 -2.413,-1.976 -3.644,-2.935c-1.5,-1.235 -3.031,-2.397 -4.555,-3.561c-0.245,-0.221 -0.536,-0.42 -0.795,-0.601c-1.604,-1.245 -3.226,-2.463 -4.852,-3.651c-1.881,-1.399 -3.805,-2.785 -5.761,-4.103c-0.424,-0.32 -0.854,-0.638 -1.3,-0.922c-1.934,-1.354 -3.859,-2.661 -5.828,-3.954c-0.158,-0.077 -0.297,-0.196 -0.446,-0.284c-2.088,-1.354 -4.211,-2.733 -6.367,-4.045c-1.952,-1.241 -3.971,-2.44 -6.02,-3.651c-2.543,-1.537 -5.13,-3.003 -7.754,-4.457c-2.626,-1.461 -5.24,-2.861 -7.875,-4.205c-2.107,-1.093 -4.184,-2.16 -6.26,-3.156c-2.243,-1.121 -4.514,-2.183 -6.76,-3.231c-0.169,-0.046 -0.318,-0.134 -0.473,-0.22c-2.122,-0.974 -4.23,-1.903 -6.381,-2.818c-0.472,-0.22 -0.957,-0.414 -1.454,-0.604c-2.133,-0.943 -4.302,-1.831 -6.452,-2.662c-1.849,-0.748 -3.707,-1.459 -5.588,-2.14c-0.287,-0.122 -0.607,-0.262 -0.911,-0.35c-1.773,-0.659 -3.541,-1.32 -5.343,-1.92c-1.344,-0.511 -2.686,-0.93 -4.046,-1.408c-1.664,-0.565 -3.311,-1.08 -4.991,-1.612c-2.377,-0.759 -4.771,-1.49 -7.182,-2.188c-1.655,-0.434 -3.319,-0.915 -5.011,-1.337c-0.181,-0.105 -0.362,-0.126 -0.576,-0.165c-1.466,-0.408 -2.977,-0.81 -4.471,-1.159c-0.715,-0.2 -1.452,-0.363 -2.152,-0.518c-1.313,-0.329 -2.627,-0.658 -3.95,-0.955c-1.879,-0.441 -3.744,-0.836 -5.619,-1.2c-1.757,-0.373 -3.475,-0.73 -5.26,-1.044c-1.725,-0.355 -3.429,-0.666 -5.173,-0.916c-0.057,-0.031 -0.169,-0.045 -0.244,-0.05c-3.644,-0.626 -7.266,-1.16 -10.911,-1.623c-1.779,-0.231 -3.609,-0.453 -5.413,-0.655c-1.834,-0.213 -3.608,-0.367 -5.428,-0.536l-0.031,-0.011c-3.816,-0.366 -7.632,-0.647 -11.436,-0.846c-1.634,-0.071 -3.24,-0.116 -4.868,-0.188c-1.789,-0.072 -3.615,-0.132 -5.43,-0.138l-0.537,-0.022c-3.385,-0.041 -6.722,-0.019 -10.125,0.052c-0.156,-0.007 -0.305,-0.01 -0.455,-0.019c-1.421,0.053 -2.874,0.088 -4.288,0.139l-1.148,0.045c-5.242,0.2 -10.461,0.577 -15.659,1.083c-0.043,0.014 -0.076,-0.004 -0.124,0.011c-2.757,0.264 -5.549,0.589 -8.34,0.914c-2.757,0.349 -5.502,0.737 -8.262,1.158c-2.759,0.428 -5.504,0.901 -8.217,1.386c-2.761,0.506 -5.458,1.042 -8.184,1.637c-2.714,0.57 -5.43,1.219 -8.145,1.867c-0.441,0.112 -0.881,0.23 -1.322,0.341c-1.097,0.27 -2.211,0.567 -3.308,0.837c-0.705,0.167 -1.379,0.352 -2.044,0.542c-1.114,0.297 -2.227,0.6 -3.319,0.946c-0.265,0.056 -0.49,0.128 -0.771,0.217c-1.548,0.413 -3.088,0.873 -4.644,1.366c-0.447,0.114 -0.856,0.244 -1.265,0.373c-1.586,0.482 -3.185,0.99 -4.759,1.51c-1.281,0.407 -2.53,0.831 -3.746,1.274c-1.481,0.498 -2.924,1.006 -4.391,1.549c-0.742,0.264 -1.509,0.557 -2.251,0.821c-2.398,0.867 -4.791,1.811 -7.183,2.762c-0.384,0.143 -0.776,0.324 -1.153,0.472c-2.379,0.989 -4.756,1.985 -7.119,3.026c-2.059,0.895 -4.131,1.815 -6.154,2.805c-1.218,0.521 -2.395,1.108 -3.567,1.692c-2.12,1.021 -4.237,2.034 -6.353,3.131c-2.031,1.071 -4.056,2.139 -6.065,3.259c-0.183,0.059 -0.351,0.162 -0.518,0.271c-2.253,1.219 -4.448,2.47 -6.658,3.76c-0.199,0.092 -0.378,0.227 -0.595,0.346c-2.373,1.391 -4.718,2.803 -7.05,4.26c-2.38,1.473 -4.738,2.995 -7.055,4.582c-2.165,1.433 -4.293,2.875 -6.414,4.379c-0.592,0.422 -1.23,0.866 -1.842,1.33c-1.491,1.077 -2.985,2.169 -4.448,3.272c-0.715,0.518 -1.431,1.036 -2.13,1.606c-1.892,1.424 -3.761,2.898 -5.606,4.385c-2.207,1.766 -4.383,3.543 -6.557,5.411c-2.166,1.831 -4.293,3.677 -6.431,5.598c-2.058,1.854 -4.095,3.75 -6.106,5.666c-0.027,0.066 -0.086,0.113 -0.153,0.155c-4.016,3.831 -7.944,7.79 -11.752,11.896c-0.254,0.301 -0.518,0.59 -0.814,0.905c-0.476,0.491 -0.9,0.974 -1.343,1.484c-1.354,1.445 -2.662,2.954 -3.962,4.424c-1.913,2.205 -3.783,4.396 -5.639,6.633c-1.878,2.272 -3.668,4.544 -5.475,6.85c-3.622,4.608 -7.097,9.382 -10.423,14.266c-1.616,2.38 -3.195,4.77 -4.79,7.193c-0.138,0.2 -0.259,0.452 -0.44,0.666c-1.493,2.362 -2.997,4.757 -4.443,7.183c-1.197,2.006 -2.416,4.048 -3.599,6.099c-2.251,3.931 -4.454,7.933 -6.553,12.029c-1.22,2.354 -2.402,4.725 -3.568,7.147l-159.516,330.017c-74.539,154.238 -13.282,347.311 136.541,430.357c149.854,83.058 332.402,25.112 406.951,-129.114l139.964,-289.577c-7.388,3.914 -14.99,7.555 -22.719,10.965c-34.378,15.133 -70.828,24.624 -108.335,28.222Z" style="fill:#2dd4bf;fill-rule:nonzero;"/><path d="M1880.41,270.68c-0.399,-1.258 -0.814,-2.482 -1.278,-3.692c-0.565,-1.546 -1.132,-3.099 -1.731,-4.67c-0.352,-1.025 -0.757,-2.047 -1.147,-3.066c-0.769,-1.937 -1.546,-3.92 -2.38,-5.893c-0.19,-0.472 -0.392,-0.94 -0.579,-1.442c-1.101,-2.605 -2.203,-5.21 -3.384,-7.811c-1.231,-2.756 -2.479,-5.527 -3.772,-8.227c-1.236,-2.563 -2.511,-5.141 -3.796,-7.688c-1.358,-2.63 -2.721,-5.251 -4.113,-7.82c-2.569,-4.774 -5.262,-9.452 -8.096,-14.086c-3.486,-5.761 -7.14,-11.413 -10.978,-16.927c-0.996,-1.467 -2.034,-2.92 -3.091,-4.346c-2.969,-4.193 -6.058,-8.298 -9.254,-12.34c-1.083,-1.361 -2.164,-2.715 -3.303,-4.058c-3.585,-4.423 -7.297,-8.757 -11.149,-12.96c-1.261,-1.411 -2.558,-2.811 -3.871,-4.177c-1.248,-1.33 -2.53,-2.684 -3.803,-3.985c-1.36,-1.429 -2.769,-2.843 -4.19,-4.231c-0.99,-0.985 -2,-1.944 -3.009,-2.902c-0.505,-0.556 -1.064,-1.068 -1.637,-1.582c-1.219,-1.155 -2.414,-2.295 -3.645,-3.425c-1.427,-1.301 -2.842,-2.606 -4.254,-3.863c-2.135,-1.9 -4.293,-3.772 -6.456,-5.614c-1.054,-0.866 -2.089,-1.759 -3.165,-2.59c-1.217,-0.998 -2.407,-1.977 -3.646,-2.94c-1.498,-1.23 -3.029,-2.392 -4.553,-3.556c-0.245,-0.22 -0.536,-0.419 -0.789,-0.602c-1.61,-1.243 -3.232,-2.461 -4.858,-3.65c-1.881,-1.398 -3.811,-2.782 -5.757,-4.11c-0.428,-0.312 -0.858,-0.63 -1.304,-0.915c-1.934,-1.353 -3.86,-2.66 -5.828,-3.953c-0.153,-0.079 -0.297,-0.197 -0.446,-0.284c-2.088,-1.355 -4.212,-2.733 -6.367,-4.045c-1.952,-1.242 -3.971,-2.44 -6.02,-3.651c-2.543,-1.537 -5.13,-3.003 -7.748,-4.459c-2.632,-1.459 -5.234,-2.863 -7.882,-4.203c-2.106,-1.093 -4.18,-2.168 -6.259,-3.156c-2.243,-1.121 -4.514,-2.183 -6.761,-3.231c-0.169,-0.046 -0.317,-0.134 -0.472,-0.22c-2.122,-0.974 -4.23,-1.903 -6.381,-2.819c-0.473,-0.219 -0.957,-0.413 -1.454,-0.603c-2.135,-0.95 -4.302,-1.832 -6.452,-2.662c-1.85,-0.748 -3.707,-1.459 -5.589,-2.14c-0.287,-0.122 -0.606,-0.262 -0.91,-0.35c-1.774,-0.659 -3.543,-1.326 -5.345,-1.926c-1.342,-0.505 -2.684,-0.924 -4.039,-1.404c-1.669,-0.564 -3.317,-1.078 -4.99,-1.612c-2.389,-0.755 -4.777,-1.488 -7.188,-2.187c-1.649,-0.435 -3.313,-0.916 -5.011,-1.336c-0.181,-0.105 -0.362,-0.126 -0.576,-0.165c-1.468,-0.415 -2.979,-0.816 -4.473,-1.166c-0.713,-0.193 -1.45,-0.357 -2.15,-0.511c-1.314,-0.329 -2.627,-0.658 -3.95,-0.955c-1.879,-0.441 -3.744,-0.836 -5.619,-1.2c-1.751,-0.375 -3.475,-0.73 -5.261,-1.044c-1.799,-0.359 -3.615,-0.685 -5.417,-0.966c-3.644,-0.626 -7.259,-1.162 -10.904,-1.625c-1.788,-0.236 -3.615,-0.451 -5.419,-0.653c-1.834,-0.213 -3.641,-0.386 -5.461,-0.554c-3.814,-0.359 -7.624,-0.642 -11.434,-0.839c-1.635,-0.071 -3.242,-0.122 -4.869,-0.189c-1.789,-0.071 -3.614,-0.131 -5.429,-0.137c-3.718,-0.078 -7.41,-0.05 -11.118,0.011c-1.693,0.062 -3.388,0.117 -5.081,0.178c-5.398,0.193 -10.76,0.566 -16.132,1.098c-2.757,0.264 -5.548,0.589 -8.339,0.914c-2.763,0.351 -5.502,0.737 -8.263,1.158c-2.764,0.43 -5.505,0.894 -8.217,1.385c-2.76,0.507 -5.458,1.043 -8.19,1.64c-2.713,0.57 -5.423,1.217 -8.138,1.865c-2.242,0.555 -4.453,1.122 -6.68,1.722c-1.115,0.297 -2.221,0.598 -3.32,0.946c-2.221,0.599 -4.476,1.257 -6.679,1.956c-1.582,0.474 -3.181,0.981 -4.753,1.508c-1.281,0.407 -2.53,0.831 -3.746,1.274c-2.225,0.756 -4.44,1.565 -6.648,2.372c-2.392,0.865 -4.785,1.809 -7.177,2.76c-0.384,0.143 -0.776,0.324 -1.155,0.466c-2.383,0.997 -4.754,1.991 -7.123,3.034c-2.053,0.893 -4.132,1.815 -6.149,2.803c-1.224,0.523 -2.401,1.11 -3.574,1.688c-2.114,1.019 -4.229,2.038 -6.345,3.135c-2.031,1.071 -4.062,2.141 -6.065,3.259c-0.183,0.059 -0.358,0.164 -0.52,0.265c-2.251,1.225 -4.452,2.478 -6.662,3.768c-0.193,0.09 -0.378,0.227 -0.59,0.344c-2.378,1.393 -4.724,2.805 -7.055,4.262c-2.374,1.471 -4.738,2.995 -7.049,4.58c-2.165,1.433 -4.299,2.877 -6.423,4.374c-0.583,0.427 -1.227,0.873 -1.835,1.328c-1.495,1.086 -2.983,2.176 -4.446,3.279c-0.716,0.518 -1.437,1.038 -2.136,1.608c-1.886,1.422 -3.755,2.896 -5.6,4.383c-2.207,1.765 -4.389,3.544 -6.565,5.407c-2.164,1.837 -4.294,3.677 -6.423,5.602c-2.058,1.854 -4.095,3.75 -6.106,5.666c-0.033,0.068 -0.088,0.106 -0.153,0.155c-4.016,3.831 -7.944,7.79 -11.752,11.896c-0.254,0.301 -0.518,0.59 -0.823,0.9c-1.795,1.962 -3.556,3.926 -5.296,5.913c-1.919,2.207 -3.783,4.396 -5.639,6.633c-1.878,2.272 -3.669,4.544 -5.484,6.846c-3.619,4.614 -7.088,9.386 -10.421,14.271c-1.609,2.379 -3.194,4.771 -4.783,7.192c-0.144,0.202 -0.266,0.454 -0.446,0.667c-1.494,2.363 -2.997,4.758 -4.444,7.184c-1.196,2.006 -2.418,4.041 -3.6,6.092c-2.25,3.938 -4.454,7.933 -6.551,12.036c-1.214,2.352 -2.396,4.723 -3.568,7.147l-139.982,289.603c0.902,-0.499 1.799,-0.997 2.716,-1.451l0.421,-0.24c2.582,-1.324 5.107,-2.551 7.681,-3.794c1.631,-0.808 3.202,-1.57 4.831,-2.299c2.422,-1.173 4.892,-2.277 7.33,-3.313c2.713,-1.209 5.425,-2.332 8.105,-3.474l0.875,-0.355c0.516,-0.192 1,-0.403 1.443,-0.593c2.975,-1.186 5.959,-2.324 8.918,-3.39c2.3,-0.837 4.75,-1.749 7.223,-2.612c1.676,-0.581 3.399,-1.185 5.137,-1.736c1.89,-0.628 3.812,-1.238 5.711,-1.812c2.547,-0.78 5.167,-1.561 7.76,-2.277c1.497,-0.447 3.018,-0.88 4.558,-1.255c2.593,-0.716 5.26,-1.434 7.969,-2.081l0.399,-0.098c3.2,-0.774 6.42,-1.504 9.618,-2.199c3.374,-0.73 6.713,-1.384 10.157,-2.023c3.35,-0.615 6.648,-1.186 9.942,-1.663c3.381,-0.518 6.706,-0.984 10.044,-1.404l0.548,-0.095c3.353,-0.375 6.514,-0.739 9.684,-1.056c6.542,-0.634 13.316,-1.107 19.935,-1.347l6.404,-0.199c4.33,-0.067 8.649,-0.109 12.977,-0.013c1.386,0.008 2.774,0.022 4.134,0.095l87.594,-181.226c0.636,-1.317 1.303,-2.622 1.976,-3.93c0.591,-1.146 1.17,-2.26 1.76,-3.406c0.457,-0.784 0.881,-1.586 1.339,-2.363c0.594,-1.07 1.199,-2.085 1.81,-3.103c1.803,-3.1 3.747,-6.139 5.76,-9.043c0.676,-0.981 1.327,-1.934 2.005,-2.866l0.017,-0.034c0.097,-0.116 0.142,-0.208 0.229,-0.314c0.658,-0.954 1.331,-1.857 2.024,-2.744c0.493,-0.689 0.99,-1.323 1.508,-1.998c0.574,-0.793 1.177,-1.539 1.791,-2.273c11.524,-14.373 25.093,-26.341 40.062,-35.699c1.132,-0.729 2.272,-1.41 3.412,-2.091c3.477,-2.062 7.042,-3.989 10.653,-5.774c1.202,-0.573 2.357,-1.124 3.548,-1.665c2.408,-1.133 4.862,-2.203 7.347,-3.176c2.469,-1.025 4.962,-1.951 7.461,-2.793c1.255,-0.427 2.504,-0.852 3.779,-1.256c1.281,-0.407 2.546,-0.78 3.818,-1.155c1.289,-0.359 2.56,-0.734 3.84,-1.062c1.297,-0.355 2.609,-0.664 3.873,-0.959c5.075,-1.212 10.216,-2.154 15.398,-2.861c4.101,-0.556 8.187,-0.929 12.316,-1.145c1.314,-0.069 2.628,-0.138 3.967,-0.194c0.076,0.005 0.125,-0.011 0.149,0.003c1.298,-0.035 2.627,-0.059 3.94,-0.05c1.125,-0.009 2.238,0.007 3.354,0.03c7.049,0.079 14.155,0.672 21.214,1.756c1.085,0.16 2.172,0.326 3.265,0.533c4.261,0.729 8.516,1.609 12.743,2.718c1.142,0.277 2.272,0.579 3.43,0.908c0.385,0.091 0.797,0.201 1.196,0.338c1.158,0.328 2.299,0.684 3.445,1.037c1.344,0.426 2.688,0.852 4.013,1.305c2.171,0.724 4.334,1.529 6.484,2.36c1.173,0.459 2.389,0.925 3.575,1.423c0.949,0.366 1.873,0.761 2.788,1.189c0.556,0.228 1.134,0.463 1.666,0.721c0.857,0.395 1.725,0.759 2.597,1.2c1.112,0.499 2.24,1.05 3.34,1.575l0.188,0.104c2.338,1.168 4.656,2.379 6.978,3.666c2.315,1.283 4.572,2.619 6.825,3.985l0.18,0.099c1.035,0.659 2.106,1.327 3.129,2.011c0.84,0.508 1.62,1.063 2.415,1.578c0.497,0.318 1.023,0.684 1.506,1.042c0.857,0.544 1.703,1.135 2.522,1.749c1.066,0.756 2.126,1.534 3.149,2.303c1.881,1.399 3.745,2.832 5.543,4.307c1.117,0.895 2.211,1.826 3.312,2.755c0.936,0.79 1.861,1.59 2.781,2.414c0.334,0.27 0.656,0.565 0.947,0.849c0.914,0.826 1.802,1.637 2.673,2.476c3.282,3.063 6.42,6.265 9.43,9.571c0.795,0.835 1.544,1.691 2.292,2.547c4.903,5.546 9.466,11.42 13.589,17.534c0.661,0.962 1.316,1.926 1.961,2.922c0.763,1.135 1.512,2.311 2.228,3.468c0.031,0.012 0.047,0.063 0.094,0.127c0.739,1.207 1.444,2.39 2.138,3.583c2.227,3.739 4.306,7.518 6.25,11.425c2.45,4.947 4.704,9.977 6.704,15.116c0.513,1.279 1.028,2.607 1.499,3.942c0.497,1.312 0.943,2.634 1.422,3.973c0.44,1.324 0.886,2.645 1.314,3.994c0.43,1.355 0.827,2.692 1.23,4.027c0.795,2.673 1.53,5.394 2.175,8.144c0.693,2.735 1.294,5.498 1.814,8.259c0.281,1.353 0.528,2.681 0.791,4.06c0.726,4.194 1.316,8.424 1.744,12.649c0.139,1.391 0.28,2.788 0.376,4.192c1.516,18.495 0.224,37.263 -4.094,55.635c-0.189,0.969 -0.418,1.922 -0.691,2.882c-0.529,2.057 -1.081,4.15 -1.685,6.202l-0.01,0.032c-0.324,1.139 -0.668,2.257 -1.032,3.416c-1.05,3.444 -2.248,6.885 -3.568,10.258c-0.419,1.113 -0.849,2.237 -1.321,3.374c-0.328,0.849 -0.695,1.683 -1.029,2.535c-0.533,1.177 -1.054,2.33 -1.581,3.505c-0.61,1.337 -1.214,2.672 -1.85,3.989l-122.66,253.776l-36.86,76.25c-13.87,28.696 -34.52,51.326 -58.982,66.935c-20.714,13.304 -44.201,21.53 -68.57,24.12c-31.976,3.441 -65.511,-2.793 -96.501,-19.969c-30.987,-17.17 -55.104,-42.89 -70.944,-72.833c-2.512,2.473 -4.872,5.111 -7.111,7.895l-4.876,6.582c-0.944,1.386 -1.888,2.857 -2.772,4.366l-1.822,3.128c-0.077,0.159 -0.154,0.319 -0.273,0.492l-1.128,2.161c-0.33,0.694 -0.744,1.465 -1.137,2.279l-51.879,107.334c22.98,25.25 50.181,47.144 81.178,64.324c30.987,17.17 63.388,28.316 95.916,33.833c25.47,4.312 51.034,5.171 76.083,2.756c30.654,-2.93 60.565,-10.744 88.605,-23.099c36.371,-15.985 69.648,-39.582 97.42,-70.054c19.18,-21.02 35.742,-45.272 48.927,-72.55l159.52,-330.026c1.167,-2.416 2.29,-4.825 3.389,-7.247c1.911,-4.2 3.684,-8.434 5.387,-12.675c0.873,-2.222 1.728,-4.461 2.558,-6.67l0.051,-0.094c0.973,-2.646 1.939,-5.296 2.868,-7.934c0.057,-0.288 0.187,-0.535 0.259,-0.771c0.925,-2.801 1.83,-5.559 2.714,-8.339c1.806,-5.737 3.442,-11.525 4.863,-17.352c0.709,-2.909 1.406,-5.794 2.056,-8.741c0.633,-2.914 1.23,-5.816 1.798,-8.766c0.512,-2.663 0.998,-5.345 1.451,-8.045c0.06,-0.445 0.134,-0.846 0.211,-1.239c0.931,-5.7 1.688,-11.423 2.284,-17.144c0.001,-0.079 0.003,-0.158 0.03,-0.223c0.3,-2.865 0.569,-5.741 0.789,-8.602c0.243,-2.982 0.423,-5.908 0.568,-8.858c0.157,-2.976 0.268,-5.909 0.331,-8.862c0.077,-2.468 0.113,-4.958 0.106,-7.434c0.033,-0.934 0.013,-1.865 0.001,-2.791c-0.003,-1.917 -0.038,-3.844 -0.072,-5.773c0.001,-0.802 -0.035,-1.615 -0.051,-2.384c-0.082,-2.715 -0.208,-5.416 -0.371,-8.134c-0.126,-2.936 -0.329,-5.883 -0.579,-8.808c-0.235,-2.879 -0.513,-5.745 -0.824,-8.63c-0.033,-0.252 -0.029,-0.495 -0.08,-0.72c-0.29,-2.67 -0.598,-5.314 -0.976,-7.985c-0.015,-0.216 -0.027,-0.425 -0.087,-0.612c-0.313,-2.407 -0.668,-4.795 -1.016,-7.184c-0.392,-2.482 -0.838,-4.926 -1.282,-7.363c-0.239,-1.366 -0.469,-2.727 -0.775,-4.093c-0.415,-2.347 -0.91,-4.69 -1.415,-7.001c-0.571,-2.667 -1.184,-5.32 -1.804,-7.971c-0.088,-0.448 -0.195,-0.869 -0.301,-1.289c-0.669,-2.636 -1.325,-5.276 -2.046,-7.866c-0.644,-2.431 -1.314,-4.796 -2.03,-7.182c-0.365,-1.319 -0.762,-2.656 -1.192,-4.011c-0.463,-1.692 -1.016,-3.349 -1.595,-5.026c-0.719,-2.35 -1.537,-4.676 -2.36,-6.972Z" style="fill:#14b8a6;fill-rule:nonzero;"/></g></g></g></g></svg>